<svg id="Layer_1" enable-background="new 0 0 512 512" viewBox="0 0 512 512" xmlns="http://www.w3.org/2000/svg"><path d="m501.133 334.814c-3.532-10.427-11.968-18-23.754-21.322-12.684-3.578-29.175-2.436-49.022 3.386l-90.331 26.5c-4.626-9.449-13.153-16.932-24.091-19.863l-64.188-17.199c-46.843-32.825-71.945-23.396-108.858-5.343-17.716 8.662-35.241 17.002-51.792 24.824l-3.478-8.353c-4.615-11.086-17.391-16.357-28.482-11.752l-34.671 14.397c-5.459 2.266-9.536 6.352-11.793 11.818-2.254 5.465-2.244 11.237.028 16.693l58.712 140.982c3.483 8.365 11.611 13.418 20.155 13.418 2.78 0 5.605-.535 8.328-1.666l34.672-14.397c5.459-2.267 9.537-6.354 11.79-11.817 2.255-5.463 2.245-11.235-.027-16.694l-3.933-9.443 22.598-10.988c8.255-4.012 16.552-4.72 25.366-2.16l72.118 20.939c5.311 1.542 10.797 2.201 16.365 2.201 19.17-.001 39.271-7.823 56.168-14.399 1.487-.579 2.947-1.146 4.374-1.696l135.351-52.157c21.911-8.445 35.446-35.093 28.395-55.909zm-369.718 134.967c-.84 2.038-2.18 3.381-4.217 4.227l-34.672 14.397c-3.97 1.646-8.539-.238-10.19-4.204l-58.712-140.983c-.848-2.035-.851-3.933-.01-5.972.842-2.039 2.182-3.382 4.219-4.228l34.672-14.397c.975-.405 1.984-.597 2.979-.597 3.057 0 5.964 1.809 7.21 4.801l58.712 140.981c.848 2.038.851 3.936.009 5.975zm336.289-92.123-135.351 52.157c-1.441.556-2.915 1.13-4.417 1.714-19.835 7.72-44.521 17.326-63.552 11.8l-72.118-20.939c-12.125-3.521-24.035-2.507-35.392 3.016l-21.867 10.633-40.522-97.303c16.772-7.925 34.553-16.384 52.554-25.186 34.502-16.871 54.425-24.312 95.645 4.916.677.48 1.435.837 2.237 1.052l65.391 17.521c12.616 3.381 20.131 16.396 16.75 29.013-1.629 6.079-5.555 11.176-11.056 14.352-5.502 3.176-11.882 4.024-17.957 2.398l-86.902-23.286c-3.731-.999-7.573 1.215-8.573 4.95-1 3.734 1.216 7.572 4.95 8.573l86.902 23.286c9.689 2.597 19.841 1.248 28.58-3.798 8.739-5.045 14.982-13.161 17.579-22.853 1.149-4.289 1.507-8.606 1.163-12.798l90.55-26.564c29.92-8.778 50.694-5.413 55.574 8.994 4.625 13.651-5.366 32.648-20.168 38.352zm-419.103-262.407c4.39 0 8.017 2.429 9.702 6.496 1.685 4.068.837 8.351-2.266 11.453-2.305 2.304-3.574 5.368-3.574 8.627s1.269 6.322 3.572 8.627l11.191 11.191c2.305 2.304 5.368 3.572 8.627 3.572s6.323-1.27 8.626-3.572c3.109-3.111 7.393-3.964 11.459-2.279 4.064 1.684 6.491 5.315 6.491 9.714 0 6.727 5.472 12.198 12.198 12.198h15.827c6.727 0 12.199-5.472 12.199-12.198 0-4.391 2.429-8.017 6.496-9.702s8.35-.838 11.453 2.268c4.757 4.754 12.495 4.758 17.252 0l11.194-11.193c4.754-4.757 4.754-12.495-.002-17.251-3.104-3.104-3.951-7.386-2.267-11.453 1.685-4.068 5.312-6.497 9.702-6.497 6.727 0 12.198-5.473 12.198-12.199v-15.827c0-6.727-5.472-12.199-12.198-12.199-4.391 0-8.018-2.429-9.702-6.497-1.685-4.067-.838-8.35 2.268-11.453 4.755-4.756 4.755-12.494 0-17.252l-11.192-11.192c-4.756-4.755-12.493-4.756-17.253 0-3.103 3.104-7.384 3.951-11.453 2.268-4.067-1.686-6.496-5.312-6.496-9.702 0-6.727-5.473-12.198-12.199-12.198h-15.827c-6.727 0-12.198 5.472-12.198 12.198 0 4.39-2.429 8.017-6.496 9.702-4.067 1.682-8.351.837-11.453-2.266-2.304-2.305-5.368-3.574-8.627-3.574s-6.322 1.269-8.627 3.573l-11.19 11.191c-2.304 2.305-3.572 5.368-3.572 8.626 0 3.26 1.27 6.323 3.572 8.626 3.104 3.104 3.952 7.386 2.268 11.454-1.686 4.067-5.312 6.496-9.702 6.496-6.727 0-12.199 5.473-12.199 12.199v15.826c-.001 6.727 5.471 12.199 12.198 12.199zm1.801-26.287c9.317-.646 17.199-6.299 20.835-15.076s2.06-18.347-4.071-25.394l8.732-8.732c7.045 6.131 16.618 7.707 25.394 4.071 8.777-3.636 14.43-11.517 15.076-20.834h12.35c.646 9.317 6.299 17.198 15.076 20.834 8.779 3.639 18.349 2.06 25.393-4.071l8.733 8.732c-6.131 7.045-7.708 16.615-4.072 25.393s11.518 14.431 20.835 15.077v12.35c-9.317.646-17.199 6.299-20.835 15.077-3.636 8.777-2.059 18.348 4.072 25.393l-8.732 8.732c-7.046-6.131-16.617-7.709-25.394-4.071-8.777 3.636-14.43 11.517-15.076 20.834h-12.35c-.646-9.325-6.297-17.212-15.071-20.847-8.776-3.637-18.347-2.052-25.399 4.084l-8.731-8.732c6.131-7.045 7.707-16.616 4.071-25.394s-11.518-14.43-20.835-15.076v-12.35zm72.14 56.896c27.967 0 50.72-22.753 50.72-50.721s-22.753-50.721-50.72-50.721c-27.968 0-50.721 22.753-50.721 50.721s22.754 50.721 50.721 50.721zm0-87.442c20.247 0 36.72 16.473 36.72 36.721s-16.473 36.721-36.72 36.721c-20.248 0-36.721-16.473-36.721-36.721s16.473-36.721 36.721-36.721zm-101.011 178.775 23.298 19.202-7.562 29.229c-.721 2.784.335 5.726 2.662 7.416 2.327 1.689 5.45 1.784 7.876.24l25.462-16.224 25.461 16.224c1.15.732 2.457 1.097 3.762 1.097 1.446 0 2.891-.448 4.114-1.337 2.327-1.69 3.383-4.632 2.663-7.416l-7.562-29.229 23.299-19.203c2.22-1.829 3.094-4.829 2.205-7.564s-3.36-4.648-6.23-4.824l-30.136-1.84-11.063-28.09c-1.054-2.677-3.637-4.436-6.513-4.436s-5.459 1.759-6.513 4.435l-11.063 28.092-30.135 1.84c-2.87.176-5.342 2.089-6.23 4.824s-.015 5.735 2.205 7.564zm39.466-.526c2.716-.166 5.09-1.891 6.086-4.422l6.185-15.703 6.183 15.702c.997 2.532 3.371 4.257 6.087 4.423l16.846 1.028-13.023 10.734c-2.1 1.73-3.006 4.521-2.325 7.154l4.228 16.339-14.232-9.069c-1.147-.731-2.454-1.097-3.762-1.097-1.307 0-2.614.365-3.762 1.097l-14.232 9.068 4.227-16.338c.682-2.634-.225-5.424-2.324-7.154l-13.023-10.734zm153.425-66.615c-7.652 0-13.878 6.226-13.878 13.878v20.94c0 7.653 6.226 13.879 13.878 13.879 7.953 0 12.925 5.161 14.926 9.991s2.135 11.995-3.489 17.619c-5.41 5.41-5.41 14.215 0 19.628l14.808 14.808c2.621 2.62 6.106 4.064 9.814 4.064 3.707 0 7.192-1.444 9.813-4.064 5.633-5.634 12.798-5.506 17.626-3.506 4.826 1.999 9.984 6.975 9.984 14.942 0 7.652 6.226 13.878 13.878 13.878h20.941c7.652 0 13.878-6.226 13.878-13.878 0-7.953 5.161-12.925 9.991-14.926 4.827-2 11.995-2.135 17.619 3.489 5.412 5.41 14.216 5.41 19.628 0l14.808-14.809c5.41-5.412 5.41-14.217 0-19.626-5.624-5.625-5.49-12.79-3.489-17.62s6.973-9.991 14.926-9.991c7.652 0 13.878-6.226 13.878-13.879v-20.94c0-7.652-6.226-13.878-13.878-13.878-7.953 0-12.925-5.161-14.926-9.991s-2.135-11.995 3.489-17.619c5.41-5.41 5.41-14.215 0-19.627l-14.809-14.81c-5.412-5.41-14.217-5.41-19.627 0-5.623 5.625-12.789 5.49-17.619 3.49-4.83-2.001-9.991-6.973-9.991-14.926 0-7.652-6.226-13.878-13.878-13.878h-20.941c-7.652 0-13.878 6.226-13.878 13.878 0 7.953-5.161 12.925-9.991 14.926-4.828 2.003-11.995 2.136-17.619-3.49-2.621-2.62-6.106-4.063-9.813-4.063-3.708 0-7.193 1.443-9.814 4.064l-14.808 14.809c-5.41 5.412-5.41 14.217 0 19.626 5.624 5.625 5.49 12.79 3.489 17.62s-6.973 9.992-14.926 9.992zm21.422-37.424 14.637-14.638c8.781 8.717 21.333 11.186 32.791 6.438 11.455-4.744 18.586-15.365 18.633-27.737h20.697c.047 12.371 7.178 22.993 18.633 27.737 11.458 4.746 24.009 2.277 32.791-6.438l14.637 14.638c-8.716 8.781-11.184 21.334-6.438 32.791 4.746 11.455 15.367 18.586 27.738 18.633v20.697c-12.371.047-22.992 7.178-27.738 18.633-4.745 11.456-2.276 24.01 6.438 32.791l-14.637 14.637c-8.78-8.716-21.333-11.184-32.791-6.438-11.455 4.746-18.586 15.367-18.633 27.738h-20.697c-.047-12.384-7.176-23.012-18.627-27.755-11.453-4.744-24.008-2.27-32.797 6.455l-14.637-14.637c8.716-8.781 11.184-21.334 6.438-32.791-4.746-11.455-15.367-18.586-27.738-18.633v-20.697c12.371-.047 22.992-7.178 27.738-18.633 4.746-11.456 2.277-24.009-6.438-32.791zm76.409 126.619c35.756 0 64.846-29.09 64.846-64.846s-29.09-64.846-64.846-64.846-64.846 29.09-64.846 64.846 29.09 64.846 64.846 64.846zm0-115.692c28.036 0 50.846 22.81 50.846 50.846s-22.81 50.846-50.846 50.846-50.846-22.81-50.846-50.846 22.81-50.846 50.846-50.846zm84.709-87.801 23.298 19.202-7.562 29.229c-.721 2.784.335 5.726 2.662 7.416 1.224.889 2.668 1.337 4.114 1.337 1.305 0 2.612-.364 3.762-1.097l25.461-16.224 25.462 16.224c2.425 1.544 5.548 1.45 7.876-.24 2.327-1.69 3.383-4.632 2.662-7.416l-7.562-29.229 23.298-19.202c2.22-1.829 3.094-4.829 2.205-7.564s-3.36-4.648-6.23-4.824l-30.135-1.84-11.063-28.092c-1.053-2.676-3.636-4.434-6.512-4.434s-5.459 1.759-6.514 4.436l-11.062 28.091-30.135 1.84c-2.87.176-5.342 2.089-6.23 4.824s-.014 5.734 2.205 7.563zm39.466-.526c2.716-.166 5.09-1.891 6.086-4.423l6.184-15.702 6.185 15.703c.996 2.531 3.37 4.256 6.086 4.422l16.845 1.028-13.023 10.734c-2.1 1.73-3.006 4.521-2.324 7.154l4.227 16.339-14.232-9.069c-1.147-.731-2.454-1.097-3.762-1.097s-2.614.365-3.762 1.097l-14.231 9.068 4.227-16.338c.682-2.634-.225-5.424-2.324-7.154l-13.023-10.734z"/></svg>