<svg height="512" viewBox="0 0 64 64" width="512" xmlns="http://www.w3.org/2000/svg"><g id="Protect_cloud_server_hand_safety"><path d="m61.52 35.99a3.99 3.99 0 0 0 -5.4-1.47l-18.14 9.69c0-.07.02-.14.02-.21a5 5 0 0 0 -5-5h-20a1 1 0 0 0 -.45.11l-2.61 1.3a3 3 0 0 0 -2.94-2.41h-2a3.009 3.009 0 0 0 -3 3v18a3.009 3.009 0 0 0 3 3h2a2.989 2.989 0 0 0 2.97-2.72l2.79.69a.986.986 0 0 0 .24.03h13.74a5.074 5.074 0 0 0 2.51-.67l30.82-17.89a4 4 0 0 0 1.45-5.45zm-53.52 23.01a1 1 0 0 1 -1 1h-2a1 1 0 0 1 -1-1v-18a1 1 0 0 1 1-1h2a1 1 0 0 1 1 1zm51.07-19.29-30.82 17.88a3.005 3.005 0 0 1 -1.51.41h-13.62l-3.12-.77v-14.61l3.24-1.62h19.76a3 3 0 0 1 0 6h-20v2h20a4.972 4.972 0 0 0 3.95-1.97l20.14-10.76a1.985 1.985 0 0 1 1.98 3.44z"/><path d="m50.29 12.51a9.008 9.008 0 0 0 -8.29-5.51 8.893 8.893 0 0 0 -3.31.63 12.979 12.979 0 0 0 -23.36 4.5 11 11 0 0 0 1.67 21.87h4v3a1 1 0 0 0 1 1h20a1 1 0 0 0 1-1v-3h4a11 11 0 0 0 3.29-21.49zm-9.29 23.49h-18v-6h18zm-18-12v-6h18v6zm16 2v2h-14v-2zm8 6h-4v-3a1 1 0 0 0 -1-1h-1v-2h1a1 1 0 0 0 1-1v-8a1 1 0 0 0 -1-1h-20a1 1 0 0 0 -1 1v8a1 1 0 0 0 1 1h1v2h-1a1 1 0 0 0 -1 1v3h-4a9 9 0 0 1 -.74-17.96 1 1 0 0 0 .9-.84 10.982 10.982 0 0 1 20.3-3.79 1 1 0 0 0 1.32.38 6.846 6.846 0 0 1 3.22-.79 7 7 0 0 1 6.59 4.67.993.993 0 0 0 .69.63 9 9 0 0 1 -2.28 17.7z"/><path d="m25 20h2v2h-2z"/><path d="m31 20h2v2h-2z"/><path d="m37 20h2v2h-2z"/><path d="m25 32h2v2h-2z"/><path d="m31 32h2v2h-2z"/><path d="m37 32h2v2h-2z"/><path d="m54 23a6.994 6.994 0 0 0 -5.224-6.761l-.506 1.936a4.994 4.994 0 0 1 -1.27 9.825v2a7.008 7.008 0 0 0 7-7z"/><path d="m17 30v-2a5 5 0 0 1 -.418-9.974l-.163-1.994a7 7 0 0 0 .581 13.968z"/></g></svg>