<svg id="Layer_1" height="300" viewBox="0 0 512 512" width="300" xmlns="http://www.w3.org/2000/svg" xmlns:xlink="http://www.w3.org/1999/xlink" data-name="Layer 1" version="1.1" xmlns:svgjs="http://svgjs.dev/svgjs"><g width="100%" height="100%" transform="matrix(1,0,0,1,0,0)"><linearGradient id="GradientFill_1" gradientUnits="userSpaceOnUse" x1="255.962" x2="255.963" y1="511.996" y2="-.003"><stop offset="0" stop-color="#6c54a3"/><stop offset="1" stop-color="#00b1d2"/></linearGradient><path d="m292.092 224.607a36.13 36.13 0 1 0 -36.126 36.126 36.172 36.172 0 0 0 36.126-36.126zm16 0a52.132 52.132 0 1 1 -52.128-52.129 52.193 52.193 0 0 1 52.128 52.129zm7.989 63.393-60.115 78.325-60.123-78.325c-31.461-41.013-31.754-91.341-.679-122.4a86.278 86.278 0 0 1 121.61 0c31.061 31.061 30.768 81.389-.693 122.4zm12.694 9.737-66.459 86.6a8.01 8.01 0 0 1 -12.7 0l-66.459-86.6c-36.5-47.564-36.212-106.55.685-143.448a102.284 102.284 0 0 1 144.242-.014c36.9 36.912 37.19 95.9.692 143.462zm-190.361-170.608-38.5-38.491h14.016a8 8 0 1 0 0-16h-33.324a8 8 0 0 0 -8 8v33.332a8 8 0 0 0 16 0v-14.023l38.484 38.5a8.007 8.007 0 1 0 11.323-11.323zm-112.544 158.1a8.007 8.007 0 0 0 11.323-11.323l-9.923-9.906h54.443a8 8 0 1 0 0-16h-54.443l9.923-9.909a8.007 8.007 0 1 0 -11.323-11.327l-23.57 23.575a8.007 8.007 0 0 0 0 11.316zm112.544 88.319a8.015 8.015 0 0 0 -11.323 0l-38.484 38.5v-14.025a8 8 0 0 0 -16 0v33.333a8 8 0 0 0 8 8h33.326a8 8 0 1 0 0-16h-14.017l38.5-38.484a8.015 8.015 0 0 0 0-11.323zm117.552 48.7a8 8 0 0 0 -8 8v54.436l-9.909-9.916a8 8 0 0 0 -11.323 11.316l23.566 23.576a8.029 8.029 0 0 0 11.323 0l23.567-23.575a8 8 0 0 0 -11.316-11.316l-9.908 9.916v-54.436a8 8 0 0 0 -8-8zm134.025 9.108a8 8 0 0 0 8 8h33.333a8 8 0 0 0 7.994-8v-33.333a8 8 0 0 0 -16 0v14.023l-38.491-38.5a8.007 8.007 0 0 0 -11.323 11.323l38.5 38.484h-14.012a8.006 8.006 0 0 0 -8 8zm96.063-204.592a8.007 8.007 0 0 0 -11.323 11.323l9.923 9.913h-54.443a8 8 0 0 0 0 16h54.443l-9.923 9.908a8.007 8.007 0 0 0 11.323 11.323l23.568-23.574a8.009 8.009 0 0 0 0-11.316l-23.568-23.575zm-54.729-104.8a7.994 7.994 0 0 0 7.994-7.994v-33.333a8 8 0 0 0 -7.994-8h-33.333a8 8 0 0 0 0 16h14.023l-38.5 38.491a8.007 8.007 0 0 0 11.323 11.323l38.491-38.5v14.019a8 8 0 0 0 8 7.994zm-183.36-40.22v-54.436l-9.909 9.916a8 8 0 1 1 -11.323-11.316l23.567-23.574a8.028 8.028 0 0 1 11.323 0l23.567 23.574a8 8 0 0 1 -11.316 11.316l-9.908-9.916v54.436a8 8 0 1 1 -16 0z" fill="#36a0d0" fill-rule="evenodd" data-original-color="GradientFill_1" stroke="none" stroke-opacity="1" fill-opacity="1"/></g></svg>