<svg clip-rule="evenodd" fill-rule="evenodd" height="1.707in" image-rendering="optimizeQuality" shape-rendering="geometricPrecision" text-rendering="geometricPrecision" viewBox="0 0 1707 1707" width="1.707in" xmlns="http://www.w3.org/2000/svg"><g id="Layer_x0020_1"><path d="m597 337h-151c-8 1-16-2-21-7v-1h-1c-4-5-7-11-7-18v-154c0-14 12-26 26-26 15 0 27 12 27 26v93c124-103 280-159 447-159 187 0 363 72 495 204s205 308 205 496c0 187-73 363-205 495-65 66-142 117-225 151h428l-64-64c-10-10-10-27 0-37 10-11 27-11 38 0l106 106c7 5 12 13 12 22 0 4-1 7-3 10-1 4-3 7-5 9l-110 110c-5 5-12 8-19 8s-14-3-19-8c-10-10-10-27 0-38l65-64h-699-611v99c0 14-12 26-27 26h-252c-15 0-27-12-27-26v-253c0-14 12-26 27-26h252c15 0 27 12 27 26v100h611c356 0 646-290 646-646 0-357-290-647-646-647-150 0-291 49-404 140h84c14 0 26 12 26 26 0 15-12 27-26 27zm-544 1226h199v-199h-199zm864-539c-129 0-234-105-234-233 0-129 105-234 234-234 128 0 233 105 233 234 0 128-105 233-233 233zm0-414c-100 0-180 81-180 181 0 99 80 180 180 180 99 0 180-81 180-180 0-100-81-181-180-181zm86 694h-173c-31 0-60-29-60-60v-109c-30-13-57-30-79-46l-94 55c-1 0-3 1-4 1-32 13-64 2-77-26l-85-147c-8-12-11-26-8-40 3-17 14-32 30-41l93-54c-3-16-3-32-3-47 0-14 0-30 3-47l-93-53c-16-10-27-25-30-42-3-14 0-28 8-39l85-147c13-28 45-39 77-26 2 0 3 1 4 2l94 56c22-16 47-32 79-47v-110c0-30 27-56 60-56l173-1c32 0 57 26 57 57v109c29 14 56 30 82 49l94-58c1 0 1 0 2-1 24-12 60-6 78 24l87 150c0 1 1 1 1 2 12 24 6 60-24 78l-94 54c2 15 4 30 4 46s-2 31-4 46l94 54c30 18 36 54 24 78-1 1-1 1-1 2l-87 150c-18 30-54 36-78 23h-1l-96-55c-25 17-51 34-81 47v109c0 33-26 60-57 60zm-310-273c6 0 12 2 17 5 23 18 58 43 96 56 10 4 17 14 17 25v127c1 2 5 6 7 6h173c1 0 4-3 4-6v-127c0-11 7-21 18-25 36-12 67-34 100-57 8-6 19-6 28-1l109 62c2 1 6 1 8-3l86-149c1-1 1-5-3-8l-110-63c-9-6-14-17-13-27 4-20 7-38 7-56s-3-36-7-56c-1-11 4-22 13-27l110-63c4-3 4-7 3-8l-86-149c-2-4-6-4-8-3l-108 65c-10 6-22 5-31-2-32-25-63-44-100-59-10-4-16-14-16-25v-127c0-2-2-3-4-3h-173c-3 0-6 3-7 4v127c0 10-6 20-15 24-43 20-73 38-97 59-9 8-22 9-32 3l-107-65c-4-1-6-1-8-1 0 1-1 2-1 3l-87 150c0 1 0 1-1 2 1 1 2 4 5 5l110 64c11 6 16 19 12 32-6 16-6 33-6 51s0 36 6 52c4 12-1 25-12 31l-110 64c-3 2-4 4-5 5 1 1 1 1 1 2l87 150c1 1 1 2 1 3 1 0 4 0 8-1l108-62c4-3 9-4 13-4z"/></g></svg>