<svg id="Layer_1" data-name="Layer 1" xmlns="http://www.w3.org/2000/svg" xmlns:xlink="http://www.w3.org/1999/xlink" viewBox="0 0 673.91 520.75"><defs><style>.cls-1{fill:none;}.cls-2{clip-path:url(#clip-path);}.cls-3{fill:#3698d4;}.cls-4{clip-path:url(#clip-path-2);}.cls-5{fill:url(#linear-gradient);}.cls-6{clip-path:url(#clip-path-4);}.cls-7{fill:url(#linear-gradient-2);}</style><clipPath id="clip-path"><rect class="cls-1" x="-116.66" y="-254.16" width="1920" height="1080"/></clipPath><clipPath id="clip-path-2"><path class="cls-1" d="M366.83,273.42a.1.1,0,0,0-.07.08h-.63a.36.36,0,0,1,.09-.08h.61M479.92,85.28H627.17l-110.7,183-74.78-120Zm-1.15-3.41a2.08,2.08,0,0,0-1.68.88l-37.6,61.94,2.2,3.55-2.12,3.53,73.67,118.28H367.75l71.82-118.28-2.22-3.53-72.87,120L326.86,207l-2.14,3.56,38.06,61.93.08.08s0,0,.06.1,0,.07.07.1.06.11.1.13h1.74a1.62,1.62,0,0,0-.31,0,.77.77,0,0,0-.29.1l-.17.06,0,0-.07,0-.27.18a1,1,0,0,0,.34.12h-.53a2.62,2.62,0,0,0-.31.34l-38.69,60.69,1.59,2.61,2.22,3.61.32.57,2.24,3.55L404,463.26l.73,1.2a1.61,1.61,0,0,0,.5-.54l37.1-62.29,37.52,61.87.08.12a.76.76,0,0,0,.25.34,2,2,0,0,0,1.36.53H631.26a1.85,1.85,0,0,0,1.3-.51,1.62,1.62,0,0,0,.32-.32s0,0,0,0a1.59,1.59,0,0,0,.21-.84,1.46,1.46,0,0,0-.23-.82l-1.66-2.72-73.65-120-2.16-3.51-38-62c-.11-.14,114.64-189.32,114.64-189.32a2.1,2.1,0,0,0,.21-.87,1.57,1.57,0,0,0-.25-.86,2,2,0,0,0-1.64-.84Z"/></clipPath><linearGradient id="linear-gradient" x1="-116.66" y1="825.64" x2="-115.66" y2="825.64" gradientTransform="matrix(-143.2, 0, 0, 143.2, -16242.63, -117961.09)" gradientUnits="userSpaceOnUse"><stop offset="0" stop-color="#3698d4"/><stop offset="0.35" stop-color="#3496d2"/><stop offset="0.54" stop-color="#2f8fca"/><stop offset="0.69" stop-color="#2782bc"/><stop offset="0.82" stop-color="#1a71a8"/><stop offset="0.94" stop-color="#0a5a8f"/><stop offset="1" stop-color="#004b7f"/></linearGradient><clipPath id="clip-path-4"><polygon class="cls-1" points="404.63 464.31 404.73 464.48 404.96 464.26 404.63 464.31"/></clipPath><linearGradient id="linear-gradient-2" x1="-116.66" y1="825.84" x2="-115.66" y2="825.84" gradientTransform="matrix(0.33, 0, 0, -0.33, 443.38, 738.69)" xlink:href="#linear-gradient"/></defs><g class="cls-2"><path class="cls-3" d="M366.22,273.42a.36.36,0,0,0-.09.08h.63a.11.11,0,0,1,.06-.08,3,3,0,0,1-.6,0"/><path class="cls-3" d="M364.84,272.91a1.87,1.87,0,0,0-1.17.39,2.19,2.19,0,0,1-.53-.34l0,0Z"/></g><g class="cls-4"><rect class="cls-5" x="264.4" y="38.2" width="428.8" height="469.96" transform="translate(-67.26 197.71) rotate(-21.84)"/></g><g class="cls-2"><path class="cls-3" d="M366.83,273.42s-.06.05-.08.07h-.61s0-.06.08-.07h.61"/><path class="cls-3" d="M404.73,464.48a1.65,1.65,0,0,1-1,.35l-.94-1.56-72-118.48-2.23-3.56-.32-.56L326,337.06l-1.56-2.61,1.61,2.61,2.22,3.61.32.56,2.25,3.56L404,463.27Z"/><path class="cls-3" d="M366.22,273.42a.24.24,0,0,0-.09.08h.63a.11.11,0,0,1,.06-.08,3,3,0,0,1-.6,0m-3.13-.5,0,0a0,0,0,0,1,0,0,1.7,1.7,0,0,0,.55.34,1.2,1.2,0,0,1,.27-.16l.06,0,.05,0,.16-.06a1.57,1.57,0,0,1,.61-.1Zm-116,190.72v0l-.06-.1.06.16h0v0Z"/><path class="cls-3" d="M400.92,82.75a1.87,1.87,0,0,0-1.63-.88H248.78a1.93,1.93,0,0,0-1.63.84s-.05,0-.05,0a1.65,1.65,0,0,0,0,1.69l1.68,2.71,1.13-1.87H396.08L324.69,203.45,322.53,207l2.19,3.56,2.14-3.56L399.31,87.11l1.61-2.67a1.55,1.55,0,0,0,0-1.69"/><path class="cls-3" d="M366.22,273.42a.24.24,0,0,0-.09.08h.63a.11.11,0,0,1,.06-.08,3,3,0,0,1-.6,0m-3.13-.5,0,0a0,0,0,0,1,0,0,1.7,1.7,0,0,0,.55.34,1.2,1.2,0,0,1,.27-.16l.06,0,.05,0,.16-.06a1.57,1.57,0,0,1,.61-.1Zm76.4-128.23L400.92,82.75a1.87,1.87,0,0,0-1.63-.88H248.78a1.93,1.93,0,0,0-1.63.84s-.05,0-.05,0a1.65,1.65,0,0,0,0,1.69l1.68,2.71L322.53,207l2.19,3.56,2.13-3.56-2.16-3.55L252,85.28H398.15l1.16,1.83,38,61.11,0,0,2.22,3.53,2.12-3.53Z"/><path class="cls-3" d="M362.86,272.57l-.08-.08a.42.42,0,0,1,.08.12s0,0,.06.06l-.06-.1m3.36.85a.24.24,0,0,0-.09.08h.63a.11.11,0,0,1,.06-.08,3,3,0,0,1-.6,0m-3.11-.52v0a0,0,0,0,1,0,0,1.7,1.7,0,0,0,.55.34,1.2,1.2,0,0,1,.27-.16v0l.06,0,.05,0s0,0,.06,0a.18.18,0,0,1,.1,0,.88.88,0,0,1,.3-.1,1.62,1.62,0,0,1,.31,0Zm76.38-128.21-2.14,3.53v0l2.22,3.53,2.12-3.53Z"/><path class="cls-3" d="M404.74,464.49l-.76-1.23-73.1-118.47-2.26-3.55-.32-.57-2.22-3.61-1.62-2.61L287,273.84l0,0a1.23,1.23,0,0,0-.35-.42,2.1,2.1,0,0,0,.41-.44l37.65-62.38L322.54,207l-38.3,63.39H137L248.78,87.15l-1.68-2.71a1.65,1.65,0,0,1,0-1.69l-115,188.54c-.35.5-115.82,191-115.82,191a1.55,1.55,0,0,0,0,1.68,1.93,1.93,0,0,0,1.62.87H169.6a1.93,1.93,0,0,0,1.65-.93l37.29-61.71.38-.6L247,463.5a0,0,0,0,0,0,0l.06.1v0h0v0s0,0,0,0h0l0,0a.07.07,0,0,0,.07.06h0a.46.46,0,0,0,.17.2,2,2,0,0,0,1.38.53H252c.3.24,138.66.36,151.72.36l-.94-1.59,1,1.57a1.8,1.8,0,0,0,1-.34M206.38,398.63l-37.94,62.78H21.19L133,278.22l0,0,73.76,119.89Z"/><polygon class="cls-3" points="247.08 463.64 247.08 463.66 247.06 463.64 247.08 463.64"/><polygon class="cls-3" points="206.74 398.07 206.38 398.63 133.03 278.3 132.96 278.22 132.98 278.18 206.74 398.07"/><path class="cls-3" d="M366.22,273.42a.24.24,0,0,0-.09.08h.63a.11.11,0,0,1,.06-.08,3,3,0,0,1-.6,0m-3.13-.5,0,0a0,0,0,0,1,0,0,1.7,1.7,0,0,0,.55.34,1.2,1.2,0,0,1,.27-.16l.06,0,.05,0,.16-.06a1.57,1.57,0,0,1,.61-.1Zm-116,190.72v0l-.06-.1.06.16h0v0Z"/><path class="cls-3" d="M400.92,82.75a1.87,1.87,0,0,0-1.63-.88H248.78a1.93,1.93,0,0,0-1.63.84s-.05,0-.05,0a1.65,1.65,0,0,0,0,1.69l1.68,2.71,1.13-1.87H396.08L324.69,203.45,322.53,207l2.19,3.56,2.14-3.56L399.31,87.11l1.61-2.67a1.55,1.55,0,0,0,0-1.69"/><path class="cls-3" d="M366.22,273.42a.24.24,0,0,0-.09.08h.63a.11.11,0,0,1,.06-.08,3,3,0,0,1-.6,0m-3.13-.5,0,0a0,0,0,0,1,0,0,1.7,1.7,0,0,0,.55.34,1.2,1.2,0,0,1,.27-.16l.06,0,.05,0,.16-.06a1.57,1.57,0,0,1,.61-.1Zm76.4-128.23L400.92,82.75a1.87,1.87,0,0,0-1.63-.88H248.78a1.93,1.93,0,0,0-1.63.84s-.05,0-.05,0a1.65,1.65,0,0,0,0,1.69l1.68,2.71L322.53,207l2.19,3.56,2.13-3.56-2.16-3.55L252,85.28H398.15l1.16,1.83,38,61.11,0,0,2.22,3.53,2.12-3.53Z"/><path class="cls-3" d="M362.86,272.57l-.08-.08a.42.42,0,0,1,.08.12s0,0,.06.06l-.06-.1m3.36.85a.24.24,0,0,0-.09.08h.63a.11.11,0,0,1,.06-.08,3,3,0,0,1-.6,0m-3.11-.52v0a0,0,0,0,1,0,0,1.7,1.7,0,0,0,.55.34,1.2,1.2,0,0,1,.27-.16v0l.06,0,.05,0s0,0,.06,0a.18.18,0,0,1,.1,0,.88.88,0,0,1,.3-.1,1.62,1.62,0,0,1,.31,0Zm76.38-128.21-2.14,3.53v0l2.22,3.53,2.12-3.53Z"/><path class="cls-3" d="M402.63,463.11l.79,1.74a2,2,0,0,0,1.31-.37l-1.67-1"/></g><g class="cls-6"><rect class="cls-7" x="404.63" y="464.26" width="0.33" height="0.22"/></g></svg>