<svg viewBox="0 0 419 87" fill="none" xmlns="http://www.w3.org/2000/svg" class="w-full hover:opacity-70 transition-opacity"><path d="M64.3308 14.8688C64.3308 11.0425 63.9089 8.51102 63.0069 7.25982C62.1049 6.00863 60.0972 4.90293 56.8528 3.95726C61.9505 3.51471 66.9299 2.17503 71.5615 0V55.198C71.5615 58.7624 71.9835 61.2211 72.7982 62.5451C74.1239 64.2278 75.9465 65.4496 78.0067 66.0368H57.9294C59.9872 65.4533 61.8062 64.2305 63.1233 62.5451C63.9526 61.2211 64.3745 58.7624 64.3308 55.198V14.8688Z" fill="#44446B"></path><path d="M98.5349 73.6893C98.5349 78.1994 98.9714 81.211 99.8298 82.6222C100.688 84.0334 102.74 85.2847 105.853 86.274H84.9173C86.9786 85.6818 88.7978 84.4486 90.1112 82.7532C90.9259 81.4147 91.3624 78.9268 91.3624 75.3624V36.7937C91.3624 31.8471 90.9259 28.7191 90.1112 27.337C89.2965 25.9548 87.2015 24.7182 83.8407 23.5979C88.8854 23.1544 93.837 21.968 98.5349 20.0771V73.6893ZM121.158 29.0974C119.736 27.4768 117.984 26.1789 116.019 25.2907C114.055 24.4024 111.923 23.9443 109.767 23.9471C107.271 23.9659 104.803 24.4597 102.492 25.402C106.585 21.8812 110.543 20.1208 114.364 20.1208C116.929 20.0717 119.476 20.5647 121.838 21.5675C124.199 22.5704 126.323 24.0604 128.069 25.9403C131.803 29.82 133.67 35.1545 133.67 41.9439C133.761 47.7502 131.78 53.3989 128.082 57.8759C124.383 62.3529 119.21 65.3649 113.491 66.3713C117.332 64.601 120.464 61.587 122.38 57.8166C124.849 53.2445 126.054 48.097 125.872 42.9041C125.911 37.1428 124.34 32.5406 121.158 29.0974Z" fill="#44446B"></path><path d="M146.182 15.3926C146.182 11.5226 145.746 8.94749 144.887 7.609C144.029 6.27052 141.977 5.07752 138.689 3.95726C143.771 3.42465 148.736 2.08894 153.398 0V54.9361C153.398 58.6751 153.835 61.2648 154.649 62.6324C155.94 64.3281 157.773 65.5298 159.843 66.0368H139.766C141.845 65.4424 143.674 64.1858 144.975 62.4578C145.789 61.0902 146.226 58.5878 146.182 54.9361V15.3926ZM175.41 35.1207C175.597 32.1879 174.625 29.299 172.704 27.0752C171.799 26.1281 170.7 25.3881 169.482 24.9059C168.264 24.4237 166.956 24.2108 165.648 24.2819C162.752 24.2885 159.871 24.7099 157.094 25.5331C161.866 21.8813 166.041 20.0773 169.693 20.0773C171.374 20.0253 173.048 20.323 174.608 20.9516C176.168 21.5802 177.581 22.526 178.757 23.729C181.172 26.1732 182.365 30.0141 182.365 35.368V52.9865C182.365 57.7585 182.714 60.9011 183.441 62.4141C184.169 63.9272 185.987 65.1639 188.781 66.1095H169.009C171.073 65.5165 172.884 64.2583 174.159 62.5305C174.974 61.1629 175.367 58.6606 175.41 55.0088V35.1207Z" fill="#44446B"></path><path d="M258.775 34.6116C258.775 30.8726 258.353 28.3702 257.451 27.119C256.549 25.8678 254.541 24.7184 251.297 23.5982C256.268 23.1949 261.144 22.0065 265.744 20.0774V55.1981C265.744 58.7625 266.18 61.2213 266.995 62.5452C268.312 64.2306 270.131 65.4534 272.189 66.0369H252.373C254.414 65.4499 256.216 64.2329 257.523 62.5597C258.338 61.2358 258.76 58.7771 258.717 55.2126L258.775 34.6116ZM258.775 11.7846C257.908 10.8788 257.419 9.67717 257.407 8.42384C257.407 7.15823 257.91 5.94445 258.805 5.04953C259.7 4.15461 260.914 3.65186 262.179 3.65186C263.445 3.65186 264.658 4.15461 265.553 5.04953C266.448 5.94445 266.951 7.15823 266.951 8.42384C266.96 9.04868 266.835 9.66818 266.584 10.2405C266.333 10.8127 265.962 11.3244 265.496 11.741C264.598 12.6474 263.382 13.1691 262.106 13.1958C261.476 13.2131 260.849 13.0962 260.267 12.8529C259.685 12.6097 259.162 12.2455 258.731 11.7846H258.775Z" fill="#44446B"></path><path d="M297.256 20.6738C294.004 22.8565 291.58 26.0694 290.375 29.7959C288.71 34.1289 287.848 38.7283 287.829 43.3699C287.803 48.0471 288.606 52.692 290.2 57.0894C291.333 60.8956 293.769 64.1817 297.082 66.3714C292.068 65.2372 287.628 62.3409 284.57 58.2096C281.295 53.9788 279.551 48.763 279.623 43.4135C279.547 38.1244 281.329 32.9762 284.657 28.8648C287.813 24.7924 292.253 21.906 297.256 20.6738ZM320.2 58.1951C317.092 62.2958 312.661 65.1949 307.659 66.4006C310.568 64.6402 312.896 61.5413 314.497 57.1184C317.802 48.3276 317.756 38.6273 314.366 29.8686C313.157 26.1197 310.717 22.8895 307.44 20.7029C312.423 21.8303 316.896 24.5654 320.171 28.4865C323.539 32.6173 325.306 37.8239 325.146 43.1517C325.294 48.5883 323.545 53.9069 320.2 58.1951Z" fill="#44446B"></path><path d="M339.579 23.5983H332.537C335.563 21.8552 338.413 19.8234 341.048 17.5315C343.237 15.4735 345.145 13.1351 346.722 10.5771V21.1541H358.841V23.5983H346.722V53.947C346.722 59.4028 349.166 62.1234 354.113 62.167C356.565 62.1422 358.99 61.6484 361.256 60.7121C359.943 62.6049 358.186 64.1473 356.14 65.2049C354.093 66.2624 351.819 66.8028 349.515 66.779C342.677 66.779 339.579 62.5598 339.579 52.6376V23.5983Z" fill="#44446B"></path><path d="M403.884 33.8696C403.884 26.1442 400.232 21.2413 393.482 20.4266C395.373 20.2083 396.74 20.0774 397.642 20.0774C401.139 19.8934 404.577 21.0307 407.274 23.2636C408.497 24.4206 409.452 25.8319 410.07 27.398C410.688 28.9641 410.956 30.6468 410.853 32.3275V55.7073C410.853 59.1117 411.58 61.2649 413.035 62.2106C413.969 62.816 415.004 63.2496 416.09 63.4909C417.043 63.751 418.017 63.9263 419 64.0146C417.617 64.7226 416.182 65.3257 414.708 65.8187C413.044 66.3843 411.301 66.6886 409.543 66.7207C406.314 66.7207 403.869 64.0146 403.869 59.3299L403.884 33.8696Z" fill="#44446B"></path><path d="M392.972 62.1671C390.702 62.2439 388.444 61.8076 386.366 60.8907C384.288 59.9738 382.443 58.5999 380.969 56.8713C377.914 53.3505 376.416 48.7095 376.416 42.9482C376.416 42.8318 376.416 42.73 376.416 42.6136C376.248 37.3561 377.629 32.1653 380.388 27.6866C381.982 25.2068 384.134 23.1343 386.673 21.6343C382.221 22.7856 378.207 25.2249 375.135 28.6468C371.097 33.2169 368.944 39.1502 369.112 45.2469C369.112 51.9248 370.931 57.2642 374.481 61.2505C376.115 63.1336 378.145 64.6319 380.427 65.638C382.708 66.6441 385.184 67.1331 387.676 67.07C389.833 67.0222 391.94 66.4102 393.787 65.2951C395.636 64.2156 397.245 62.77 398.515 61.0468C396.753 61.7604 394.873 62.1402 392.972 62.1671Z" fill="#44446B"></path><path d="M229.372 33.8694C229.372 26.144 225.72 21.2411 218.969 20.4264C220.861 20.2081 222.243 20.0772 223.145 20.0772C226.648 19.8964 230.091 21.0388 232.791 23.2779C234.009 24.438 234.959 25.8502 235.575 27.4158C236.19 28.9814 236.457 30.6626 236.355 32.3418V55.7216C236.355 59.126 237.083 61.2793 238.552 62.2249C239.486 62.8303 240.521 63.2639 241.607 63.5052C242.559 63.7671 243.533 63.9424 244.517 64.029C243.135 64.7396 241.7 65.3428 240.225 65.833C238.561 66.4009 236.818 66.7052 235.06 66.735C231.845 66.735 229.386 64.029 229.386 59.3443L229.372 33.8694Z" fill="#44446B"></path><path d="M218.46 62.1671C216.192 62.2459 213.935 61.8105 211.859 60.8933C209.783 59.9762 207.941 58.6012 206.472 56.8713C203.417 53.3505 201.894 48.7095 201.903 42.9482C201.896 42.8368 201.896 42.725 201.903 42.6136C201.735 37.3561 203.117 32.1653 205.875 27.6866C207.477 25.2076 209.634 23.1355 212.175 21.6343C207.719 22.7853 203.701 25.2245 200.623 28.6468C196.588 33.2183 194.441 39.1519 194.615 45.2469C194.615 51.9248 196.433 57.2642 199.968 61.2505C201.607 63.1324 203.64 64.6296 205.924 65.6355C208.207 66.6414 210.684 67.1312 213.179 67.07C215.331 67.0196 217.432 66.4078 219.275 65.2951C221.139 64.239 222.768 62.8132 224.061 61.105C222.277 61.8057 220.377 62.166 218.46 62.1671Z" fill="#44446B"></path><path d="M34.7822 33.8696C34.7822 26.1442 31.1305 21.2412 24.3799 20.4265C26.2712 20.2083 27.6388 20.0773 28.5408 20.0773C32.0369 19.8962 35.4738 21.0331 38.1721 23.2635C39.3904 24.4236 40.3406 25.8359 40.9563 27.4014C41.5719 28.967 41.8382 30.6482 41.7365 32.3274V55.7072C41.7365 59.1116 42.4785 61.2648 43.9334 62.2105C44.8674 62.8159 45.9021 63.2495 46.9886 63.4908C47.9409 63.752 48.9148 63.9273 49.8984 64.0146C48.4922 64.7276 47.033 65.3308 45.5338 65.8186C43.8743 66.3853 42.1367 66.6896 40.3835 66.7206C37.1537 66.7206 34.7095 64.0146 34.7095 59.3299L34.7822 33.8696Z" fill="#44446B"></path><path d="M23.8562 62.1671C21.5882 62.2438 19.3322 61.8074 17.2564 60.8904C15.1806 59.9734 13.3387 58.5996 11.868 56.8713C8.81279 53.3505 7.29003 48.7095 7.29972 42.9482C7.29972 42.8318 7.29972 42.73 7.29972 42.6136C7.13602 37.3546 8.52231 32.1637 11.2861 27.6866C12.8808 25.2068 15.0331 23.1343 17.5712 21.6343C13.1171 22.7807 9.10251 25.2209 6.03399 28.6468C1.98175 33.2205 -0.172508 39.1681 0.0108087 45.276C0.0108087 51.9539 1.82941 57.2933 5.3793 61.2796C7.01356 63.1627 9.0441 64.661 11.3254 65.6671C13.6068 66.6732 16.0825 67.1622 18.575 67.0991C20.7272 67.0508 22.8291 66.4387 24.6709 65.3242C26.5199 64.2572 28.1294 62.821 29.3993 61.105C27.6331 61.7986 25.7537 62.1587 23.8562 62.1671Z" fill="#44446B"></path></svg>