<svg id="Ñëîé_1" data-name="Ñëîé 1" xmlns="http://www.w3.org/2000/svg" xmlns:xlink="http://www.w3.org/1999/xlink" viewBox="0 0 379 190"><defs><style>.cls-1{fill:url(#linear-gradient);}.cls-2{fill:#1870c5;}.cls-3{fill:#fff;}</style><linearGradient id="linear-gradient" x1="-92.38" y1="20.56" x2="-92.03" y2="20.56" gradientTransform="matrix(0, 513.7, 513.7, 0, -10370.8, 47460.99)" gradientUnits="userSpaceOnUse"><stop offset="0" stop-color="#00b8f1"/><stop offset="0.22" stop-color="#06a5e5"/><stop offset="0.79" stop-color="#1870c5"/><stop offset="1" stop-color="#1d61bc"/></linearGradient></defs><path id="path3060" class="cls-1" d="M9,6.51v178.1H190.9L369,6.51H9Z"/><path id="path5384" class="cls-2" d="M239.4,166.41v13.3h2v-5.8h2.3l3.6,5.8h2.3l-3.9-5.8a3.62,3.62,0,0,0,3.5-3.8c0-2.6-1.6-3.8-4.8-3.8h-5Zm2,1.8h2.8c1.4,0,2.9.2,2.9,1.9,0,2.1-1.5,2.3-3.3,2.3h-2.4Zm2.5-6.7A11.6,11.6,0,1,0,255.4,173,11.31,11.31,0,0,0,243.9,161.51Zm0,1.9a9.35,9.35,0,0,1,9.3,9.6,9.23,9.23,0,0,1-9.3,9.6,9.39,9.39,0,0,1-9.5-9.6A9.52,9.52,0,0,1,243.9,163.41Z"/><path id="path3100" class="cls-3" d="M224.7,91.71h-7.8V63.21h7.8c10.4,0,18.7,3.4,18.7,14.1,0,11-8.3,14.4-18.7,14.4m-84,20.4a34.48,34.48,0,0,1-11.4-2l11.2-35.4h.2l11,35.5a31.28,31.28,0,0,1-11,1.9M222.6,40H187.2v84.3L156.2,40H125.5l-26.4,70.4c-2.8-17.8-21.2-23.9-35.6-28.5-9.5-3.1-19.7-7.6-19.6-12.6.1-4.1,5.4-7.9,16-7.3,7.1.4,13.4.9,25.9,7l12.3-21.4c-11.4-5.8-27.2-9.5-40.1-9.5h0c-15.1,0-27.6,4.9-35.4,13a30.43,30.43,0,0,0-8.5,20.7c-.2,10.9,3.8,18.6,12.2,24.7,7.1,5.2,16.1,8.5,24.1,11,9.8,3,17.9,5.7,17.8,11.3a8.06,8.06,0,0,1-2.3,5.5c-2.5,2.5-6.2,3.5-11.4,3.6-10,.2-17.5-1.4-29.3-8.4L14,141.31A82,82,0,0,0,54.1,152h1.8c12.4-.2,22.5-3.8,30.5-10.2l1.3-1.1-3.5,9.5h32.2l5.4-16.4a61.76,61.76,0,0,0,37.4.2l5.2,16.3h52.5v-34h11.5c27.7,0,44.1-14.1,44.1-37.7-.1-26.5-16-38.6-49.9-38.6"/></svg>