<svg id="Layer_1" data-name="Layer 1" xmlns="http://www.w3.org/2000/svg" viewBox="0 0 128 128"><defs><style>.cls-1{fill:#36a0d0;stroke:#36a0d0;stroke-miterlimit:10;stroke-width:0.5px;}</style></defs><path class="cls-1" d="M40.24,68.54H40a.51.51,0,0,1-.2-.37V32.62a.44.44,0,0,1,.24-.37L86.42,5.05a.43.43,0,0,1,.41,0,.52.52,0,0,1,.24.37V41.24a.48.48,0,0,1-.24.41L40.45,68.47Zm.41-35.65V67.35L86.21,41V6.31Z"/><path class="cls-1" d="M86.56,96.15h-.21L40,68.47a.39.39,0,0,1-.24-.37V32.62a.48.48,0,0,1,.2-.37.51.51,0,0,1,.45,0L86.76,59.51a.42.42,0,0,1,.2.41V95.7a.47.47,0,0,1-.2.41ZM40.65,67.82,86.11,95.09V60.16L40.65,33.4Z"/><path class="cls-1" d="M40.24,123H40a.51.51,0,0,1-.2-.37V86.84a.44.44,0,0,1,.24-.37L86.35,59.58a.43.43,0,0,1,.41,0A.46.46,0,0,1,87,60V95.7a.47.47,0,0,1-.2.41L40.45,122.93Zm.41-35.92v34.69L86.11,95.43V60.67Z"/><!-- SNS deploy smoke test --></svg>
