<svg id="Layer_1" data-name="Layer 1" xmlns="http://www.w3.org/2000/svg" xmlns:xlink="http://www.w3.org/1999/xlink" viewBox="0 0 53.04 42.62"><defs><style>.cls-1,.cls-2,.cls-3{stroke:#fff;stroke-miterlimit:10;}.cls-1{fill:url(#linear-gradient);}.cls-2{fill:url(#linear-gradient-2);}.cls-3{fill:url(#linear-gradient-3);}</style><linearGradient id="linear-gradient" x1="17.59" y1="30.69" x2="31.46" y2="30.69" gradientTransform="matrix(1, 0, 0, -1, 0, 44)" gradientUnits="userSpaceOnUse"><stop offset="0" stop-color="#309ad6"/><stop offset="1" stop-color="#66c4ad"/></linearGradient><linearGradient id="linear-gradient-2" x1="17.59" y1="22.65" x2="31.43" y2="22.65" xlink:href="#linear-gradient"/><linearGradient id="linear-gradient-3" x1="17.59" y1="14.7" x2="31.43" y2="14.7" xlink:href="#linear-gradient"/></defs><path class="cls-1" d="M17.72,22.63h-.07a.14.14,0,0,1-.06-.11V12.09a.12.12,0,0,1,.07-.11L31.27,4a.13.13,0,0,1,.12,0,.12.12,0,0,1,.07.11V14.62a.14.14,0,0,1-.07.12L17.78,22.61Zm.12-10.46V22.28l13.37-7.73V4.37Z"/><path class="cls-2" d="M31.31,30.73h-.06L17.66,22.61a.12.12,0,0,1-.07-.11V12.09a.14.14,0,0,1,.06-.11.15.15,0,0,1,.13,0l13.59,8a.14.14,0,0,1,.06.12V30.6a.14.14,0,0,1-.06.12ZM17.84,22.42l13.34,8V20.17L17.84,12.32Z"/><path class="cls-3" d="M17.72,38.61h-.07a.14.14,0,0,1-.06-.11V28a.12.12,0,0,1,.07-.11L31.25,20a.13.13,0,0,1,.12,0,.14.14,0,0,1,.06.12V30.6a.14.14,0,0,1-.06.12L17.78,38.59Zm.12-10.54V38.25l13.34-7.73V20.32Z"/></svg>