<svg id="Layer_1" data-name="Layer 1" xmlns="http://www.w3.org/2000/svg" viewBox="0 0 278.23 280.75"><defs><style>.cls-1{fill:#11034c;}.cls-2{fill:#662d91;}.cls-3{fill:#0070b9;}.cls-4{fill:#92278f;}.cls-5{fill:#44c8f5;}.cls-6{fill:#808285;}</style></defs><polygon class="cls-1" points="116.16 160.03 88.43 144.02 88.43 112.01 116.16 128.01 116.16 160.03"/><polygon class="cls-1" points="116.16 63.99 88.43 80 88.43 112.01 116.16 96 116.16 63.99"/><polygon class="cls-1" points="143.88 15.97 116.16 31.98 116.16 63.99 143.88 47.98 143.88 15.97"/><polygon class="cls-1" points="60.71 63.99 32.98 80 32.98 112.01 60.71 96 60.71 63.99"/><polygon class="cls-2" points="88.43 112.01 60.71 96 60.71 63.99 88.43 80 88.43 112.01"/><polygon class="cls-3" points="199.33 112.01 171.6 96 171.6 63.99 199.33 80 199.33 112.01"/><polygon class="cls-4" points="5.26 160.03 5.26 160.03 32.98 176.04 60.71 160.03 32.98 144.02 5.26 160.03"/><polygon class="cls-4" points="60.71 160.03 60.71 160.03 88.43 176.04 116.16 160.03 88.43 144.02 60.71 160.03"/><polygon class="cls-5" points="88.43 112.01 88.43 112.01 116.16 128.02 143.88 112.01 116.16 96 88.43 112.01"/><polygon class="cls-5" points="143.88 112.01 143.88 112.01 171.61 128.02 199.33 112.01 171.61 96 143.88 112.01"/><path class="cls-6" d="M153.47,223.58H135.6a3.59,3.59,0,0,1-3.58-3.5V197.76h18a3.58,3.58,0,0,1,3.49,3.59Zm-37.31-40.91c0,5.36,0,33.37,0,40.91H88.24a.92.92,0,0,0-.66.26l-8.27,14c-.25.46-.33.65-.19,1a.89.89,0,0,0,.84.56h95.46A13.82,13.82,0,0,0,186,234.09a13.78,13.78,0,0,0,10.56,5.32h68.29a.91.91,0,0,0,.92-.89V224.47a.93.93,0,0,0-.27-.63,1,1,0,0,0-.65-.26H228.59v-22.2a3.6,3.6,0,0,1,3.52-3.62H256.5a1,1,0,0,0,.66-.26l8.35-14.14c.25-.46.34-.66.2-1a.92.92,0,0,0-.86-.58H228c-8.32,0-15.33,6.6-15.33,14.39v27.4H198.88V153.92a.9.9,0,0,0-.56-.84c-.35-.14-.54-.05-1,.2l-14,8.27a1,1,0,0,0-.26.66v61.36H169.29V196c0-7.72-7-14.25-15.2-14.25h-37a.92.92,0,0,0-.9.89"/><path class="cls-6" d="M203.71,250.32a.37.37,0,0,1,.39-.39h17a.37.37,0,0,1,.39.39v4.18a.36.36,0,0,1-.39.39H209.69a.21.21,0,0,0-.24.24v5.27c0,.16.08.23.24.23h9.53a.37.37,0,0,1,.39.39v4.14a.38.38,0,0,1-.39.4h-9.53c-.16,0-.24.07-.24.23v5.5a.21.21,0,0,0,.24.24h11.44a.36.36,0,0,1,.39.39v4.18a.37.37,0,0,1-.39.39h-17a.37.37,0,0,1-.39-.39Z"/><path class="cls-6" d="M231.48,276.72c-4.18,0-5.86-1.83-5.86-6V250.32a.37.37,0,0,1,.39-.39h4.69a.37.37,0,0,1,.39.39v20c0,1.29.51,1.8,1.64,1.8h.82a.36.36,0,0,1,.39.39v3.86a.36.36,0,0,1-.39.39Z"/><path class="cls-6" d="M260.7,276.49a.37.37,0,0,1-.39-.39V265.24c0-2.07-1-3.44-3-3.44s-2.93,1.37-2.93,3.44V276.1a.37.37,0,0,1-.39.39h-4.69a.37.37,0,0,1-.39-.39V265.24c0-2.07-1-3.44-2.93-3.44s-3,1.37-3,3.44V276.1a.37.37,0,0,1-.39.39H238a.38.38,0,0,1-.4-.39V258a.37.37,0,0,1,.4-.39h4.68a.36.36,0,0,1,.39.39v1.32h0a6.62,6.62,0,0,1,10,.24h0a7.73,7.73,0,0,1,5.94-2.38c4.45,0,6.75,2.85,6.75,7V276.1a.37.37,0,0,1-.39.39Z"/></svg>