<svg id="Layer_1" data-name="Layer 1" xmlns="http://www.w3.org/2000/svg" xmlns:xlink="http://www.w3.org/1999/xlink" viewBox="0 0 107.99 65.1"><defs><style>.cls-1{fill:#bcbec0;}.cls-2,.cls-3{fill-rule:evenodd;}.cls-2{fill:url(#linear-gradient);}.cls-3,.cls-7{fill:#fff;}.cls-4{fill:url(#linear-gradient-2);}.cls-5{fill:url(#linear-gradient-3);}.cls-6{fill:#8a8c8e;}</style><linearGradient id="linear-gradient" x1="40.69" y1="4.61" x2="40.69" y2="40.23" gradientUnits="userSpaceOnUse"><stop offset="0" stop-color="#00b9f2"/><stop offset="0.2" stop-color="#00a3e1"/><stop offset="0.51" stop-color="#0088cd"/><stop offset="0.79" stop-color="#0078c0"/><stop offset="1" stop-color="#0072bc"/></linearGradient><linearGradient id="linear-gradient-2" x1="66.39" y1="26.29" x2="66.39" y2="61.91" gradientUnits="userSpaceOnUse"><stop offset="0.05" stop-color="#ffe7a7"/><stop offset="0.55" stop-color="#f9dfa5"/><stop offset="1" stop-color="#f1d3a1"/></linearGradient><linearGradient id="linear-gradient-3" x1="66.39" y1="26.29" x2="66.39" y2="61.91" gradientUnits="userSpaceOnUse"><stop offset="0.05" stop-color="#ffcb05"/><stop offset="0.33" stop-color="#f9c30b"/><stop offset="0.78" stop-color="#e7ac1d"/><stop offset="1" stop-color="#dc9e28"/></linearGradient></defs><polygon class="cls-1" points="102.39 61.91 4.7 40.23 4.7 4.61 102.39 26.29 102.39 61.91"/><polyline class="cls-2" points="4.7 40.23 41.08 40.23 76.69 4.61 4.7 4.61 4.7 40.23"/><path class="cls-3" d="M47.42,11.31H40.34V28.15L34.14,11.3H28L22.72,25.4c-.56-3.56-4.24-4.79-7.13-5.71-1.91-.61-3.94-1.51-3.92-2.51,0-.82,1.09-1.58,3.21-1.46a11.51,11.51,0,0,1,5.19,1.4l2.46-4.29a19.14,19.14,0,0,0-8-1.9h0A9.71,9.71,0,0,0,7.4,13.52a6,6,0,0,0-1.7,4.13,5.55,5.55,0,0,0,2.44,5A16.26,16.26,0,0,0,13,24.8c2,.61,3.57,1.14,3.55,2.27A1.64,1.64,0,0,1,16,28.18a3.13,3.13,0,0,1-2.28.72,9.83,9.83,0,0,1-5.87-1.68L5.7,31.57a16.46,16.46,0,0,0,8,2.13h.36a9.71,9.71,0,0,0,6.1-2.05,2.75,2.75,0,0,0,.26-.22l-.71,1.9h6.44L27.26,30a11.66,11.66,0,0,0,3.78.6,12.06,12.06,0,0,0,3.7-.56l1,3.25h10.5v-6.8h2.29c5.53,0,8.81-2.82,8.81-7.55C57.38,13.72,54.2,11.31,47.42,11.31ZM31,25.73a6.55,6.55,0,0,1-2.27-.4L31,18.24h0l2.21,7.11A6.81,6.81,0,0,1,31,25.73Zm16.8-4.08H46.28V15.94h1.56c2.08,0,3.74.69,3.74,2.82s-1.66,2.89-3.74,2.89"/><polygon class="cls-4" points="66.01 26.29 30.39 61.91 31.6 61.41 66.21 26.79 101.89 26.79 102.39 26.29 66.01 26.29"/><polygon class="cls-5" points="102.39 26.29 101.89 26.79 66.21 26.79 31.6 61.41 30.39 61.91 102.39 61.91 102.39 26.29"/><path class="cls-6" d="M24,59.47h1.79v.37h-.68v2.07h-.43V59.84H24Z"/><path class="cls-6" d="M28.22,60h0l-.71,1.93h-.36L26.46,60h0v1.93H26V59.47h.66l.65,1.79L28,59.47h.65v2.44h-.43Z"/><path class="cls-7" d="M58.2,54.91v-8.3h3c1.78,0,3.39.47,3.39,2.66S62.85,52,61.19,52H60v2.95ZM60,50.55h1.25c1.13,0,1.56-.44,1.56-1.24s-.42-1.21-1.56-1.21H60Z"/><path class="cls-7" d="M64.81,53.38C64.81,52,66,51.24,68.6,51v-.15c0-.43-.22-.72-.8-.72a3.22,3.22,0,0,0-2,.74l-.76-1a4.17,4.17,0,0,1,3-1.06c1.64,0,2.31.81,2.31,2.34v2.3a4.15,4.15,0,0,0,.17,1.46H68.74A2.85,2.85,0,0,1,68.6,54a2.63,2.63,0,0,1-2.08,1A1.6,1.6,0,0,1,64.81,53.38Zm3.79-.25V52c-1.42.14-2,.5-2,1,0,.38.27.57.66.57A1.85,1.85,0,0,0,68.6,53.13Z"/><path class="cls-7" d="M71.67,54.91v-6h1.81v1h0a2.26,2.26,0,0,1,2-1.12h.06l0,1.6-.47,0a2,2,0,0,0-1.59.82v3.71Z"/><path class="cls-7" d="M77,53.23v-3H76V48.93h1v-2h1.79v2h1.54v1.31H78.78v2.59c0,.64.18.85.83.85a2.47,2.47,0,0,0,.6-.07V54.9A9.51,9.51,0,0,1,79,55C77.25,55,77,54.35,77,53.23Z"/><path class="cls-7" d="M81.31,54.91v-6h1.8v.94a2.56,2.56,0,0,1,2.06-1.06,1.57,1.57,0,0,1,1.74,1.74v4.36H85.12V51.12c0-.54-.2-.82-.71-.82a2,2,0,0,0-1.3.59v4Z"/><path class="cls-7" d="M87.85,51.93a2.94,2.94,0,0,1,3-3.12c1.23,0,2.75.61,2.75,3.33v.27h-4A1.31,1.31,0,0,0,91,53.78a2.73,2.73,0,0,0,1.77-.72l.7,1.07a3.85,3.85,0,0,1-2.61.9A2.81,2.81,0,0,1,87.85,51.93ZM92,51.34c-.09-.84-.47-1.24-1.14-1.24s-1,.37-1.18,1.24Z"/><path class="cls-7" d="M94.64,54.91v-6h1.8v1h0a2.26,2.26,0,0,1,2-1.12h.06l0,1.6-.47,0a2,2,0,0,0-1.6.82v3.71Z"/><path class="cls-7" d="M73.52,40.17c0-2.6,1.45-4.27,3.78-4.27a3.14,3.14,0,0,1,3.36,2.66L79,39c-.35-1.15-.88-1.6-1.7-1.6s-1.93.39-1.93,2.72,1.13,2.91,2,2.91a1.68,1.68,0,0,0,1.71-1.5H77.63V40.2h3.18v4.16H79.34V43.21h0a2.28,2.28,0,0,1-2.16,1.31C74.65,44.52,73.52,42.68,73.52,40.17Z"/><path class="cls-7" d="M81.87,41.38a3.06,3.06,0,1,1,6.11,0,3.06,3.06,0,1,1-6.11,0Zm4.3,0c0-1-.34-1.81-1.24-1.81s-1.26.73-1.26,1.81.34,1.82,1.26,1.82S86.17,42.47,86.17,41.39Z"/><path class="cls-7" d="M89,44.36v-8.3h1.79v8.3Z"/><path class="cls-7" d="M92.06,41.42c0-2.06,1-3.16,2.32-3.16a2.1,2.1,0,0,1,1.82.87V36.06H98V42.9a3.9,3.9,0,0,0,.18,1.46H96.33a2.72,2.72,0,0,1-.13-.9,2.2,2.2,0,0,1-1.84,1C93,44.45,92.06,43.48,92.06,41.42Zm4.14,1.09V40.3A1.63,1.63,0,0,0,95,39.75c-.75,0-1.15.57-1.15,1.66s.36,1.68,1.17,1.68A1.72,1.72,0,0,0,96.2,42.51Z"/></svg>