<svg id="Ebene_1" data-name="Ebene 1" xmlns="http://www.w3.org/2000/svg" viewBox="0 0 256.74 59.97"><defs><style>.cls-1{fill:#666;}</style></defs><title>SAP_Qualified_PartnerPackageSolution_logo</title><path class="cls-1" d="M281.24,297.89a16.26,16.26,0,0,1-4.37-.55,13.62,13.62,0,0,1-3.52-1.5,11.68,11.68,0,0,1-2.71-2.29,15.26,15.26,0,0,1-2-2.94l4.92-2.93a9.07,9.07,0,0,0,3.33,3.74,8.67,8.67,0,0,0,4.66,1.3,7.3,7.3,0,0,0,3.72-.84,2.77,2.77,0,0,0,1.44-2.56,2.83,2.83,0,0,0-1.53-2.58,19.15,19.15,0,0,0-4.46-1.7q-2-.55-3.92-1.15a14.48,14.48,0,0,1-3.46-1.58,7.9,7.9,0,0,1-2.48-2.48,7.06,7.06,0,0,1-.95-3.83,8.53,8.53,0,0,1,.78-3.71,8,8,0,0,1,2.18-2.78,9.67,9.67,0,0,1,3.36-1.74,15,15,0,0,1,4.37-.6,15.52,15.52,0,0,1,4.1.5A13.66,13.66,0,0,1,288,269a11.7,11.7,0,0,1,2.52,1.94,16.53,16.53,0,0,1,1.88,2.29l-4.51,3.44a8.79,8.79,0,0,0-3.14-3.06,8.14,8.14,0,0,0-4.14-1.14,5.25,5.25,0,0,0-3.17.82,2.55,2.55,0,0,0-1.1,2.15,2.8,2.8,0,0,0,1.58,2.62,21.92,21.92,0,0,0,4.49,1.66q2,.53,3.89,1.16a14.26,14.26,0,0,1,3.44,1.65,8.17,8.17,0,0,1,2.46,2.54,7.15,7.15,0,0,1,.94,3.81,8.5,8.5,0,0,1-.7,3.42,7.93,7.93,0,0,1-2.14,2.86,10.7,10.7,0,0,1-3.67,2A17,17,0,0,1,281.24,297.89Z" transform="translate(-268.64 -267.09)"/><path class="cls-1" d="M294.36,297.33l10.47-29.73H311l10.47,29.73h-6.6l-2.19-6.6H302.64l-2.29,6.6ZM304.24,286h7l-3.4-10.08h-.08Z" transform="translate(-268.64 -267.09)"/><path class="cls-1" d="M324,297.33V267.72H334.8a26.38,26.38,0,0,1,4.53.38,10.52,10.52,0,0,1,3.87,1.45,7.73,7.73,0,0,1,2.68,2.9,10,10,0,0,1,1,4.77,9.8,9.8,0,0,1-1.05,4.85A7.85,7.85,0,0,1,343,285a11.29,11.29,0,0,1-3.93,1.44,25.41,25.41,0,0,1-4.38.38h-4.2v10.53Zm6.46-15.57H335q3,0,4.29-1.11a4.15,4.15,0,0,0,1.26-3.28,4.09,4.09,0,0,0-1.24-3.19Q338,273.05,335,273H330.5Z" transform="translate(-268.64 -267.09)"/><path class="cls-1" d="M356.2,279.91a6.37,6.37,0,0,1-2.52-.5,6.46,6.46,0,0,1-2-1.36,6.12,6.12,0,0,1-1.36-2,6.56,6.56,0,0,1-.49-2.53,6.31,6.31,0,0,1,1.87-4.53,6.62,6.62,0,0,1,7.09-1.37,6.19,6.19,0,0,1,3.37,3.37,6.56,6.56,0,0,1-1.37,7.09,6.28,6.28,0,0,1-2,1.37A6.37,6.37,0,0,1,356.2,279.91Zm0-1a5.16,5.16,0,0,0,2.08-.42,5.28,5.28,0,0,0,2.82-2.88,5.54,5.54,0,0,0,.41-2.13,5.35,5.35,0,0,0-.42-2.12,5.49,5.49,0,0,0-1.14-1.72,5.3,5.3,0,0,0-1.7-1.15,5.24,5.24,0,0,0-2.09-.42,5.36,5.36,0,0,0-2.12.42,5.28,5.28,0,0,0-1.71,1.15,5.37,5.37,0,0,0-1.54,3.82,5.54,5.54,0,0,0,.41,2.13,5.23,5.23,0,0,0,1.14,1.73,5.52,5.52,0,0,0,1.72,1.16A5.29,5.29,0,0,0,356.24,278.91Zm-2.4-9h2.62a3.14,3.14,0,0,1,2,.54,1.9,1.9,0,0,1,.68,1.59,2,2,0,0,1-.46,1.39,2.52,2.52,0,0,1-1.24.72q.19.29.43.68l.49.82.49.82q.23.39.43.68H357.9l-1.74-2.87H355v2.87h-1.19Zm2.54,3.34a2.07,2.07,0,0,0,1.14-.27,1,1,0,0,0,.42-.9q0-1.07-1.52-1.07H355v2.25Z" transform="translate(-268.64 -267.09)"/><path class="cls-1" d="M390.27,304.77a12.91,12.91,0,0,1-3.87-.52,7.72,7.72,0,0,1-2.74-1.46,5.94,5.94,0,0,1-1.64-2.23,7.11,7.11,0,0,1-.54-2.78,11,11,0,0,1-4.42-1.51,11.77,11.77,0,0,1-3.46-3.19,15.24,15.24,0,0,1-2.24-4.66,20.53,20.53,0,0,1-.8-5.89,20.09,20.09,0,0,1,.94-6.32,14.52,14.52,0,0,1,2.62-4.84,11.76,11.76,0,0,1,4-3.1,11.78,11.78,0,0,1,9.91,0,11.9,11.9,0,0,1,4,3.1,14.43,14.43,0,0,1,2.63,4.84,20.09,20.09,0,0,1,.94,6.32,20.62,20.62,0,0,1-.82,6,14.62,14.62,0,0,1-2.32,4.7,12.15,12.15,0,0,1-3.56,3.17,11.12,11.12,0,0,1-4.5,1.46A5,5,0,0,0,385,300a3.9,3.9,0,0,0,1.39,1.36,6.12,6.12,0,0,0,2,.7,14.36,14.36,0,0,0,2.53.21h2.05v2.52ZM383,295.37a8.5,8.5,0,0,0,3.84-.88,8.82,8.82,0,0,0,3-2.52,12.11,12.11,0,0,0,2-4,19,19,0,0,0,.71-5.41,18.73,18.73,0,0,0-.71-5.37,12.14,12.14,0,0,0-2-4,8.51,8.51,0,0,0-6.88-3.36,8.73,8.73,0,0,0-3.89.86,8.64,8.64,0,0,0-3,2.5,12.25,12.25,0,0,0-2,4,18.48,18.48,0,0,0-.72,5.37,18.76,18.76,0,0,0,.72,5.41,12.23,12.23,0,0,0,2,4,8.84,8.84,0,0,0,3,2.52A8.57,8.57,0,0,0,383,295.37Z" transform="translate(-268.64 -267.09)"/><path class="cls-1" d="M406.77,297.78a6.16,6.16,0,0,1-4.72-1.66,6.51,6.51,0,0,1-1.55-4.63V276.25h2.75V291a4.79,4.79,0,0,0,1,3.33,4.17,4.17,0,0,0,3.2,1.08,7.45,7.45,0,0,0,3.78-1,19.5,19.5,0,0,0,3.54-2.69V276.25h2.79v21.07h-2.79V294a16.06,16.06,0,0,1-3.53,2.65A9,9,0,0,1,406.77,297.78Z" transform="translate(-268.64 -267.09)"/><path class="cls-1" d="M428.2,297.68a6.37,6.37,0,0,1-4.39-1.4,4.93,4.93,0,0,1-1.56-3.88,6,6,0,0,1,.72-2.9,7.15,7.15,0,0,1,2.4-2.46,17.82,17.82,0,0,1,4.4-2,43.46,43.46,0,0,1,6.75-1.48v-1.07a3.81,3.81,0,0,0-4.28-4.32,9.47,9.47,0,0,0-4.36.94,17.78,17.78,0,0,0-3.52,2.38l-1.48-1.72a16.86,16.86,0,0,1,4.2-2.84,12.51,12.51,0,0,1,5.41-1.08q3.55,0,5.16,1.78a7.12,7.12,0,0,1,1.6,4.94v9.57a29.57,29.57,0,0,0,.14,3.15,8.12,8.12,0,0,0,.45,2H437q-.2-.68-.34-1.38a8,8,0,0,1-.15-1.63,13.19,13.19,0,0,1-3.88,2.52A11.57,11.57,0,0,1,428.2,297.68Zm.61-2.27a9.85,9.85,0,0,0,4.16-.88,13,13,0,0,0,3.55-2.44v-6.56a43,43,0,0,0-5.62,1.26,15.62,15.62,0,0,0-3.54,1.51,5.27,5.27,0,0,0-1.86,1.76,3.94,3.94,0,0,0-.54,2,3.08,3.08,0,0,0,1,2.52A4.29,4.29,0,0,0,428.81,295.41Z" transform="translate(-268.64 -267.09)"/><path class="cls-1" d="M445.24,267.72H448v29.61h-2.75Z" transform="translate(-268.64 -267.09)"/><path class="cls-1" d="M454.38,268.4h2.93v3h-2.93Zm.08,7.85h2.75v21.07h-2.75Z" transform="translate(-268.64 -267.09)"/><path class="cls-1" d="M465,278.62H461.3v-2.36H465v-3.16a5.17,5.17,0,0,1,1.51-4,6.36,6.36,0,0,1,4.4-1.37l.81,0a4.15,4.15,0,0,1,.71.08v2.3c-.17,0-.39,0-.65-.06l-.71,0a3.76,3.76,0,0,0-2.42.72,2.81,2.81,0,0,0-.9,2.32v3.2h4.47v2.36h-4.47v18.71H465Zm11.64-10.21h2.91v3h-2.91Zm.08,7.85h2.75v21.07h-2.75Z" transform="translate(-268.64 -267.09)"/><path class="cls-1" d="M494,297.78a9,9,0,0,1-3.52-.7,8.11,8.11,0,0,1-2.94-2.11,10.73,10.73,0,0,1-2-3.44,13.55,13.55,0,0,1-.76-4.77,13.09,13.09,0,0,1,.82-4.85,10,10,0,0,1,2.15-3.4,8.85,8.85,0,0,1,3-2,8.71,8.71,0,0,1,3.31-.66,8.3,8.3,0,0,1,3.43.7,7.46,7.46,0,0,1,2.71,2.08,10.25,10.25,0,0,1,1.81,3.44,15.48,15.48,0,0,1,.66,4.74v.53H487.56a10.22,10.22,0,0,0,.54,3.46,7.83,7.83,0,0,0,1.44,2.54,6.08,6.08,0,0,0,4.67,2.13,6.88,6.88,0,0,0,3.86-1,9.58,9.58,0,0,0,2.71-2.86l1.72,1.37a11.14,11.14,0,0,1-3.43,3.52A9.18,9.18,0,0,1,494,297.78ZM500,285.12a13.44,13.44,0,0,0-.54-2.74,7.06,7.06,0,0,0-1.13-2.23,5,5,0,0,0-1.82-1.46,5.72,5.72,0,0,0-2.49-.52,5.91,5.91,0,0,0-2.21.42,5.75,5.75,0,0,0-1.92,1.28,7.22,7.22,0,0,0-1.46,2.16,9.94,9.94,0,0,0-.79,3.1Z" transform="translate(-268.64 -267.09)"/><path class="cls-1" d="M515,297.68a8.9,8.9,0,0,1-3.4-.65,7.15,7.15,0,0,1-2.76-2,10.06,10.06,0,0,1-1.85-3.4,17.3,17.3,0,0,1,0-9.63,9.68,9.68,0,0,1,1.88-3.42,7.72,7.72,0,0,1,2.84-2,9.05,9.05,0,0,1,3.52-.68,8,8,0,0,1,3.81.94,10.47,10.47,0,0,1,3,2.34V267.72h2.77v24.41a29.57,29.57,0,0,0,.14,3.15,7,7,0,0,0,.49,2h-2.91a9.2,9.2,0,0,1-.34-1.41,9.75,9.75,0,0,1-.15-1.68,12.85,12.85,0,0,1-3,2.42A7.78,7.78,0,0,1,515,297.68Zm.47-2.34a6.64,6.64,0,0,0,3.51-.93,15,15,0,0,0,3.06-2.53V281.64a13.56,13.56,0,0,0-3.13-2.58,6.8,6.8,0,0,0-3.43-.9,6.33,6.33,0,0,0-2.57.52,5.21,5.21,0,0,0-2,1.58,7.87,7.87,0,0,0-1.32,2.71,13.88,13.88,0,0,0-.48,3.87,12.74,12.74,0,0,0,.5,3.77,7.64,7.64,0,0,0,1.38,2.66,5.51,5.51,0,0,0,2,1.56A6.09,6.09,0,0,0,515.42,295.33Z" transform="translate(-268.64 -267.09)"/><path class="cls-1" d="M269,323.11V308.67h4.89a8.82,8.82,0,0,1,2.13.24,4.77,4.77,0,0,1,1.65.73,3.27,3.27,0,0,1,1.06,1.28,4.85,4.85,0,0,1,0,3.81,3.59,3.59,0,0,1-1.12,1.32,4.63,4.63,0,0,1-1.69.73,9.41,9.41,0,0,1-2.11.22h-3.06v6.1Zm1.72-7.63h3.15a4.79,4.79,0,0,0,2.64-.59,2.28,2.28,0,0,0,.9-2.05,2.24,2.24,0,0,0-.89-2,4.82,4.82,0,0,0-2.67-.6h-3.13Z" transform="translate(-268.64 -267.09)"/><path class="cls-1" d="M283,323.26a3.15,3.15,0,0,1-2.12-.67,2.39,2.39,0,0,1-.78-1.92,3,3,0,0,1,.36-1.44,3.57,3.57,0,0,1,1.17-1.21,8.13,8.13,0,0,1,2.12-1,21.23,21.23,0,0,1,3.23-.69v-.47a1.7,1.7,0,0,0-2-1.9,4.57,4.57,0,0,0-2.07.45,8.06,8.06,0,0,0-1.66,1.1l-.88-1a8.16,8.16,0,0,1,2.07-1.37,6.35,6.35,0,0,1,2.71-.55,4.66,4.66,0,0,1,1.57.23,2.64,2.64,0,0,1,1.06.67,2.71,2.71,0,0,1,.6,1.09,5,5,0,0,1,.2,1.45v4.54a14.64,14.64,0,0,0,.07,1.54,3.73,3.73,0,0,0,.23,1h-1.71c-.07-.22-.13-.44-.17-.65a3.82,3.82,0,0,1-.07-.78A5.65,5.65,0,0,1,283,323.26Zm.49-1.32a4.49,4.49,0,0,0,1.9-.4,5.67,5.67,0,0,0,1.59-1.1v-2.88a21.28,21.28,0,0,0-2.47.53,7.27,7.27,0,0,0-1.62.65,2.48,2.48,0,0,0-.88.78,1.67,1.67,0,0,0-.26.9,1.41,1.41,0,0,0,.46,1.13A1.9,1.9,0,0,0,283.51,321.93Z" transform="translate(-268.64 -267.09)"/><path class="cls-1" d="M291,323.11V312.81h1.68v1.9h0a4.86,4.86,0,0,1,1.52-1.51,4.48,4.48,0,0,1,2.46-.61h.21l-.11,1.56a.85.85,0,0,0-.25,0h-.24a3.82,3.82,0,0,0-2.15.6,4.34,4.34,0,0,0-1.48,1.72v6.65Z" transform="translate(-268.64 -267.09)"/><path class="cls-1" d="M301.78,323.24a3.1,3.1,0,0,1-2.25-.64,2.74,2.74,0,0,1-.63-2v-6.42h-1.79v-1.38h1.79v-3.67h1.69v3.67h2.67v1.38h-2.67v6a1.93,1.93,0,0,0,.33,1.23,1.57,1.57,0,0,0,1.27.41,4.11,4.11,0,0,0,.55,0,3.75,3.75,0,0,0,.5-.09v1.38l-.64.08Q302.16,323.24,301.78,323.24Z" transform="translate(-268.64 -267.09)"/><path class="cls-1" d="M304.93,323.11V312.81h1.69v1.53a8.35,8.35,0,0,1,.74-.64,6,6,0,0,1,.9-.57,5.1,5.1,0,0,1,1-.4,4.59,4.59,0,0,1,1.18-.15,3,3,0,0,1,2.27.81,3.14,3.14,0,0,1,.78,2.28v7.43h-1.68V316a2.18,2.18,0,0,0-.45-1.52A1.89,1.89,0,0,0,310,314a3.44,3.44,0,0,0-1.72.45,8.67,8.67,0,0,0-1.61,1.21v7.41Z" transform="translate(-268.64 -267.09)"/><path class="cls-1" d="M319.89,323.32a4.72,4.72,0,0,1-1.76-.33,4.17,4.17,0,0,1-1.48-1,5,5,0,0,1-1-1.68,6.48,6.48,0,0,1-.39-2.36,6.31,6.31,0,0,1,.42-2.41,4.86,4.86,0,0,1,1.09-1.67,4.39,4.39,0,0,1,1.5-1,4.6,4.6,0,0,1,1.65-.31,4.38,4.38,0,0,1,1.69.32,3.58,3.58,0,0,1,1.36,1,4.83,4.83,0,0,1,.9,1.69,8,8,0,0,1,.33,2.43v.34H316.9a4.52,4.52,0,0,0,.28,1.55,3.49,3.49,0,0,0,.67,1.11,2.73,2.73,0,0,0,1,.68,3.06,3.06,0,0,0,1.2.23,3.43,3.43,0,0,0,1.81-.43,4.54,4.54,0,0,0,1.29-1.25l1,.86a5.35,5.35,0,0,1-1.73,1.61A4.88,4.88,0,0,1,319.89,323.32Zm2.69-6.25a4,4,0,0,0-.76-2.23,2.32,2.32,0,0,0-1.95-.85,2.9,2.9,0,0,0-1,.18,2.49,2.49,0,0,0-.88.56,3.39,3.39,0,0,0-.67,1,4.12,4.12,0,0,0-.37,1.38Z" transform="translate(-268.64 -267.09)"/><path class="cls-1" d="M326,323.11V312.81h1.68v1.9h0a4.86,4.86,0,0,1,1.52-1.51,4.48,4.48,0,0,1,2.46-.61h.21l-.11,1.56a.85.85,0,0,0-.25,0h-.24a3.82,3.82,0,0,0-2.15.6,4.34,4.34,0,0,0-1.48,1.72v6.65Z" transform="translate(-268.64 -267.09)"/><path class="cls-1" d="M332.92,317.65v-1.33h4.54v1.33Z" transform="translate(-268.64 -267.09)"/><path class="cls-1" d="M339.86,323.11V308.67h4.89a8.82,8.82,0,0,1,2.13.24,4.77,4.77,0,0,1,1.65.73,3.27,3.27,0,0,1,1.06,1.28,4.84,4.84,0,0,1,0,3.81,3.59,3.59,0,0,1-1.12,1.32,4.63,4.63,0,0,1-1.69.73,9.41,9.41,0,0,1-2.11.22h-3.06v6.1Zm1.72-7.63h3.15a4.79,4.79,0,0,0,2.64-.59,2.28,2.28,0,0,0,.89-2.05,2.24,2.24,0,0,0-.89-2,4.82,4.82,0,0,0-2.67-.6h-3.13Z" transform="translate(-268.64 -267.09)"/><path class="cls-1" d="M353.92,323.26a3.15,3.15,0,0,1-2.12-.67,2.39,2.39,0,0,1-.78-1.92,3,3,0,0,1,.36-1.44,3.57,3.57,0,0,1,1.17-1.21,8.13,8.13,0,0,1,2.12-1,21.22,21.22,0,0,1,3.23-.69v-.47a1.7,1.7,0,0,0-2-1.9,4.57,4.57,0,0,0-2.07.45,8.06,8.06,0,0,0-1.66,1.1l-.88-1a8.15,8.15,0,0,1,2.07-1.37,6.34,6.34,0,0,1,2.71-.55,4.66,4.66,0,0,1,1.57.23,2.64,2.64,0,0,1,1.06.67,2.72,2.72,0,0,1,.6,1.09,5,5,0,0,1,.19,1.45v4.54a14.36,14.36,0,0,0,.07,1.54,3.65,3.65,0,0,0,.23,1h-1.71c-.07-.22-.13-.44-.17-.65a3.89,3.89,0,0,1-.07-.78A5.65,5.65,0,0,1,353.92,323.26Zm.49-1.32a4.49,4.49,0,0,0,1.9-.4,5.69,5.69,0,0,0,1.59-1.1v-2.88a21.23,21.23,0,0,0-2.47.53,7.28,7.28,0,0,0-1.62.65,2.5,2.5,0,0,0-.88.78,1.68,1.68,0,0,0-.26.9,1.41,1.41,0,0,0,.46,1.13A1.91,1.91,0,0,0,354.41,321.93Z" transform="translate(-268.64 -267.09)"/><path class="cls-1" d="M365.84,323.32a4.47,4.47,0,0,1-1.72-.34,4.2,4.2,0,0,1-1.46-1,5,5,0,0,1-1-1.68,6.58,6.58,0,0,1-.38-2.34,6.44,6.44,0,0,1,.41-2.41,4.74,4.74,0,0,1,1.09-1.67,4.35,4.35,0,0,1,1.52-1,4.86,4.86,0,0,1,1.7-.31,4.44,4.44,0,0,1,1.52.23,3.86,3.86,0,0,1,1.13.63,3.74,3.74,0,0,1,.82.93,7.89,7.89,0,0,1,.57,1.09l-1.43.59a3.69,3.69,0,0,0-1-1.52,2.45,2.45,0,0,0-1.63-.52,3,3,0,0,0-1.09.2,2.56,2.56,0,0,0-1,.67,3.4,3.4,0,0,0-.69,1.22A5.72,5.72,0,0,0,363,318a4.6,4.6,0,0,0,.82,2.94,2.6,2.6,0,0,0,2.13,1,2.67,2.67,0,0,0,1.62-.47,3.94,3.94,0,0,0,1.14-1.6l1.39.54a6.76,6.76,0,0,1-.69,1.19,4.42,4.42,0,0,1-.89.92,4,4,0,0,1-1.15.6A4.62,4.62,0,0,1,365.84,323.32Z" transform="translate(-268.64 -267.09)"/><path class="cls-1" d="M371.72,323.11V308.67h1.68V318l4.6-5.14h1.91l-3.37,3.69,3.74,6.61h-1.8l-3-5.36-2,2.2v3.16Z" transform="translate(-268.64 -267.09)"/><path class="cls-1" d="M383.94,323.26a3.15,3.15,0,0,1-2.12-.67,2.39,2.39,0,0,1-.78-1.92,3,3,0,0,1,.36-1.44,3.57,3.57,0,0,1,1.17-1.21,8.13,8.13,0,0,1,2.12-1,21.23,21.23,0,0,1,3.23-.69v-.47a1.7,1.7,0,0,0-2-1.9,4.57,4.57,0,0,0-2.07.45,8.06,8.06,0,0,0-1.66,1.1l-.88-1a8.16,8.16,0,0,1,2.07-1.37,6.35,6.35,0,0,1,2.71-.55,4.66,4.66,0,0,1,1.57.23,2.64,2.64,0,0,1,1.06.67,2.71,2.71,0,0,1,.6,1.09,5,5,0,0,1,.2,1.45v4.54a14.64,14.64,0,0,0,.07,1.54,3.73,3.73,0,0,0,.23,1h-1.71c-.07-.22-.13-.44-.17-.65a3.82,3.82,0,0,1-.07-.78A5.65,5.65,0,0,1,383.94,323.26Zm.49-1.32a4.49,4.49,0,0,0,1.9-.4,5.67,5.67,0,0,0,1.59-1.1v-2.88a21.28,21.28,0,0,0-2.47.53,7.27,7.27,0,0,0-1.62.65,2.48,2.48,0,0,0-.88.78,1.67,1.67,0,0,0-.26.9,1.41,1.41,0,0,0,.46,1.13A1.9,1.9,0,0,0,384.42,321.93Z" transform="translate(-268.64 -267.09)"/><path class="cls-1" d="M395.68,327.07a7.79,7.79,0,0,1-3.79-.7,2.1,2.1,0,0,1-1.18-1.87,2,2,0,0,1,.5-1.37,3.34,3.34,0,0,1,1.37-.9,1.39,1.39,0,0,1-.51-2.23,3.65,3.65,0,0,1,.92-.73,3.62,3.62,0,0,1-1.15-1.24,3.47,3.47,0,0,1-.42-1.73,3.52,3.52,0,0,1,.31-1.49,3.56,3.56,0,0,1,.87-1.17,3.9,3.9,0,0,1,1.33-.77,5,5,0,0,1,1.69-.27,4.8,4.8,0,0,1,1.72.29,4.2,4.2,0,0,1,1.31.78,4.92,4.92,0,0,1,1.15-.61,5.7,5.7,0,0,1,1.29-.35v1.49a5.91,5.91,0,0,0-.91.08,4.26,4.26,0,0,0-.93.26,3,3,0,0,1,.52,1.77,3.6,3.6,0,0,1-.31,1.51,3.31,3.31,0,0,1-.87,1.15,4,4,0,0,1-1.32.74,5.38,5.38,0,0,1-2.5.19,6.7,6.7,0,0,1-.79-.18,1.93,1.93,0,0,0-.53.34.61.61,0,0,0-.2.46.51.51,0,0,0,.3.48,3.45,3.45,0,0,0,1.12.23l2.1.18a6.24,6.24,0,0,1,3,.78,2.12,2.12,0,0,1,1,1.89,2.31,2.31,0,0,1-.37,1.3,2.89,2.89,0,0,1-1,.93,5.66,5.66,0,0,1-1.59.57A9.86,9.86,0,0,1,395.68,327.07Zm.22-1.27a5.54,5.54,0,0,0,2.4-.43,1.29,1.29,0,0,0,.87-1.13,1.11,1.11,0,0,0-.61-1,5.91,5.91,0,0,0-2.23-.46l-2-.13-.59-.06a2.64,2.64,0,0,0-1.12.72,1.47,1.47,0,0,0-.39,1,1.23,1.23,0,0,0,.85,1.16A7.33,7.33,0,0,0,395.9,325.8Zm-.28-7.06a2.65,2.65,0,0,0,1.88-.64,2.28,2.28,0,0,0,.69-1.76,2.38,2.38,0,0,0-.67-1.78,3.09,3.09,0,0,0-3.82,0,2.34,2.34,0,0,0-.69,1.77,2.24,2.24,0,0,0,.71,1.76A2.74,2.74,0,0,0,395.63,318.74Z" transform="translate(-268.64 -267.09)"/><path class="cls-1" d="M406.57,323.32a4.72,4.72,0,0,1-1.76-.33,4.16,4.16,0,0,1-1.48-1,5,5,0,0,1-1-1.68,6.5,6.5,0,0,1-.39-2.36,6.31,6.31,0,0,1,.42-2.41,4.84,4.84,0,0,1,1.1-1.67,4.39,4.39,0,0,1,1.5-1,4.61,4.61,0,0,1,1.65-.31,4.38,4.38,0,0,1,1.69.32,3.58,3.58,0,0,1,1.36,1,4.83,4.83,0,0,1,.9,1.69,8,8,0,0,1,.33,2.43v.34h-7.27a4.55,4.55,0,0,0,.28,1.55,3.5,3.5,0,0,0,.67,1.11,2.72,2.72,0,0,0,1,.68,3.06,3.06,0,0,0,1.2.23,3.43,3.43,0,0,0,1.81-.43,4.54,4.54,0,0,0,1.29-1.25l1,.86a5.35,5.35,0,0,1-1.73,1.61A4.88,4.88,0,0,1,406.57,323.32Zm2.69-6.25a4,4,0,0,0-.76-2.23,2.32,2.32,0,0,0-1.95-.85,2.91,2.91,0,0,0-1,.18,2.51,2.51,0,0,0-.88.56,3.41,3.41,0,0,0-.67,1,4.12,4.12,0,0,0-.37,1.38Z" transform="translate(-268.64 -267.09)"/><path class="cls-1" d="M416.3,323.26a4.26,4.26,0,0,1-1.65-.32,3.56,3.56,0,0,1-1.33-1,4.7,4.7,0,0,1-.89-1.65,7.61,7.61,0,0,1-.32-2.35,7.45,7.45,0,0,1,.33-2.35,4.82,4.82,0,0,1,.92-1.68,3.79,3.79,0,0,1,1.4-1,4.42,4.42,0,0,1,1.74-.34,3.91,3.91,0,0,1,1.77.42,4.54,4.54,0,0,1,1.43,1.1v-5.45h1.68v11.9a14.49,14.49,0,0,0,.07,1.54,3.23,3.23,0,0,0,.25,1h-1.75a3.14,3.14,0,0,1-.17-.67,5,5,0,0,1-.07-.8,6.07,6.07,0,0,1-1.43,1.15A3.83,3.83,0,0,1,416.3,323.26Zm.41-1.38a3,3,0,0,0,1.61-.44,6.35,6.35,0,0,0,1.37-1.14v-4.72a5.57,5.57,0,0,0-1.41-1.15,3.17,3.17,0,0,0-1.55-.4,2.66,2.66,0,0,0-2.15,1,4.66,4.66,0,0,0-.8,3,5.83,5.83,0,0,0,.22,1.72,3.67,3.67,0,0,0,.61,1.21,2.4,2.4,0,0,0,.93.72A2.9,2.9,0,0,0,416.71,321.88Z" transform="translate(-268.64 -267.09)"/><path class="cls-1" d="M432.77,323.38a5.78,5.78,0,0,1-3.48-1,5.34,5.34,0,0,1-2-2.75l1.44-.64a4.57,4.57,0,0,0,6.55,2.27,2,2,0,0,0,.93-1.77,2.53,2.53,0,0,0-.17-.94,2,2,0,0,0-.58-.77,4.54,4.54,0,0,0-1.11-.67,15.39,15.39,0,0,0-1.77-.64q-1.13-.35-2-.7a6.31,6.31,0,0,1-1.5-.82,3.21,3.21,0,0,1-.94-1.12,3.51,3.51,0,0,1-.33-1.59,3.46,3.46,0,0,1,.34-1.52,3.69,3.69,0,0,1,1-1.22,4.37,4.37,0,0,1,1.47-.8,6,6,0,0,1,1.88-.28,6.54,6.54,0,0,1,1.86.24,4.93,4.93,0,0,1,1.44.68,4.76,4.76,0,0,1,1.07,1,5.65,5.65,0,0,1,.72,1.28l-1.37.76a4,4,0,0,0-1.52-1.88,4.25,4.25,0,0,0-2.22-.56,3.44,3.44,0,0,0-2.15.6,1.85,1.85,0,0,0-.77,1.53,2.21,2.21,0,0,0,.2,1,2,2,0,0,0,.64.72,5.45,5.45,0,0,0,1.18.61q.73.29,1.78.62a17.11,17.11,0,0,1,2,.71,6.23,6.23,0,0,1,1.45.88,3.38,3.38,0,0,1,.91,1.16,3.68,3.68,0,0,1,.31,1.58,3.57,3.57,0,0,1-1.42,2.9,5.17,5.17,0,0,1-1.63.82A7,7,0,0,1,432.77,323.38Z" transform="translate(-268.64 -267.09)"/><path class="cls-1" d="M444.18,323.32a4.89,4.89,0,0,1-1.8-.34,4.39,4.39,0,0,1-1.53-1,5,5,0,0,1-1.06-1.68,6.29,6.29,0,0,1-.4-2.34,6.39,6.39,0,0,1,.39-2.33,4.84,4.84,0,0,1,1.05-1.68,4.37,4.37,0,0,1,1.53-1,4.93,4.93,0,0,1,1.82-.34,4.88,4.88,0,0,1,1.8.34,4.38,4.38,0,0,1,1.53,1,4.84,4.84,0,0,1,1.05,1.68,7.16,7.16,0,0,1,0,4.67,4.85,4.85,0,0,1-1.05,1.68,4.39,4.39,0,0,1-1.53,1A4.88,4.88,0,0,1,444.18,323.32Zm0-1.43a2.93,2.93,0,0,0,1.3-.28,2.72,2.72,0,0,0,1-.8,3.62,3.62,0,0,0,.6-1.25,6,6,0,0,0,.21-1.61,5.67,5.67,0,0,0-.2-1.51,4,4,0,0,0-.58-1.25,2.73,2.73,0,0,0-1-.85,2.83,2.83,0,0,0-1.35-.31,3,3,0,0,0-1.32.28,2.73,2.73,0,0,0-1,.8,3.63,3.63,0,0,0-.6,1.24,5.81,5.81,0,0,0-.21,1.59,5.91,5.91,0,0,0,.2,1.54,3.76,3.76,0,0,0,.58,1.25,2.78,2.78,0,0,0,2.33,1.15Z" transform="translate(-268.64 -267.09)"/><path class="cls-1" d="M450.87,323.11V308.67h1.68v14.43Z" transform="translate(-268.64 -267.09)"/><path class="cls-1" d="M458,323.3a3,3,0,0,1-2.27-.79,3.09,3.09,0,0,1-.78-2.26v-7.43h1.69v7.07a2.2,2.2,0,0,0,.45,1.52,1.88,1.88,0,0,0,1.44.49,3.44,3.44,0,0,0,1.72-.45,8.65,8.65,0,0,0,1.61-1.21v-7.43h1.7v10.29h-1.7v-1.54a6.7,6.7,0,0,1-.73.65,5.4,5.4,0,0,1-1.95.94A4.75,4.75,0,0,1,458,323.3Z" transform="translate(-268.64 -267.09)"/><path class="cls-1" d="M469.54,323.24a3.1,3.1,0,0,1-2.25-.64,2.75,2.75,0,0,1-.63-2v-6.42h-1.79v-1.38h1.79v-3.67h1.69v3.67H471v1.38h-2.67v6a1.93,1.93,0,0,0,.33,1.23,1.57,1.57,0,0,0,1.27.41,4.11,4.11,0,0,0,.55,0,3.75,3.75,0,0,0,.5-.09v1.38l-.64.08Q469.92,323.24,469.54,323.24Z" transform="translate(-268.64 -267.09)"/><path class="cls-1" d="M472.77,310.6V309h1.75v1.64Zm0,12.5V312.81h1.68v10.29Z" transform="translate(-268.64 -267.09)"/><path class="cls-1" d="M481.19,323.32a4.89,4.89,0,0,1-1.8-.34,4.4,4.4,0,0,1-1.53-1,5,5,0,0,1-1.06-1.68,6.27,6.27,0,0,1-.4-2.34,6.39,6.39,0,0,1,.39-2.33,4.84,4.84,0,0,1,1.05-1.68,4.38,4.38,0,0,1,1.53-1,5,5,0,0,1,3.63,0,4.39,4.39,0,0,1,1.53,1,4.87,4.87,0,0,1,1.05,1.68,7.18,7.18,0,0,1,0,4.67,4.88,4.88,0,0,1-1.05,1.68,4.4,4.4,0,0,1-1.53,1A4.89,4.89,0,0,1,481.19,323.32Zm0-1.43a2.92,2.92,0,0,0,1.3-.28,2.72,2.72,0,0,0,1-.8,3.63,3.63,0,0,0,.61-1.25,6,6,0,0,0,.2-1.61,5.67,5.67,0,0,0-.2-1.51,4,4,0,0,0-.58-1.25,2.73,2.73,0,0,0-1-.85,2.84,2.84,0,0,0-1.35-.31,3,3,0,0,0-1.32.28,2.73,2.73,0,0,0-1,.8,3.64,3.64,0,0,0-.6,1.24,5.81,5.81,0,0,0-.2,1.59,5.87,5.87,0,0,0,.2,1.54,3.74,3.74,0,0,0,.58,1.25,2.78,2.78,0,0,0,2.33,1.15Z" transform="translate(-268.64 -267.09)"/><path class="cls-1" d="M487.77,323.11V312.81h1.69v1.53a8.5,8.5,0,0,1,.74-.64,6,6,0,0,1,.9-.57,5.09,5.09,0,0,1,1-.4,4.59,4.59,0,0,1,1.18-.15,3,3,0,0,1,2.27.81,3.14,3.14,0,0,1,.78,2.28v7.43h-1.68V316a2.18,2.18,0,0,0-.45-1.52,1.89,1.89,0,0,0-1.44-.49,3.45,3.45,0,0,0-1.72.45,8.74,8.74,0,0,0-1.61,1.21v7.41Z" transform="translate(-268.64 -267.09)"/></svg>