<svg id="Layer_1" data-name="Layer 1" xmlns="http://www.w3.org/2000/svg" viewBox="0 0 163 83.79"><defs><style>.cls-1{fill:#fff;}</style></defs><path class="cls-1" d="M13.9,47.72h-.14a.3.3,0,0,1-.14-.26V24a.29.29,0,0,1,.14-.26L44.41,5.84a.28.28,0,0,1,.28,0,.31.31,0,0,1,.13.25V29.7a.31.31,0,0,1-.14.26L14,47.68Zm.28-23.55V46.92l30.08-17.4V6.6Z"/><path class="cls-1" d="M51.11,18.85A2.64,2.64,0,0,0,54,21.08c1.77,0,2.47-.86,2.47-2s-.58-1.87-2.9-2.46c-2.89-.73-3.83-1.79-3.83-3.55,0-1.93,1.35-3.44,4-3.44,2.89,0,4.08,1.74,4.24,3.43H56.26a2.22,2.22,0,0,0-2.43-2h-.08c-1.37,0-2.15.64-2.15,1.79s.64,1.56,2.69,2.08c3.41.88,4,2.27,4,3.91,0,2.08-1.47,3.67-4.42,3.67s-4.34-1.7-4.6-3.7Z"/><path class="cls-1" d="M71.46,17.15c0-2.3,0-4.68.07-6h-.07c-.51,2.14-2.3,7.31-3.62,11.26H66.28c-1-3.26-2.85-9.07-3.38-11.28h-.06c.09,1.45.13,4.21.13,6.37v4.91H61.32V9.81H64c1.27,3.78,2.8,8.65,3.2,10.3h0c.28-1.29,2.11-6.61,3.43-10.3h2.55V22.38H71.46Z"/><path class="cls-1" d="M78.67,18.78l-1.21,3.6H75.7L79.9,9.81h2.19l4.38,12.57H84.6l-1.26-3.6Zm4.24-1.58c-1.08-3.19-1.69-4.93-2-5.92h0c-.29,1.1-1,3.19-1.84,5.92Z"/><path class="cls-1" d="M90.73,16.94v5.44H89V9.81h4.76c2.47,0,3.79,1.42,3.79,3.38a2.87,2.87,0,0,1-2,3c.9.27,1.75,1,1.75,3.21V20a9.72,9.72,0,0,0,.16,2.47h-1.7a8.89,8.89,0,0,1-.21-2.72v-.25C95.55,17.73,95.1,17,93,17Zm0-1.55h2.51c1.74,0,2.49-.69,2.49-2s-.79-2-2.33-2H90.73Z"/><path class="cls-1" d="M103.3,11.39H99.5V9.81h9.37v1.58h-3.8v11H103.3Z"/><path class="cls-1" d="M50.17,39.88V27.3h2.3c1.66,2.92,5.19,9,5.84,10.32h0C58.19,36.07,58.2,34,58.2,32V27.3h1.65V39.88H57.71c-1.52-2.68-5.23-9.24-6-10.66h0c.08,1.37.09,3.58.09,5.85v4.81Z"/><path class="cls-1" d="M65.43,36.27l-1.22,3.61H62.46l4.2-12.58h2.19l4.38,12.58H71.35L70.1,36.27Zm4.24-1.58c-1.08-3.18-1.69-4.93-2-5.92h0c-.29,1.1-1,3.2-1.84,5.92Z"/><path class="cls-1" d="M76.69,28.88h-3.8V27.3h9.38v1.58h-3.8v11H76.69Z"/><path class="cls-1" d="M86.4,27.3V39.88H84.64V27.3Z"/><path class="cls-1" d="M100.66,33.52c0,3.47-1.87,6.54-5.64,6.54-3.54,0-5.5-2.86-5.5-6.47s2-6.47,5.65-6.47C98.54,27.12,100.66,29.76,100.66,33.52Zm-9.3,0c0,2.66,1.26,5,3.74,5,2.67,0,3.71-2.34,3.71-4.94s-1.18-4.86-3.72-4.86-3.73,2.18-3.73,4.82Z"/><path class="cls-1" d="M103.77,39.88V27.3h2.3c1.66,2.92,5.19,9,5.84,10.32h0c-.12-1.55-.11-3.58-.11-5.63V27.3h1.65V39.88h-2.16c-1.51-2.68-5.23-9.24-6-10.66h0c.09,1.37.09,3.58.09,5.85v4.81Z"/><path class="cls-1" d="M119,36.27l-1.21,3.61H116l4.2-12.58h2.19l4.38,12.58H125l-1.25-3.61Zm4.24-1.58c-1.08-3.18-1.69-4.93-2-5.92h0c-.29,1.1-1,3.2-1.84,5.92Z"/><path class="cls-1" d="M129.35,27.3h1.76v11h6.16L137,39.88h-7.68Z"/><path class="cls-1" d="M51.11,53.84A2.62,2.62,0,0,0,54,56.06c1.77,0,2.47-.85,2.47-2s-.58-1.87-2.9-2.46c-2.89-.74-3.83-1.8-3.83-3.55,0-1.93,1.35-3.45,4-3.45,2.89,0,4.08,1.75,4.24,3.43H56.26a2.22,2.22,0,0,0-2.48-2h0c-1.37,0-2.15.64-2.15,1.78s.64,1.57,2.69,2.09c3.41.87,4,2.26,4,3.91,0,2.08-1.47,3.66-4.42,3.66s-4.34-1.7-4.6-3.69Z"/><path class="cls-1" d="M71.91,51c0,3.46-1.86,6.53-5.63,6.53-3.55,0-5.5-2.86-5.5-6.47s2-6.47,5.64-6.47C69.8,44.61,71.91,47.26,71.91,51Zm-9.29,0c0,2.67,1.26,5,3.73,5,2.65,0,3.72-2.3,3.72-5s-1.19-4.85-3.72-4.85S62.62,48.39,62.62,51Z"/><path class="cls-1" d="M75,44.79h1.76v11H83l-.24,1.58H75Z"/><path class="cls-1" d="M86.62,44.79v7.56c0,2.87,1.47,3.65,2.95,3.65,1.72,0,2.91-.86,2.91-3.65V44.79h1.78v7.46c0,4.13-2.18,5.28-4.73,5.28s-4.7-1.24-4.7-5.17V44.79Z"/><path class="cls-1" d="M100.47,46.37h-3.8V44.79h9.38v1.58h-3.8v11h-1.78Z"/><path class="cls-1" d="M110.18,44.79V57.37h-1.76V44.79Z"/><path class="cls-1" d="M124.43,51c0,3.46-1.86,6.53-5.63,6.53-3.55,0-5.5-2.86-5.5-6.47s2-6.47,5.64-6.47C122.32,44.61,124.43,47.26,124.43,51Zm-9.29,0c0,2.67,1.26,5,3.73,5,2.68,0,3.72-2.33,3.72-4.94s-1.18-4.85-3.72-4.85S115.14,48.39,115.14,51Z"/><path class="cls-1" d="M127.55,57.37V44.79h2.3c1.66,2.92,5.19,9,5.84,10.33h0c-.12-1.56-.11-3.58-.11-5.64V44.79h1.65V57.37h-2.16c-1.52-2.68-5.23-9.24-6-10.66h0c.08,1.37.09,3.59.09,5.85v4.81Z"/><path class="cls-1" d="M141.93,53.84a2.64,2.64,0,0,0,2.93,2.22c1.76,0,2.47-.85,2.47-2s-.59-1.87-2.91-2.46c-2.88-.74-3.82-1.8-3.82-3.55,0-1.93,1.35-3.45,4-3.45,2.9,0,4.08,1.75,4.25,3.43h-1.8a2.23,2.23,0,0,0-2.46-2h0c-1.38,0-2.15.64-2.15,1.78s.64,1.57,2.69,2.09c3.4.87,4,2.26,4,3.91,0,2.08-1.46,3.66-4.41,3.66s-4.35-1.7-4.6-3.69Z"/><rect class="cls-1" x="48.94" y="64.23" width="99.81" height="1.34" rx="0.08"/><path class="cls-1" d="M44.49,66a.33.33,0,0,1-.14,0L13.76,47.68a.29.29,0,0,1-.14-.26V24a.3.3,0,0,1,.14-.26.26.26,0,0,1,.27,0l30.6,18a.31.31,0,0,1,.14.26V65.66a.29.29,0,0,1-.14.26A.29.29,0,0,1,44.49,66ZM14.18,47.25l30,17.91v-23l-30-17.69Z"/><path class="cls-1" d="M13.9,83.69a.33.33,0,0,1-.14,0,.29.29,0,0,1-.14-.25V59.79a.29.29,0,0,1,.14-.25L44.35,41.75a.28.28,0,0,1,.28,0,.29.29,0,0,1,.14.25V65.66a.3.3,0,0,1-.15.26L14,83.65ZM14.18,60V82.89l30-17.4v-23Z"/><path class="cls-1" d="M57.66,77.41a.5.5,0,0,1,.12.37,1.16,1.16,0,0,1-.21.7.81.81,0,0,1-.71.29,3.62,3.62,0,0,1-1.42-.26,1.75,1.75,0,0,1-.87-.85,3.8,3.8,0,0,1-1.16.18,3.34,3.34,0,0,1-1.29-.22,1.81,1.81,0,0,1-.85-.62,1.51,1.51,0,0,1-.3-.94,2.29,2.29,0,0,1,.39-1.22,4,4,0,0,1,1.13-1.16,6.75,6.75,0,0,1,1.8-.9v-.7l1.23-.57h.11v4.58a1.36,1.36,0,0,0,.16.74.79.79,0,0,0,.47.33,3.7,3.7,0,0,0,.94.09A.65.65,0,0,1,57.66,77.41ZM52.93,70.5l-1.28-.94.78-1.26,1.28.93Zm1.36,5.83v-2.1a5.41,5.41,0,0,0-1.5.65,1.69,1.69,0,0,0-.74.82.9.9,0,0,0,.55.51,2.22,2.22,0,0,0,.91.19A4.11,4.11,0,0,0,54.29,76.33Zm.63-5.83-1.27-.94.79-1.26,1.28.93Z"/><path class="cls-1" d="M62.57,77.41a.54.54,0,0,1,.13.37,1.23,1.23,0,0,1-.19.7.78.78,0,0,1-.69.29,5.41,5.41,0,0,1-1.39-.18,2.54,2.54,0,0,1-1-.53,2.22,2.22,0,0,1-.85.53,3.27,3.27,0,0,1-1.16.18h-.48l.33-1.49h.38a2.88,2.88,0,0,0,.59-.06,1.14,1.14,0,0,0,.44-.18,10.54,10.54,0,0,0,.6-2.2l1.41-.36.15.11q-.18.76-.33,1.32a7.36,7.36,0,0,1-.34,1,4.3,4.3,0,0,0,2,.37A.64.64,0,0,1,62.57,77.41Zm-3.94,4.68-1.28-.94.79-1.26,1.27.93Zm2,0-1.28-.94.8-1.26,1.27.93Z"/><path class="cls-1" d="M67.44,70.86l-3.38,1.89a13.73,13.73,0,0,1,1.88,1.52,4.27,4.27,0,0,1,.89,1.17,2.29,2.29,0,0,1,.23,1,2,2,0,0,1-.92,1.71,5.32,5.32,0,0,1-3,.63H61.8l.32-1.49h1a10.37,10.37,0,0,0,1.76-.15A3.18,3.18,0,0,0,66,76.79a1.57,1.57,0,0,0-.43-1,6.61,6.61,0,0,0-1.11-1c-.45-.35-1-.74-1.69-1.19l-.07-.09.3-1.79L67.79,69l.12.07Z"/><path class="cls-1" d="M75.42,77.78a1.16,1.16,0,0,1-.21.7.81.81,0,0,1-.71.29,2.63,2.63,0,0,1-1-.17,1.48,1.48,0,0,1-.68-.58,2.66,2.66,0,0,1-1.18.63,6,6,0,0,1-1.73.22h-.8a4.64,4.64,0,0,1-.83-.14l.2-1.41.07-.06a4.55,4.55,0,0,0,.74.11h.76a7.3,7.3,0,0,0,1.23-.11,3.46,3.46,0,0,0,1-.33h0L72,76.26l-.66-1.35q-.49-1-.81-1.59l1-1.2h.13l.83,2c.3.72.55,1.3.74,1.73a4.79,4.79,0,0,0,.49.92,1.21,1.21,0,0,0,.47.4,1.76,1.76,0,0,0,.68.1C75.23,77.28,75.42,77.45,75.42,77.78Zm-3.85-7.25-1.31-1,.82-1.29,1.31,1Z"/><path class="cls-1" d="M74.87,77.28a4.45,4.45,0,0,0,.73,0,1.4,1.4,0,0,0,.56-.2,6.3,6.3,0,0,0,.1-1.15v-7l1.22-.36.12.08v7.21a3.81,3.81,0,0,1-.36,1.82,2,2,0,0,1-1,.91,4.41,4.41,0,0,1-1.69.27Z"/><path class="cls-1" d="M79.53,78.86l-.1-.06v-10l1.26-.36.1.08v10Z"/><path class="cls-1" d="M95.12,77.78a1.16,1.16,0,0,1-.21.7.78.78,0,0,1-.7.29,1.65,1.65,0,0,1-.54-.09,2.38,2.38,0,0,1-.51-.24A3.48,3.48,0,0,1,91,81.21a5.47,5.47,0,0,1-2,.34,4,4,0,0,1-1.84-.39A2.63,2.63,0,0,1,86,80.08a3.3,3.3,0,0,1-.39-1.63,5.82,5.82,0,0,1,.07-.93,5.88,5.88,0,0,1,.18-.81L87,76.3l.13.06A9.21,9.21,0,0,0,87,77.75a2.54,2.54,0,0,0,.53,1.72,2.3,2.3,0,0,0,1.8.6A3,3,0,0,0,91.81,79a2.87,2.87,0,0,0,.11-.77,3.6,3.6,0,0,0-.2-1.17c-.13-.41-.34-.93-.61-1.58l1.24-.93h.08c.07.18.13.38.2.61s.11.32.21.64a5.1,5.1,0,0,0,.28.74,1.3,1.3,0,0,0,.51.58,1.67,1.67,0,0,0,.82.18C94.89,77.28,95.12,77.45,95.12,77.78ZM89.37,74l-1.32-1,.82-1.28,1.32,1Z"/><path class="cls-1" d="M101.34,73.86a3,3,0,0,1,1,2.19,2.73,2.73,0,0,1-.26,1.16,2.7,2.7,0,0,1-.63.87,2.53,2.53,0,0,1-.85.47,4.49,4.49,0,0,1-1.15.21q-.66.06-1.74.06H94.22l.33-1.49h.58l.62-.62V68.84L97,68.48l.09.08v6.76A9.94,9.94,0,0,1,98.86,74a2.72,2.72,0,0,1,1.38-.45A1.79,1.79,0,0,1,101.34,73.86Zm-.26,2.8a1.48,1.48,0,0,0,0-.42,1.43,1.43,0,0,0-.14-.61,1.48,1.48,0,0,0-.38-.51.89.89,0,0,0-.56-.2,2.49,2.49,0,0,0-1.37.61,17.53,17.53,0,0,0-2,1.75H99.4c.31,0,.61,0,.92-.07A2,2,0,0,0,101,77,1,1,0,0,0,101.08,76.66Z"/><path class="cls-1" d="M109.7,77.41a.54.54,0,0,1,.13.37,1.16,1.16,0,0,1-.21.7.78.78,0,0,1-.7.29h-1a3.94,3.94,0,0,1-.82,1.34,4.06,4.06,0,0,1-1.41.94,5.71,5.71,0,0,1-2,.37L103,80.31l.08-.14a6.6,6.6,0,0,0,2.24-.39,2.72,2.72,0,0,0,1.36-1h-.26a3.16,3.16,0,0,1-2-.54,1.81,1.81,0,0,1-.66-1.5,3.39,3.39,0,0,1,.3-1.4,3,3,0,0,1,.8-1.14,1.62,1.62,0,0,1,1.08-.45,1.64,1.64,0,0,1,1.16.48,3.16,3.16,0,0,1,.8,1.29,5.62,5.62,0,0,1,.3,1.77h1A.67.67,0,0,1,109.7,77.41Zm-4.5-.31a3,3,0,0,0,1.26.18h.59a2.85,2.85,0,0,0-.18-1,2.41,2.41,0,0,0-.46-.79.81.81,0,0,0-.56-.29.83.83,0,0,0-.5.18,1.33,1.33,0,0,0-.39.49,1.65,1.65,0,0,0-.15.69A.62.62,0,0,0,105.2,77.1Z"/><path class="cls-1" d="M109.27,77.28a4.45,4.45,0,0,0,.73,0,1.4,1.4,0,0,0,.56-.2,4.92,4.92,0,0,0,.1-1.15v-7l1.22-.36.13.08v7.21a3.57,3.57,0,0,1-.37,1.82,2,2,0,0,1-1,.91,4.41,4.41,0,0,1-1.69.27Z"/><path class="cls-1" d="M113.93,78.86l-.1-.06v-10l1.27-.36.09.08v10Z"/><path class="cls-1" d="M121.53,81.16a2.72,2.72,0,0,1-1.15-1.08,3.3,3.3,0,0,1-.39-1.63c0-.31,0-.63.07-.94a3.7,3.7,0,0,1,.18-.8l1.1-.41.12.06a8.07,8.07,0,0,0-.12,1.39,2.47,2.47,0,0,0,.54,1.73,2.42,2.42,0,0,0,1.82.59,4.09,4.09,0,0,0,1.47-.24,2.35,2.35,0,0,0,1-.76,7.65,7.65,0,0,0,.25-2.18v-8l1.25-.36.11.08V76.8a5,5,0,0,1-1.14,3.63,4.35,4.35,0,0,1-3.27,1.17A4.06,4.06,0,0,1,121.53,81.16Z"/><path class="cls-1" d="M135.54,77.41a.5.5,0,0,1,.12.37,1.17,1.17,0,0,1-.2.7.78.78,0,0,1-.7.29h-1a3.94,3.94,0,0,1-.82,1.34,4,4,0,0,1-1.42.94,5.5,5.5,0,0,1-2,.37l-.7-1.11.08-.14a6.6,6.6,0,0,0,2.24-.39,2.89,2.89,0,0,0,1.36-1h-.26a3.16,3.16,0,0,1-2-.54,1.81,1.81,0,0,1-.66-1.5,3.55,3.55,0,0,1,.29-1.4,3.23,3.23,0,0,1,.8-1.14,1.62,1.62,0,0,1,1.09-.45,1.64,1.64,0,0,1,1.16.48,3.27,3.27,0,0,1,.8,1.29,5.62,5.62,0,0,1,.3,1.77h1A.69.69,0,0,1,135.54,77.41ZM131,77.1a3.35,3.35,0,0,0,1.26.18h.6a2.86,2.86,0,0,0-.19-1,2.11,2.11,0,0,0-.46-.79.77.77,0,0,0-.56-.29.8.8,0,0,0-.49.18,1.33,1.33,0,0,0-.39.49,1.65,1.65,0,0,0-.15.69A.61.61,0,0,0,131,77.1Z"/><path class="cls-1" d="M139.78,77.41a.5.5,0,0,1,.13.37,1.17,1.17,0,0,1-.2.7.78.78,0,0,1-.69.29,2.66,2.66,0,0,1-1-.2,1.6,1.6,0,0,1-.78-.67,2,2,0,0,1-.94.67,4.89,4.89,0,0,1-1.52.2l.33-1.49a4.09,4.09,0,0,0,.7,0,1.31,1.31,0,0,0,.54-.2,4.92,4.92,0,0,0,.1-1.15v-7l1.22-.36.13.08v7.23a2.29,2.29,0,0,0,.16,1,.83.83,0,0,0,.48.42,3.4,3.4,0,0,0,.9.09A.67.67,0,0,1,139.78,77.41Z"/><path class="cls-1" d="M145.92,75.23a3.54,3.54,0,0,0,1.11.27l-.35,1.39a17.17,17.17,0,0,0-3.8,1,21.31,21.31,0,0,1-2.23.69,7.42,7.42,0,0,1-1.63.2l.31-1.49a9.26,9.26,0,0,0,1.49-.12c.48-.09,1.12-.26,1.92-.5s1.38-.41,1.91-.53c-.22-.11-.51-.26-.85-.45a7.25,7.25,0,0,0-1.34-.66,2.86,2.86,0,0,0-1-.19,3.81,3.81,0,0,0-.75.07,5.26,5.26,0,0,0-.75.21v-.07l.51-1.33a2.47,2.47,0,0,1,.59-.22,2.51,2.51,0,0,1,.67-.08,2.89,2.89,0,0,1,1,.21c.53.24,1.05.5,1.56.79C145,74.79,145.51,75.06,145.92,75.23Z"/></svg>