<svg id="Layer_1" data-name="Layer 1" xmlns="http://www.w3.org/2000/svg" xmlns:xlink="http://www.w3.org/1999/xlink" viewBox="0 0 1126.59 342.37"><defs><style>.cls-1{fill:url(#linear-gradient);}.cls-2{fill:url(#linear-gradient-2);}.cls-3{fill:#111;}</style><linearGradient id="linear-gradient" x1="70.52" y1="197.8" x2="297.85" y2="197.8" gradientTransform="matrix(1, 0, 0, -1, 0, 395.27)" gradientUnits="userSpaceOnUse"><stop offset="0" stop-color="#215c78"/><stop offset="0.6" stop-color="#0c9089"/><stop offset="1" stop-color="#00ae93"/></linearGradient><linearGradient id="linear-gradient-2" x1="70.96" y1="258.74" x2="71.02" y2="258.74" xlink:href="#linear-gradient"/></defs><path class="cls-1" d="M297.83,77.87v54.22a23.13,23.13,0,0,1-2.64,10.49c-1.78,3.41-4,5.1-6.74,5.1a6.31,6.31,0,0,1-2.44-.82,84.37,84.37,0,0,0-19.8-8q-9.18-2.25-23-2.26-2.35,0-4.74.12A107.55,107.55,0,0,0,225,138.28a51,51,0,0,0-8.68,2.34,44.5,44.5,0,0,0-7.86,3.79,33.88,33.88,0,0,0-12,13.06c-3.13,5.71-4.7,13.21-4.7,22.44a76.08,76.08,0,0,0,2.65,20.2,52.94,52.94,0,0,0,8,17,42.18,42.18,0,0,0,13.06,11.83,35.27,35.27,0,0,0,18,4.48c8.16,0,14.67-1.49,19.58-4.48.45-.28.89-.54,1.31-.83a52.2,52.2,0,0,0,10.93-9.17,97.24,97.24,0,0,0,8-10c2-3,4.14-4.49,6.32-4.49,3.81,0,6.26,3.15,7.36,9.41a149.37,149.37,0,0,1,1.62,24.49,205.32,205.32,0,0,1-3.25,35.91,96.44,96.44,0,0,1-12.47,33.48,73.2,73.2,0,0,1-25.49,24.89q-16.33,9.78-42.47,9.79a106,106,0,0,1-20.6-1.93A88,88,0,0,1,167,335.23a83.84,83.84,0,0,1-29-20A89.43,89.43,0,0,1,119.47,285,105.23,105.23,0,0,1,113,247.67a163.85,163.85,0,0,1,1.13-19.6,132.35,132.35,0,0,1,2.34-13.46,164.3,164.3,0,0,1,9.18-28.36,186.46,186.46,0,0,1,13.26-25.31c4.15-6.59,8.3-13.05,12.56-19.37l-.16,0H77.32a6.46,6.46,0,0,1-6.29-5c0-.08,0-.16-.06-.23a23.79,23.79,0,0,1-.45-4.32V77.86q0-11,4.91-18.15t18.35-7.14H274.6q13.47,0,18.35,7.14t4.9,18.15"/><path class="cls-2" d="M71,136.64h0a.85.85,0,0,1,0-.17v-.06a.86.86,0,0,0,0,.23"/><path class="cls-3" d="M448.3,170Q435,153.79,408.79,153.77c-17.5,0-31.72,6.93-41.6,20.8V101.78H340.41v182h26.78V216.94q0-16.11,10-27.15t25.35-11c10.22,0,17.94,3.08,23.66,9.21s8.58,15.13,8.58,26.91v68.89h26.77V214.6q0-28.33-13.25-44.58"/><path class="cls-3" d="M518,103.34a17.76,17.76,0,0,0-16.64,0Q493,107.5,493,117.9t8.32,14.69a17.21,17.21,0,0,0,16.64,0q8.32-4.29,8.32-14.69T518,103.34M496.13,283.75H522.9V155.08H496.13Z"/><path class="cls-3" d="M668.08,169.89q-15.47-16.37-39.64-16.38c-16.12,0-31,6.85-43.15,20.54l-1.56-18.72H559.3V283.75h26.77V216.68q0-16.11,10.14-27.3t25.73-11.17q16.38,0,25.47,10t9.1,26.91v68.63h27V214.86q0-28.59-15.47-45"/><polygon class="cls-3" points="769.58 215.91 824.96 157.16 824.96 155.59 792.46 155.59 744.89 208.1 744.89 102.05 717.85 102.05 717.85 283.75 744.89 283.75 744.89 224.49 799.74 283.75 832.49 283.75 832.49 281.94 769.58 215.91"/><path class="cls-3" d="M949,101.78H917.24l-81.62,182h30.93l17.15-38.21h98.53l17.41,38.21h30.93L949,101.78ZM894.62,219l38.48-86.56L971.58,219h-77Z"/><path class="cls-3" d="M1073,103.34a17.76,17.76,0,0,0-16.64,0Q1048,107.5,1048,117.9t8.32,14.69a17.21,17.21,0,0,0,16.64,0q8.33-4.29,8.32-14.69T1073,103.34m-21.84,180.41h26.78V155.08h-26.78Z"/></svg>