<?xml version="1.0" encoding="UTF-8" standalone="no"?>
<svg
   width="825.56403"
   height="338.34601"
   viewBox="0 0 825.56403 338.34602"
   fill="none"
   version="1.1"
   id="svg6"
   sodipodi:docname="Alat.svg"
   inkscape:version="1.3.2 (091e20e, 2023-11-25, custom)"
   xmlns:inkscape="http://www.inkscape.org/namespaces/inkscape"
   xmlns:sodipodi="http://sodipodi.sourceforge.net/DTD/sodipodi-0.dtd"
   xmlns="http://www.w3.org/2000/svg"
   xmlns:svg="http://www.w3.org/2000/svg">
  <sodipodi:namedview
     id="namedview6"
     pagecolor="#ffffff"
     bordercolor="#999999"
     borderopacity="1"
     inkscape:showpageshadow="2"
     inkscape:pageopacity="0"
     inkscape:pagecheckerboard="0"
     inkscape:deskcolor="#d1d1d1"
     inkscape:zoom="0.99999999"
     inkscape:cx="389.5"
     inkscape:cy="221"
     inkscape:window-width="1500"
     inkscape:window-height="912"
     inkscape:window-x="-8"
     inkscape:window-y="-8"
     inkscape:window-maximized="1"
     inkscape:current-layer="svg6" />
  <defs
     id="defs6">
    <clipPath
       id="clip0_1955_22320">
      <rect
         width="133"
         height="25"
         fill="#ffffff"
         transform="translate(0,0.5)"
         id="rect6"
         x="0"
         y="0" />
    </clipPath>
  </defs>
  <g
     clip-path="url(#clip0_1955_22320)"
     id="g6"
     transform="matrix(4.5112782,0,0,4.5112782,112.78201,110.52639)">
    <path
       d="M 23.5792,7.10464 17.6832,1.21094 11.7871,7.10464 5.89604,12.9983 0,18.8921 l 5.89604,5.8887 5.89106,-5.8887 5.8961,-5.8938 5.896,5.8938 5.8911,5.8887 5.896,-5.8887 -5.896,-5.8938 z"
       fill="white"
       id="path1"
       style="fill:#03283a;fill-opacity:1" />
    <path
       d="m 95.6886,7.10464 -5.8961,-5.8937 -5.896,5.8937 -5.8911,5.89366 -5.896,5.8938 5.896,5.8887 5.8911,-5.8887 5.896,-5.8938 5.8961,5.8938 5.8964,5.8887 5.891,-5.8887 -5.891,-5.8938 z"
       fill="white"
       id="path2"
       style="fill:#03283a;fill-opacity:1" />
    <path
       d="M 49.571,17.1667 V 0.5 h -8.3366 v 25 h 25.0099 v -8.3333 z"
       fill="white"
       id="path3"
       style="fill:#03283a;fill-opacity:1" />
    <path
       d="m 124.664,0.5 h -8.331 -8.337 v 8.33333 h 8.337 V 17.1667 25.5 h 8.331 V 17.1667 8.83333 h 8.337 V 0.5 Z"
       fill="white"
       id="path4"
       style="fill:#03283a;fill-opacity:1" />
    <path
       d="m 17.6851,24.7833 5.896,-5.8888 h -11.792 z"
       fill="white"
       id="path5"
       style="fill:#03283a;fill-opacity:1" />
    <path
       d="m 89.7906,24.7833 5.896,-5.8888 H 83.8945 Z"
       fill="white"
       id="path6"
       style="fill:#03283a;fill-opacity:1" />
  </g>
</svg>
