<svg id="Layer_1" data-name="Layer 1" xmlns="http://www.w3.org/2000/svg" xmlns:xlink="http://www.w3.org/1999/xlink" viewBox="0 0 686.38 371.44"><defs><style>.cls-1{fill:#9e9e9e;}.cls-2{fill:url(#linear-gradient);}.cls-3{fill:url(#linear-gradient-2);}.cls-4{fill:url(#linear-gradient-3);}.cls-5{fill:url(#linear-gradient-4);}.cls-6{fill:url(#linear-gradient-5);}.cls-7{fill:url(#linear-gradient-6);}.cls-8{fill:url(#linear-gradient-7);}.cls-9{fill:url(#linear-gradient-8);}.cls-10{fill:url(#linear-gradient-9);}.cls-11{fill:url(#linear-gradient-10);}.cls-12{fill:url(#linear-gradient-11);}.cls-13{fill:url(#linear-gradient-12);}.cls-14{fill:url(#linear-gradient-13);}.cls-15{fill:url(#linear-gradient-14);}.cls-16{fill:url(#linear-gradient-15);}.cls-17{fill:url(#linear-gradient-16);}.cls-18{fill:url(#linear-gradient-17);}.cls-19{fill:url(#linear-gradient-18);}.cls-20{fill:url(#linear-gradient-19);}.cls-21{fill:url(#linear-gradient-20);}.cls-22{fill:url(#linear-gradient-21);}</style><linearGradient id="linear-gradient" x1="-946.93" y1="-1136.66" x2="-1003.8" y2="-1136.66" gradientTransform="matrix(-0.81, -0.59, -0.59, 0.81, -1083.4, 362.97)" gradientUnits="userSpaceOnUse"><stop offset="0" stop-color="#02323c"/><stop offset="0.5" stop-color="#006941"/><stop offset="1" stop-color="#7ecaa9"/></linearGradient><linearGradient id="linear-gradient-2" x1="474.53" y1="457.56" x2="525.84" y2="425.7" gradientTransform="matrix(1, 0, 0, -1, -80.64, 489.19)" xlink:href="#linear-gradient"/><linearGradient id="linear-gradient-3" x1="-37.25" y1="-1116.43" x2="-94.11" y2="-1116.43" gradientTransform="matrix(0.81, 0.59, -0.59, 0.81, -195.46, 1008.64)" xlink:href="#linear-gradient"/><linearGradient id="linear-gradient-4" x1="466.51" y1="419.05" x2="435.8" y2="498.41" gradientTransform="matrix(1, 0, 0, -1, -80.64, 489.19)" xlink:href="#linear-gradient"/><linearGradient id="linear-gradient-5" x1="-1442.66" y1="271.85" x2="-1499.52" y2="271.85" gradientTransform="translate(-1156.34 468.68) rotate(180)" xlink:href="#linear-gradient"/><linearGradient id="linear-gradient-6" x1="47.22" y1="-973.57" x2="98.54" y2="-1005.43" gradientTransform="matrix(0.81, 0.59, -0.59, 0.81, -270.71, 956.45)" xlink:href="#linear-gradient"/><linearGradient id="linear-gradient-7" x1="458.46" y1="292.52" x2="401.6" y2="292.52" gradientTransform="matrix(1, 0, 0, -1, -58.36, 468.68)" xlink:href="#linear-gradient"/><linearGradient id="linear-gradient-8" x1="39.14" y1="-1012.14" x2="8.42" y2="-932.78" gradientTransform="matrix(0.81, 0.59, -0.59, 0.81, -270.71, 956.45)" xlink:href="#linear-gradient"/><linearGradient id="linear-gradient-9" x1="380.94" y1="2574.61" x2="324.08" y2="2574.61" gradientTransform="matrix(-0.31, -0.95, 0.95, -0.31, -2092.18, 1238.14)" xlink:href="#linear-gradient"/><linearGradient id="linear-gradient-10" x1="-2781.95" y1="-1763.54" x2="-2730.63" y2="-1795.4" gradientTransform="matrix(-0.31, 0.95, -0.95, -0.31, -2281.36, 2232)" xlink:href="#linear-gradient"/><linearGradient id="linear-gradient-11" x1="-1365.9" y1="2595.82" x2="-1422.79" y2="2595.82" gradientTransform="matrix(0.31, 0.95, 0.95, -0.31, -1753.23, 2283.27)" xlink:href="#linear-gradient"/><linearGradient id="linear-gradient-12" x1="-2789.97" y1="-1802.08" x2="-2820.68" y2="-1722.72" gradientTransform="matrix(-0.31, 0.95, -0.95, -0.31, -2281.36, 2232)" xlink:href="#linear-gradient"/><linearGradient id="linear-gradient-13" x1="-813.51" y1="1667.34" x2="-870.38" y2="1667.34" gradientTransform="matrix(-0.81, 0.59, 0.59, 0.81, -1394.66, -803.87)" xlink:href="#linear-gradient"/><linearGradient id="linear-gradient-14" x1="-1282.71" y1="-1732.49" x2="-1231.4" y2="-1764.35" gradientTransform="matrix(0.31, -0.95, -0.95, -0.31, -964.5, -1719.71)" xlink:href="#linear-gradient"/><linearGradient id="linear-gradient-15" x1="-170.66" y1="1688.43" x2="-227.56" y2="1688.43" gradientTransform="matrix(0.81, -0.59, 0.59, 0.81, -506.72, -1449.54)" xlink:href="#linear-gradient"/><linearGradient id="linear-gradient-16" x1="-1290.81" y1="-1771.06" x2="-1321.52" y2="-1691.71" gradientTransform="matrix(0.31, -0.95, -0.95, -0.31, -964.5, -1719.71)" xlink:href="#linear-gradient"/><linearGradient id="linear-gradient-17" x1="1713.92" y1="-2022.64" x2="1657.06" y2="-2022.64" gradientTransform="matrix(0.31, -0.95, -0.95, -0.31, -2005.78, 1085.4)" xlink:href="#linear-gradient"/><linearGradient id="linear-gradient-18" x1="-1158.42" y1="2739.32" x2="-1107.11" y2="2707.46" gradientTransform="matrix(0.31, 0.95, 0.95, -0.31, -1816.6, 2079.25)" xlink:href="#linear-gradient"/><linearGradient id="linear-gradient-19" x1="-2698.89" y1="-2001.44" x2="-2755.77" y2="-2001.44" gradientTransform="matrix(-0.31, 0.95, -0.95, -0.31, -2344.73, 2130.52)" xlink:href="#linear-gradient"/><linearGradient id="linear-gradient-20" x1="-1166.49" y1="2700.75" x2="-1197.2" y2="2780.11" gradientTransform="matrix(0.31, 0.95, 0.95, -0.31, -1816.6, 2079.25)" xlink:href="#linear-gradient"/><linearGradient id="linear-gradient-21" x1="423.83" y1="330.25" x2="423.83" y2="438.33" gradientTransform="matrix(1, 0, 0, -1, 0, 596.72)" gradientUnits="userSpaceOnUse"><stop offset="0" stop-color="#02323c"/><stop offset="0.09" stop-color="#02443e"/><stop offset="0.23" stop-color="#025740"/><stop offset="0.37" stop-color="#046541"/><stop offset="0.5" stop-color="#006941"/><stop offset="1" stop-color="#7ecaa9"/></linearGradient></defs><g id="Artwork"><path class="cls-1" d="M673,391l-1.81,3.62,8.4-4.28.66-3.63-5.11,2.64c-.82-.33-2.47-1.15-2.47-2.31,0-.33,1.32-1.15,3-2l1.32.65,1.15-2.3-.17-.17a3,3,0,0,0-2.14-1c-3,0-4.77,2.8-4.77,5.43A4.25,4.25,0,0,0,673,391Z" transform="translate(-80.64 -107.54)"/><polygon class="cls-1" points="540.44 282.82 543.08 285.62 546.86 282.16 543.24 278.37 540.28 281.17 537.48 278.37 533.85 281.83 537.31 285.62 540.44 282.82"/><polygon class="cls-1" points="386.26 282.82 388.74 285.62 392.69 282.16 389.06 278.37 385.94 281.17 383.3 278.37 379.68 281.83 382.97 285.62 386.26 282.82"/><polygon class="cls-1" points="625.76 311.65 623.13 308.85 619.34 312.31 622.8 315.93 625.93 313.13 628.57 315.93 632.35 312.63 628.89 308.85 625.76 311.65"/><path class="cls-1" d="M755.49,385.25l1.15-2.47-5.11,3L753,409H745a30.35,30.35,0,0,0-9.06-20.43v-2l-4.62,3.95,1.16,1.32c-2,1.15-6.92,4.45-6.92,10.05,0,2.47,2.3,5.1,3.13,5.93-2.47,1.15-2.8,1.15-5.93,1.15H712l-4.28-13v-2.47l-4,5.27L708.21,409H683.83l-4.28-13v-2.47l-3.95,5.27L680.05,409H629.64l-4.12-12.85v-2.3l-.49.33c-2.14,1.48-12.85,9.05-12.85,15.15,0,3.29,4.28,4.45,8.4,4.45,1.32,0,8.4-.17,8.4-2.31l.17,2h51.39l2.8-2v2h25.2l2.8-2v2h11.2c4.29-.17,5.77-.83,9.06-3.46,2.47,1.48,7.09,3.62,10.22,3.62a2.62,2.62,0,0,0,2.8-1.81l.49,1.48h9.06l2.47-1.32ZM620.91,409.3c-4.28,0-5.43-1.65-5.43-2.47,0-1,2.63-3.46,6.91-6.59l3.63,8.24A23.65,23.65,0,0,1,620.91,409.3Zm114.48-9.72a13.54,13.54,0,0,1-2.8,5.27c-.82-.66-4.12-3.29-4.12-5.27,0-1.15,2.31-3,4.12-3.62a2.49,2.49,0,0,1,1.32-.33c.33,0,.49,0,.49.16C735.39,396.45,735.72,398.43,735.39,399.58Zm6.92,9.23h0a14.41,14.41,0,0,1-6.59-2.15c1.81-4.94,2.64-6.91,3-7.57a25.13,25.13,0,0,1,3.78,9.39C742.31,408.48,742.31,408.64,742.31,408.81Z" transform="translate(-80.64 -107.54)"/><polygon class="cls-1" points="684.9 277.38 686.22 274.92 681.11 278.04 683.09 306.05 686.38 304.23 684.9 277.38"/><path class="cls-1" d="M527.19,396.78h0l-3,.82-1.81.5.82.82c-1.31,3-4.94,10.05-9.22,10.05H475.47l-4.12-12.85v-2.3l-.33.33c-2.14,1.48-12.85,9.05-12.85,15.15,0,3.29,4.28,4.45,8.4,4.45,1.32,0,8.07-.17,8.24-2.14l.33,1.81h39.53c2.63-.33,5.27-2.8,5.93-3.63,2.14,2.14,6.42,5.11,10.21,5.11,2.47,0,2.8-2.47,2.8-3.13C533.94,405.51,529.33,398.26,527.19,396.78ZM466.57,409.3c-4.28,0-5.43-1.65-5.43-2.47,0-1,2.63-3.46,6.91-6.59l3.63,8.24A23.65,23.65,0,0,1,466.57,409.3Zm63.42,1c0,.16-.17.33-.66.33-1.48,0-5.11-2.8-6.59-4.12l3.13-5.27C528,403.37,530.48,408,530,410.29Z" transform="translate(-80.64 -107.54)"/><path class="cls-1" d="M590.44,382.78l-5.11,3L586.82,409h-7.91c-3.79-.16-5.6-.33-7.25-1.32a.56.56,0,0,0,.33-.16l7.41-5.6,1-4.12a17.12,17.12,0,0,0-11.2-3.62,22.13,22.13,0,0,0-11.2,3.13h-.16L557,403.2l1.48-1.31,6.1,4.61c-1.48,1-3.79,2.63-6.92,2.63H543l-1-23.88,1.16-2.47-5.11,3,2,27.68h18.44c2.8-.17,6.43-2,9.39-3.79,3.46,3.13,4.78,3.62,11.2,3.79h8.73l2.47-1.32-1.48-26.85Zm-28.33,17.46a16.91,16.91,0,0,1,7.41-1.65,14.87,14.87,0,0,1,5.77,1.49l-6.92,4.77Z" transform="translate(-80.64 -107.54)"/><polygon class="cls-1" points="518.7 277.38 519.85 274.92 514.74 278.04 516.72 306.05 520.01 304.23 518.7 277.38"/><polygon class="cls-1" points="8.4 282.82 11.04 285.62 14.82 282.16 11.2 278.37 8.24 281.17 5.44 278.37 1.81 281.83 5.27 285.62 8.4 282.82"/><path class="cls-1" d="M343.69,400.4c.17-.32,3.63-4.77,8.57-4.77a21,21,0,0,1,6.91,1.65l.83.32-.17-.49c-.33-1.32-4.11-5.93-7.9-5.93-4.45,0-11,6.59-11,11.37,0,2.14,1.65,5.6,2.31,6.75h-9.89l-1-23.88,1.15-2.48-5.11,3,2,27.67h32.94v-4.45H349.13C348.3,408.31,343.69,402.38,343.69,400.4Z" transform="translate(-80.64 -107.54)"/><polygon class="cls-1" points="304.73 281.83 300.94 278.37 297.48 282 297.48 282.33 301.11 285.79 304.73 281.83"/><polygon class="cls-1" points="226.32 287.43 228.96 290.23 232.75 286.94 229.12 283.15 226.16 285.95 223.36 283.15 219.73 286.61 223.19 290.23 226.32 287.43"/><path class="cls-1" d="M449.28,385.25l1.15-2.47-5.11,3L446.81,409h-9.39l-1.32-23.88,1.15-2.47-5.1,3,1.48,23.23H424.9a35.2,35.2,0,0,0-2-9.72c-1.65-4-3.79-5.93-6.26-5.93h0c-3.79,0-9.39,6.26-12.19,10-1.15,1.49-2.3,3.13-3.29,4.62v-8.9l-.5,1.16c0,.16-3.62,8.56-8.73,8.56h-4.28l-4.28-13v-2.47l-3.95,5.27,4.44,10.21H371.69l-1-23.88,1.15-2.47-4.61,3.62,2,27.67h15.49l3-2v2h4.45c3.46,0,5.6-2.8,6.42-4.28v3.46a19.52,19.52,0,0,0-1.15,3.79s1.81-2,2.47-2.8h23.06a2.82,2.82,0,0,0,2.31-1.65l.82,1.65h9.39l2.31-1.32.49,1.32h10.21l2.47-1.32Zm-45,23.88h-1.16c4.12-4.94,9.89-11.2,13.35-11.2h0c3.95,0,5.43,9.39,5.76,11.2Z" transform="translate(-80.64 -107.54)"/><path class="cls-1" d="M319.15,393.65l-3.95,5.27,4.44,10.21H295.43c-2.47,0-4.94-1.31-4.94-3.95,0-3.62,1.81-5.76,3.79-8.07.16-.16.33-.49.65-.66l1.16-1.32-1.48,1c-.33.17-7.42,4.78-7.42,10.05,0,3.29,1.32,5.44,4.12,6.59a31.7,31.7,0,0,0,9.39,1h19.44l3.79-2.64-4.78-14.82Z" transform="translate(-80.64 -107.54)"/><polygon class="cls-1" points="46.78 311.65 44.14 308.85 40.52 312.31 43.98 315.93 47.11 313.13 49.58 315.93 53.53 312.63 49.91 308.85 46.78 311.65"/><path class="cls-1" d="M265.12,382.78l-5.11,3L261.5,409h-9.23c-3.79-.16-5.6-.33-7.24-1.32a.56.56,0,0,0,.32-.16l7.42-5.6,1-4.12a17.18,17.18,0,0,0-11.21-3.62,22.16,22.16,0,0,0-11.2,3.13h-.16l-.82,5.92,1.48-1.31,6.09,4.61c-1.48,1-3.79,2.63-6.92,2.63H220.65l-4.29-13v-2.47l-4,5.27,4.45,10.21h-3.3c-6.09,0-7.57-4.77-8.4-8.56l-.16-1-.33,1c0,.16-3.13,8.56-6.26,8.56h-2.47v-9.71l-.49,1.15c0,.16-3.63,8.56-8.73,8.56h-6.43l-14.82-14,17.13-8.89,1.15.66V381l-21.91,12.19.5,3.79L175,409.3H150.15a27.18,27.18,0,0,0-3.3-7.25v-3.62l-3.62,6.75.16.17s4.78,6.42,4.78,8.56c0,3.63-9.72,10.87-9.72,10.87l-.49.33,5.27,1.32.16-.16c.33-.33,6.26-5.93,7.09-12.52h26.19l3-2.31v2.31h7.58c3.29-.17,5.11-2.8,5.93-4.29v4.29h5.6c2.8,0,4.61-1.16,6.26-4.12,1.32,2,3,4.12,8.07,4.12h4.28l3.13-2.14v2.14H232c2.8-.17,6.43-2,9.39-3.79,3.46,3.13,4.78,3.62,11.2,3.79h10.21l2.48-1.32-1.49-26.85Zm-29.81,17.46a16.91,16.91,0,0,1,7.41-1.65,14.77,14.77,0,0,1,5.76,1.49l-6.91,4.77Z" transform="translate(-80.64 -107.54)"/><polygon class="cls-1" points="193.21 277.55 194.53 275.08 189.43 278.21 191.4 306.21 194.7 304.4 193.21 277.55"/><path class="cls-1" d="M133.84,396.12v-2.47l-4,5.27,4.44,10.21H98.1l-4.29-12.84V394l-.33.17c-2.14,1.48-12.84,9.05-12.84,15.15,0,3.29,4.28,4.45,8.4,4.45,1.31,0,8.4-.17,8.4-2.31l.16,2H135l3.79-2.64ZM89,409.3c-4.29,0-5.44-1.65-5.44-2.47,0-1,2.64-3.46,6.92-6.59l3.62,8.24A23.55,23.55,0,0,1,89,409.3Z" transform="translate(-80.64 -107.54)"/><path class="cls-1" d="M118.69,448.67c-5.27,0-9.06,4.44-9.06,10.37,0,6.92,4.44,10,8.89,10a8,8,0,0,0,6.59-3.95l.33-.66-.66.33a9.24,9.24,0,0,1-4.45,1.32c-4.11,0-7.41-3.46-7.41-8.07v-.66l12.85-.17v-.16c0-.5.16-1,.16-1.48C125.93,451.47,123.13,448.67,118.69,448.67Zm-5.27,6.75c.49-2,1.81-4.78,5.27-4.78,2.14,0,3.29,1.65,3.46,4.45Z" transform="translate(-80.64 -107.54)"/><path class="cls-1" d="M101.06,459v6.43a20,20,0,0,1-4.94.82c-6.75,0-11.2-4.61-11.2-11.53s4.45-11.2,11.69-11.2a13.65,13.65,0,0,1,4.78.82l3.13,4.29v-6.1h-.16a20.32,20.32,0,0,0-8.4-1.48c-8.9,0-15.16,5.93-15.16,14.5,0,8.07,5.93,13.5,14.66,13.5a28.65,28.65,0,0,0,9.88-2.14h.17v-7.74l3.46-2.47H97.11Z" transform="translate(-80.64 -107.54)"/><path class="cls-1" d="M161.35,448.67c-5.27,0-9.06,4.44-9.06,10.37,0,6.92,4.45,10,8.89,10a8,8,0,0,0,6.59-3.95l.33-.66-.66.33a9.23,9.23,0,0,1-4.44,1.32c-4.12,0-7.42-3.46-7.42-8.07v-.66l12.85-.17v-.16c0-.5.17-1,.17-1.48C168.6,451.47,165.63,448.67,161.35,448.67Zm-5.44,6.75c.5-2,1.81-4.78,5.27-4.78,2.15,0,3.3,1.65,3.46,4.45Z" transform="translate(-80.64 -107.54)"/><path class="cls-1" d="M201.05,463v-6.76c0-5.1-1.82-7.41-5.77-7.41-3.62,0-8.4,3-8.4,5.27a2.83,2.83,0,0,0,2.47,2.8h.17l1.48-4.61a6.39,6.39,0,0,1,3-.66,3.36,3.36,0,0,1,2.47.83c1.16,1.15,1.16,3.62,1.16,5.93h0c-10.38,0-11.2,4.94-11.2,6.42,0,2.8,2.47,4.45,4.94,4.45a8.6,8.6,0,0,0,6.42-2.8c.17,1.81,1.48,2.8,3.79,2.8,1.48,0,3-1.65,3-1.65l.33-.33h-.49C201.54,467.12,201.05,466.79,201.05,463Zm-4.29-2.64h.66v4.28a6.3,6.3,0,0,1-4.45,1.65,2.38,2.38,0,0,1-2.63-2.47C190.17,463,190.67,460.36,196.76,460.36Z" transform="translate(-80.64 -107.54)"/><polygon class="cls-1" points="130.79 332.57 124.03 334.54 127 336.19 127 358.76 124.2 361.23 134.25 361.23 130.79 358.76 130.79 332.57"/><path class="cls-1" d="M182.43,448.67c-1.64,0-3.46,1.31-4.94,3.62l-1.65-3.79-6.09,1.81L173.7,452c.33,1.32.17,10.54,0,14.17l-3,2.47h10.7l-3.62-2.47V453.94a6.84,6.84,0,0,1,3.29-2.31,9.25,9.25,0,0,1,2.64,1.81l.16.17.17-.17a3.63,3.63,0,0,0,1.32-2.63C185.4,449.82,184.57,448.67,182.43,448.67Z" transform="translate(-80.64 -107.54)"/><path class="cls-1" d="M148.34,456.24c0-5.6-3.46-7.57-6.76-7.57-3.13,0-5.6,2-6.92,3.29l-1.48-3.46-5.76,2,4,1.65c.33,1.31.16,10.54,0,14.16l-3,2.47h10.38l-3.62-2.47V453.61a7,7,0,0,1,4.45-1.81c3.45,0,4.77,2.3,4.77,7.57v7.09l-3,2.47h10.37l-3.62-2.47V456.24Z" transform="translate(-80.64 -107.54)"/><polygon class="cls-1" points="269.97 340.97 263.38 342.78 266.35 344.43 266.35 358.76 263.38 361.23 273.6 361.23 269.97 358.76 269.97 340.97"/><path class="cls-1" d="M348.14,446.69a2.48,2.48,0,1,0-2.64-2.47A2.56,2.56,0,0,0,348.14,446.69Z" transform="translate(-80.64 -107.54)"/><path class="cls-1" d="M236.62,441.09h-2.8l-9.38,25L221,468.76h10.7l-4.28-2.63,2.8-7.58h9.06l2.64,7.74-3.63,2.47h11.37l-3.13-2.47Zm1.65,15H231l3.63-9.55Z" transform="translate(-80.64 -107.54)"/><path class="cls-1" d="M266.77,449H259l3.78,2.47V464a7.55,7.55,0,0,1-4.77,2c-3.13,0-4.12-1.81-4.12-7.57v-9.56h-7.74l3.62,2.47v9.89c0,4.77,2.47,7.57,6.43,7.57,3,0,5.76-2.3,6.75-3.13v3.46l6.26-3.62-2.31-.33V449Z" transform="translate(-80.64 -107.54)"/><path class="cls-1" d="M279.62,466.62c-1.65,0-2-1-2-4.94V451.3h3.95v-2.14h-3.95V443.4L273.36,446v3h-2l-1,2.14h3.13V462.5c0,3.13.5,6.76,3.63,6.76a6.51,6.51,0,0,0,5.76-3l.17-.49-.5.16A9.74,9.74,0,0,1,279.62,466.62Z" transform="translate(-80.64 -107.54)"/><path class="cls-1" d="M363.46,466.62c-1.65,0-2-1-2-4.94V451.3h3.95v-2.14h-3.95V443.4L357.2,446v3h-2l-1,2.14h3.13V462.5c0,3.13.5,6.76,3.63,6.76a6.51,6.51,0,0,0,5.76-3l.17-.49-.5.16A9.65,9.65,0,0,1,363.46,466.62Z" transform="translate(-80.64 -107.54)"/><path class="cls-1" d="M316.84,448.67c-5.93,0-9.88,4.12-9.88,10,0,6.1,4.12,10.38,9.88,10.38s10.05-4.45,10.05-10.38A9.6,9.6,0,0,0,316.84,448.67Zm-.16,2.14c4.45,0,6.09,5.1,6.09,8.56,0,5.27-3,7.75-5.6,7.75-4.12,0-6.09-5.28-6.09-8.9C310.91,454.43,312.72,450.81,316.68,450.81Z" transform="translate(-80.64 -107.54)"/><path class="cls-1" d="M379.27,449l3.46,2.63-5.11,11.86c-2.3-5.76-3.79-9.88-4.44-12l2.63-2.47h-9.72l2.8,2.47c.5,1.15,1.49,3.62,3.3,7.9a74.3,74.3,0,0,1,3.29,9.23,46.44,46.44,0,0,1-3.46,6.92,18.84,18.84,0,0,1-2.47-1.49h-.16l-.17.17a3.12,3.12,0,0,0-1.48,2.47,2.45,2.45,0,0,0,2.64,2.31c1.81,0,3.62-2,5.43-5.77l2-4.28,7.25-16.8,4.11-2.8h-9.88Z" transform="translate(-80.64 -107.54)"/><path class="cls-1" d="M339.74,448.67c-1.65,0-3.46,1.31-4.94,3.62l-1.65-3.79-6.1,1.81,4,1.65c.33,1.32.16,10.54,0,14.17l-3,2.47h10.71l-3.62-2.47V453.94a6.75,6.75,0,0,1,3.29-2.31,9.25,9.25,0,0,1,2.64,1.81l.16.17.17-.17a3.65,3.65,0,0,0,1.31-2.63C342.7,449.82,341.88,448.67,339.74,448.67Z" transform="translate(-80.64 -107.54)"/><path class="cls-1" d="M303.83,456.24c0-5.6-3.46-7.57-6.75-7.57a9.55,9.55,0,0,0-6.59,3.13V440.27l-6.76,1.81,3,1.65v22.73l-3,2.47H294l-3.63-2.47V453.77a6.47,6.47,0,0,1,4.78-2c3.29,0,4.45,2.14,4.45,7.57v7.09l-3,2.47h10.71l-3.63-2.47V456.24Z" transform="translate(-80.64 -107.54)"/><path class="cls-1" d="M515.66,446.69a2.56,2.56,0,0,0,2.63-2.47,2.47,2.47,0,0,0-2.63-2.47,2.48,2.48,0,1,0,0,4.94Z" transform="translate(-80.64 -107.54)"/><path class="cls-1" d="M492.43,446.69a2.57,2.57,0,0,0,2.64-2.47,2.47,2.47,0,0,0-2.64-2.47,2.56,2.56,0,0,0-2.63,2.47A2.8,2.8,0,0,0,492.43,446.69Z" transform="translate(-80.64 -107.54)"/><path class="cls-1" d="M729,446.69a2.56,2.56,0,0,0,2.63-2.47,2.47,2.47,0,0,0-2.63-2.47,2.48,2.48,0,1,0,0,4.94Z" transform="translate(-80.64 -107.54)"/><path class="cls-1" d="M581.87,449l3.46,2.63-5.1,11.86c-2.31-5.76-3.79-9.88-4.45-12l2.63-2.47H568.7l2.8,2.47c.49,1.32,1.48,3.62,3.29,7.9a74.74,74.74,0,0,1,3.3,9.23,47.55,47.55,0,0,1-3.46,6.92,18.18,18.18,0,0,1-2.47-1.49H572l-.16.17a3.13,3.13,0,0,0-1.49,2.47A2.45,2.45,0,0,0,573,479c1.81,0,3.62-2,5.43-5.77l2-4.28,7.25-16.8,4.12-2.8h-9.89Z" transform="translate(-80.64 -107.54)"/><path class="cls-1" d="M566.88,448.67c-1.64,0-3.45,1.31-4.94,3.62l-1.64-3.79-6.1,1.81,3.95,1.65c.33,1.32.17,10.54,0,14.17l-3,2.47H565.9l-3.63-2.47V453.94a6.82,6.82,0,0,1,3.3-2.31,9.3,9.3,0,0,1,2.63,1.81l.17.17.16-.17a3.63,3.63,0,0,0,1.32-2.63C569.68,449.82,569,448.67,566.88,448.67Z" transform="translate(-80.64 -107.54)"/><polygon class="cls-1" points="437.49 340.97 430.74 342.78 433.87 344.43 433.87 358.76 430.9 361.23 441.12 361.23 437.49 358.76 437.49 340.97"/><polygon class="cls-1" points="414.27 340.97 407.68 342.78 410.64 344.43 410.64 358.76 407.68 361.23 417.89 361.23 414.27 358.76 414.27 340.97"/><polygon class="cls-1" points="425.8 332.57 419.04 334.54 422.17 336.19 422.17 358.76 419.21 361.23 429.42 361.23 425.8 358.76 425.8 332.57"/><path class="cls-1" d="M553.71,467.12c-2.47,0-3-.33-3-4.12v-6.76c0-5.1-1.81-7.41-5.76-7.41-3.63,0-8.4,3-8.4,5.27a2.82,2.82,0,0,0,2.47,2.8h.16l1.48-4.61a6.41,6.41,0,0,1,3-.66,3.38,3.38,0,0,1,2.47.83c1.15,1.15,1.15,3.62,1.15,5.93h0c-10.37,0-11.2,4.94-11.2,6.42,0,2.8,2.47,4.45,4.94,4.45a8.62,8.62,0,0,0,6.43-2.8c.16,1.81,1.48,2.8,3.79,2.8,1.48,0,3-1.65,3-1.65l.33-.33h-.82Zm-6.59-6.76v4.28a6.3,6.3,0,0,1-4.45,1.65,2.38,2.38,0,0,1-2.63-2.47c0-.82.49-3.46,6.58-3.46Z" transform="translate(-80.64 -107.54)"/><path class="cls-1" d="M531.31,466.62c-1.65,0-2-1-2-4.94V451.3h3.95v-2.14h-3.95V443.4L525.05,446v3h-2l-1,2.14h3.13V462.5c0,3.13.5,6.76,3.62,6.76a6.51,6.51,0,0,0,5.77-3l.16-.49-.49.16A11.36,11.36,0,0,1,531.31,466.62Z" transform="translate(-80.64 -107.54)"/><path class="cls-1" d="M419.3,448.67c-5.93,0-9.89,4.12-9.89,10,0,6.1,4.12,10.38,9.89,10.38s10-4.45,10-10.38A9.59,9.59,0,0,0,419.3,448.67Zm-.17,2.14c4.45,0,6.1,5.1,6.1,8.56,0,5.27-3,7.75-5.6,7.75-4.12,0-6.1-5.28-6.1-8.9C413.37,454.43,415.18,450.81,419.13,450.81Z" transform="translate(-80.64 -107.54)"/><path class="cls-1" d="M442.19,448.67c-1.64,0-3.46,1.31-4.94,3.62l-1.65-3.79-6.09,1.81,3.95,1.65c.33,1.32.17,10.54,0,14.17l-3,2.47h10.7l-3.62-2.47V453.94a6.82,6.82,0,0,1,3.3-2.31,9.3,9.3,0,0,1,2.63,1.81l.17.17.16-.17a3.63,3.63,0,0,0,1.32-2.63C445.16,449.82,444.33,448.67,442.19,448.67Z" transform="translate(-80.64 -107.54)"/><path class="cls-1" d="M407.93,440.27c-2.63,0-7.74,2.63-8.07,8.73h-1.65l-1,2.14H400v15.15l-3,2.47h10.71l-3.63-2.47v-15h4.29v-2.14h-4.29c0-2.63,0-5.43,1.65-6.26a14.22,14.22,0,0,1,3.13,1.81l.16.17.17-.17a5.41,5.41,0,0,0,1.15-2.63C410.24,441.09,409.91,440.27,407.93,440.27Z" transform="translate(-80.64 -107.54)"/><polygon class="cls-1" points="650.8 340.97 644.21 342.78 647.18 344.43 647.18 358.76 644.21 361.23 654.42 361.23 650.8 358.76 650.8 340.97"/><path class="cls-1" d="M744.12,448.67c-5.27,0-9.06,4.44-9.06,10.37,0,6.92,4.45,10,8.9,10a8,8,0,0,0,6.59-3.95l.32-.66-.65.33a9.3,9.3,0,0,1-4.45,1.32c-4.12,0-7.41-3.46-7.41-8.07v-.66l12.84-.17v-.16c0-.5.17-1,.17-1.48A6.85,6.85,0,0,0,744.12,448.67Zm-5.43,6.75c.49-2,1.81-4.78,5.27-4.78,2.14,0,3.29,1.65,3.46,4.45Z" transform="translate(-80.64 -107.54)"/><polygon class="cls-1" points="517.87 361.23 527.92 361.23 524.46 358.76 524.46 336.02 527.26 333.55 517.22 333.55 520.67 336.02 520.67 358.76 517.87 361.23"/><path class="cls-1" d="M703.93,466.62c-1.65,0-2-1-2-4.94V451.3h4v-2.14h-4V443.4L697.67,446v3h-2l-1,2.14h3.13V462.5c0,3.13.49,6.76,3.62,6.76a6.49,6.49,0,0,0,5.76-3l.17-.49-.49.16A11.48,11.48,0,0,1,703.93,466.62Z" transform="translate(-80.64 -107.54)"/><path class="cls-1" d="M650.89,440.1l-7.08,1.81,2.8,1.65v5.93a9.37,9.37,0,0,0-4-1c-6.26,0-9.56,5.6-9.56,10.87,0,4.45,2.31,9.56,8.9,9.56a7.54,7.54,0,0,0,4.61-2v2.31l6.42-3-2.3-.66V440.1Zm-4.28,13.84v11a14.42,14.42,0,0,1-3.46,1c-3.95,0-6.42-3.29-6.42-8.07,0-3.46,1.81-7.08,5.93-7.08A4,4,0,0,1,646.61,453.94Z" transform="translate(-80.64 -107.54)"/><path class="cls-1" d="M687,457.23c-2.3-1-4.28-2-4.28-4,0-1.81,2-2.47,3.46-2.47a3.84,3.84,0,0,1,3.13,1.48l2.47,3.3v-5.44h-.16a10.94,10.94,0,0,0-5.27-1.32c-3,0-7.42,1.81-7.42,5.6,0,3.3,3,4.61,5.6,5.93,2.31,1.16,4.29,2.14,4.29,4.12,0,1.81-1.65,2.8-3.3,2.8a5.21,5.21,0,0,1-4-1.65l-2.64-3.29v5.43h.17a16.73,16.73,0,0,0,6.42,1.49c3.46,0,7.08-2.31,7.08-6.26C692.56,459.87,689.6,458.39,687,457.23Z" transform="translate(-80.64 -107.54)"/><path class="cls-1" d="M761.42,457.23c-2.31-1-4.29-2-4.29-4,0-1.81,2-2.47,3.46-2.47a3.84,3.84,0,0,1,3.13,1.48l2.47,3.3v-5.44H766a10.91,10.91,0,0,0-5.27-1.32c-3,0-7.41,1.81-7.41,5.6,0,3.3,3,4.61,5.6,5.93,2.3,1.16,4.28,2.14,4.28,4.12,0,1.81-1.65,2.8-3.3,2.8a5.21,5.21,0,0,1-3.95-1.65l-2.63-3.29v5.43h.16a16.73,16.73,0,0,0,6.42,1.49c3.46,0,7.09-2.31,7.09-6.26C767,459.87,764.05,458.39,761.42,457.23Z" transform="translate(-80.64 -107.54)"/><path class="cls-1" d="M629.64,456.24c0-5.6-3.46-7.57-6.75-7.57-3.13,0-5.6,2-6.92,3.29l-1.65-3.46-5.76,2,4,1.65c.33,1.31.17,10.54,0,14.16l-3,2.47h10.37l-3.62-2.47V453.61a7,7,0,0,1,4.45-1.81c3.46,0,4.77,2.3,4.77,7.57v7.09l-3,2.47h10.38l-3.63-2.47V456.24Z" transform="translate(-80.64 -107.54)"/><path class="cls-1" d="M720.24,448.67c-1.65,0-3.46,1.31-4.94,3.62l-1.65-3.79-6.1,1.81,4,1.65c.33,1.32.16,10.54,0,14.17l-3,2.47h10.71l-3.62-2.47V453.94a6.75,6.75,0,0,1,3.29-2.31,9.13,9.13,0,0,1,2.63,1.81l.17.17.16-.17a3.63,3.63,0,0,0,1.32-2.63C723.2,449.82,722.38,448.67,720.24,448.67Z" transform="translate(-80.64 -107.54)"/><path class="cls-1" d="M674.28,449h-7.74l3.79,2.47V464a7.62,7.62,0,0,1-4.78,2c-3.13,0-4.12-1.81-4.12-7.57v-9.56h-7.74l3.62,2.47v9.89c0,4.77,2.48,7.57,6.43,7.57,3,0,5.76-2.3,6.75-3.13v3.46l6.26-3.62-2.3-.33V449Z" transform="translate(-80.64 -107.54)"/><polygon class="cls-1" points="407.18 361.23 403.72 358.76 401.75 336.19 405.04 333.55 397.46 333.55 389.23 356.29 380.99 333.72 380.99 333.55 373.25 333.55 376.55 336.02 374.57 358.59 370.94 361.23 381.49 361.23 378.19 358.76 379.35 339.48 387.25 361.23 390.05 361.23 398.12 339.48 399.44 358.59 395.82 361.23 407.18 361.23"/><polygon class="cls-2" points="380.5 25.2 372.59 66.88 421.02 0 380.5 25.2"/><polygon class="cls-3" points="421.02 0 372.59 66.88 409.65 46.45 421.02 0"/><polygon class="cls-4" points="409.65 46.45 372.59 66.88 442.76 66.88 409.65 46.45"/><polygon class="cls-5" points="350.85 0 372.59 66.88 380.5 25.2 350.85 0"/><polygon class="cls-6" points="325.15 193.87 343.11 238.18 343.11 155.49 325.15 193.87"/><polygon class="cls-7" points="343.11 238.18 361.23 193.87 343.11 155.49 343.11 238.18"/><polygon class="cls-8" points="343.11 155.49 361.23 193.87 400.1 196.84 343.11 155.49"/><polygon class="cls-9" points="286.28 196.84 325.15 193.87 343.11 155.49 286.28 196.84"/><polygon class="cls-10" points="253.5 116.29 217.1 147.09 295.67 121.56 253.5 116.29"/><polygon class="cls-11" points="217.1 147.09 264.7 150.72 295.67 121.56 217.1 147.09"/><polygon class="cls-12" points="264.7 150.72 273.93 188.44 295.67 121.56 264.7 150.72"/><polygon class="cls-13" points="238.84 80.22 253.5 116.29 295.67 121.56 238.84 80.22"/><polygon class="cls-14" points="276.56 46.45 313.79 66.88 265.2 0 276.56 46.45"/><polygon class="cls-15" points="265.2 0 313.79 66.88 305.88 25.2 265.2 0"/><polygon class="cls-16" points="305.88 25.2 313.79 66.88 335.53 0 305.88 25.2"/><polygon class="cls-17" points="243.62 66.88 313.79 66.88 276.56 46.45 243.62 66.88"/><polygon class="cls-18" points="432.71 116.29 390.71 121.56 469.28 147.09 432.71 116.29"/><polygon class="cls-19" points="390.71 121.56 421.68 150.72 469.28 147.09 390.71 121.56"/><polygon class="cls-20" points="412.45 188.44 421.68 150.72 390.71 121.56 412.45 188.44"/><polygon class="cls-21" points="447.54 80.22 390.71 121.56 432.71 116.29 447.54 80.22"/><path class="cls-22" d="M470,210.48,426.54,234.7V195.82c3.46,4.62,10.55,16.64,10.55,16.81,0-5.77-2.31-12.52-4.12-16.81a109.52,109.52,0,0,1,16.31,9.72c-4-7.57-10.22-13.17-16.48-17.29a54.3,54.3,0,0,1,16.31-1.48A40.77,40.77,0,0,0,432,183.14a31.37,31.37,0,0,1,7.74-4.94,21.32,21.32,0,0,0-13.18,2.64c-1-2.48-2.8-7.42-2.8-7.42s-1.81,4.94-2.8,7.42a21.56,21.56,0,0,0-13.17-2.64,26.1,26.1,0,0,1,7.74,4.94,40.77,40.77,0,0,0-17.13,3.63,53.73,53.73,0,0,1,16.31,1.48,45.14,45.14,0,0,0-16.48,17.29,109.52,109.52,0,0,1,16.31-9.72c-1.81,4.29-4.12,11-4.12,16.81.17,0,7.09-12.19,10.54-16.81V234.7l-43.32-24c11,10,40.36,28.82,40.36,28.82l-25.53,14.17a20.73,20.73,0,0,0,3.95,1.65c3.13,1,6.92,1,9.55-.83l17.79-11.36,17.79,11.36c2.64,1.82,6.43,1.82,9.56.83.82-.33,3.13-1.32,4-1.65l-25.53-14.17C429.67,239.47,459,220.53,470,210.48Z" transform="translate(-80.64 -107.54)"/></g></svg>