<svg id="Layer_1" data-name="Layer 1" xmlns="http://www.w3.org/2000/svg" viewBox="0 0 377.26 151.51"><defs><style>.cls-1{fill:#56575b;}.cls-1,.cls-2,.cls-3{fill-rule:evenodd;}.cls-2{fill:#01a8dd;}.cls-3{fill:#1776b8;}</style></defs><path class="cls-1" d="M242.46,82.16c-5.3,1.66-3.11,10.53,2,9,1.87-.58,3.24-3,2.75-5.59-.41-2.23-2.32-4.15-4.74-3.38m-99.35,36.9c-4.86,1.8-3,10.44,2.22,8.93C150,126.63,148.44,117.09,143.11,119.06Zm-9.2,0c-5.09,2.06-2.57,10.73,2.5,8.82C141.07,126.16,138.93,117.07,133.91,119.1ZM93.63,76.4C88.5,78.45,90.94,87,96,85.24,100.77,83.54,98.72,74.36,93.63,76.4Zm139.82,5.81c-5.18,2-3.11,10.59,2.14,8.91C240.4,89.58,238.46,80.31,233.45,82.21ZM249.54,132c-5.37,1.86-2.85,11.44,2.65,9.4C257.16,139.52,254.92,130.1,249.54,132ZM79.47,132c-5.37,1.85-2.86,11.44,2.64,9.4C87,139.55,85.14,130,79.47,132Zm311-24.64c.12-3,.35-8.78-1-11a5.47,5.47,0,0,0-8.25-.89c-1.93,1.89-3.65,10.83,3.18,11.89A33,33,0,0,0,390.43,107.32Zm-71.86,44.16c-8.09,2.66-5.33,17.44,3.34,15.09,3.34-.9,5.26-4.8,4.61-9.31C326,153.72,322.89,150.06,318.57,151.48Zm-32.94,14.37c5.15,1.92,11.45.87,11.6-6.62.18-8.88-5.28-8.65-11.49-8Zm-121.24.91.11-14.84c-1.75-.88-6.66-.83-8.4.09-4.18,2.19-3.74,11.71-.49,14C157.29,167.25,162,167.5,164.39,166.76Zm70.29.05c.08-2.45.31-13.6-.12-15.27-7-1-11.17.05-11.22,7.47C223.28,167.23,227.29,167.5,234.68,166.81Zm-99.63,0c.1-2.38.31-13.63-.11-15.28-2.22-.53-6.57-.63-8.42.57s-2.81,4-2.81,6.9C123.71,167.25,127.62,167.44,135.05,166.82Zm112.26-15.56v21.26l6.68.1c0-8.5.24-18.87,0-27.19-3.6,0-3-.58-4.7,1.63C248.08,148.56,247.31,148.75,247.31,151.26ZM77.56,172.58c1.24.12,2.76,0,4,0,2.15,0,2.59.58,2.56-1.41,0-3.8.16-24.07-.07-25.76l-3.6-.06c-4.13,5.52-3,3.4-3,12.07C77.48,159.8,77.33,171.28,77.56,172.58Zm260.48,0h6.67c0-2.7-.19-18.64.13-19.88l8-.36v-7.52c-3.14,0-6.76.43-9.92.71-2.33.2-2.15.31-3.35,1.95s-1.6,1.29-1.58,3.74C338.11,158.36,338.05,165.51,338,172.62Zm-77.79,0,6.5,0c.52-3.27-.51-18.49.29-19.73,1.2-.75,6-.45,7.77-.44.51-1.22.2-6,.19-7.62-3.17.1-7,.39-10.06.72-2.43.27-2,.47-3.22,2s-1.58,1.35-1.56,3.69C260.19,154.53,260,170.94,260.25,172.59Zm-202.48.33h6.52l.09-20.11a46,46,0,0,1,8-.37c.38-1.18.19-6.09.13-7.61-3.33,0-6.59.5-9.77.74-2.69.2-2.23.32-3.42,2-1.08,1.53-1.65,1.52-1.63,3.88C57.73,155.57,57.48,170.36,57.77,172.92ZM194.16,78.84c0,11.54-.17,24.43,0,35.8l6.61,0,.05-40.37c-.88,0-1.91,0-2.77,0-1.21,0-1.23.37-1.82,1.14S194.16,77.74,194.16,78.84Zm71.94,0,0,35.83,6.6,0,.06-1.3c.23-12.23,0-26.36,0-39.07l-3.84,0C268.31,75.69,266.1,77.34,266.1,78.84Zm-178,19.32,0,9.16c1.4.25,13.59.09,16.07.09,2.79,0,4.52-.83,5.6-2.37,2.64-3.73,3.21-13.35-9.53-10.84C98.56,94.54,89.14,97.5,88.14,98.16Zm237.81,0,0,9.24c4.52.46,11.36,0,16.11,0,5.83,0,7.88-4.34,6.89-8.91C347.25,90.68,337.15,94.32,332,96A61.15,61.15,0,0,0,326,98.12Zm-45.51-6.88v22.15c0,3.6-1.1,5.46-4.45,6.6a16.7,16.7,0,0,0-2.85.93c.07,4.13,1.17,4.16,3.28,5.61,1.31.9,1.22,1.3,3,.61,5.38-2.13,7.74-8,7.74-14.86,0-5.66.23-21-.05-25.62-3.29,0-3.43-.41-4.44,1S280.44,90,280.44,91.24ZM373,173l-.63-6.46c-3.84,0-7.3.78-8-3.06a78.64,78.64,0,0,1-.11-11l7.11,0v-7.61h-7.16l0-8.79c-4.43.1-3.2-.56-5.37,2.16a3.85,3.85,0,0,0-1.3,2.43c-.22,4,0,14.5,0,19C357.57,173.08,361.26,175.14,373,173Zm4.21-8.16c-.49.72-1.3,5.22-1.27,6.37,4.76,2.5,16.82,4.56,19.91-2.84.79-1.87,1.23-6,.31-7.92-2.23-4.71-10.46-3.9-12.38-5.78a2,2,0,0,1,.27-3c1-.81,2.56-.7,3.93-.56,4.09.44,4.7,1.25,7.33,1.89.61-2,.68-2-.19-3.7-.5-1-1-2.79-1.79-3.33-1.75-1.14-6.09-1.53-8.58-1.32-9.86.87-11.64,13.08-3.31,16.32,2.18.86,6.24,1.18,7.78,2.18C392.5,165.25,389.33,169.89,377.25,164.82Zm-285,21h7.23c.53-1.21,14.39-35.07,14.44-35.89s-.79-1.65-1.21-2.25a25.51,25.51,0,0,0-1.64-2.16l-2.66-.05c-1,.73-5.69,14-6.67,16.22-.91-1.26-2.78-6.15-3.63-8-.28-.64-3.21-8-3.87-8.16H92a21.83,21.83,0,0,0-3.24,4.1c-.09.63,1.68,4.22,2.08,5.11,1.51,3.39,3,6.81,4.45,10.16.75,1.71,1.51,3.38,2.25,5.07.67,1.54-.12,2.5-1.22,5.2C95.68,176.69,92.29,184.71,92.24,185.77Zm153.69-78.36H230c-7,0-7.14-5.92-6.14-11,.31-1.57,1.1-3.74,1.08-5.17-4-.88-1.92-1.46-6.34,1.89-1.08.81-.94.66-1.21,2.11-.76,4.12-1.17,7.46.26,11.45,3.19,8.85,11.22,8,17.89,8,4.08,0,8.85.22,12.85,0,7.62-.46,10.79-8,10.82-15.23,0-4.29.11-8.78,0-13l-3.8,0c-.62,1.26-2.73,3.34-2.86,4.67C251.74,98.67,255.18,107.41,245.93,107.41Zm-68.27,65.16,6.54,0,.08-19.79c.32-1.06,6.16-1,6.82-.75,1.91.61,2.83,2.29,3,4.73.36,4.65.09,10.94,0,15.73l6.68.1c0-4.87.56-18.11-.75-21.81-2.93-8.21-11.06-5.93-16.06-5.68V132.35l-3.5-.1c-3.34,4.62-2.93,2.58-2.93,7.71C177.6,144.27,177.39,170.72,177.66,172.57ZM121.73,78.62V99.44c0,7.76,4,15.25,13,15.25,7.79,0,14.3.71,17.47-8.64,1.33-3.92,1.08-15,.89-19.7h-3.79c-1.75,3.42-2.89,1.57-2.87,6.22,0,5.42,1.21,12.92-4.27,14.34a51.56,51.56,0,0,1-8.9.14c-5.9-.81-4.87-8.06-4.87-13.59V74.07c-4.47,0-3.34-.46-5.28,2C122.59,76.77,121.73,77.51,121.73,78.62ZM318,144.46c-7.58,1.39-11.72,7.61-10.74,16.77.82,7.64,6.36,13.63,14.92,12.49,7.46-1,11.56-8.16,10.79-16.71C332.27,149.19,326.65,142.88,318,144.46ZM174.84,107.41c-4.76,0-7.61-.92-8.07-6.9-.3-3.9.49-10.45-.15-13.85-4.33,0-3.13-.61-5.87,2.91-1.07,1.39-.7,2.11-.7,4.77,0,3.26.36,20.49-.39,22.25-1.47,3.42-5.38,3.42-6.93,4.33.17,4.37,1.27,4.12,3.13,5.47,1.09.79,1.39,1.4,2.86.79,5.08-2.09,8.1-7.44,8-14a19.2,19.2,0,0,1,2.84.88,25.42,25.42,0,0,0,5.94.37c8.78,0,12.49-6.33,12.49-15.21V74.33c-4.85,0-3.14-.54-6,2.85-1.11,1.34-.73,2.39-.73,4.54V92.35C181.31,99.34,182.78,107.41,174.84,107.41Zm66.54,65v-26.2c-1.93-1.09-14.26-2.09-17.88-.52-8.93,3.86-9.28,22.16-.29,26.81C227.91,174.89,236.21,172.58,241.38,172.37Zm-99.67-26.32c-3-.87-8.74-1.21-12.05-1.22-4.83,0-7.38,1.07-9.52,3.78-4,5-4.08,15.5-.19,20.78,1.86,2.53,4.77,4.19,9.27,4.1,1.54,0,11.51-.71,12.24-1.15s.3-5,.3-6.24C141.76,161.21,142,149.48,141.71,146.05ZM279,185.75l6.52,0,.1-13.13c4.86-.18,8.14,1.25,12.33-1.24,8.41-5,8-24.9-4.05-26.71a54.7,54.7,0,0,0-11.41.61c-1,.23-1.64,1.49-2.6,2.73-.78,1-1,.87-1,2.54C279,156.55,278.72,183.15,279,185.75ZM164.5,145.37c-6.54-.7-10.43-1.1-14.46,2.79-4.88,4.7-6,21.83,4.53,25.13,2.78.87,13.91.24,16.52-.77l.09-40.27c-4.29,0-3.3-.51-5.25,2.13a5.22,5.22,0,0,0-1.44,2.7C164.34,139.63,164.5,142.75,164.5,145.37ZM81.44,91.24V109c0,12.2-9,12.63-12.94,10.23-7-4.36-2.92-17.28-3-20.2-3.07-1.71-3.9-.24-5,.61-.48.36-1.06.82-1.48,1.18-1.77,1.55-4.52,23.72,11.23,26.58a14.77,14.77,0,0,0,17.32-12.92c6-.14,17.2.85,22-1,5.16-1.93,8.42-7.66,7.89-15.14-.48-6.63-5-11.27-11.1-11.89-4.11-.41-6.49.46-9.8,1.64-1.76.62-6.92,2.67-8.44,2.86l0-4.6c-4.37,0-3.32-.42-5.33,2.08C82,89.37,81.44,89.68,81.44,91.24ZM352.27,111c3.94,4.68,8.47,4.06,14.57,4.06a13,13,0,0,0,5.5-1c2.59-1.11,2.88-2.15,3.8-2.67.68.45.94.9,1.73,1.43A14,14,0,0,0,380,114c4.61,2.06,14.31.58,17.11-.8.14-4.63.45-14.67-.84-18.58a11.81,11.81,0,0,0-22.63.35c-.92,3-.4,6-1.23,8.51-1.56,4.75-5.56,4-10.66,4-6.21,0-6.17-5-6.49-8.81-.87-10.37-9.71-13.51-18.23-11.24-3.1.82-8.81,3.35-11.31,3.88l-.05-16.59c-.93,0-2.07-.07-2.91,0-1.3.08-1.82,1.31-3.15,3-.72.93-.6,1.11-.6,2.5l0,27.5c-4.35,0-8.72,0-13.05,0-7.66-.09-6.21-6.58-6.21-15.32l0-17.68c-4.1-.07-3.49-.34-4.95,1.61-2.36,3.16-1.7,1.51-1.7,8.32V97.89c0,4.54,0,7.68,2,11.33,4.07,7.42,12.87,5.8,21.08,5.8,7.92,0,19.08.24,26.57,0C349.36,114.8,351.14,111.52,352.27,111Z" transform="translate(-19.98 -34.27)"/><path class="cls-2" d="M20.33,74.24c1.64.37,32.77.26,33.64-.06l0-39.91H51.26l-7.76,10c-1.56,1.95-22.65,28.91-23.17,30" transform="translate(-19.98 -34.27)"/><path class="cls-3" d="M54,74.18c-.87.32-32,.43-33.64.06-.37.62-.47,36.8-.16,40.13,3.21.11,2.36.45,4.43-2.18.73-.93,1.27-1.71,1.91-2.51C29,106.6,53.59,75.13,54,74.18" transform="translate(-19.98 -34.27)"/></svg>