<svg id="Layer_1" data-name="Layer 1" xmlns="http://www.w3.org/2000/svg" xmlns:xlink="http://www.w3.org/1999/xlink" viewBox="0 0 1514.91 383"><defs><style>.cls-1{fill:#3698d4;}.cls-2{fill:url(#linear-gradient);}.cls-3{fill:url(#linear-gradient-2);}.cls-4{isolation:isolate;}.cls-5{fill:#8b8d8e;}.cls-6{fill:none;stroke:#b51616;stroke-miterlimit:10;stroke-width:11px;}</style><linearGradient id="linear-gradient" x1="498.02" y1="227.91" x2="365.1" y2="174.64" gradientTransform="matrix(1, 0, 0, -1, 0, 494.75)" gradientUnits="userSpaceOnUse"><stop offset="0" stop-color="#3698d4"/><stop offset="0.35" stop-color="#3495d1"/><stop offset="0.54" stop-color="#2f8ec9"/><stop offset="0.69" stop-color="#2682bb"/><stop offset="0.82" stop-color="#1a70a8"/><stop offset="0.94" stop-color="#0a598f"/><stop offset="1" stop-color="#004b7f"/></linearGradient><linearGradient id="linear-gradient-2" x1="427.81" y1="68.85" x2="428.14" y2="68.85" gradientTransform="matrix(1, 0, 0, -1, -39.29, 451.35)" xlink:href="#linear-gradient"/></defs><g id="Isolation_Mode" data-name="Isolation Mode"><path class="cls-1" d="M389.4,235l-.08.08H390A.16.16,0,0,1,390,235a3.11,3.11,0,0,1-.61,0Z" transform="translate(-39.29 -43.41)"/><path class="cls-1" d="M388,234.45a1.8,1.8,0,0,0-1.16.4,2,2,0,0,1-.53-.34c-.1-.09-.11-.11,0-.06H388Z" transform="translate(-39.29 -43.41)"/><path class="cls-2" d="M656.06,423.5l-1.66-2.71-73.65-120-2.16-3.51-38-62C540.48,235.16,655.24,46,655.24,46a2.26,2.26,0,0,0,.21-.86,1.57,1.57,0,0,0-.25-.86,2,2,0,0,0-1.64-.84H501.94a2.1,2.1,0,0,0-1.68.88l-37.6,61.94,2.2,3.55,38.23-63H650.35l-110.7,183-74.78-120-2.12,3.53,73.67,118.27H390.93l71.82-118.27-2.22-3.53-72.87,120L350,168.56l-2.14,3.55L386,234.05l.08.08.06.1s0,.06.06.1.06.1.1.12H388a1.56,1.56,0,0,0-.31,0,.77.77,0,0,0-.29.1l-.17.06,0,0-.06,0a2.11,2.11,0,0,0-.27.18,1,1,0,0,0,.34.12h-.52a2.62,2.62,0,0,0-.31.34L347.68,296l1.59,2.61,2.22,3.61.31.56,2.24,3.55L427.16,424.8l.73,1.2a1.71,1.71,0,0,0,.5-.54l37.1-62.3L503,425l.08.12a.76.76,0,0,0,.25.34,2,2,0,0,0,1.36.52H654.43a1.86,1.86,0,0,0,1.3-.5,1.35,1.35,0,0,0,.31-.32s0,0,0,0a1.59,1.59,0,0,0,.21-.84,1.46,1.46,0,0,0-.23-.82ZM389.4,235a3.11,3.11,0,0,0,.61,0,.11.11,0,0,0-.06.08h-.63a.28.28,0,0,1,.08-.08Z" transform="translate(-39.29 -43.41)"/><path class="cls-1" d="M390,235l-.08.08h-.61a.28.28,0,0,1,.08-.08A3.11,3.11,0,0,0,390,235Z" transform="translate(-39.29 -43.41)"/><path class="cls-1" d="M427.91,426a1.59,1.59,0,0,1-1,.35l-.94-1.56L354,306.33l-2.23-3.55-.32-.57-2.21-3.61-1.56-2.6,1.61,2.6,2.22,3.61.32.57,2.25,3.55,73.11,118.48Z" transform="translate(-39.29 -43.41)"/><path class="cls-1" d="M389.4,235l-.08.08H390A.16.16,0,0,1,390,235a3.11,3.11,0,0,1-.61,0Zm-3.13-.5,0,0a0,0,0,0,1,0,0,1.77,1.77,0,0,0,.54.34,1.2,1.2,0,0,1,.27-.16l.06,0s0,0,0,0l.17-.06a1.57,1.57,0,0,1,.61-.1h-1.73Zm-116,190.73v0l-.06-.1.06.16h0v0l0,0Z" transform="translate(-39.29 -43.41)"/><path class="cls-1" d="M424.1,44.29a1.89,1.89,0,0,0-1.64-.88H272a2,2,0,0,0-1.64.84s0,0,0,0a1.65,1.65,0,0,0,0,1.69L272,48.69l1.13-1.87H419.24L347.86,165l-2.16,3.55,2.18,3.55,2.14-3.55,72.45-119.9L424.08,46a1.72,1.72,0,0,0,.25-.86,1.85,1.85,0,0,0-.25-.82Z" transform="translate(-39.29 -43.41)"/><path class="cls-1" d="M389.4,235l-.08.08H390A.16.16,0,0,1,390,235a3.11,3.11,0,0,1-.61,0Zm-3.13-.5,0,0a0,0,0,0,1,0,0,1.77,1.77,0,0,0,.54.34,1.2,1.2,0,0,1,.27-.16l.06,0s0,0,0,0l.17-.06a1.57,1.57,0,0,1,.61-.1h-1.73Zm76.4-128.23L424.1,44.29a1.89,1.89,0,0,0-1.64-.88H272a2,2,0,0,0-1.64.84s0,0,0,0a1.65,1.65,0,0,0,0,1.69L272,48.69,345.7,168.55l2.18,3.55,2.14-3.55L347.86,165,275.18,46.83H421.32l1.15,1.83,38,61.11,0,0,2.22,3.53,2.12-3.53-2.2-3.55Z" transform="translate(-39.29 -43.41)"/><path class="cls-1" d="M386,234.12,386,234l.08.12s0,0,.06.06S386.06,234.14,386,234.12Zm3.36.84-.08.08H390A.16.16,0,0,1,390,235a3.11,3.11,0,0,1-.61,0Zm-3.11-.52v0a0,0,0,0,1,0,0,1.77,1.77,0,0,0,.54.34,1.2,1.2,0,0,1,.27-.16v0l.06,0,0,0s0,0,.06,0a.18.18,0,0,1,.1,0,.91.91,0,0,1,.29-.1,1.62,1.62,0,0,1,.31,0h-1.69Zm76.38-128.21-2.14,3.53v0l2.22,3.53,2.12-3.53-2.2-3.55Z" transform="translate(-39.29 -43.41)"/><path class="cls-1" d="M427.92,426l-.75-1.22-73.1-118.47-2.26-3.55-.31-.56-2.22-3.61L347.67,296,310.24,235.4l0,0a1.25,1.25,0,0,0-.36-.42,2.16,2.16,0,0,0,.42-.44l37.64-62.38-2.18-3.55L307.45,232H160.22L272,48.71,270.31,46a1.65,1.65,0,0,1,0-1.69l-115,188.54c-.36.5-115.82,191-115.82,191a1.55,1.55,0,0,0,0,1.69,1.92,1.92,0,0,0,1.61.86H192.8a2,2,0,0,0,1.66-.92l37.29-61.72.38-.6,38.06,61.9a0,0,0,0,0,0,0l.06.1v0h0v0s0,0,0,0h0l0,0s0,.06.06.06h0a.46.46,0,0,0,.17.2,2,2,0,0,0,1.38.52h3.31c.29.24,138.66.36,151.72.36l-.94-1.59,1,1.57a1.77,1.77,0,0,0,1-.34ZM229.56,360.18,191.62,423H44.36l111.77-183.2,0,0,73.75,119.9-.36.56Z" transform="translate(-39.29 -43.41)"/><polygon class="cls-1" points="230.97 381.78 230.97 381.8 230.95 381.78 230.97 381.78"/><polygon class="cls-1" points="190.62 316.21 190.27 316.77 116.91 196.43 116.85 196.35 116.87 196.31 190.62 316.21"/><path class="cls-1" d="M389.4,235l-.08.08H390A.16.16,0,0,1,390,235a3.11,3.11,0,0,1-.61,0Zm-3.13-.5,0,0a0,0,0,0,1,0,0,1.77,1.77,0,0,0,.54.34,1.2,1.2,0,0,1,.27-.16l.06,0s0,0,0,0l.17-.06a1.57,1.57,0,0,1,.61-.1h-1.73Zm-116,190.73v0l-.06-.1.06.16h0v0l0,0Z" transform="translate(-39.29 -43.41)"/><path class="cls-1" d="M424.1,44.29a1.89,1.89,0,0,0-1.64-.88H272a2,2,0,0,0-1.64.84s0,0,0,0a1.65,1.65,0,0,0,0,1.69L272,48.69l1.13-1.87H419.24L347.86,165l-2.16,3.55,2.18,3.55,2.14-3.55,72.45-119.9L424.08,46a1.72,1.72,0,0,0,.25-.86,1.85,1.85,0,0,0-.25-.82Z" transform="translate(-39.29 -43.41)"/><path class="cls-1" d="M389.4,235l-.08.08H390A.16.16,0,0,1,390,235a3.11,3.11,0,0,1-.61,0Zm-3.13-.5,0,0a0,0,0,0,1,0,0,1.77,1.77,0,0,0,.54.34,1.2,1.2,0,0,1,.27-.16l.06,0s0,0,0,0l.17-.06a1.57,1.57,0,0,1,.61-.1h-1.73Zm76.4-128.23L424.1,44.29a1.89,1.89,0,0,0-1.64-.88H272a2,2,0,0,0-1.64.84s0,0,0,0a1.65,1.65,0,0,0,0,1.69L272,48.69,345.7,168.55l2.18,3.55,2.14-3.55L347.86,165,275.18,46.83H421.32l1.15,1.83,38,61.11,0,0,2.22,3.53,2.12-3.53-2.2-3.55Z" transform="translate(-39.29 -43.41)"/><path class="cls-1" d="M386,234.12,386,234l.08.12s0,0,.06.06S386.06,234.14,386,234.12Zm3.36.84-.08.08H390A.16.16,0,0,1,390,235a3.11,3.11,0,0,1-.61,0Zm-3.11-.52v0a0,0,0,0,1,0,0,1.77,1.77,0,0,0,.54.34,1.2,1.2,0,0,1,.27-.16v0l.06,0,0,0s0,0,.06,0a.18.18,0,0,1,.1,0,.91.91,0,0,1,.29-.1,1.62,1.62,0,0,1,.31,0h-1.69Zm76.38-128.21-2.14,3.53v0l2.22,3.53,2.12-3.53-2.2-3.55Z" transform="translate(-39.29 -43.41)"/><path class="cls-1" d="M425.8,424.66l.8,1.73a2,2,0,0,0,1.31-.37l-1.68-1" transform="translate(-39.29 -43.41)"/><polygon class="cls-3" points="388.62 382.61 388.85 382.39 388.52 382.45 388.62 382.61"/><g class="cls-4"><g class="cls-4"><path class="cls-5" d="M1328.58,312.52v.5l-19.94,32.32v21H1301V345.09L1281.64,313v-.5H1290l15,25.84,15.62-25.84Z" transform="translate(-39.29 -43.41)"/><path class="cls-5" d="M1351.47,331.88q3.19,2.91,3.2,9.14v25.34h-6.48l-.42-3.16a21.91,21.91,0,0,1-13.21,4.15,12.87,12.87,0,0,1-5.65-1.2,9,9,0,0,1-3.86-3.41,9.34,9.34,0,0,1-1.37-5,10,10,0,0,1,3.24-7.61,19.67,19.67,0,0,1,8.64-4.44,52.61,52.61,0,0,1,12-1.58v-1.83q0-3.74-1.49-5.44t-5.07-1.7q-6.06,0-12.63,4.32l-3.16-5a29.1,29.1,0,0,1,16.7-5.48Q1348.28,329,1351.47,331.88Zm-18.86,28.33a5.89,5.89,0,0,0,3.86,1.08,20.88,20.88,0,0,0,11-3.32v-8.65a34.35,34.35,0,0,0-11.71,2.25q-4.49,1.9-4.49,5.4A4,4,0,0,0,1332.61,360.21Z" transform="translate(-39.29 -43.41)"/><path class="cls-5" d="M1396.79,331.38v50.43h-7.15v-17.7a24.13,24.13,0,0,1-11.88,3.24,13.73,13.73,0,0,1-8.06-2.32,14.37,14.37,0,0,1-5-6.36,23.33,23.33,0,0,1-1.71-9.18q0-7.39,3.12-12a17.39,17.39,0,0,1,7.85-6.56,25.54,25.54,0,0,1,9.8-1.95A44.59,44.59,0,0,1,1396.79,331.38Zm-7.15,27.42V335.53a27.82,27.82,0,0,0-5.65-.66,13.63,13.63,0,0,0-9.63,3.45c-2.5,2.3-3.74,6.07-3.74,11.34q0,5.47,2.37,8.51a8.07,8.07,0,0,0,6.77,3A23.76,23.76,0,0,0,1389.64,358.8Z" transform="translate(-39.29 -43.41)"/><path class="cls-5" d="M1438.08,349.41h-25.34q.08,6.22,3,9a10.52,10.52,0,0,0,7.6,2.83,18.18,18.18,0,0,0,5.78-.83,31.4,31.4,0,0,0,5.44-2.58l2.74,5.07a25.89,25.89,0,0,1-14.29,4.4q-8,0-12.75-4.44t-4.78-14.09a24.24,24.24,0,0,1,2-10,16.18,16.18,0,0,1,15.62-9.89,16.32,16.32,0,0,1,8.23,1.95,12.78,12.78,0,0,1,5.15,5.36,16.92,16.92,0,0,1,1.74,7.81Zm-21.73-12.3a13.13,13.13,0,0,0-3.2,7.06h18.11v-.33q0-4.65-2.11-7a7.75,7.75,0,0,0-6-2.32A8.89,8.89,0,0,0,1416.35,337.11Z" transform="translate(-39.29 -43.41)"/><path class="cls-5" d="M1476.63,349.41h-25.34q.07,6.22,3,9a10.5,10.5,0,0,0,7.6,2.83,18.07,18.07,0,0,0,5.77-.83,31.12,31.12,0,0,0,5.45-2.58l2.74,5.07a25.89,25.89,0,0,1-14.29,4.4q-8,0-12.75-4.44t-4.78-14.09a24.24,24.24,0,0,1,2-10,16.18,16.18,0,0,1,15.62-9.89,16.32,16.32,0,0,1,8.23,1.95,12.84,12.84,0,0,1,5.15,5.36,16.92,16.92,0,0,1,1.74,7.81Zm-21.73-12.3a13.13,13.13,0,0,0-3.2,7.06h18.11v-.33c0-3.1-.7-5.43-2.12-7a7.73,7.73,0,0,0-6-2.32A8.88,8.88,0,0,0,1454.9,337.11Z" transform="translate(-39.29 -43.41)"/><path class="cls-5" d="M1517.08,340.52v25.84h-7.14V343.18a14.63,14.63,0,0,0-.62-4.78,4.28,4.28,0,0,0-2.08-2.45,8.68,8.68,0,0,0-4-.75,22,22,0,0,0-5.31.71,28.81,28.81,0,0,0-5.32,1.87v28.58h-7.15V330l7.15-.83v3.49A28.66,28.66,0,0,1,1506,329Q1517.08,329,1517.08,340.52Z" transform="translate(-39.29 -43.41)"/></g></g><path class="cls-1" d="M803.74,154.05l-6.92-2.51c-31.13-11.32-38.06-17.61-38.06-28S768.2,105,789.26,105c19.18,0,33,6,51.87,17.29l20.44-30.79c-23.27-15.72-49.68-22.94-72-22.94-36.48,0-76.08,16.33-76.08,56.55,0,36.14,25.15,49,59.11,62.22l7.22,2.83c31.76,12.26,39.94,17.61,39.94,31.11,0,15.4-15.09,22.62-38.36,22.62-16.35,0-35.53-4.71-57.22-18.53l-20.12,31.11c19.5,14.45,45.28,24.5,80.17,24.5,45.28,0,81.43-20.11,81.43-62.2s-31.13-53.42-61.93-64.74Z" transform="translate(-39.29 -43.41)"/><path class="cls-1" d="M1035.75,73V210.3c-5.65-11.94-12.57-22-19.8-33L946.46,73h-48.1V276.6h43.71V139c7.86,17.29,16.66,30.49,24.83,42.75l63.82,94.89h48.42V73Z" transform="translate(-39.29 -43.41)"/><path class="cls-1" d="M1234.14,73H1178.5l-73.26,201.1v2.52h46.84l16-48.72h75.46l16.34,48.72h47.48v-2.52L1234.13,73Zm-54.08,119.1,25.47-77.61,26.1,77.61Z" transform="translate(-39.29 -43.41)"/><path class="cls-1" d="M1508.28,73l-46.84,89.24c-6.92,13.52-14.15,28.91-17.6,40.22-3.77-11-10.7-26.7-17.62-40.22L1379.7,73h-45.9V276.6h43.38V150c2.84,7.55,6.92,16.66,13.85,30.49l35.84,71h34.27l35.2-71c6.92-13.52,11-22.63,13.85-30.49V276.6h44V73h-45.92Z" transform="translate(-39.29 -43.41)"/><path class="cls-6" d="M1682.74,468.56" transform="translate(-39.29 -43.41)"/></g></svg>