<svg id="Layer_1" data-name="Layer 1" xmlns="http://www.w3.org/2000/svg" xmlns:xlink="http://www.w3.org/1999/xlink" viewBox="0 0 1514.91 383"><defs><style>.cls-1{fill:#3698d4;}.cls-2{fill:url(#linear-gradient);}.cls-3{fill:url(#linear-gradient-2);}.cls-4{isolation:isolate;}.cls-5{fill:#8b8d8e;}.cls-6{fill:none;stroke:#b51616;stroke-miterlimit:10;stroke-width:11px;}</style><linearGradient id="linear-gradient" x1="485.76" y1="240.17" x2="352.84" y2="186.9" gradientTransform="matrix(1, 0, 0, -1, 0, 519.27)" gradientUnits="userSpaceOnUse"><stop offset="0" stop-color="#3698d4"/><stop offset="0.35" stop-color="#3495d1"/><stop offset="0.54" stop-color="#2f8ec9"/><stop offset="0.69" stop-color="#2682bb"/><stop offset="0.82" stop-color="#1a70a8"/><stop offset="0.94" stop-color="#0a598f"/><stop offset="1" stop-color="#004b7f"/></linearGradient><linearGradient id="linear-gradient-2" x1="415.55" y1="81.11" x2="415.88" y2="81.11" gradientTransform="matrix(1, 0, 0, -1, -27.02, 463.61)" xlink:href="#linear-gradient"/></defs><g id="Isolation_Mode" data-name="Isolation Mode"><path class="cls-1" d="M377.14,247.22l-.08.08h.63a.16.16,0,0,1,.06-.08,3.11,3.11,0,0,1-.61,0Z" transform="translate(-27.02 -55.67)"/><path class="cls-1" d="M375.76,246.71a1.8,1.8,0,0,0-1.16.4,2,2,0,0,1-.53-.34c-.1-.09-.11-.11,0-.06h1.73Z" transform="translate(-27.02 -55.67)"/><path class="cls-2" d="M643.8,435.76l-1.66-2.71L568.49,313l-2.16-3.51-38-62C528.22,247.42,643,58.24,643,58.24a2.26,2.26,0,0,0,.21-.86,1.57,1.57,0,0,0-.25-.86,2,2,0,0,0-1.64-.84H489.68a2.1,2.1,0,0,0-1.68.88L450.4,118.5l2.2,3.55,38.23-63H638.09l-110.7,183-74.78-120-2.12,3.53,73.67,118.27H378.67l71.82-118.27-2.22-3.53L375.4,242l-37.62-61.21-2.14,3.55,38.06,61.94.08.08.06.1s0,.06.06.1.06.1.1.12h1.74a1.56,1.56,0,0,0-.31,0,.77.77,0,0,0-.29.1l-.17.06,0,0-.06,0a2.11,2.11,0,0,0-.27.18,1,1,0,0,0,.34.12h-.52a2.62,2.62,0,0,0-.31.34l-38.69,60.69,1.59,2.61,2.22,3.61.31.56,2.24,3.55L414.9,437.06l.73,1.2a1.71,1.71,0,0,0,.5-.54l37.1-62.3,37.52,61.88.08.12a.76.76,0,0,0,.25.34,2,2,0,0,0,1.36.52H642.17a1.86,1.86,0,0,0,1.3-.5,1.35,1.35,0,0,0,.31-.32s0,0,0,0a1.59,1.59,0,0,0,.21-.84,1.46,1.46,0,0,0-.23-.82ZM377.14,247.22a3.11,3.11,0,0,0,.61,0,.11.11,0,0,0-.06.08h-.63a.28.28,0,0,1,.08-.08Z" transform="translate(-27.02 -55.67)"/><path class="cls-1" d="M377.75,247.22l-.08.08h-.61a.28.28,0,0,1,.08-.08A3.11,3.11,0,0,0,377.75,247.22Z" transform="translate(-27.02 -55.67)"/><path class="cls-1" d="M415.65,438.28a1.59,1.59,0,0,1-1,.35l-.94-1.56-72-118.48L339.48,315l-.32-.57L337,310.86l-1.56-2.6,1.61,2.6,2.22,3.61.32.57,2.25,3.55L414.9,437.07Z" transform="translate(-27.02 -55.67)"/><path class="cls-1" d="M377.14,247.22l-.08.08h.63a.16.16,0,0,1,.06-.08,3.11,3.11,0,0,1-.61,0Zm-3.13-.5,0,0a0,0,0,0,1,0,0,1.77,1.77,0,0,0,.54.34,1.2,1.2,0,0,1,.27-.16l.06,0s0,0,0,0l.17-.06a1.57,1.57,0,0,1,.61-.1H374ZM258,437.45v0l-.06-.1.06.16h0v0l0,0Z" transform="translate(-27.02 -55.67)"/><path class="cls-1" d="M411.84,56.55a1.89,1.89,0,0,0-1.64-.88H259.69a2,2,0,0,0-1.64.84s0,0,0,0a1.65,1.65,0,0,0,0,1.69L259.69,61l1.13-1.87H407L335.6,177.25l-2.16,3.55,2.18,3.55,2.14-3.55L410.21,60.9l1.61-2.67a1.72,1.72,0,0,0,.25-.86,1.85,1.85,0,0,0-.25-.82Z" transform="translate(-27.02 -55.67)"/><path class="cls-1" d="M377.14,247.22l-.08.08h.63a.16.16,0,0,1,.06-.08,3.11,3.11,0,0,1-.61,0Zm-3.13-.5,0,0a0,0,0,0,1,0,0,1.77,1.77,0,0,0,.54.34,1.2,1.2,0,0,1,.27-.16l.06,0s0,0,0,0l.17-.06a1.57,1.57,0,0,1,.61-.1H374Zm76.4-128.23L411.84,56.55a1.89,1.89,0,0,0-1.64-.88H259.69a2,2,0,0,0-1.64.84s0,0,0,0a1.65,1.65,0,0,0,0,1.69L259.69,61l73.75,119.86,2.18,3.55,2.14-3.55-2.16-3.55L262.92,59.09H409.06l1.15,1.83,38,61.11,0,0,2.22,3.53,2.12-3.53-2.2-3.55Z" transform="translate(-27.02 -55.67)"/><path class="cls-1" d="M373.78,246.38l-.08-.08a1.18,1.18,0,0,1,.08.12s0,0,.06.06S373.8,246.4,373.78,246.38Zm3.36.84-.08.08h.63a.16.16,0,0,1,.06-.08,3.11,3.11,0,0,1-.61,0ZM374,246.7v0a0,0,0,0,1,0,0,1.77,1.77,0,0,0,.54.34,1.2,1.2,0,0,1,.27-.16v0l.06,0,0,0s0,0,.06,0a.18.18,0,0,1,.1,0,.91.91,0,0,1,.29-.1,1.62,1.62,0,0,1,.31,0H374Zm76.38-128.21L448.27,122v0l2.22,3.53,2.12-3.53-2.2-3.55Z" transform="translate(-27.02 -55.67)"/><path class="cls-1" d="M415.66,438.29l-.75-1.22L341.81,318.6l-2.26-3.55-.31-.56L337,310.88l-1.61-2.61L298,247.66l0,0a1.25,1.25,0,0,0-.36-.42,2.16,2.16,0,0,0,.42-.44l37.64-62.38-2.18-3.55-38.29,63.38H148L259.73,61l-1.68-2.71a1.65,1.65,0,0,1,0-1.69l-115,188.54c-.36.5-115.82,191-115.82,191a1.55,1.55,0,0,0,0,1.69,1.92,1.92,0,0,0,1.61.86H180.54a2,2,0,0,0,1.66-.92L219.49,376l.38-.6,38.06,61.9a0,0,0,0,0,0,0l.06.1v0h0v0s0,0,0,0h0l0,0s0,.06.06.06h0a.46.46,0,0,0,.17.2,2,2,0,0,0,1.38.52H263c.29.24,138.66.36,151.72.36l-.94-1.59,1,1.57a1.77,1.77,0,0,0,1-.34ZM217.3,372.44l-37.94,62.78H32.1L143.87,252l0,0,73.75,119.9-.36.56Z" transform="translate(-27.02 -55.67)"/><polygon class="cls-1" points="230.97 381.78 230.97 381.8 230.95 381.78 230.97 381.78"/><polygon class="cls-1" points="190.62 316.21 190.27 316.77 116.91 196.43 116.85 196.35 116.87 196.31 190.62 316.21"/><path class="cls-1" d="M377.14,247.22l-.08.08h.63a.16.16,0,0,1,.06-.08,3.11,3.11,0,0,1-.61,0Zm-3.13-.5,0,0a0,0,0,0,1,0,0,1.77,1.77,0,0,0,.54.34,1.2,1.2,0,0,1,.27-.16l.06,0s0,0,0,0l.17-.06a1.57,1.57,0,0,1,.61-.1H374ZM258,437.45v0l-.06-.1.06.16h0v0l0,0Z" transform="translate(-27.02 -55.67)"/><path class="cls-1" d="M411.84,56.55a1.89,1.89,0,0,0-1.64-.88H259.69a2,2,0,0,0-1.64.84s0,0,0,0a1.65,1.65,0,0,0,0,1.69L259.69,61l1.13-1.87H407L335.6,177.25l-2.16,3.55,2.18,3.55,2.14-3.55L410.21,60.9l1.61-2.67a1.72,1.72,0,0,0,.25-.86,1.85,1.85,0,0,0-.25-.82Z" transform="translate(-27.02 -55.67)"/><path class="cls-1" d="M377.14,247.22l-.08.08h.63a.16.16,0,0,1,.06-.08,3.11,3.11,0,0,1-.61,0Zm-3.13-.5,0,0a0,0,0,0,1,0,0,1.77,1.77,0,0,0,.54.34,1.2,1.2,0,0,1,.27-.16l.06,0s0,0,0,0l.17-.06a1.57,1.57,0,0,1,.61-.1H374Zm76.4-128.23L411.84,56.55a1.89,1.89,0,0,0-1.64-.88H259.69a2,2,0,0,0-1.64.84s0,0,0,0a1.65,1.65,0,0,0,0,1.69L259.69,61l73.75,119.86,2.18,3.55,2.14-3.55-2.16-3.55L262.92,59.09H409.06l1.15,1.83,38,61.11,0,0,2.22,3.53,2.12-3.53-2.2-3.55Z" transform="translate(-27.02 -55.67)"/><path class="cls-1" d="M373.78,246.38l-.08-.08a1.18,1.18,0,0,1,.08.12s0,0,.06.06S373.8,246.4,373.78,246.38Zm3.36.84-.08.08h.63a.16.16,0,0,1,.06-.08,3.11,3.11,0,0,1-.61,0ZM374,246.7v0a0,0,0,0,1,0,0,1.77,1.77,0,0,0,.54.34,1.2,1.2,0,0,1,.27-.16v0l.06,0,0,0s0,0,.06,0a.18.18,0,0,1,.1,0,.91.91,0,0,1,.29-.1,1.62,1.62,0,0,1,.31,0H374Zm76.38-128.21L448.27,122v0l2.22,3.53,2.12-3.53-2.2-3.55Z" transform="translate(-27.02 -55.67)"/><path class="cls-1" d="M413.54,436.92l.8,1.73a2,2,0,0,0,1.31-.37l-1.68-1" transform="translate(-27.02 -55.67)"/><polygon class="cls-3" points="388.62 382.61 388.85 382.39 388.52 382.45 388.62 382.61"/><g class="cls-4"><g class="cls-4"><path class="cls-5" d="M1356.4,324.78v6.65h-18.61v47.19h-7.64V331.43h-18.7v-6.65Z" transform="translate(-27.02 -55.67)"/><path class="cls-5" d="M1376.59,341.4a25.3,25.3,0,0,1,2.49.49l-1.33,7.4a15.47,15.47,0,0,0-5.15-1,10.54,10.54,0,0,0-4.9,1.16,12.14,12.14,0,0,0-4.32,4.41v24.76h-7.15V342.14l7.15-.74v5.23a14,14,0,0,1,4.82-4,12.83,12.83,0,0,1,5.81-1.37A18.51,18.51,0,0,1,1376.59,341.4Z" transform="translate(-27.02 -55.67)"/><path class="cls-5" d="M1409.36,344.14q3.2,2.91,3.2,9.14v25.34h-6.48l-.42-3.16a21.91,21.91,0,0,1-13.21,4.15,12.9,12.9,0,0,1-5.65-1.2,9.1,9.1,0,0,1-3.86-3.41,9.34,9.34,0,0,1-1.37-5,10,10,0,0,1,3.24-7.61,19.67,19.67,0,0,1,8.64-4.44,52.61,52.61,0,0,1,12-1.58v-1.83c0-2.49-.49-4.3-1.49-5.44s-2.69-1.7-5.07-1.7q-6.06,0-12.63,4.32l-3.15-5a29,29,0,0,1,16.7-5.48Q1406.16,341.23,1409.36,344.14Zm-18.86,28.33a5.9,5.9,0,0,0,3.86,1.08,20.88,20.88,0,0,0,11.05-3.32v-8.65a34.4,34.4,0,0,0-11.71,2.25q-4.48,1.91-4.49,5.4A4,4,0,0,0,1390.5,372.47Z" transform="translate(-27.02 -55.67)"/><path class="cls-5" d="M1453.85,342.23v.5l-14.54,35.89h-6.56l-14.87-35.89v-.5h7.81l8.8,23.43c.22.55.67,1.82,1.33,3.82l.5,1.58q.83-2.83,1.74-5.4l8.31-23.43Z" transform="translate(-27.02 -55.67)"/><path class="cls-5" d="M1488.82,361.67h-25.33q.08,6.22,3,9.05a10.5,10.5,0,0,0,7.6,2.83,18.11,18.11,0,0,0,5.77-.83,31.12,31.12,0,0,0,5.45-2.58l2.74,5.07a25.92,25.92,0,0,1-14.29,4.4q-8,0-12.76-4.44t-4.77-14.09a24.24,24.24,0,0,1,2-10,16.18,16.18,0,0,1,15.62-9.89,16.35,16.35,0,0,1,8.23,1.95,12.84,12.84,0,0,1,5.15,5.36,16.92,16.92,0,0,1,1.74,7.81Zm-21.72-12.3a13.13,13.13,0,0,0-3.2,7.06H1482v-.33c0-3.1-.7-5.43-2.12-7a7.73,7.73,0,0,0-6-2.32A8.92,8.92,0,0,0,1467.1,349.37Z" transform="translate(-27.02 -55.67)"/><path class="cls-5" d="M1497.71,378.62V321.46l7.15-.83v58Z" transform="translate(-27.02 -55.67)"/></g></g><path class="cls-1" d="M791.48,166.31l-6.92-2.51c-31.13-11.32-38.06-17.61-38.06-28s9.44-18.55,30.5-18.55c19.18,0,33,6,51.87,17.29l20.44-30.79c-23.27-15.72-49.68-22.94-72-22.94-36.48,0-76.08,16.33-76.08,56.55,0,36.14,25.15,49,59.11,62.22l7.22,2.83c31.76,12.26,39.94,17.61,39.94,31.11,0,15.4-15.09,22.62-38.36,22.62-16.35,0-35.53-4.71-57.22-18.53l-20.12,31.11c19.5,14.45,45.28,24.5,80.17,24.5,45.28,0,81.43-20.11,81.43-62.2s-31.13-53.42-61.93-64.74Z" transform="translate(-27.02 -55.67)"/><path class="cls-1" d="M1023.49,85.24V222.56c-5.65-11.94-12.57-22-19.8-33L934.2,85.24H886.1V288.86h43.71V151.22c7.86,17.29,16.66,30.49,24.83,42.75l63.82,94.89h48.42V85.24Z" transform="translate(-27.02 -55.67)"/><path class="cls-1" d="M1221.88,85.24h-55.64L1093,286.34v2.52h46.84l16-48.72h75.46l16.34,48.72h47.48v-2.52l-73.26-201.1Zm-54.08,119.1,25.47-77.61,26.1,77.61Z" transform="translate(-27.02 -55.67)"/><path class="cls-1" d="M1496,85.24l-46.84,89.24c-6.92,13.52-14.15,28.91-17.6,40.22-3.77-11-10.7-26.7-17.62-40.22l-46.52-89.24h-45.9V288.86h43.38V162.22c2.84,7.55,6.92,16.66,13.85,30.49l35.84,71h34.27l35.2-71c6.92-13.52,11-22.63,13.85-30.49V288.86h44V85.24H1496Z" transform="translate(-27.02 -55.67)"/><path class="cls-6" d="M1670.48,480.82" transform="translate(-27.02 -55.67)"/></g></svg>