<svg id="Layer_1" data-name="Layer 1" xmlns="http://www.w3.org/2000/svg" xmlns:xlink="http://www.w3.org/1999/xlink" viewBox="0 0 1514.91 383"><defs><style>.cls-1{fill:#3698d4;}.cls-2{fill:url(#linear-gradient);}.cls-3{fill:url(#linear-gradient-2);}.cls-4{isolation:isolate;}.cls-5{fill:#8b8d8e;}.cls-6{fill:none;stroke:#b51616;stroke-miterlimit:10;stroke-width:11px;}</style><linearGradient id="linear-gradient" x1="494.82" y1="280.1" x2="361.9" y2="226.83" gradientTransform="matrix(1, 0, 0, -1, 0, 599.15)" gradientUnits="userSpaceOnUse"><stop offset="0" stop-color="#3698d4"/><stop offset="0.35" stop-color="#3495d1"/><stop offset="0.54" stop-color="#2f8ec9"/><stop offset="0.69" stop-color="#2682bb"/><stop offset="0.82" stop-color="#1a70a8"/><stop offset="0.94" stop-color="#0a598f"/><stop offset="1" stop-color="#004b7f"/></linearGradient><linearGradient id="linear-gradient-2" x1="424.61" y1="121.04" x2="424.94" y2="121.04" gradientTransform="matrix(1, 0, 0, -1, -36.09, 503.54)" xlink:href="#linear-gradient"/></defs><g id="Isolation_Mode" data-name="Isolation Mode"><path class="cls-1" d="M386.2,287.15l-.08.08h.63a.16.16,0,0,1,.06-.08,3.11,3.11,0,0,1-.61,0Z" transform="translate(-36.09 -95.6)"/><path class="cls-1" d="M384.82,286.64a1.8,1.8,0,0,0-1.16.4,2,2,0,0,1-.53-.34c-.09-.08-.11-.1,0-.06h1.73Z" transform="translate(-36.09 -95.6)"/><path class="cls-2" d="M652.86,475.69,651.2,473,577.55,353l-2.16-3.51-38-62C537.28,287.35,652,98.17,652,98.17a2.26,2.26,0,0,0,.21-.86,1.57,1.57,0,0,0-.25-.86,2,2,0,0,0-1.64-.84H498.74a2.1,2.1,0,0,0-1.68.88l-37.6,61.94,2.2,3.55,38.23-63H647.15L536.45,282,461.67,162l-2.12,3.53,73.67,118.27H387.73l71.82-118.27L457.33,162,384.46,282l-37.62-61.21-2.14,3.55,38.06,61.94.08.08.06.1s0,.06.06.1.06.1.1.12h1.74a1.56,1.56,0,0,0-.31,0,.77.77,0,0,0-.29.1l-.17.06,0,0-.06,0a2.11,2.11,0,0,0-.27.18,1,1,0,0,0,.34.12h-.52a2.62,2.62,0,0,0-.31.34l-38.69,60.69,1.59,2.61,2.22,3.61.31.56,2.24,3.55L424,477l.73,1.2a1.71,1.71,0,0,0,.5-.54l37.1-62.3,37.52,61.88.08.12a.76.76,0,0,0,.25.34,2,2,0,0,0,1.36.52H651.23a1.86,1.86,0,0,0,1.3-.5,1.35,1.35,0,0,0,.31-.32s0,0,0,0a1.59,1.59,0,0,0,.21-.84,1.46,1.46,0,0,0-.23-.82ZM386.2,287.15a3.11,3.11,0,0,0,.61,0,.11.11,0,0,0-.06.08h-.63a.28.28,0,0,1,.08-.08Z" transform="translate(-36.09 -95.6)"/><path class="cls-1" d="M386.81,287.15l-.08.08h-.61a.28.28,0,0,1,.08-.08A3.11,3.11,0,0,0,386.81,287.15Z" transform="translate(-36.09 -95.6)"/><path class="cls-1" d="M424.71,478.21a1.59,1.59,0,0,1-1,.35L422.8,477l-72-118.48L348.54,355l-.32-.57L346,350.79l-1.56-2.6,1.61,2.6,2.22,3.61.32.57,2.25,3.55L424,477Z" transform="translate(-36.09 -95.6)"/><path class="cls-1" d="M386.2,287.15l-.08.08h.63a.16.16,0,0,1,.06-.08,3.11,3.11,0,0,1-.61,0Zm-3.13-.5,0,0a0,0,0,0,1,0,0,1.77,1.77,0,0,0,.54.34,1.2,1.2,0,0,1,.27-.16l.06,0,0,0,.17-.06a1.57,1.57,0,0,1,.61-.1h-1.73ZM267,477.38v0l-.06-.1.06.16h0v0l0,0Z" transform="translate(-36.09 -95.6)"/><path class="cls-1" d="M420.9,96.48a1.89,1.89,0,0,0-1.64-.88H268.75a2,2,0,0,0-1.64.84s0,0,0,0a1.65,1.65,0,0,0,0,1.69l1.68,2.71L269.88,99H416L344.66,217.18l-2.16,3.55,2.18,3.55,2.14-3.55,72.45-119.9,1.61-2.67a1.72,1.72,0,0,0,.25-.86,1.85,1.85,0,0,0-.25-.82Z" transform="translate(-36.09 -95.6)"/><path class="cls-1" d="M386.2,287.15l-.08.08h.63a.16.16,0,0,1,.06-.08,3.11,3.11,0,0,1-.61,0Zm-3.13-.5,0,0a0,0,0,0,1,0,0,1.77,1.77,0,0,0,.54.34,1.2,1.2,0,0,1,.27-.16l.06,0,0,0,.17-.06a1.57,1.57,0,0,1,.61-.1h-1.73Zm76.4-128.23L420.9,96.48a1.89,1.89,0,0,0-1.64-.88H268.75a2,2,0,0,0-1.64.84s0,0,0,0a1.65,1.65,0,0,0,0,1.69l1.68,2.71L342.5,220.74l2.18,3.55,2.14-3.55-2.16-3.55L272,99H418.12l1.15,1.83,38,61.11,0,0,2.22,3.53,2.12-3.53-2.2-3.55Z" transform="translate(-36.09 -95.6)"/><path class="cls-1" d="M382.84,286.31l-.08-.08a1.18,1.18,0,0,1,.08.12s0,0,.06.06S382.86,286.33,382.84,286.31Zm3.36.84-.08.08h.63a.16.16,0,0,1,.06-.08,3.11,3.11,0,0,1-.61,0Zm-3.11-.52v0a0,0,0,0,1,0,0,1.77,1.77,0,0,0,.54.34,1.2,1.2,0,0,1,.27-.16v0l.06,0a0,0,0,0,0,0,0s0,0,.06,0a.18.18,0,0,1,.1,0,.91.91,0,0,1,.29-.1,1.62,1.62,0,0,1,.31,0h-1.69Zm76.38-128.21L457.33,162v0l2.22,3.53,2.12-3.53-2.2-3.55Z" transform="translate(-36.09 -95.6)"/><path class="cls-1" d="M424.72,478.22,424,477l-73.1-118.47L348.61,355l-.31-.56-2.22-3.61-1.61-2.61L307,287.59l0,0a1.25,1.25,0,0,0-.36-.42,2.16,2.16,0,0,0,.42-.44l37.64-62.38-2.18-3.55-38.29,63.38H157L268.79,100.9l-1.68-2.71a1.65,1.65,0,0,1,0-1.69L152.15,285c-.36.5-115.82,191-115.82,191a1.55,1.55,0,0,0,0,1.69,1.92,1.92,0,0,0,1.61.86H189.6a2,2,0,0,0,1.66-.92L228.55,416l.38-.6L267,477.26a0,0,0,0,0,0,0l.06.1v0h0v0s0,0,0,0h0l0,0s0,.06.06.06h0a.46.46,0,0,0,.17.2,2,2,0,0,0,1.38.52H272c.29.24,138.66.36,151.72.36l-.94-1.59,1,1.57a1.77,1.77,0,0,0,1-.34ZM226.36,412.37l-37.94,62.78H41.16L152.93,292l0,0,73.75,119.9-.36.56Z" transform="translate(-36.09 -95.6)"/><polygon class="cls-1" points="230.97 381.78 230.97 381.8 230.95 381.78 230.97 381.78"/><polygon class="cls-1" points="190.62 316.21 190.27 316.77 116.91 196.43 116.85 196.35 116.87 196.31 190.62 316.21"/><path class="cls-1" d="M386.2,287.15l-.08.08h.63a.16.16,0,0,1,.06-.08,3.11,3.11,0,0,1-.61,0Zm-3.13-.5,0,0a0,0,0,0,1,0,0,1.77,1.77,0,0,0,.54.34,1.2,1.2,0,0,1,.27-.16l.06,0,0,0,.17-.06a1.57,1.57,0,0,1,.61-.1h-1.73ZM267,477.38v0l-.06-.1.06.16h0v0l0,0Z" transform="translate(-36.09 -95.6)"/><path class="cls-1" d="M420.9,96.48a1.89,1.89,0,0,0-1.64-.88H268.75a2,2,0,0,0-1.64.84s0,0,0,0a1.65,1.65,0,0,0,0,1.69l1.68,2.71L269.88,99H416L344.66,217.18l-2.16,3.55,2.18,3.55,2.14-3.55,72.45-119.9,1.61-2.67a1.72,1.72,0,0,0,.25-.86,1.85,1.85,0,0,0-.25-.82Z" transform="translate(-36.09 -95.6)"/><path class="cls-1" d="M386.2,287.15l-.08.08h.63a.16.16,0,0,1,.06-.08,3.11,3.11,0,0,1-.61,0Zm-3.13-.5,0,0a0,0,0,0,1,0,0,1.77,1.77,0,0,0,.54.34,1.2,1.2,0,0,1,.27-.16l.06,0,0,0,.17-.06a1.57,1.57,0,0,1,.61-.1h-1.73Zm76.4-128.23L420.9,96.48a1.89,1.89,0,0,0-1.64-.88H268.75a2,2,0,0,0-1.64.84s0,0,0,0a1.65,1.65,0,0,0,0,1.69l1.68,2.71L342.5,220.74l2.18,3.55,2.14-3.55-2.16-3.55L272,99H418.12l1.15,1.83,38,61.11,0,0,2.22,3.53,2.12-3.53-2.2-3.55Z" transform="translate(-36.09 -95.6)"/><path class="cls-1" d="M382.84,286.31l-.08-.08a1.18,1.18,0,0,1,.08.12s0,0,.06.06S382.86,286.33,382.84,286.31Zm3.36.84-.08.08h.63a.16.16,0,0,1,.06-.08,3.11,3.11,0,0,1-.61,0Zm-3.11-.52v0a0,0,0,0,1,0,0,1.77,1.77,0,0,0,.54.34,1.2,1.2,0,0,1,.27-.16v0l.06,0a0,0,0,0,0,0,0s0,0,.06,0a.18.18,0,0,1,.1,0,.91.91,0,0,1,.29-.1,1.62,1.62,0,0,1,.31,0h-1.69Zm76.38-128.21L457.33,162v0l2.22,3.53,2.12-3.53-2.2-3.55Z" transform="translate(-36.09 -95.6)"/><path class="cls-1" d="M422.6,476.85l.8,1.73a2,2,0,0,0,1.31-.37l-1.68-1" transform="translate(-36.09 -95.6)"/><polygon class="cls-3" points="388.62 382.61 388.85 382.39 388.52 382.45 388.62 382.61"/><g class="cls-4"><g class="cls-4"><path class="cls-5" d="M1287.76,364.72v53.83h-7.48V377.18a60.27,60.27,0,0,1-3.24,7.48l-13,25.17h-7.39L1244,384.66c-.73-1.39-1.4-2.73-2-4s-1.15-2.42-1.54-3.37v41.29h-7.31V364.72h8.73l12.12,23.76a122.59,122.59,0,0,1,6.57,14.54,62.08,62.08,0,0,1,2.53-6.4q1.62-3.57,4-8.14l12.21-23.76Z" transform="translate(-36.09 -95.6)"/><path class="cls-5" d="M1331.21,381.33v37.22h-6.4l-.41-2.74a25.49,25.49,0,0,1-13,3.74,11.92,11.92,0,0,1-8.27-2.86c-2.13-1.92-3.2-4.81-3.2-8.69V382.17l7.15-.84v24.6a11.83,11.83,0,0,0,.66,4.36,4.21,4.21,0,0,0,2.16,2.32,9.77,9.77,0,0,0,4.15.71q4,0,10-3.07V382.17Z" transform="translate(-36.09 -95.6)"/><path class="cls-5" d="M1373.74,383.58V434h-7.14v-17.7a24.16,24.16,0,0,1-11.88,3.24,13.62,13.62,0,0,1-8.06-2.33,14.3,14.3,0,0,1-5-6.35,23.51,23.51,0,0,1-1.7-9.18q0-7.4,3.12-12a17.34,17.34,0,0,1,7.85-6.56,25.46,25.46,0,0,1,9.8-1.95A44.47,44.47,0,0,1,1373.74,383.58ZM1366.6,411V387.73a28,28,0,0,0-5.65-.66,13.67,13.67,0,0,0-9.64,3.45q-3.74,3.44-3.74,11.34,0,5.47,2.37,8.51a8.09,8.09,0,0,0,6.77,3A23.67,23.67,0,0,0,1366.6,411Z" transform="translate(-36.09 -95.6)"/><path class="cls-5" d="M1415,401.61H1389.7q.08,6.22,3,9.05a10.5,10.5,0,0,0,7.6,2.83,18.11,18.11,0,0,0,5.77-.83,31.12,31.12,0,0,0,5.45-2.58l2.74,5.07a26,26,0,0,1-14.29,4.4q-8,0-12.76-4.44T1382.47,401a24.32,24.32,0,0,1,2-10,16.19,16.19,0,0,1,15.62-9.88,16.35,16.35,0,0,1,8.23,1.95,12.84,12.84,0,0,1,5.15,5.36,16.92,16.92,0,0,1,1.74,7.81Zm-21.72-12.3a13.06,13.06,0,0,0-3.2,7.06h18.11V396c0-3.1-.7-5.43-2.12-7a7.73,7.73,0,0,0-6-2.33A8.88,8.88,0,0,0,1393.31,389.31Z" transform="translate(-36.09 -95.6)"/><path class="cls-5" d="M1453.58,401.61h-25.34q.09,6.22,3,9.05a10.5,10.5,0,0,0,7.6,2.83,18.11,18.11,0,0,0,5.77-.83,31.06,31.06,0,0,0,5.44-2.58l2.74,5.07a25.94,25.94,0,0,1-14.28,4.4q-8,0-12.76-4.44T1421,401a24.32,24.32,0,0,1,2-10,16.19,16.19,0,0,1,15.62-9.88,16.29,16.29,0,0,1,8.22,1.95,12.78,12.78,0,0,1,5.15,5.36,16.8,16.8,0,0,1,1.75,7.81Zm-21.72-12.3a13.06,13.06,0,0,0-3.2,7.06h18.11V396q0-4.65-2.12-7a7.73,7.73,0,0,0-6-2.33A8.88,8.88,0,0,0,1431.86,389.31Z" transform="translate(-36.09 -95.6)"/><path class="cls-5" d="M1512.49,383.83q2.82,2.66,2.82,8.64v26.08h-7.15V395.38a15.33,15.33,0,0,0-.58-4.78,4.27,4.27,0,0,0-1.82-2.45,6.83,6.83,0,0,0-3.49-.75,19.77,19.77,0,0,0-5.07.71,26.47,26.47,0,0,0-5,1.86c.11,1.11.17,1.94.17,2.5v26.08h-7.14V395.38a16.87,16.87,0,0,0-.54-4.78,4.19,4.19,0,0,0-1.79-2.45,6.8,6.8,0,0,0-3.49-.75,18.54,18.54,0,0,0-4.9.71,31,31,0,0,0-4.9,1.78v28.66h-7.15V382.17l7.15-.84v3.49a25.09,25.09,0,0,1,12.46-3.65q6.15,0,8.64,4.07a32.48,32.48,0,0,1,6.77-2.91,25.37,25.37,0,0,1,7.43-1.16A10.58,10.58,0,0,1,1512.49,383.83Z" transform="translate(-36.09 -95.6)"/></g></g><path class="cls-1" d="M800.54,206.24l-6.92-2.51c-31.13-11.32-38.06-17.61-38.06-28s9.44-18.55,30.5-18.55c19.18,0,33,6,51.87,17.29l20.44-30.79c-23.27-15.72-49.68-22.94-72-22.94-36.48,0-76.08,16.33-76.08,56.55,0,36.14,25.15,49,59.11,62.22l7.22,2.83c31.76,12.26,39.94,17.61,39.94,31.11,0,15.4-15.09,22.62-38.36,22.62-16.35,0-35.53-4.71-57.22-18.53l-20.12,31.11c19.5,14.45,45.28,24.5,80.17,24.5,45.28,0,81.43-20.11,81.43-62.2s-31.13-53.42-61.93-64.74Z" transform="translate(-36.09 -95.6)"/><path class="cls-1" d="M1032.55,125.17V262.49c-5.65-11.94-12.57-22-19.8-33L943.26,125.17h-48.1V328.79h43.71V191.15c7.86,17.29,16.66,30.49,24.83,42.75l63.82,94.89h48.42V125.17Z" transform="translate(-36.09 -95.6)"/><path class="cls-1" d="M1230.94,125.17H1175.3L1102,326.27v2.52h46.84l16-48.72h75.46l16.34,48.72h47.48v-2.52l-73.26-201.1Zm-54.08,119.1,25.47-77.61,26.1,77.61Z" transform="translate(-36.09 -95.6)"/><path class="cls-1" d="M1505.08,125.17l-46.84,89.24c-6.92,13.52-14.15,28.91-17.6,40.22-3.77-11-10.7-26.7-17.62-40.22l-46.52-89.24h-45.9V328.79H1374V202.15c2.84,7.55,6.92,16.66,13.85,30.49l35.84,71h34.27l35.2-71c6.92-13.52,11-22.63,13.85-30.49V328.79h44V125.17h-45.92Z" transform="translate(-36.09 -95.6)"/><path class="cls-6" d="M1679.54,520.75" transform="translate(-36.09 -95.6)"/></g></svg>