<svg id="Layer_1" data-name="Layer 1" xmlns="http://www.w3.org/2000/svg" xmlns:xlink="http://www.w3.org/1999/xlink" viewBox="0 0 1920 465.7"><defs><style>.cls-1{fill:none;}.cls-2{clip-path:url(#clip-path);}.cls-3{fill:#3698d4;}.cls-4{clip-path:url(#clip-path-2);}.cls-5{fill:url(#linear-gradient);}.cls-6{clip-path:url(#clip-path-4);}.cls-7{fill:url(#linear-gradient-2);}.cls-8{fill:#8b8d8e;}</style><clipPath id="clip-path"><rect class="cls-1" y="-289.45" width="1920" height="1080"/></clipPath><clipPath id="clip-path-2"><path class="cls-1" d="M483.48,238.13a.12.12,0,0,0-.06.09h-.63a.25.25,0,0,1,.09-.09l.3,0,.3,0M596.58,50H743.83L633.13,233,558.35,113Zm-1.16-3.41a2.1,2.1,0,0,0-1.68.88L556.15,109.4l2.2,3.56-2.12,3.53L629.9,234.76H484.41l71.82-118.27L554,113l-72.87,120-37.63-61.22-2.14,3.55,38.06,61.94.09.08s0,0,.06.1,0,.06.06.1.07.1.11.12h1.74a1.62,1.62,0,0,0-.31,0,.88.88,0,0,0-.3.1l-.17.06s0,0,0,0l-.06,0-.27.18a.93.93,0,0,0,.33.12h-.52a3.7,3.7,0,0,0-.32.35l-38.69,60.69,1.6,2.61,2.22,3.61.31.56,2.25,3.56L520.64,428l.74,1.2a1.83,1.83,0,0,0,.5-.54l37.1-62.3,37.51,61.88.09.12a.69.69,0,0,0,.25.34,2,2,0,0,0,1.36.52H747.92a1.86,1.86,0,0,0,1.3-.5,1.35,1.35,0,0,0,.31-.32s0,0,0,0a1.69,1.69,0,0,0,.21-.84,1.5,1.5,0,0,0-.24-.83L747.88,424,674.23,304l-2.16-3.52-38-62c-.1-.14,114.65-189.33,114.65-189.33a2.26,2.26,0,0,0,.21-.86,1.65,1.65,0,0,0-.25-.86,2,2,0,0,0-1.64-.84Z"/></clipPath><linearGradient id="linear-gradient" y1="790.36" x2="1" y2="790.36" gradientTransform="matrix(-143.2, 0, 0, 143.2, 579.84, -112943.67)" gradientUnits="userSpaceOnUse"><stop offset="0" stop-color="#3698d4"/><stop offset="0.35" stop-color="#3496d2"/><stop offset="0.54" stop-color="#2f8fca"/><stop offset="0.69" stop-color="#2782bc"/><stop offset="0.82" stop-color="#1a71a8"/><stop offset="0.94" stop-color="#0a5a8f"/><stop offset="1" stop-color="#004b7f"/></linearGradient><clipPath id="clip-path-4"><polygon class="cls-1" points="521.29 429.03 521.39 429.19 521.62 428.97 521.29 429.03"/></clipPath><linearGradient id="linear-gradient-2" y1="790.55" y2="790.55" gradientTransform="matrix(0.33, 0, 0, -0.33, 521.29, 691.69)" xlink:href="#linear-gradient"/></defs><g class="cls-2"><path class="cls-3" d="M482.88,238.13a.24.24,0,0,0-.09.08h.63a.11.11,0,0,1,.06-.08,3,3,0,0,1-.6,0"/><path class="cls-3" d="M481.5,237.62a1.82,1.82,0,0,0-1.17.4,2.3,2.3,0,0,1-.53-.34s0,0,0-.06Z"/></g><g class="cls-4"><rect class="cls-5" x="381.05" y="2.91" width="428.8" height="469.96" transform="translate(-45.76 238.57) rotate(-21.84)"/></g><g class="cls-2"><path class="cls-3" d="M483.49,238.13s-.06.06-.08.08h-.61s0-.06.08-.08a3.11,3.11,0,0,0,.61,0"/><path class="cls-3" d="M521.39,429.19a1.59,1.59,0,0,1-1,.35l-.94-1.56-72-118.48L445.22,306l-.32-.57-2.21-3.61-1.56-2.6,1.61,2.6,2.22,3.61.32.57,2.25,3.55L520.64,428Z"/><path class="cls-3" d="M482.87,238.13s-.06.06-.08.08h.63a.11.11,0,0,1,.06-.08,3.11,3.11,0,0,1-.61,0m-3.12-.5,0,0a0,0,0,0,1,0,0,1.7,1.7,0,0,0,.55.34,1,1,0,0,1,.27-.16l.06,0s0,0,0,0l.17-.06a1.57,1.57,0,0,1,.61-.1Zm-116,190.73v0l-.06-.1.06.16h0v0Z"/><path class="cls-3" d="M517.58,47.47a1.88,1.88,0,0,0-1.63-.88H365.44a2,2,0,0,0-1.64.84s0,0,0,0a1.63,1.63,0,0,0,0,1.68l1.68,2.72L366.57,50H512.74L441.35,168.17l-2.16,3.55,2.18,3.56,2.14-3.56L516,51.82l1.61-2.67a1.54,1.54,0,0,0,0-1.68"/><path class="cls-3" d="M482.87,238.13s-.06.06-.08.08h.63a.11.11,0,0,1,.06-.08,3.11,3.11,0,0,1-.61,0m-3.12-.5,0,0a0,0,0,0,1,0,0,1.7,1.7,0,0,0,.55.34,1,1,0,0,1,.27-.16l.06,0s0,0,0,0l.17-.06a1.57,1.57,0,0,1,.61-.1Zm76.4-128.23L517.58,47.47a1.89,1.89,0,0,0-1.63-.89H365.44a2,2,0,0,0-1.64.85s0,0,0,0a1.63,1.63,0,0,0,0,1.68l1.68,2.71,73.75,119.86,2.18,3.55,2.14-3.55-2.16-3.55L368.67,50H514.81L516,51.82l38,61.12,0,0,2.22,3.53,2.12-3.53Z"/><path class="cls-3" d="M479.52,237.29l-.08-.08a.42.42,0,0,1,.08.12s0,0,.06.06,0-.08-.06-.1m3.35.84s-.06.06-.08.08h.63a.11.11,0,0,1,.06-.08,3.11,3.11,0,0,1-.61,0m-3.1-.52v0a0,0,0,0,1,0,0,1.7,1.7,0,0,0,.55.34,1,1,0,0,1,.27-.16v0l.06,0s0,0,0,0,.05,0,.07,0a.18.18,0,0,1,.1,0,.88.88,0,0,1,.3-.1,1.56,1.56,0,0,1,.31,0ZM556.15,109.4,554,112.94v0l2.22,3.53,2.12-3.53Z"/><path class="cls-3" d="M521.4,429.2l-.76-1.22-73.1-118.47L445.27,306l-.31-.56-2.22-3.61-1.62-2.61-37.43-60.61,0,0a1.4,1.4,0,0,0-.36-.43,1.92,1.92,0,0,0,.42-.44l37.64-62.37-2.18-3.56L400.9,235.1H253.67L365.44,51.87l-1.68-2.72a1.63,1.63,0,0,1,0-1.68L248.8,236c-.35.5-115.82,191-115.82,191a1.57,1.57,0,0,0,0,1.69,1.94,1.94,0,0,0,1.62.86H286.26a1.94,1.94,0,0,0,1.65-.92l37.29-61.71.37-.61,38.07,61.9a0,0,0,0,0,0,0l.06.1v0h0v0s0,0,0,0h0l0,0a.06.06,0,0,0,.06.06h0c0,.08.1.14.16.2a2,2,0,0,0,1.39.52h3.31c.29.24,138.66.36,151.72.36l-.94-1.58,1,1.56a1.83,1.83,0,0,0,1-.34M323,363.35,285.1,426.13H137.85l111.77-183.2,0,0,73.75,119.9Z"/><polygon class="cls-3" points="363.74 428.36 363.74 428.38 363.72 428.36 363.74 428.36"/><polygon class="cls-3" points="323.39 362.79 323.04 363.35 249.68 243.01 249.62 242.93 249.64 242.89 323.39 362.79"/><path class="cls-3" d="M482.87,238.13s-.06.06-.08.08h.63a.11.11,0,0,1,.06-.08,3.11,3.11,0,0,1-.61,0m-3.12-.5,0,0a0,0,0,0,1,0,0,1.7,1.7,0,0,0,.55.34,1,1,0,0,1,.27-.16l.06,0s0,0,0,0l.17-.06a1.57,1.57,0,0,1,.61-.1Zm-116,190.73v0l-.06-.1.06.16h0v0Z"/><path class="cls-3" d="M517.58,47.47a1.88,1.88,0,0,0-1.63-.88H365.44a2,2,0,0,0-1.64.84s0,0,0,0a1.63,1.63,0,0,0,0,1.68l1.68,2.72L366.57,50H512.74L441.35,168.17l-2.16,3.55,2.18,3.56,2.14-3.56L516,51.82l1.61-2.67a1.54,1.54,0,0,0,0-1.68"/><path class="cls-3" d="M482.87,238.13s-.06.06-.08.08h.63a.11.11,0,0,1,.06-.08,3.11,3.11,0,0,1-.61,0m-3.12-.5,0,0a0,0,0,0,1,0,0,1.7,1.7,0,0,0,.55.34,1,1,0,0,1,.27-.16l.06,0s0,0,0,0l.17-.06a1.57,1.57,0,0,1,.61-.1Zm76.4-128.23L517.58,47.47a1.89,1.89,0,0,0-1.63-.89H365.44a2,2,0,0,0-1.64.85s0,0,0,0a1.63,1.63,0,0,0,0,1.68l1.68,2.71,73.75,119.86,2.18,3.55,2.14-3.55-2.16-3.55L368.67,50H514.81L516,51.82l38,61.12,0,0,2.22,3.53,2.12-3.53Z"/><path class="cls-3" d="M479.52,237.29l-.08-.08a.42.42,0,0,1,.08.12s0,0,.06.06,0-.08-.06-.1m3.35.84s-.06.06-.08.08h.63a.11.11,0,0,1,.06-.08,3.11,3.11,0,0,1-.61,0m-3.1-.52v0a0,0,0,0,1,0,0,1.7,1.7,0,0,0,.55.34,1,1,0,0,1,.27-.16v0l.06,0s0,0,0,0,.05,0,.07,0a.18.18,0,0,1,.1,0,.88.88,0,0,1,.3-.1,1.56,1.56,0,0,1,.31,0ZM556.15,109.4,554,112.94v0l2.22,3.53,2.12-3.53Z"/><path class="cls-3" d="M519.28,427.83l.8,1.73a2,2,0,0,0,1.31-.37l-1.67-1"/></g><g class="cls-6"><rect class="cls-7" x="521.29" y="428.97" width="0.33" height="0.22"/></g><path class="cls-8" d="M1603.58,315.69,1623.81,369v.5h-8l-5.64-15.37h-22.94l-5.57,15.37H1574V369l20.23-53.34Zm-14,32.16h18.28l-9.12-24.93Z"/><path class="cls-8" d="M1639.43,369.53V315.69h7.64v53.84Z"/><g class="cls-2"><path class="cls-3" d="M897.22,157.23l-6.92-2.51c-31.12-11.32-38.06-17.6-38.06-28,0-10.7,9.44-18.55,30.51-18.55,19.18,0,33,6,51.87,17.29l20.44-30.79c-23.27-15.73-49.68-22.94-72-22.94C846.59,71.77,807,88.1,807,128.32c0,36.14,25.16,49,59.11,62.22l7.22,2.83c31.76,12.25,39.94,17.6,39.94,31.1,0,15.41-15.09,22.62-38.36,22.62-16.35,0-35.53-4.71-57.22-18.53l-20.12,31.11c19.5,14.45,45.27,24.5,80.17,24.5,45.27,0,81.43-20.11,81.43-62.2,0-41.49-31.13-53.43-61.93-64.74"/><path class="cls-3" d="M1129.23,76.16V213.48c-5.65-11.94-12.57-22-19.8-33L1039.94,76.16h-48.1V279.78h43.71V142.14c7.86,17.29,16.66,30.49,24.83,42.75l63.82,94.89h48.42V76.16Z"/><path class="cls-3" d="M1327.62,76.16H1272l-73.26,201.1v2.52h46.84l16-48.71h75.46l16.33,48.71h47.48v-2.52Zm-54.08,119.09L1299,117.64l26.1,77.61Z"/><path class="cls-3" d="M1601.76,76.16l-46.84,89.24c-6.91,13.52-14.15,28.91-17.6,40.22-3.77-11-10.7-26.7-17.61-40.22l-46.52-89.24h-45.9V279.78h43.37V153.14c2.85,7.55,6.92,16.67,13.85,30.49l35.84,71h34.27l35.2-71c6.91-13.52,11-22.64,13.84-30.49V279.78h44V76.16Z"/></g></svg>