<svg id="Layer_1" data-name="Layer 1" xmlns="http://www.w3.org/2000/svg" viewBox="0 0 2880 1440"><defs><style>.cls-1,.cls-2,.cls-5,.cls-6,.cls-7{fill:#fff;}.cls-2,.cls-3,.cls-4,.cls-5,.cls-6,.cls-7,.cls-8{stroke:#000;stroke-miterlimit:22.93;}.cls-2,.cls-3,.cls-4,.cls-5{stroke-width:0.55px;}.cls-2,.cls-4,.cls-6{fill-rule:evenodd;}.cls-3,.cls-4,.cls-8{fill:none;}.cls-6,.cls-7,.cls-8{stroke-width:0.57px;}</style></defs><rect class="cls-1" x="0.5" y="0.5" width="2880" height="1440"/><path class="cls-2" d="M1064.6,545.5H1268v669.21H1064.6V545.5Zm61.23,189.41c11.31,39.49,23.69,52.43,32.62,58.9,2.9,2.1,5.43,3.51,7.85,3.68,2.41-.17,4.94-1.58,7.83-3.68,8.93-6.47,21.32-19.41,32.62-58.9,4.32-15.1,37.58-167.21,21.69-171.53q-60.63-16.49-124.29,0C1088.21,567.51,1121.52,719.81,1125.83,734.91Z"/><path class="cls-2" d="M1088.56,545.5H1244c10.5,26.07-24.35,183.69-29.17,200.39-13.56,46.94-28.42,62.33-39.14,70-3.46,2.49-6.5,4.17-9.39,4.37-2.9-.2-5.94-1.88-9.41-4.37-10.71-7.7-25.58-23.09-39.13-70-4.82-16.7-39.68-174.35-29.2-200.39Zm37.27,189.41c11.31,39.49,23.69,52.43,32.62,58.9,2.9,2.1,5.43,3.51,7.85,3.68,2.41-.17,4.94-1.58,7.83-3.68,8.93-6.47,21.32-19.41,32.62-58.9,4.32-15.1,37.58-167.21,21.69-171.53q-60.63-16.49-124.29,0C1088.21,567.51,1121.52,719.81,1125.83,734.91Z"/><path class="cls-2" d="M1445.14,483l18.61,53.8c-5.48,12.31-12.88,19.87-21,19.87s-15.55-7.55-21-19.86l18.17-52.54c0-11.88.74-29,2.83-51.7l.13,3.95.13-3.79A454.09,454.09,0,0,1,1445.14,483Z"/><polygon class="cls-2" points="1443.39 477.91 1521.48 703.74 1569.33 1214.71 1546.36 1214.71 1443.39 1214.71 1442.07 1214.71 1339.09 1214.71 1316.13 1214.71 1363.97 703.74 1442.07 477.91 1443.39 477.91"/><path class="cls-2" d="M1443.39,477.91l12.71,36.77c-2.71,10.25-7.68,17.12-13.37,17.12s-10.67-6.87-13.38-17.12l12.72-36.77Z"/><polygon class="cls-2" points="1360.74 746.26 1526.22 746.26 1526.54 749.61 1360.43 749.61 1360.74 746.26"/><path class="cls-2" d="M1442.73,601.67a51.67,51.67,0,1,1-51.67,51.67A51.66,51.66,0,0,1,1442.73,601.67Z"/><line class="cls-3" x1="1316.9" y1="1206.51" x2="1568.64" y2="1206.51"/><line class="cls-3" x1="1327.86" y1="1089.37" x2="1557.59" y2="1089.37"/><line class="cls-3" x1="1342.79" y1="933.1" x2="1542.66" y2="933.1"/><line class="cls-3" x1="1317.74" y1="1197.48" x2="1567.71" y2="1197.48"/><line class="cls-3" x1="1329.28" y1="1080.34" x2="1556.17" y2="1080.34"/><line class="cls-3" x1="1344.02" y1="924.07" x2="1541.43" y2="924.07"/><line class="cls-3" x1="1318.59" y1="1188.45" x2="1566.87" y2="1188.45"/><line class="cls-3" x1="1329.55" y1="1071.31" x2="1555.9" y2="1071.31"/><line class="cls-3" x1="1344.26" y1="915.04" x2="1541.19" y2="915.04"/><line class="cls-3" x1="1319.43" y1="1179.42" x2="1566.02" y2="1179.42"/><line class="cls-3" x1="1330.4" y1="1062.28" x2="1555.06" y2="1062.28"/><line class="cls-3" x1="1344.99" y1="906.01" x2="1540.46" y2="906.01"/><line class="cls-3" x1="1320.28" y1="1170.39" x2="1565.18" y2="1170.39"/><line class="cls-3" x1="1331.24" y1="1053.25" x2="1554.21" y2="1053.25"/><line class="cls-3" x1="1345.73" y1="896.98" x2="1539.72" y2="896.98"/><line class="cls-3" x1="1321.12" y1="1161.36" x2="1564.33" y2="1161.36"/><line class="cls-3" x1="1332.09" y1="1044.22" x2="1553.26" y2="1044.22"/><line class="cls-3" x1="1346.51" y1="887.95" x2="1538.94" y2="887.95"/><line class="cls-3" x1="1321.97" y1="1152.33" x2="1563.49" y2="1152.33"/><line class="cls-3" x1="1332.94" y1="1035.19" x2="1552.52" y2="1035.19"/><line class="cls-3" x1="1347.2" y1="878.92" x2="1538.25" y2="878.92"/><line class="cls-3" x1="1322.81" y1="1143.3" x2="1562.64" y2="1143.3"/><line class="cls-3" x1="1333.78" y1="1026.16" x2="1551.67" y2="1026.16"/><line class="cls-3" x1="1347.93" y1="869.89" x2="1537.52" y2="869.89"/><line class="cls-3" x1="1323.66" y1="1134.27" x2="1561.8" y2="1134.27"/><line class="cls-3" x1="1334.63" y1="1017.13" x2="1550.83" y2="1017.13"/><line class="cls-3" x1="1348.67" y1="860.86" x2="1536.78" y2="860.86"/><line class="cls-3" x1="1324.5" y1="1125.24" x2="1560.95" y2="1125.24"/><line class="cls-3" x1="1335.47" y1="1008.1" x2="1549.96" y2="1008.1"/><line class="cls-3" x1="1350.66" y1="851.83" x2="1534.79" y2="851.83"/><line class="cls-3" x1="1336.22" y1="1000.12" x2="1549.24" y2="1000.12"/><line class="cls-3" x1="1351.09" y1="843.85" x2="1534.36" y2="843.85"/><line class="cls-3" x1="1336.97" y1="992.14" x2="1548.49" y2="992.14"/><line class="cls-3" x1="1351.82" y1="835.86" x2="1533.63" y2="835.86"/><line class="cls-3" x1="1337.71" y1="984.15" x2="1547.74" y2="984.15"/><line class="cls-3" x1="1352.55" y1="827.88" x2="1532.9" y2="827.88"/><line class="cls-3" x1="1338.46" y1="976.17" x2="1546.99" y2="976.17"/><line class="cls-3" x1="1353.08" y1="819.9" x2="1532.37" y2="819.9"/><line class="cls-3" x1="1339.21" y1="969.05" x2="1546.33" y2="969.05"/><line class="cls-3" x1="1354.11" y1="812.77" x2="1531.34" y2="812.77"/><line class="cls-3" x1="1354.27" y1="805.01" x2="1531.19" y2="805.01"/><line class="cls-3" x1="1355.44" y1="797.25" x2="1530.01" y2="797.25"/><line class="cls-3" x1="1356.1" y1="789.49" x2="1529.36" y2="789.49"/><line class="cls-3" x1="1357.24" y1="781.73" x2="1528.22" y2="781.73"/><line class="cls-3" x1="1357.12" y1="773.96" x2="1528.33" y2="773.96"/><line class="cls-3" x1="1358.18" y1="766.2" x2="1527.27" y2="766.2"/><line class="cls-3" x1="1358.18" y1="758.44" x2="1527.27" y2="758.44"/><line class="cls-3" x1="1401.45" y1="595.36" x2="1483.9" y2="595.36"/><line class="cls-3" x1="1404.09" y1="587.72" x2="1481.38" y2="587.72"/><line class="cls-3" x1="1406.81" y1="579.86" x2="1478.49" y2="579.86"/><line class="cls-3" x1="1409.28" y1="572.72" x2="1475.91" y2="572.72"/><line class="cls-3" x1="1412.01" y1="564.82" x2="1473.27" y2="564.82"/><line class="cls-3" x1="1415.01" y1="556.16" x2="1470.18" y2="556.16"/><line class="cls-3" x1="1418.11" y1="547.19" x2="1467.05" y2="547.19"/><polyline class="cls-4" points="1443.48 746.26 1400.78 711.05 1360.74 746.26"/><polyline class="cls-4" points="1526.22 746.26 1483.52 711.05 1443.48 746.26"/><polyline class="cls-4" points="1442.18 969.05 1389.03 933.83 1339.21 969.05"/><polyline class="cls-4" points="1545.14 969.05 1491.99 933.83 1442.18 969.05"/><polyline class="cls-4" points="1442.73 1125.23 1381.7 1090.02 1324.51 1125.23"/><polyline class="cls-4" points="1560.95 1125.23 1499.93 1090.02 1442.73 1125.23"/><path class="cls-2" d="M1723.71,1214.71h70.45V1037.45l148.16-137.71H1575.55l148.16,137.71Z"/><rect class="cls-5" x="1723.71" y="1037.45" width="70.45" height="177.25"/><polygon class="cls-2" points="1732.64 1037.45 1619.19 899.74 1642.83 899.74 1737.18 1037.45 1737.18 1214.71 1732.64 1214.71 1732.64 1037.45"/><polygon class="cls-2" points="1787.72 1037.19 1900.95 899.74 1877.32 899.74 1783.18 1037.13 1783.18 1037.14 1782.96 1037.45 1783.18 1037.45 1783.18 1214.39 1787.72 1214.39 1787.72 1037.19"/><polygon class="cls-2" points="1725.98 1037.45 1581.89 899.74 1597.77 899.74 1728.25 1037.45 1728.25 1214.71 1725.98 1214.71 1725.98 1037.45"/><polygon class="cls-2" points="1794.16 1037.45 1938.25 899.74 1922.38 899.74 1791.89 1037.45 1792.37 1037.45 1792.37 1214.71 1794.65 1214.71 1794.65 1037.45 1794.16 1037.45"/><polygon class="cls-2" points="1745.21 1037.45 1669.06 899.74 1691.4 899.74 1749.75 1037.45 1749.53 1037.45 1749.53 1214.71 1745.21 1214.71 1745.21 1037.45"/><polygon class="cls-2" points="1774.93 1037.45 1851.09 899.74 1828.74 899.74 1770.39 1037.45 1770.39 1214.71 1774.72 1214.71 1774.72 1037.45 1774.93 1037.45"/><polygon class="cls-2" points="1754.4 1037.45 1720.98 899.74 1748.25 899.74 1758.94 1037.45 1758.94 1214.71 1754.4 1214.71 1754.4 1037.45"/><polygon class="cls-2" points="1766.66 1037.45 1800.07 899.74 1772.81 899.74 1762.13 1037.45 1762.13 1214.71 1766.66 1214.71 1766.66 1037.45"/><polygon class="cls-2" points="1575.55 892.6 1758.94 847.19 1942.32 892.6 1575.55 892.6"/><polygon class="cls-2" points="1575.15 891 1755.31 846.39 1759.4 814.29 1763.48 846.61 1942.72 891 1941.93 894.21 1758.94 848.9 1575.95 894.21 1575.15 891"/><polygon class="cls-2" points="1575.55 899.89 1942.32 899.89 1942.32 892.6 1909.09 892.6 1909.09 887.68 1905.46 887.68 1905.46 892.6 1898.1 892.6 1898.1 887.68 1894.47 887.68 1894.47 892.6 1887.11 892.6 1887.11 887.68 1883.49 887.68 1883.49 892.6 1876.12 892.6 1876.12 887.68 1872.5 887.68 1872.5 892.6 1865.13 892.6 1865.13 887.68 1861.51 887.68 1861.51 892.6 1854.15 892.6 1854.15 887.68 1850.52 887.68 1850.52 892.6 1843.16 892.6 1843.16 887.68 1839.53 887.68 1839.53 892.6 1832.17 892.6 1832.17 887.68 1828.55 887.68 1828.55 892.6 1821.18 892.6 1821.18 887.68 1817.56 887.68 1817.56 892.6 1810.2 892.6 1810.2 887.68 1806.57 887.68 1806.57 892.6 1799.21 892.6 1799.21 887.68 1795.58 887.68 1795.58 892.6 1788.22 892.6 1788.22 887.68 1784.59 887.68 1784.59 892.6 1777.23 892.6 1777.23 887.68 1773.61 887.68 1773.61 892.6 1766.24 892.6 1766.24 887.68 1762.62 887.68 1762.62 892.6 1755.26 892.6 1755.26 887.68 1751.63 887.68 1751.63 892.6 1744.27 892.6 1744.27 887.68 1740.64 887.68 1740.64 892.6 1733.28 892.6 1733.28 887.68 1729.65 887.68 1729.65 892.6 1722.29 892.6 1722.29 887.68 1718.67 887.68 1718.67 892.6 1711.31 892.6 1711.31 887.68 1707.68 887.68 1707.68 892.6 1700.32 892.6 1700.32 887.68 1696.69 887.68 1696.69 892.6 1689.33 892.6 1689.33 887.68 1685.7 887.68 1685.7 892.6 1678.34 892.6 1678.34 887.68 1674.71 887.68 1674.71 892.6 1667.35 892.6 1667.35 887.68 1663.72 887.68 1663.72 892.6 1656.37 892.6 1656.37 887.68 1652.74 887.68 1652.74 892.6 1645.38 892.6 1645.38 887.68 1641.75 887.68 1641.75 892.6 1634.39 892.6 1634.39 887.68 1630.76 887.68 1630.76 892.6 1623.4 892.6 1623.4 887.68 1619.77 887.68 1619.77 892.6 1612.41 892.6 1612.41 887.68 1608.79 887.68 1608.79 892.6 1575.55 892.6 1575.55 899.89"/><rect class="cls-5" x="2022.19" y="719.33" width="79.07" height="500.43"/><rect class="cls-5" x="2035.4" y="719.33" width="4.33" height="500.43"/><rect class="cls-5" x="2051.5" y="719.33" width="4.33" height="500.43"/><rect class="cls-5" x="2067.61" y="719.33" width="4.33" height="500.43"/><rect class="cls-5" x="2083.71" y="719.33" width="4.33" height="500.43"/><path class="cls-2" d="M2003.23,830.78h117a8.15,8.15,0,0,1,8.13,8.12h0a8.15,8.15,0,0,1-8.13,8.12h-117a8.15,8.15,0,0,1-8.13-8.12h0A8.15,8.15,0,0,1,2003.23,830.78Z"/><polygon class="cls-2" points="2056.06 654.36 2067.38 654.36 2064.51 451.3 2058.16 451.3 2056.06 654.36"/><polygon class="cls-2" points="2065.5 520.9 2065.13 494.37 2057.71 494.37 2057.44 520.9 2065.5 520.9"/><polygon class="cls-2" points="2066.74 609.18 2066.37 582.65 2056.8 582.65 2056.53 609.18 2066.74 609.18"/><polygon class="cls-2" points="2010.24 669.86 2027.87 669.86 2095.57 669.86 2113.21 669.86 2095.57 644.4 2095.57 644.4 2095.57 644.4 2027.87 644.4 2027.87 644.4 2027.87 644.4 2010.24 669.86"/><path class="cls-2" d="M2010.23,660.61h103.14l.17.07c11.49,4.76,20.35,10.42,26.24,17.1a31.8,31.8,0,0,1,8.38,23.46c-.19,7.23-2.52,14.47-8,21.68s-13.95,14.31-26.55,21.43l-.2.12H2010l-.2-.12c-12.6-7.12-21.12-14.27-26.54-21.43s-7.79-14.45-8-21.68a31.75,31.75,0,0,1,8.37-23.46c5.89-6.68,14.75-12.34,26.25-17.1l.16-.07Z"/><polyline class="cls-4" points="1984.86 702.57 2010.21 660.61 2036.1 702.64"/><polyline class="cls-4" points="2036.1 702.64 2061.46 660.68 2087.34 702.7"/><polyline class="cls-4" points="2087.34 702.7 2112.7 660.74 2138.58 702.77"/><polyline class="cls-4" points="1984.86 702.57 2010.21 744.53 2036.1 702.51"/><polyline class="cls-4" points="2036.1 702.51 2061.46 744.47 2087.34 702.44"/><polyline class="cls-4" points="2087.34 702.44 2112.7 744.4 2138.58 702.37"/><line class="cls-3" x1="1984.86" y1="702.57" x2="2138.58" y2="702.57"/><line class="cls-3" x1="2061.01" y1="660.61" x2="2061.01" y2="644.4"/><line class="cls-3" x1="2051.46" y1="660.61" x2="2055.7" y2="644.4"/><line class="cls-3" x1="2072.6" y1="660.61" x2="2068.35" y2="644.4"/><line class="cls-3" x1="2038.89" y1="660.61" x2="2045.91" y2="644.4"/><line class="cls-3" x1="2085.16" y1="660.61" x2="2078.15" y2="644.4"/><line class="cls-3" x1="2027.47" y1="660.61" x2="2035.79" y2="644.4"/><line class="cls-3" x1="2096.59" y1="660.61" x2="2088.27" y2="644.4"/><rect class="cls-5" x="2202.84" y="587.3" width="161.3" height="627.4"/><line class="cls-3" x1="2249.32" y1="1214.71" x2="2249.32" y2="587.3"/><line class="cls-3" x1="2317.66" y1="1214.71" x2="2317.66" y2="587.3"/><line class="cls-3" x1="2202.84" y1="1204.61" x2="2364.14" y2="1204.61"/><line class="cls-3" x1="2202.84" y1="1195.09" x2="2364.14" y2="1195.09"/><line class="cls-3" x1="2202.84" y1="1185.57" x2="2364.14" y2="1185.57"/><line class="cls-3" x1="2202.84" y1="1176.06" x2="2364.14" y2="1176.06"/><line class="cls-3" x1="2202.84" y1="1166.54" x2="2364.14" y2="1166.54"/><line class="cls-3" x1="2202.84" y1="1157.02" x2="2364.14" y2="1157.02"/><line class="cls-3" x1="2202.84" y1="1147.5" x2="2364.14" y2="1147.5"/><line class="cls-3" x1="2202.84" y1="1137.98" x2="2364.14" y2="1137.98"/><line class="cls-3" x1="2202.84" y1="1128.47" x2="2364.14" y2="1128.47"/><line class="cls-3" x1="2202.84" y1="1118.95" x2="2364.14" y2="1118.95"/><line class="cls-3" x1="2202.84" y1="1109.43" x2="2364.14" y2="1109.43"/><line class="cls-3" x1="2202.84" y1="1099.91" x2="2364.14" y2="1099.91"/><line class="cls-3" x1="2202.84" y1="1090.4" x2="2364.14" y2="1090.4"/><line class="cls-3" x1="2202.84" y1="1080.88" x2="2364.14" y2="1080.88"/><line class="cls-3" x1="2202.84" y1="1071.36" x2="2364.14" y2="1071.36"/><line class="cls-3" x1="2202.84" y1="1061.84" x2="2364.14" y2="1061.84"/><line class="cls-3" x1="2202.84" y1="1052.33" x2="2364.14" y2="1052.33"/><line class="cls-3" x1="2202.84" y1="1042.81" x2="2364.14" y2="1042.81"/><line class="cls-3" x1="2202.84" y1="1033.29" x2="2364.14" y2="1033.29"/><line class="cls-3" x1="2202.84" y1="1023.77" x2="2364.14" y2="1023.77"/><line class="cls-3" x1="2202.84" y1="1014.25" x2="2364.14" y2="1014.25"/><line class="cls-3" x1="2202.84" y1="1004.74" x2="2364.14" y2="1004.74"/><line class="cls-3" x1="2202.84" y1="995.22" x2="2364.14" y2="995.22"/><line class="cls-3" x1="2202.84" y1="985.7" x2="2364.14" y2="985.7"/><line class="cls-3" x1="2202.84" y1="976.18" x2="2364.14" y2="976.18"/><line class="cls-3" x1="2202.84" y1="966.67" x2="2364.14" y2="966.67"/><line class="cls-3" x1="2202.84" y1="957.15" x2="2364.14" y2="957.15"/><line class="cls-3" x1="2202.84" y1="947.63" x2="2364.14" y2="947.63"/><line class="cls-3" x1="2202.84" y1="938.11" x2="2364.14" y2="938.11"/><line class="cls-3" x1="2202.84" y1="928.59" x2="2364.14" y2="928.59"/><line class="cls-3" x1="2202.84" y1="919.08" x2="2364.14" y2="919.08"/><line class="cls-3" x1="2202.84" y1="909.56" x2="2364.14" y2="909.56"/><line class="cls-3" x1="2202.84" y1="900.04" x2="2364.14" y2="900.04"/><line class="cls-3" x1="2202.84" y1="890.52" x2="2364.14" y2="890.52"/><line class="cls-3" x1="2202.84" y1="881.01" x2="2364.14" y2="881.01"/><line class="cls-3" x1="2202.84" y1="871.49" x2="2364.14" y2="871.49"/><line class="cls-3" x1="2202.84" y1="861.97" x2="2364.14" y2="861.97"/><line class="cls-3" x1="2202.84" y1="852.45" x2="2364.14" y2="852.45"/><line class="cls-3" x1="2202.84" y1="842.93" x2="2364.14" y2="842.93"/><line class="cls-3" x1="2202.84" y1="833.42" x2="2364.14" y2="833.42"/><line class="cls-3" x1="2202.84" y1="823.9" x2="2364.14" y2="823.9"/><line class="cls-3" x1="2202.84" y1="814.38" x2="2364.14" y2="814.38"/><line class="cls-3" x1="2202.84" y1="804.86" x2="2364.14" y2="804.86"/><line class="cls-3" x1="2202.84" y1="795.35" x2="2364.14" y2="795.35"/><line class="cls-3" x1="2202.84" y1="785.83" x2="2364.14" y2="785.83"/><line class="cls-3" x1="2202.84" y1="776.31" x2="2364.14" y2="776.31"/><line class="cls-3" x1="2202.84" y1="766.79" x2="2364.14" y2="766.79"/><line class="cls-3" x1="2202.84" y1="757.27" x2="2364.14" y2="757.27"/><line class="cls-3" x1="2202.84" y1="747.76" x2="2364.14" y2="747.76"/><line class="cls-3" x1="2202.84" y1="738.24" x2="2364.14" y2="738.24"/><line class="cls-3" x1="2202.84" y1="728.72" x2="2364.14" y2="728.72"/><line class="cls-3" x1="2202.84" y1="719.2" x2="2364.14" y2="719.2"/><line class="cls-3" x1="2202.84" y1="709.69" x2="2364.14" y2="709.69"/><line class="cls-3" x1="2202.84" y1="700.17" x2="2364.14" y2="700.17"/><line class="cls-3" x1="2202.84" y1="690.65" x2="2364.14" y2="690.65"/><line class="cls-3" x1="2202.84" y1="681.13" x2="2364.14" y2="681.13"/><line class="cls-3" x1="2202.84" y1="671.62" x2="2364.14" y2="671.62"/><line class="cls-3" x1="2202.84" y1="662.1" x2="2364.14" y2="662.1"/><line class="cls-3" x1="2202.84" y1="652.58" x2="2364.14" y2="652.58"/><line class="cls-3" x1="2202.84" y1="643.06" x2="2364.14" y2="643.06"/><line class="cls-3" x1="2202.84" y1="633.54" x2="2364.14" y2="633.54"/><line class="cls-3" x1="2202.84" y1="624.03" x2="2364.14" y2="624.03"/><line class="cls-3" x1="2202.84" y1="614.51" x2="2364.14" y2="614.51"/><line class="cls-3" x1="2202.84" y1="604.99" x2="2364.14" y2="604.99"/><line class="cls-3" x1="2202.84" y1="595.47" x2="2364.14" y2="595.47"/><polygon class="cls-4" points="2202.84 587.3 2364.14 587.3 2364.14 583.17 2364.14 572.95 2364.14 558.06 2355.67 558.06 2355.67 572.95 2327.34 572.95 2327.34 565.14 2317.04 565.14 2317.04 572.95 2291.93 572.95 2291.93 559.67 2283.49 559.67 2283.49 572.95 2246.85 572.95 2246.85 567.39 2233.65 567.39 2233.65 572.95 2210.15 572.95 2210.15 557.41 2202.84 557.41 2202.84 572.95 2202.84 582.53 2202.84 587.3"/><rect class="cls-5" x="689.56" y="822.67" width="2.04" height="17.87"/><path class="cls-2" d="M690.58,866.08h0a9.44,9.44,0,0,0,9.42-9.42v-12a9.45,9.45,0,0,0-9.42-9.42h0a9.44,9.44,0,0,0-9.42,9.42v12A9.44,9.44,0,0,0,690.58,866.08Z"/><rect class="cls-5" x="677.34" y="1015.81" width="26.48" height="94.9"/><rect class="cls-5" x="677.34" y="901.33" width="26.48" height="94.9"/><polygon class="cls-2" points="677.34 1015.81 703.81 1015.81 707.51 996.23 703.81 996.23 677.34 996.23 673.64 996.23 677.34 1015.81"/><polygon class="cls-2" points="677.34 908.45 703.81 908.45 707.51 888.87 703.81 888.87 677.34 888.87 673.64 888.87 677.34 908.45"/><rect class="cls-5" x="680.81" y="869.52" width="2.61" height="19.35"/><rect class="cls-5" x="689.27" y="869.52" width="2.61" height="19.35"/><rect class="cls-5" x="697.74" y="869.52" width="2.61" height="19.35"/><rect class="cls-5" x="677.74" y="857.88" width="25.67" height="12.06"/><path class="cls-2" d="M527.91,1005.86a111,111,0,0,1,110,96h-220A111,111,0,0,1,527.91,1005.86Z"/><path class="cls-2" d="M624.77,1062.63a110.59,110.59,0,0,1,5.86,12.1H579.18v-12.1Zm-52.38,12.1h-89v-12.1h89v12.1Zm-95.75,0H425.19a110.59,110.59,0,0,1,5.86-12.1h45.59Z"/><rect class="cls-5" x="322.01" y="1093.37" width="411.79" height="121.34"/><path class="cls-2" d="M407.59,1200v-73.52a12.07,12.07,0,0,0-12-12h0a12.06,12.06,0,0,0-12,12V1200Z"/><path class="cls-2" d="M672.3,1200v-73.52a12.06,12.06,0,0,0-12-12h0a12.07,12.07,0,0,0-12,12V1200Z"/><path class="cls-2" d="M511.73,1200v-73.52a12.07,12.07,0,0,0-12-12h0a12.07,12.07,0,0,0-12,12V1200Z"/><path class="cls-2" d="M564.77,1200v-73.52a12.06,12.06,0,0,0-12-12h0a12.07,12.07,0,0,0-12,12V1200Z"/><circle class="cls-3" cx="769.51" cy="1128.39" r="24.18" transform="translate(-88.38 65.64) rotate(-4.62)"/><rect class="cls-5" x="733.8" y="1122.21" width="71.42" height="92.5"/><path class="cls-4" d="M733.8,1214.71h10.46v-44.24a25.25,25.25,0,0,1,50.5,0v44.24h10.46v-92.5H733.8Z"/><rect class="cls-5" x="822.45" y="1049.1" width="314.41" height="165.61"/><rect class="cls-5" x="822.45" y="1072.74" width="314.41" height="5.22"/><rect class="cls-5" x="822.45" y="1099.43" width="314.41" height="5.22"/><rect class="cls-5" x="822.45" y="1126.13" width="314.41" height="5.22"/><rect class="cls-5" x="822.45" y="1152.83" width="314.41" height="5.22"/><rect class="cls-5" x="822.45" y="1179.52" width="314.41" height="5.22"/><rect class="cls-5" x="2402.25" y="993.97" width="156.73" height="220.73"/><rect class="cls-5" x="2402.25" y="1025.48" width="156.73" height="6.95"/><rect class="cls-5" x="2402.25" y="1061.06" width="156.73" height="6.95"/><rect class="cls-5" x="2402.25" y="1096.64" width="156.73" height="6.95"/><rect class="cls-5" x="2402.25" y="1132.23" width="156.73" height="6.95"/><rect class="cls-5" x="2402.25" y="1167.81" width="156.73" height="6.95"/><rect class="cls-5" x="120.47" y="1214.21" width="2640.06" height="15.51"/><path class="cls-2" d="M1434.34,268h-13.9V255.9h13.68a3.33,3.33,0,0,1,3.6,3.46v5.11a3.85,3.85,0,0,1-.94,2.52,3.47,3.47,0,0,1-2.44,1Zm-4.68-28.07h-9.22V228.84h8.78c4.35,0,3.89,3.66,3.89,6.77a5,5,0,0,1-.79,3.09,3.43,3.43,0,0,1-2.66,1.23Zm-32.48-24.69v66.43a4.94,4.94,0,0,0,.7,2.83l.17.19a4.45,4.45,0,0,0,3.31.94h37.94c5,0,11.45-.43,15.61-3.55a12.42,12.42,0,0,0,4.24-5.33,21.38,21.38,0,0,0,1.47-8.18v-8.78c0-4.27-.55-8.53-3-11.77a10.21,10.21,0,0,0-3.44-3,14.38,14.38,0,0,0-4.82-1.66,15.82,15.82,0,0,0-1.64-.24.63.63,0,0,1,.12-.09l.19-.1a7.18,7.18,0,0,0,1.36-.79,8.07,8.07,0,0,0,2.19-2.14c.11-.16.15-.19.24-.33a7.45,7.45,0,0,0,.41-.74c1.85-3.74,1.46-7.4,1.46-11.78,0-3.62-.8-7.38-2.86-10a13,13,0,0,0-2.17-2.16,16.35,16.35,0,0,0-5.83-2.73,36.12,36.12,0,0,0-7.64-1h-34.78a3.43,3.43,0,0,0-2.53,1.07A4.79,4.79,0,0,0,1397.18,215.24Z"/><path class="cls-2" d="M1043.59,266.05h-12.46V231h12.17c4.18,0,5,2.18,5,6v23c0,2.52-.2,4.64-2.38,5.61a5.83,5.83,0,0,1-2.3.43Zm-35.93-50.67v66.07c0,3.15,1,4.18,4.17,4.18H1046c5.76,0,10.93-.64,15.82-2.9.37-.17.59-.33.93-.51a18,18,0,0,0,2.63-1.76c.15-.12.22-.23.37-.35,4.3-3.62,5.88-9.68,5.88-15.14V231.79c0-5.53-1.51-10.69-5.16-14.34l-1.48-1.33a19.93,19.93,0,0,0-3.45-2.09l-2-.83c-.67-.26-1.42-.46-2.14-.67a40.11,40.11,0,0,0-10-1.25h-36.5a3.4,3.4,0,0,0-2.56,1.11A5.11,5.11,0,0,0,1007.66,215.38Z"/><path class="cls-2" d="M579,266.05H566.58V231h12.17c1.76,0,3.3.49,4,1.51s.93,2.64.93,4.61v22.74c0,2.57-.14,4.77-2.37,5.76a5.88,5.88,0,0,1-2.31.43Zm-35.92-50.67v66.07c0,3.16,1,4.18,4.17,4.18h34.13a47.72,47.72,0,0,0,10.47-1.05,21.94,21.94,0,0,0,8.5-3.81l1.17-1a15.71,15.71,0,0,0,2-2.31,18.13,18.13,0,0,0,3-7.19A27.4,27.4,0,0,0,607,265v-33c0-4.89-1.12-9.38-3.8-13a15.9,15.9,0,0,0-2.8-2.82,21.23,21.23,0,0,0-7.61-3.62,40.11,40.11,0,0,0-10-1.25h-36.5a3.42,3.42,0,0,0-2.57,1.11A5.19,5.19,0,0,0,543.11,215.38Z"/><path class="cls-2" d="M290,243h-8.14V229.85h6.92c2.45,0,4.17.26,4.92,2.42a6.72,6.72,0,0,1,.4,2v4.32a5.89,5.89,0,0,1-1,3.21A3.9,3.9,0,0,1,290,243Zm-31.46-28.5v67.94a3.28,3.28,0,0,0,1.16,2.51,3,3,0,0,0,1.34.53c1.07.25,14.46.13,16.58.13a5.3,5.3,0,0,0,3.08-.66,2.24,2.24,0,0,0,.83-1.05,5.16,5.16,0,0,0,.33-1.6V261.66h14.4c1.79,0,3.16.49,3.69,2.29a25.83,25.83,0,0,1,.27,5.77v12c0,3,1.19,3.89,4.18,3.89h15.12c3.16,0,4.18-1,4.18-4.18V260.73a17.51,17.51,0,0,0-1.8-8.71,13.22,13.22,0,0,0-5.21-5.3,12.6,12.6,0,0,0-2.47-1.06,15.57,15.57,0,0,0-2.91-.62.46.46,0,0,1,.17-.12,10.92,10.92,0,0,0,1.29-.73,7.75,7.75,0,0,0,3.06-3.92c1.25-3.12,1.17-6.63,1.17-10.35a37.3,37.3,0,0,0-.23-4.45,16.89,16.89,0,0,0-1.59-5.53,14.63,14.63,0,0,0-1.81-2.94,11.71,11.71,0,0,0-3.81-3.25,16.63,16.63,0,0,0-3.4-1.35,32,32,0,0,0-8.38-1.12h-36a5,5,0,0,0-1.33.24A3,3,0,0,0,258.49,214.52Z"/><path class="cls-2" d="M1276.65,243h-8.13V229.85h6.77c2.88,0,4.25.27,5.1,2.53.55,1.46.37,4.28.37,6a6,6,0,0,1-1,3.34,3.73,3.73,0,0,1-3.12,1.27Zm-31.46-28.57v67.94a3.33,3.33,0,0,0,1.15,2.59,5.5,5.5,0,0,0,3.1.65h14.9c2.51,0,4.18-.7,4.18-3.46V261.66h14.4c1.86,0,3.25.62,3.67,2.3.07.26.12.54.18.84s0,.6.07.93c.13.89,0,14.81,0,16.08a5.45,5.45,0,0,0,.22,1.8c.55,1.77,2.1,2,4,2h15c3.38,0,4.18-1.19,4.18-4.46V261.09a22.8,22.8,0,0,0-.71-6.35,13.41,13.41,0,0,0-2.8-5.19l-.83-.89a13.24,13.24,0,0,0-5.08-3,15.76,15.76,0,0,0-3-.63c.09-.09,0,0,.16-.12l.19-.1a8.09,8.09,0,0,0,3.49-3.14c1.83-3.06,1.84-7.42,1.84-11.4,0-4.46-.41-8.24-2.55-11.7a17.83,17.83,0,0,0-2.07-2.75,14.7,14.7,0,0,0-2-1.56,15.36,15.36,0,0,0-4.19-1.85,32,32,0,0,0-8.44-1.14h-36A3,3,0,0,0,1245.19,214.45Z"/><path class="cls-2" d="M620.15,214.45v67.94A3.33,3.33,0,0,0,621.3,285a5.5,5.5,0,0,0,3.1.65h14.9c3.59,0,4.32-1.12,4.32-4.68V259h17.14v22.24c0,3.28.87,4.39,4.17,4.39H680a5.4,5.4,0,0,0,3.09-.65,3.3,3.3,0,0,0,1.16-2.59V214.52a5.07,5.07,0,0,0-.24-1.34,2.66,2.66,0,0,0-1.6-1.64,5,5,0,0,0-1.38-.26H663.92a3.87,3.87,0,0,0-2.09.72c-1,.72-1.07,2.36-1.07,3.74v21.67H643.62V216c0-1.84-.09-3.59-1.66-4.32a5,5,0,0,0-1.65-.36H623.39a3.71,3.71,0,0,0-2.35.82A3.56,3.56,0,0,0,620.15,214.45Z"/><path class="cls-2" d="M1563.43,231.22c1.34,0,2.8-.21,3.58.38a4.41,4.41,0,0,1,1.08,2c.13.4.24.75.35,1.15l2.85,9.25c.23.74.46,1.54.72,2.3l.71,2.38h-16.13c.09-.35.25-.8.35-1.16l2.51-8.08c.26-.79.46-1.5.72-2.3l1.06-3.47a5.29,5.29,0,0,1,.43-1.08,2,2,0,0,1,1.77-1.32ZM1532.91,255v26.63a7.06,7.06,0,0,0,.21,1.8,2.93,2.93,0,0,0,.29.72l.4.53a4.45,4.45,0,0,0,3.27.91h14.33c3.42,0,4.18-1.23,4.18-4.54V267.42h18.21v14.83a3.27,3.27,0,0,0,1.26,2.7,6,6,0,0,0,3.28.68h14.54c1.69,0,3.24-.19,3.89-1.66a5.15,5.15,0,0,0,.36-1.51V253.89c0-3.7-1.55-8.71-2.74-12.3-1.12-3.34-2.84-7.6-4.14-11-1.68-4.37-3.47-9.3-5.21-13.58-.37-.93-.68-1.83-1.07-2.75a4.6,4.6,0,0,0-.68-1.18,4.86,4.86,0,0,0-3.87-1.82h-28.73a4.9,4.9,0,0,0-3.91,1.78,5.42,5.42,0,0,0-.7,1.24c-.39.88-.71,1.86-1.07,2.75-1.45,3.59-2.81,7.54-4.27,11.13-.17.44-.36.92-.54,1.41l-2.67,7C1535.41,242,1532.91,248.79,1532.91,255Z"/><path class="cls-2" d="M1198.68,231.22h2.59a2,2,0,0,1,1.75,1.27,4.41,4.41,0,0,1,.42,1.09l2.86,9.23c.11.38.24.8.36,1.16l1.45,4.66H1192a7.57,7.57,0,0,1,.31-1.12l2.87-9.23c.11-.38.24-.78.35-1.16s.25-.75.36-1.15.23-.79.35-1.16c.35-1.15.88-3.59,2.46-3.59Zm-30.39,22.52v28.65a3.3,3.3,0,0,0,1.16,2.59,5.4,5.4,0,0,0,3.09.65c2.32,0,14.53.14,15.91-.15a3,3,0,0,0,1.37-.57,3.5,3.5,0,0,0,1.08-2.74V267.42h18.22v13.82c0,1.2.12,2.7,1,3.47a5.17,5.17,0,0,0,3.54.92h14.69a4.55,4.55,0,0,0,3.23-.87l.45-.57a2.92,2.92,0,0,0,.28-.72,7.62,7.62,0,0,0,.22-1.87V255.18a29.12,29.12,0,0,0-.81-6.82c0-.23-.1-.49-.16-.78a118.16,118.16,0,0,0-4.66-13.62l-1.59-4.16c-.9-2.24-1.77-4.72-2.68-7l-1.59-4.17c-.2-.49-.35-.94-.54-1.41a23.09,23.09,0,0,0-1.73-4,5.07,5.07,0,0,0-3.88-1.95h-29a5,5,0,0,0-3.8,1.82,4.81,4.81,0,0,0-.37.55,3.38,3.38,0,0,0-.32.63c-.88,2-2.22,5.87-3.12,8.1-.19.47-.36.92-.52,1.36-.78,2.17-1.78,4.58-2.61,6.82l-1,2.7c-1,2.41-3.4,8.87-4,11a42.24,42.24,0,0,0-1.71,7.65C1168.4,252.59,1168.29,253.05,1168.29,253.74Z"/><path class="cls-2" d="M496.74,231.22h2.59c1,0,1.57,1,1.89,1.77l2.33,7.54c.12.39.23.75.36,1.15l1.43,4.62c.14.5.65,1.94.68,2.33H489.9l3.57-11.54c.27-.92,1.2-4,1.49-4.55a2,2,0,0,1,1.78-1.32Zm-30.53,24.47v25.62c0,3.24.92,4.32,4.17,4.32h14.33c3.15,0,4.18-1,4.18-4.18v-14H507.1V282c0,3,1.86,3.67,4.54,3.67h14.55c1.69,0,3.2-.18,3.87-1.6a4.53,4.53,0,0,0,.37-1.5V253.74a34.43,34.43,0,0,0-1-6.47c-.51-2-1.13-3.89-1.76-5.81s-2.28-6.18-3.07-8.16l-2.1-5.46c-.32-.9-.68-1.78-1-2.7s-.7-1.81-1-2.71c-.16-.45-.34-.9-.52-1.35-.88-2.18-1.72-4.63-2.62-6.81a4.81,4.81,0,0,0-4.57-3H484a4.79,4.79,0,0,0-4.64,3.14c-1.37,3.28-3,7.86-4.32,11.22l-4.31,11.24C468.34,243,466.21,249,466.21,255.69Z"/><path class="cls-2" d="M1350.81,231.22h2.6c1.59,0,2.07,2.39,2.44,3.53.12.39.25.81.35,1.16s.25.77.36,1.15c.71,2.57,1.75,5.46,2.49,8.09l.72,2.31a8.32,8.32,0,0,1,.33,1.17H1344l1.44-4.61c.76-2.25,1.39-4.69,2.14-6.93l.71-2.3a16.46,16.46,0,0,1,.78-2.25,2,2,0,0,1,1.77-1.32Zm-30.52,24.11V281.6a5.2,5.2,0,0,0,.66,2.86l.14.15c.75.83,1.89,1,3.37,1h14.33c3.37,0,4.18-1.19,4.18-4.46V267.42h18.21V282.1c0,2.83,1.82,3.53,4.54,3.53h14.54a5.5,5.5,0,0,0,3.1-.65,2.48,2.48,0,0,0,.82-1.05,4.26,4.26,0,0,0,.33-1.54V253.82c0-3.78-1.57-8.67-2.76-12.28-.33-1-.65-1.82-1-2.76-1.45-4-3.24-8.24-4.68-12.23l-2.62-6.82c-.19-.47-.32-.88-.51-1.36-.56-1.37-1-2.8-1.59-4.09a4.78,4.78,0,0,0-4.56-3h-28.73a5,5,0,0,0-3.94,1.82,6.39,6.39,0,0,0-.36.58,7,7,0,0,0-.33.67l-2.15,5.56c-.33.92-.68,1.82-1,2.76s-.7,1.86-1.08,2.81l-2.67,7c-.18.49-.34.92-.54,1.41a102,102,0,0,0-4.86,14.5A30.34,30.34,0,0,0,1320.29,255.33Z"/><path class="cls-2" d="M884.32,231.22c3,0,3.73-.42,4.63,2.35.14.4.23.73.36,1.15.26.78.49,1.52.72,2.3s.49,1.51.71,2.31c.51,1.82,1.28,3.91,1.79,5.78.28,1,.85,2.55,1.08,3.52H877.48c.21-.91,1.08-3.51,1.41-4.63l1.44-4.61c.23-.8.44-1.53.7-2.32s.46-1.51.73-2.3c.41-1.23.75-3.55,2.56-3.55Zm-30.53,23.39V282c0,2.85,1.54,3.6,4.18,3.6h14.18c1.83,0,3.17-.16,3.91-1.7.56-1.14.34-3.7.34-5.35V267.92c0-.27,0-.5.22-.5h17.86c.34,0,.22.56.22,1.15v13a4.91,4.91,0,0,0,.4,2.47c.68,1.33,2.17,1.63,4.13,1.63h14.62c2.79,0,4.18-.86,4.18-3.6V254.46a36.33,36.33,0,0,0-1.72-9.65c-.32-1-.59-1.91-.92-2.9-.64-1.92-1.36-3.71-2.06-5.57-.33-.9-.73-1.85-1.06-2.76-1-2.66-2.2-5.56-3.15-8.22L907,219.84c-.56-1.41-2-5.76-2.8-6.7a4.88,4.88,0,0,0-3.9-1.86H871.57a4.83,4.83,0,0,0-4.61,3c-.9,2.19-1.76,4.68-2.65,6.86-1.43,3.55-2.78,7.47-4.22,11L859,234.94c-.78,1.93-2,5.07-2.6,7l-.92,2.9a43.13,43.13,0,0,0-1.43,6.2A22.63,22.63,0,0,0,853.79,254.61Z"/><path class="cls-2" d="M930.18,214.52v52.4A21.36,21.36,0,0,0,932.66,277a13.06,13.06,0,0,0,2.07,2.69,11.07,11.07,0,0,0,1.23,1.14,17.22,17.22,0,0,0,3.34,2.2l2.17,1a41.06,41.06,0,0,0,4.79,1.54,54.6,54.6,0,0,0,6.79,1.13,74.37,74.37,0,0,0,7.43.4h2.81a61,61,0,0,0,6.36-.28l2.88-.28a41.9,41.9,0,0,0,7.83-1.68,25.24,25.24,0,0,0,6.53-3,14.84,14.84,0,0,0,4.65-4.93,21.49,21.49,0,0,0,2.44-10.3V214.74a3.06,3.06,0,0,0-1.8-3.17,4.82,4.82,0,0,0-1.42-.29H974.1a3.13,3.13,0,0,0-2.78,1.39,8.27,8.27,0,0,0-.53,3.72v42.1c0,1.29.09,2.93,0,4.18a4.47,4.47,0,0,1-1.45,2.79c-1.27,1.18-4.17,1.39-6,1.38-.46,0-.58.07-1,.08s-.56-.07-.94-.08a13.3,13.3,0,0,1-3-.2,6.12,6.12,0,0,1-3.1-1.15,4.42,4.42,0,0,1-1.48-2.69c-.1-.76,0-19.32,0-21.07V216.46a8.66,8.66,0,0,0-.5-3.74,3.13,3.13,0,0,0-2.81-1.44H933.42a3,3,0,0,0-3.24,3.24Z"/><path class="cls-2" d="M786.4,229v11.87c0,3.9.9,7.91,3.26,10.7a13.64,13.64,0,0,0,2.81,2.37,19.31,19.31,0,0,0,2.26,1.28c3,1.52,6.29,2,9.72,2.51l9.16,1.28c1,.15,2,.32,3.09.44,1.58.17,2.92.27,3.51,1.68.7,1.67.43,4.75-2,4.93-1.5.11-3.49,0-5,0H793c-2.38,0-5.11-.37-6.14,1.42a4.62,4.62,0,0,0-.48,2v12.66c0,2.76,1.67,3.46,4.17,3.46h32c7.36,0,15.16-2.1,19-8.45.34-.55.58-1.06.88-1.65a20.27,20.27,0,0,0,1.6-8.47V256.77a23.41,23.41,0,0,0-1.14-7.64c-.08-.23-.15-.39-.24-.63l-.9-1.76c-1.5-2.52-4.32-4.29-7-5.43-4.07-1.75-7.36-1.89-11.67-2.51l-9.4-1.26a5.93,5.93,0,0,1-2.79-.74,3.71,3.71,0,0,1-.64-4.68,2.42,2.42,0,0,1,1.33-1,25.7,25.7,0,0,1,4.47-.14h18.43c2.63,0,5.76.39,5.76-3.45V214.74a3.06,3.06,0,0,0-1.8-3.17,4.82,4.82,0,0,0-1.42-.29H806.85c-5.21,0-10.77,1.42-14.56,4.52A16.38,16.38,0,0,0,786.4,229Z"/><path class="cls-2" d="M395.14,214.38v21.88a20.34,20.34,0,0,0,.87,6c.11.28.19.52.31.83a20.19,20.19,0,0,0,1.2,2.2,49.15,49.15,0,0,0,2.86,4l13.67,18.29c.18.25.3.42.49.66s.27.29.26.9v11.44c0,3.65.46,5,4.18,5h15.76c1.57,0,2.88-.19,3.58-1.11s.67-2.29.67-4.07V271c0-2.5-.36-1.71,1.07-3.61l9.05-12.26c1.82-2.42,6.1-8,7.4-10.38,2-3.66,2.14-6.14,2.14-11V215.53c0-1.69-.19-3.24-1.66-3.89a5.23,5.23,0,0,0-1.51-.36H438.92a3.87,3.87,0,0,0-2.09.72,3.08,3.08,0,0,0-.95,1.85c-.25,1.07-.13,16-.13,16.86,0,4,.09,4.14-1.67,6.75-.4.6-.72,1.17-1.12,1.76-.73,1.07-2.7,4.36-3.28,5.14-.93,1.24-1.78,1-3.29,1s-2.14-1.62-2.88-2.74l-4.4-6.9c-.7-1.27-.64-3.1-.64-5v-11.3a40.78,40.78,0,0,0-.1-5.58,2.89,2.89,0,0,0-3.14-2.55H398.36a5,5,0,0,0-1.32.24A2.94,2.94,0,0,0,395.14,214.38Z"/><path class="cls-2" d="M333.51,214.59v13.17a3.71,3.71,0,0,0,.92,2.61,3.9,3.9,0,0,0,2.68.85h10.3v34.62h-9.58a5.45,5.45,0,0,0-3.19.69,3.37,3.37,0,0,0-1.13,2.76v12.88c0,1.87.79,2.95,2.39,3.3a9.17,9.17,0,0,0,1.79.16h43c1.68,0,3.24-.19,3.89-1.66a5.15,5.15,0,0,0,.36-1.51V269a5.23,5.23,0,0,0-.36-1.51,2.13,2.13,0,0,0-.85-1,5.71,5.71,0,0,0-3.11-.63h-9.36V231.22h10.08a4.1,4.1,0,0,0,2.61-.78,3.44,3.44,0,0,0,1-2.46V214.52a3,3,0,0,0-3.24-3.24H336.73a4.91,4.91,0,0,0-1.32.24A3.08,3.08,0,0,0,333.51,214.59Z"/><path class="cls-2" d="M1470.34,215.89v10.79c0,1.7.1,3,1.21,3.9a4.45,4.45,0,0,0,2.46.64h10.29v34.62h-9.57c-3.64,0-4.39,1.06-4.39,4.67v10.58c0,3.48.82,4.54,4.32,4.54h43a4.58,4.58,0,0,0,3.24-.87l0,0a4.34,4.34,0,0,0,.91-3.12V269.87c0-3.21-1.21-4-4.47-4h-9.28V231.22h10.08c2.73,0,3.67-1.27,3.67-4.11V215.24a4.79,4.79,0,0,0-.71-2.89,3.43,3.43,0,0,0-2.53-1.07h-44.95a5.09,5.09,0,0,0-1.59.34C1470.44,212.29,1470.34,214.1,1470.34,215.89Z"/><path class="cls-2" d="M1083,214.38V228c0,2.15,1.39,3.24,3.6,3.24h10.3v34.62c-1.71,0-10.16-.11-11.33.12a2.9,2.9,0,0,0-2.57,3.11v13.32a4.25,4.25,0,0,0,.34,1.54c.72,1.49,1.94,1.7,3.91,1.7h43c2.69,0,4.18-.84,4.18-3.53V269.36c0-2.77-1.58-3.52-4.32-3.52h-9.43V231.22h10.15a3.14,3.14,0,0,0,3.6-3.6V214.88c0-2.19-1.08-3.6-3.24-3.6h-44.93a3,3,0,0,0-3,1.79A5.4,5.4,0,0,0,1083,214.38Z"/><path class="cls-2" d="M718.64,242.73v11.52a7.28,7.28,0,0,0,.56,3.47,2.59,2.59,0,0,0,1,1,4.94,4.94,0,0,0,1.71.38h28.58a3,3,0,0,0,3.24-3.17v-15a3.32,3.32,0,0,0-1.19-2.48,5.66,5.66,0,0,0-3.06-.61H723C719.2,237.77,718.64,239,718.64,242.73Z"/><path class="cls-6" d="M1761.29,417.64a48.3,48.3,0,0,0-45.82,33A31.89,31.89,0,1,0,1727.11,500a48.31,48.31,0,0,0,71.22-3.13,31.89,31.89,0,0,0,48.66,6,23.54,23.54,0,1,0,6.92-37,31.9,31.9,0,0,0-46.11-13A48.32,48.32,0,0,0,1761.29,417.64Z"/><path class="cls-6" d="M312.28,535.41a48.26,48.26,0,0,0-45.79,33,31.87,31.87,0,1,0,11.64,49.34,48.25,48.25,0,0,0,71.15-3.13,31.87,31.87,0,0,0,48.62,6,23.53,23.53,0,1,0,6.91-37,31.88,31.88,0,0,0-46.07-13A48.26,48.26,0,0,0,312.28,535.41Z"/><circle class="cls-7" cx="835.79" cy="633.38" r="56.61" transform="translate(137.86 1416.07) rotate(-85.43)"/><line class="cls-8" x1="832.97" y1="555.68" x2="832.97" y2="513.97"/><line class="cls-8" x1="812.95" y1="559.06" x2="802.16" y2="518.77"/><line class="cls-8" x1="794.49" y1="567.5" x2="773.64" y2="531.38"/><line class="cls-8" x1="778.85" y1="580.43" x2="749.36" y2="550.94"/><line class="cls-8" x1="767.09" y1="596.97" x2="730.97" y2="576.12"/><line class="cls-8" x1="760.01" y1="616" x2="719.72" y2="605.2"/><line class="cls-8" x1="758.09" y1="636.2" x2="716.38" y2="636.2"/><line class="cls-8" x1="761.47" y1="656.22" x2="721.18" y2="667.01"/><line class="cls-8" x1="769.91" y1="674.67" x2="733.79" y2="695.53"/><line class="cls-8" x1="782.85" y1="690.32" x2="753.35" y2="719.81"/><line class="cls-8" x1="799.39" y1="702.08" x2="778.53" y2="738.2"/><line class="cls-8" x1="818.41" y1="709.16" x2="807.62" y2="749.45"/><line class="cls-8" x1="838.62" y1="711.08" x2="838.62" y2="752.79"/><line class="cls-8" x1="858.63" y1="707.7" x2="869.43" y2="747.99"/><line class="cls-8" x1="877.09" y1="699.26" x2="897.94" y2="735.38"/><line class="cls-8" x1="892.73" y1="686.32" x2="922.22" y2="715.81"/><line class="cls-8" x1="904.5" y1="669.78" x2="940.62" y2="690.63"/><line class="cls-8" x1="911.58" y1="650.76" x2="951.86" y2="661.55"/><line class="cls-8" x1="913.49" y1="630.55" x2="955.2" y2="630.55"/><line class="cls-8" x1="910.11" y1="610.54" x2="950.4" y2="599.74"/><line class="cls-8" x1="901.67" y1="592.08" x2="937.79" y2="571.23"/><line class="cls-8" x1="888.74" y1="576.44" x2="918.23" y2="546.94"/><line class="cls-8" x1="872.19" y1="564.67" x2="893.05" y2="528.55"/><line class="cls-8" x1="853.17" y1="557.59" x2="863.97" y2="517.31"/></svg>