<svg id="Layer_1" data-name="Layer 1" xmlns="http://www.w3.org/2000/svg" xmlns:xlink="http://www.w3.org/1999/xlink" viewBox="0 0 53 83.79"><defs><style>.cls-1{fill:url(#linear-gradient);}.cls-2{fill:url(#linear-gradient-2);}.cls-3{fill:url(#linear-gradient-3);}</style><linearGradient id="linear-gradient" x1="9.62" y1="61.24" x2="40.82" y2="61.24" gradientTransform="matrix(1, 0, 0, -1, 0, 86)" gradientUnits="userSpaceOnUse"><stop offset="0" stop-color="#309ad6"/><stop offset="1" stop-color="#66c4ad"/></linearGradient><linearGradient id="linear-gradient-2" x1="9.62" y1="43.17" x2="40.77" y2="43.17" xlink:href="#linear-gradient"/><linearGradient id="linear-gradient-3" x1="9.62" y1="25.3" x2="40.77" y2="25.3" xlink:href="#linear-gradient"/></defs><path class="cls-1" d="M9.9,45.72a.24.24,0,0,1-.14,0,.27.27,0,0,1-.14-.25V22a.29.29,0,0,1,.14-.26L40.41,3.84a.26.26,0,0,1,.28,0,.3.3,0,0,1,.13.25V27.7a.29.29,0,0,1-.14.25L10,45.68A.22.22,0,0,1,9.9,45.72Zm.28-23.55V44.92l30.08-17.4V4.6Z"/><path class="cls-2" d="M40.49,64a.23.23,0,0,1-.14,0L9.76,45.68a.29.29,0,0,1-.14-.26V22a.3.3,0,0,1,.14-.26.26.26,0,0,1,.27,0l30.59,18a.32.32,0,0,1,.15.26V63.67a.29.29,0,0,1-.14.25A.23.23,0,0,1,40.49,64ZM10.18,45.25l30,17.91v-23l-30-17.69Z"/><path class="cls-3" d="M9.9,81.68a.23.23,0,0,1-.14,0,.29.29,0,0,1-.14-.25V57.79a.29.29,0,0,1,.14-.25L40.35,39.75a.28.28,0,0,1,.28,0,.29.29,0,0,1,.14.25V63.67a.32.32,0,0,1-.15.26L10,81.65A.31.31,0,0,1,9.9,81.68ZM10.18,58V80.89l30-17.4v-23Z"/></svg>