<?xml version="1.0" encoding="iso-8859-1"?>
<!-- Generator: Adobe Illustrator 26.5.3, SVG Export Plug-In . SVG Version: 6.00 Build 0)  -->
<svg version="1.1" id="Capa_1" xmlns="http://www.w3.org/2000/svg" xmlns:xlink="http://www.w3.org/1999/xlink" x="0px" y="0px"
	 viewBox="0 0 512 512" style="enable-background:new 0 0 512 512;" xml:space="preserve">
<g>
	<path d="M144.428,326.694l136.307-136.379l74.87,74.87c4.297,4.296,11.26,4.296,15.557,0l73.951-73.951v2.85
		c0,6.075,4.925,11,11,11s11-4.925,11-11v-29.406c0-6.075-4.925-11-11-11h-29.406c-6.075,0-11,4.925-11,11s4.925,11,11,11h2.85
		l-66.173,66.173l-74.872-74.872c-2.063-2.063-4.862-3.222-7.779-3.222c-2.918,0-5.717,1.16-7.779,3.224L137.431,302.575
		l-62.591-75.93l-16.977,13.994l70.296,85.277L144.428,326.694z"/>
	<path style="fill:#33CCCC;" d="M371.393,151.306h-29.406c-6.075,0-11,4.925-11,11s4.925,11,11,11h3.623l-66.361,66.361
		l-76.306-94.338c-1.962-2.425-4.859-3.903-7.974-4.067c-3.093-0.16-6.151,1.001-8.357,3.207l-58.625,58.625l-53.754-55.208
		l-15.762,15.348l61.53,63.195c2.053,2.108,4.864,3.306,7.808,3.326c0.024,0,0.049,0,0.073,0c2.916,0,5.715-1.158,7.778-3.222
		l57.864-57.865l76.306,94.339c1.962,2.424,4.859,3.903,7.974,4.067c0.194,0.01,0.387,0.015,0.58,0.015
		c2.908,0,5.709-1.154,7.777-3.222l74.231-74.231v2.077c0,6.075,4.925,11,11,11s11-4.925,11-11v-29.407
		C382.393,156.231,377.468,151.306,371.393,151.306z"/>
	<g>
		<path d="M107.62,47.22c-6.888,6.803-1.909,18.843,7.779,18.78c9.695,0.065,14.676-11.973,7.78-18.78
			C119.091,42.969,111.71,42.975,107.62,47.22z"/>
		<path d="M149.25,50.79c-3.138,6.921,2.573,15.423,10.149,15.21c7.585,0.217,13.282-8.283,10.16-15.21
			C166.019,41.837,152.783,41.833,149.25,50.79z"/>
		<path d="M194.26,48.89c-4.923,7.098,0.515,17.241,9.139,17.11c7.587,0.224,13.284-8.288,10.16-15.21
			C210.433,42.791,198.902,41.639,194.26,48.89z"/>
		<path d="M451.948,44H269.579c-6.075,0-11,4.925-11,11s4.925,11,11,11h182.369c6.075,0,11-4.925,11-11S458.023,44,451.948,44z"/>
		<path d="M501,0H66.352c-6.075,0-11,4.925-11,11v307.918h22V110H490v286.458H198.235v22H501c6.075,0,11-4.925,11-11V11
			C512,4.925,507.075,0,501,0z M77.352,88V22H490v66H77.352z"/>
	</g>
	<path style="fill:#33CCCC;" d="M104.617,302.765C46.931,302.765,0,349.696,0,407.382S46.931,512,104.617,512
		s104.618-46.931,104.618-104.618S162.304,302.765,104.617,302.765z M186.481,396.383h-70.864v-70.864
		C152.387,330.435,181.565,359.613,186.481,396.383z M22,407.382c0-41.824,31.246-76.465,71.617-81.863v81.864
		c0,1.622,0.358,3.224,1.051,4.691l34.923,74.059c-7.883,2.506-16.271,3.867-24.973,3.867C59.062,490,22,452.938,22,407.382z
		 M149.47,476.71l-27.504-58.327h64.515C183.216,442.8,169.256,463.865,149.47,476.71z"/>
	<g>
		<path d="M456.112,366.458H341.986c-6.075,0-11-4.925-11-11s4.925-11,11-11h114.126c6.075,0,11,4.925,11,11
			S462.188,366.458,456.112,366.458z"/>
	</g>
	<g>
		<path d="M456.112,318.458H341.986c-6.075,0-11-4.925-11-11s4.925-11,11-11h114.126c6.075,0,11,4.925,11,11
			S462.188,318.458,456.112,318.458z"/>
	</g>
</g>
<g>
</g>
<g>
</g>
<g>
</g>
<g>
</g>
<g>
</g>
<g>
</g>
<g>
</g>
<g>
</g>
<g>
</g>
<g>
</g>
<g>
</g>
<g>
</g>
<g>
</g>
<g>
</g>
<g>
</g>
</svg>
