<?xml version="1.0" encoding="iso-8859-1"?>
<!-- Generator: Adobe Illustrator 28.1.0, SVG Export Plug-In . SVG Version: 6.00 Build 0)  -->
<svg version="1.1" id="Capa_1" xmlns="http://www.w3.org/2000/svg" xmlns:xlink="http://www.w3.org/1999/xlink" x="0px" y="0px"
	 viewBox="0 0 512 512" style="enable-background:new 0 0 512 512;" xml:space="preserve">
<g>
	<g>
		<path style="fill:#33CCCC;" d="M385.922,81.153h-29.253c-11.269,0-20.436,9.168-20.436,20.437v61.458c0,6.075,4.925,11,11,11
			s11-4.925,11-11v-59.895h27.689c6.075,0,11-4.925,11-11S391.997,81.153,385.922,81.153z"/>
		<path style="fill:#33CCCC;" d="M155.331,81.153h-29.253c-6.075,0-11,4.925-11,11s4.925,11,11,11h27.689v59.895
			c0,6.075,4.925,11,11,11s11-4.925,11-11v-61.458C175.767,90.321,166.6,81.153,155.331,81.153z"/>
		<path style="fill:#33CCCC;" d="M256,60.726c-6.075,0-11,4.925-11,11v90.315c0,6.075,4.925,11,11,11s11-4.925,11-11V71.726
			C267,65.65,262.075,60.726,256,60.726z"/>
	</g>
	<g>
		<path d="M396.849,154.5H115.151c-15.319,0-27.783,12.463-27.783,27.783v42.055c0,15.319,12.463,27.783,27.783,27.783h8.395v33.384
			h-8.395c-15.319,0-27.783,12.463-27.783,27.783v42.055c0,15.319,12.463,27.783,27.783,27.783h8.395v31.254h-8.395
			c-15.319,0-27.783,12.463-27.783,27.783v42.055c0,15.319,12.463,27.783,27.783,27.783h281.698
			c15.319,0,27.783-12.463,27.783-27.783v-42.055c0-15.319-12.463-27.783-27.783-27.783h-8.395v-31.254h8.395
			c15.319,0,27.783-12.463,27.783-27.783v-42.055c0-15.319-12.463-27.783-27.783-27.783h-8.395v-33.384h8.395
			c15.319,0,27.783-12.463,27.783-27.783v-42.055C424.632,166.963,412.168,154.5,396.849,154.5z M402.632,442.162v42.055
			c0,3.188-2.594,5.783-5.783,5.783H115.151c-3.188,0-5.783-2.594-5.783-5.783v-42.055c0-3.188,2.594-5.783,5.783-5.783h281.698
			C400.038,436.379,402.632,438.974,402.632,442.162z M366.454,414.379H145.546v-31.254h220.908V414.379z M402.632,313.288v42.055
			c0,3.188-2.594,5.783-5.783,5.783H115.151c-3.188,0-5.783-2.594-5.783-5.783v-42.055c0-3.188,2.594-5.783,5.783-5.783h281.698
			C400.038,307.505,402.632,310.099,402.632,313.288z M366.454,285.505H145.546v-33.384h220.908V285.505z M402.632,224.338
			c0,3.188-2.594,5.783-5.783,5.783H115.151c-3.188,0-5.783-2.594-5.783-5.783v-42.055c0-3.188,2.594-5.783,5.783-5.783h281.698
			c3.188,0,5.783,2.594,5.783,5.783V224.338z"/>
		<path d="M418.516,51.9c-22.09,0-40.062,17.972-40.062,40.062s17.972,40.062,40.062,40.062s40.062-17.972,40.062-40.062
			S440.605,51.9,418.516,51.9z M418.516,110.023c-9.959,0-18.062-8.103-18.062-18.062S408.557,73.9,418.516,73.9
			s18.062,8.103,18.062,18.062S428.475,110.023,418.516,110.023z"/>
		<path d="M256,80.123c22.09,0,40.062-17.972,40.062-40.062S278.09,0,256,0s-40.062,17.972-40.062,40.062S233.91,80.123,256,80.123z
			 M256,22c9.959,0,18.062,8.103,18.062,18.062S265.959,58.123,256,58.123s-18.062-8.103-18.062-18.062S246.041,22,256,22z"/>
		<path d="M133.546,91.961c0-22.09-17.972-40.062-40.062-40.062S53.423,69.872,53.423,91.961s17.972,40.062,40.062,40.062
			S133.546,114.051,133.546,91.961z M75.423,91.961c0-9.959,8.103-18.062,18.062-18.062s18.062,8.103,18.062,18.062
			s-8.103,18.062-18.062,18.062S75.423,101.92,75.423,91.961z"/>
	</g>
</g>
<g>
</g>
<g>
</g>
<g>
</g>
<g>
</g>
<g>
</g>
<g>
</g>
<g>
</g>
<g>
</g>
<g>
</g>
<g>
</g>
<g>
</g>
<g>
</g>
<g>
</g>
<g>
</g>
<g>
</g>
</svg>
