<?xml version="1.0" encoding="UTF-8"?>
<!-- Generator: Adobe Illustrator 27.2.0, SVG Export Plug-In . SVG Version: 6.00 Build 0)  -->
<svg xmlns="http://www.w3.org/2000/svg" xmlns:xlink="http://www.w3.org/1999/xlink" version="1.1" id="Capa_1" x="0px" y="0px" viewBox="0 0 512 512" style="enable-background:new 0 0 512 512;" xml:space="preserve" width="512" height="512">
<g>
	<g>
		<path style="fill:#33CCCC;" d="M256,442.285c-6.075,0-11-4.925-11-11v-91.626c0-6.075,4.925-11,11-11s11,4.925,11,11v91.626    C267,437.36,262.075,442.285,256,442.285z"/>
		<path style="fill:#33CCCC;" d="M351.61,472.163h-65.732c-6.075,0-11-4.925-11-11s4.925-11,11-11h65.732c6.075,0,11,4.925,11,11    S357.685,472.163,351.61,472.163z"/>
		<path style="fill:#33CCCC;" d="M226.122,472.163H160.39c-6.075,0-11-4.925-11-11s4.925-11,11-11h65.732c6.075,0,11,4.925,11,11    S232.197,472.163,226.122,472.163z"/>
		<path style="fill:#33CCCC;" d="M151.43,181.35c-15.809-0.295-13.412-24.605,2.151-21.78    C166.322,161.791,164.347,181.649,151.43,181.35z"/>
		<path style="fill:#33CCCC;" d="M191.27,191.31c-15.809-0.294-13.418-24.586,2.14-21.79    C206.151,171.75,204.194,191.6,191.27,191.31z"/>
		<path style="fill:#33CCCC;" d="M151.43,280.94c-15.811-0.281-13.402-24.603,2.151-21.78    C166.315,261.392,164.351,281.245,151.43,280.94z"/>
		<path style="fill:#33CCCC;" d="M191.27,290.9c-15.811-0.272-13.414-24.601,2.14-21.78    C206.152,271.325,204.193,291.212,191.27,290.9z"/>
		<path d="M421.37,75.736c0-22.009-18.453-41.868-51.96-55.919C338.938,7.038,298.661,0,256,0s-82.937,7.038-113.41,19.816    c-33.507,14.051-51.96,33.911-51.96,55.919v189.228c0,21.933,18.672,44.006,51.229,60.56    c31.876,16.208,72.413,25.135,114.142,25.135s82.266-8.927,114.142-25.135c32.556-16.554,51.228-38.627,51.228-60.56V75.736z     M399.37,264.963c0,12.964-15.02,28.655-39.2,40.95c-28.428,14.455-66.397,22.746-104.17,22.746    c-37.773,0-75.742-8.29-104.17-22.746c-24.179-12.295-39.2-27.986-39.2-40.95v-58.526c7.849,7.024,17.656,13.608,29.229,19.493    c31.876,16.209,72.413,25.135,114.142,25.135s82.266-8.926,114.142-25.135c11.572-5.884,21.379-12.468,29.228-19.493V264.963z     M399.37,165.37c0,12.964-15.02,28.655-39.2,40.949c-28.428,14.455-66.397,22.746-104.17,22.746    c-37.773,0-75.742-8.29-104.17-22.746c-24.179-12.294-39.2-27.985-39.2-40.949v-50.818c7.97,6.329,18,12.088,29.96,17.103    c30.473,12.779,70.75,19.816,113.41,19.816s82.938-7.038,113.41-19.816c11.96-5.016,21.99-10.774,29.96-17.103V165.37z     M360.902,111.367c-27.841,11.675-65.096,18.105-104.902,18.105s-77.061-6.43-104.902-18.105    c-24.088-10.101-38.468-23.421-38.468-35.631c0-12.21,14.38-25.53,38.468-35.631C178.939,28.43,216.193,22,256,22    s77.061,6.43,104.902,18.105c24.087,10.101,38.468,23.421,38.468,35.631C399.37,87.946,384.99,101.266,360.902,111.367z"/>
		<path d="M256,502.04c-22.54,0-40.878-18.338-40.878-40.878S233.46,420.285,256,420.285s40.878,18.338,40.878,40.878    S278.54,502.04,256,502.04z M256,442.285c-10.409,0-18.878,8.469-18.878,18.878S245.591,480.04,256,480.04    c10.409,0,18.878-8.469,18.878-18.878S266.409,442.285,256,442.285z"/>
		<path d="M160.39,512H11c-6.075,0-11-4.925-11-11V381.488c0-6.075,4.925-11,11-11h49.797c3.265,0,6.36,1.45,8.45,3.958l21.6,25.92    h69.543c6.075,0,11,4.925,11,11V501C171.39,507.075,166.465,512,160.39,512z M22,490h127.39v-67.634H85.695    c-3.265,0-6.36-1.45-8.45-3.958l-21.601-25.92H22V490z"/>
		<path d="M501,512H351.61c-6.075,0-11-4.925-11-11V381.488c0-6.075,4.925-11,11-11h49.797c3.265,0,6.36,1.45,8.451,3.958    l21.6,25.92H501c6.075,0,11,4.925,11,11V501C512,507.075,507.075,512,501,512z M362.61,490H490v-67.634h-63.695    c-3.265,0-6.36-1.45-8.451-3.958l-21.6-25.92H362.61V490z"/>
	</g>
</g>















</svg>
