<?xml version="1.0" encoding="iso-8859-1"?>
<!-- Generator: Adobe Illustrator 26.5.3, SVG Export Plug-In . SVG Version: 6.00 Build 0)  -->
<svg version="1.1" id="Capa_1" xmlns="http://www.w3.org/2000/svg" xmlns:xlink="http://www.w3.org/1999/xlink" x="0px" y="0px"
	 viewBox="0 0 512 512" style="enable-background:new 0 0 512 512;" xml:space="preserve">
<g>
	<g>
		<path style="fill:#33CCCC;" d="M275.769,140.398l11.178,11.178c2.148,2.148,4.963,3.222,7.778,3.222s5.63-1.074,7.778-3.222
			l23.572-23.572c4.296-4.296,4.296-11.261,0-15.557c-4.297-4.296-11.26-4.296-15.557,0l-15.794,15.794l-3.399-3.4
			c-4.297-4.296-11.26-4.296-15.557,0C271.473,129.137,271.473,136.102,275.769,140.398z"/>
		<path style="fill:#33CCCC;" d="M371.089,143.011h75.919c6.075,0,11-4.925,11-11s-4.925-11-11-11h-75.919c-6.075,0-11,4.925-11,11
			S365.014,143.011,371.089,143.011z"/>
		<path style="fill:#33CCCC;" d="M326.075,173.514c-4.297-4.296-11.26-4.296-15.557,0l-15.794,15.794l-3.399-3.399
			c-4.297-4.296-11.262-4.295-15.557,0c-4.296,4.296-4.296,11.261,0,15.556l11.178,11.177c2.148,2.148,4.963,3.222,7.778,3.222
			s5.63-1.074,7.778-3.222l23.572-23.572C330.371,184.775,330.371,177.81,326.075,173.514z"/>
		<path style="fill:#33CCCC;" d="M371.089,204.079h75.919c6.075,0,11-4.925,11-11s-4.925-11-11-11h-75.919c-6.075,0-11,4.925-11,11
			S365.014,204.079,371.089,204.079z"/>
		<path style="fill:#33CCCC;" d="M286.946,90.508c2.063,2.063,4.861,3.222,7.778,3.222s5.716-1.159,7.778-3.222l23.572-23.573
			c4.296-4.296,4.296-11.261,0-15.557c-4.297-4.296-11.262-4.295-15.557,0l-15.794,15.794l-3.399-3.399
			c-4.297-4.296-11.26-4.296-15.557,0c-4.296,4.296-4.296,11.261,0,15.557L286.946,90.508z"/>
		<path style="fill:#33CCCC;" d="M371.089,81.944h75.919c6.075,0,11-4.925,11-11s-4.925-11-11-11h-75.919c-6.075,0-11,4.925-11,11
			S365.014,81.944,371.089,81.944z"/>
		<path style="fill:#33CCCC;" d="M465.353,0H243.373c-22.479,0-40.766,18.288-40.766,40.766v58.64l22,10.001V40.766
			c0-10.348,8.418-18.766,18.766-18.766h221.979c10.348,0,18.766,8.418,18.766,18.766v204.32c0,10.348-8.418,18.766-18.766,18.766
			H328.771v22h136.581c22.479,0,40.766-18.288,40.766-40.766V40.766C506.118,18.288,487.831,0,465.353,0z"/>
	</g>
	<g>
		<path d="M127.814,194.149c0.168,0,29.962,0,29.962,0c6.075,0,11-4.925,11-11s-4.925-11-11-11h-18.962v-48.923
			c0-6.075-4.925-11-11-11s-11,4.925-11,11v59.923C116.814,189.225,121.739,194.149,127.814,194.149z"/>
		<path d="M344.147,322.125h-8.854c-0.525,0-0.987-0.335-1.15-0.834c-1.977-6.06-4.443-12.015-7.331-17.699
			c-0.243-0.479-0.157-1.05,0.215-1.422l6.261-6.261c4.386-4.386,6.801-10.217,6.801-16.419c0-6.203-2.415-12.034-6.801-16.419
			l-20.836-20.835c-4.385-4.386-10.216-6.801-16.419-6.801c-6.202,0-12.032,2.415-16.419,6.801l-6.261,6.261
			c-0.371,0.372-0.943,0.458-1.423,0.214c-5.684-2.887-11.638-5.353-17.698-7.332c-0.5-0.163-0.835-0.625-0.835-1.15v-8.853
			c0-7.35-3.436-13.908-8.782-18.166c3.397-11.33,5.131-23.089,5.131-35.048c0-67.233-54.698-121.932-121.933-121.932
			S5.882,110.928,5.882,178.162c0,27.86,9.148,54.088,26.457,75.849c16.648,20.93,39.996,35.972,65.795,42.431l5.728,5.728
			c0.372,0.372,0.458,0.943,0.215,1.421c-2.888,5.685-5.354,11.64-7.331,17.699c-0.163,0.5-0.625,0.835-1.15,0.835h-8.854
			c-12.804,0-23.22,10.417-23.22,23.22v29.466c0,12.803,10.416,23.22,23.22,23.22h8.854c0.525,0,0.987,0.335,1.15,0.834
			c1.977,6.058,4.443,12.013,7.331,17.699c0.243,0.479,0.157,1.05-0.215,1.422l-6.26,6.26c-4.387,4.386-6.802,10.217-6.802,16.42
			c0,6.202,2.415,12.034,6.801,16.419l20.835,20.834c4.386,4.386,10.217,6.802,16.42,6.802c6.202,0,12.033-2.416,16.419-6.801
			l6.261-6.261c0.371-0.372,0.943-0.458,1.423-0.214c5.684,2.887,11.638,5.354,17.698,7.332c0.499,0.163,0.834,0.625,0.834,1.15
			v8.853c0,12.803,10.417,23.22,23.221,23.22h29.466c12.804,0,23.22-10.417,23.22-23.22v-8.853c0-0.525,0.336-0.988,0.836-1.151
			c6.062-1.979,12.016-4.445,17.697-7.331c0.482-0.243,1.052-0.157,1.423,0.214l6.261,6.261c4.386,4.386,10.217,6.801,16.419,6.801
			c6.203,0,12.034-2.416,16.419-6.801l20.835-20.835c4.387-4.386,6.802-10.217,6.802-16.419c0-6.203-2.415-12.034-6.801-16.419
			l-6.261-6.262c-0.372-0.372-0.458-0.943-0.215-1.421c2.888-5.687,5.354-11.642,7.331-17.699c0.163-0.5,0.625-0.835,1.15-0.835
			h8.854c12.804,0,23.22-10.417,23.22-23.22v-29.466C367.367,332.541,356.951,322.125,344.147,322.125z M27.882,178.162
			c0-55.103,44.829-99.932,99.933-99.932s99.933,44.83,99.933,99.932c0,10.257-1.548,20.327-4.587,29.994h-22.448
			c-12.804,0-23.221,10.417-23.221,23.22v8.853c0,0.525-0.336,0.987-0.835,1.15c-6.062,1.979-12.017,4.445-17.697,7.331
			c-0.481,0.244-1.052,0.157-1.423-0.214l-6.262-6.262c-4.386-4.386-10.216-6.801-16.418-6.801c-6.203,0-12.034,2.416-16.419,6.801
			L97.603,263.07c-2.445,2.445-4.252,5.348-5.395,8.505C53.789,257.021,27.882,220.197,27.882,178.162z M345.367,374.811
			c0,0.672-0.547,1.22-1.22,1.22h-8.854c-10.072,0-18.939,6.434-22.064,16.01c-1.627,4.983-3.656,9.883-6.032,14.562
			c-4.566,8.991-2.849,19.817,4.273,26.939l6.262,6.262c0.236,0.237,0.356,0.527,0.356,0.863c0,0.335-0.12,0.625-0.357,0.862
			l-20.837,20.836c-0.473,0.474-1.249,0.474-1.724-0.001l-6.261-6.261c-7.123-7.122-17.949-8.84-26.94-4.273
			c-4.676,2.375-9.575,4.404-14.562,6.032c-9.576,3.125-16.01,11.992-16.01,22.065v8.853c0,0.672-0.547,1.22-1.22,1.22h-29.466
			c-0.673,0-1.221-0.547-1.221-1.22v-8.853c0-10.073-6.434-18.94-16.009-22.064c-4.985-1.627-9.885-3.657-14.562-6.032
			c-3.354-1.704-6.964-2.533-10.542-2.533c-6.012,0-11.934,2.341-16.398,6.806l-6.261,6.261c-0.475,0.475-1.25,0.476-1.725,0
			l-20.837-20.835c-0.236-0.237-0.356-0.527-0.356-0.862c0-0.335,0.12-0.625,0.357-0.863l6.261-6.261
			c7.122-7.123,8.84-17.949,4.273-26.94c-2.376-4.678-4.405-9.578-6.032-14.562c-3.125-9.576-11.992-16.009-22.064-16.009h-8.854
			c-0.673,0-1.22-0.547-1.22-1.22v-29.466c0-0.673,0.547-1.22,1.22-1.22h8.854c10.072,0,18.939-6.434,22.064-16.01
			c1.627-4.985,3.656-9.884,6.032-14.562c4.566-8.991,2.849-19.818-4.273-26.94l-6.261-6.261c-0.237-0.237-0.357-0.527-0.357-0.863
			c0-0.335,0.12-0.625,0.357-0.862l20.836-20.836c0.475-0.474,1.252-0.473,1.725,0l6.261,6.262
			c7.123,7.122,17.949,8.839,26.941,4.272c4.675-2.374,9.574-4.404,14.562-6.032c9.575-3.125,16.009-11.992,16.009-22.064v-8.853
			c0-0.673,0.548-1.22,1.221-1.22h29.466c0.673,0,1.22,0.547,1.22,1.22v8.853c0,10.073,6.435,18.941,16.01,22.064
			c4.985,1.627,9.885,3.657,14.562,6.032c8.993,4.567,19.819,2.85,26.941-4.273l6.26-6.26c0.475-0.475,1.251-0.475,1.726,0
			l20.837,20.836c0.236,0.237,0.356,0.527,0.356,0.862c0,0.335-0.12,0.625-0.357,0.863l-6.261,6.261
			c-7.122,7.123-8.84,17.949-4.273,26.941c2.376,4.677,4.405,9.576,6.032,14.562c3.125,9.575,11.992,16.009,22.064,16.009h8.854
			c0.673,0,1.22,0.547,1.22,1.22V374.811z"/>
		<path d="M215.444,298.623c-33.886,0-61.454,27.568-61.454,61.455s27.568,61.455,61.454,61.455
			c33.887,0,61.455-27.569,61.455-61.455S249.331,298.623,215.444,298.623z M215.444,399.533c-21.755,0-39.454-17.699-39.454-39.455
			c0-21.755,17.699-39.455,39.454-39.455c21.756,0,39.455,17.699,39.455,39.455C254.899,381.833,237.2,399.533,215.444,399.533z"/>
	</g>
</g>
<g>
</g>
<g>
</g>
<g>
</g>
<g>
</g>
<g>
</g>
<g>
</g>
<g>
</g>
<g>
</g>
<g>
</g>
<g>
</g>
<g>
</g>
<g>
</g>
<g>
</g>
<g>
</g>
<g>
</g>
</svg>
