<?xml version="1.0" encoding="iso-8859-1"?>
<!-- Generator: Adobe Illustrator 27.0.0, SVG Export Plug-In . SVG Version: 6.00 Build 0)  -->
<svg version="1.1" id="Capa_1" xmlns="http://www.w3.org/2000/svg" xmlns:xlink="http://www.w3.org/1999/xlink" x="0px" y="0px"
	 viewBox="0 0 512 512" style="enable-background:new 0 0 512 512;" xml:space="preserve">
<g>
	<path style="fill:#33CCCC;" d="M346.715,48.138c-1.197,0-2.41,0.027-3.637,0.083C324.356,18.301,291.631,0,256,0
		c-31.301,0-60.927,14.379-80.352,38.729c-26.179,1.396-49.991,16.566-62.336,39.722c-24.028,13.235-38.794,38.085-38.794,65.743
		c0,41.403,33.684,75.087,75.086,75.087h79.062l0-22h-79.062c-29.271,0-53.086-23.814-53.086-53.087
		c0-20.465,11.438-38.758,29.852-47.74c2.259-1.103,4.073-2.945,5.139-5.221c8.709-18.595,27.587-30.609,48.095-30.609
		c0.231,0,0.46,0.01,0.69,0.018l0.598,0.019c3.673,0.109,7.133-1.639,9.254-4.626C205.283,34.723,229.901,22,256,22
		c29.948,0,57.284,16.453,71.343,42.938c2.149,4.048,6.586,6.345,11.127,5.752c2.835-0.367,5.609-0.553,8.245-0.553
		c35.054,0,63.571,28.518,63.571,63.571s-28.518,63.571-63.571,63.571h-63.778l0,22h63.778c47.185,0,85.571-38.387,85.571-85.571
		S393.899,48.138,346.715,48.138z"/>
	<g>
		<path d="M407.192,302.385c-56.05,0-101.963,44.227-104.678,99.615H267v-97.494l43.245-43.245
			c3.146-3.146,4.087-7.877,2.385-11.988c-1.703-4.11-5.714-6.79-10.163-6.79h-8.53v-69.496c0-6.075-4.925-11-11-11h-54.271
			c-6.075,0-11,4.925-11,11v69.496h-8.132c-4.449,0-8.46,2.68-10.163,6.79c-1.703,4.111-0.762,8.842,2.384,11.988L245,304.506V402
			h-43.158v-77c0-6.075-4.925-11-11-11H11c-6.075,0-11,4.925-11,11v88v88c0,6.075,4.925,11,11,11h179.842c6.075,0,11-4.925,11-11
			v-77h101.897c8.067,49.828,51.383,88,103.454,88C464.983,512,512,464.983,512,407.192S464.983,302.385,407.192,302.385z
			 M179.842,490H22v-66h157.842V490z M179.842,402H22v-66h157.842V402z M234.449,262.842c3.131-1.939,5.217-5.406,5.217-9.359
			v-69.496h32.271v69.496c0,4.058,2.196,7.602,5.466,9.509L256,284.393L234.449,262.842z M407.192,446.423
			c-7.783,0-14.115-6.332-14.115-14.115c0-6.075-4.925-11-11-11s-11,4.925-11,11c0,16.079,10.565,29.732,25.115,34.396v22.543
			c-40.476-5.4-71.808-40.126-71.808-82.055s31.332-76.655,71.808-82.055v22.543c-14.551,4.664-25.115,18.317-25.115,34.396
			c0,19.914,16.201,36.115,36.115,36.115c7.783,0,14.115,6.332,14.115,14.115S414.976,446.423,407.192,446.423z M418.192,489.247
			v-22.543c14.551-4.664,25.115-18.317,25.115-34.396c0-19.914-16.201-36.115-36.115-36.115c-7.783,0-14.115-6.332-14.115-14.115
			s6.332-14.115,14.115-14.115s14.115,6.332,14.115,14.115c0,6.075,4.925,11,11,11s11-4.925,11-11
			c0-16.079-10.565-29.732-25.115-34.396v-22.543c40.476,5.4,71.808,40.126,71.808,82.055S458.668,483.848,418.192,489.247z"/>
		<circle cx="55" cy="369" r="11"/>
		<circle cx="99" cy="369" r="11"/>
		<circle cx="55" cy="457" r="11"/>
		<circle cx="99" cy="457" r="11"/>
	</g>
</g>
<g>
</g>
<g>
</g>
<g>
</g>
<g>
</g>
<g>
</g>
<g>
</g>
<g>
</g>
<g>
</g>
<g>
</g>
<g>
</g>
<g>
</g>
<g>
</g>
<g>
</g>
<g>
</g>
<g>
</g>
</svg>
