<?xml version="1.0" encoding="iso-8859-1"?>
<!-- Generator: Adobe Illustrator 28.1.0, SVG Export Plug-In . SVG Version: 6.00 Build 0)  -->
<svg version="1.1" id="Capa_1" xmlns="http://www.w3.org/2000/svg" xmlns:xlink="http://www.w3.org/1999/xlink" x="0px" y="0px"
	 viewBox="0 0 512 512" style="enable-background:new 0 0 512 512;" xml:space="preserve">
<g>
	<g>
		<path style="fill:#33CCCC;" d="M164.768,317.216c-6.075,0-11,4.925-11,11v61.625h-27.689c-6.075,0-11,4.925-11,11s4.925,11,11,11
			h29.253c11.269,0,20.437-9.167,20.437-20.436v-63.188C175.768,322.141,170.843,317.216,164.768,317.216z"/>
		<path style="fill:#33CCCC;" d="M385.922,389.84h-27.689v-61.625c0-6.075-4.925-11-11-11s-11,4.925-11,11v63.188
			c0,11.269,9.168,20.436,20.437,20.436h29.253c6.075,0,11-4.925,11-11S391.997,389.84,385.922,389.84z"/>
		<path style="fill:#33CCCC;" d="M256,317.222c-6.075,0-11,4.925-11,11v93.045c0,6.075,4.925,11,11,11s11-4.925,11-11v-93.045
			C267,322.147,262.075,317.222,256,317.222z"/>
	</g>
	<g>
		<path d="M93.484,360.97c-22.09,0-40.062,17.972-40.062,40.062s17.972,40.062,40.062,40.062s40.062-17.972,40.062-40.062
			S115.574,360.97,93.484,360.97z M93.484,419.093c-9.959,0-18.062-8.103-18.062-18.062s8.103-18.062,18.062-18.062
			s18.062,8.103,18.062,18.062S103.443,419.093,93.484,419.093z"/>
		<path d="M256,412.87c-22.09,0-40.062,17.972-40.062,40.062S233.91,492.993,256,492.993s40.062-17.972,40.062-40.062
			S278.09,412.87,256,412.87z M256,470.993c-9.959,0-18.062-8.103-18.062-18.062S246.041,434.87,256,434.87
			s18.062,8.103,18.062,18.062S265.959,470.993,256,470.993z"/>
		<path d="M418.516,360.97c-22.09,0-40.062,17.972-40.062,40.062s17.972,40.062,40.062,40.062s40.062-17.972,40.062-40.062
			S440.605,360.97,418.516,360.97z M418.516,419.093c-9.959,0-18.062-8.103-18.062-18.062s8.103-18.062,18.062-18.062
			s18.062,8.103,18.062,18.062S428.475,419.093,418.516,419.093z"/>
		<path d="M444.945,145.103C437.48,73.782,377.334,19.007,304.716,19.007c-22.519,0-44.043,5.154-63.975,15.319
			c-16.637,8.485-31.621,20.39-43.729,34.686c-8.42-2.404-17.129-3.62-25.988-3.62c-23.594,0-46.195,8.735-63.64,24.597
			c-15.218,13.837-25.427,32.077-29.273,52.037C33.035,151.798,0,192.088,0,238.994c0,54.711,44.511,99.222,99.223,99.222h313.556
			c54.711,0,99.222-44.511,99.222-99.222C512,196.236,484.805,158.703,444.945,145.103z M412.778,316.216H99.223
			C56.642,316.216,22,281.574,22,238.994c0-34.311,22.71-64.056,54.556-73.824c0.453,8.432,2.002,16.723,4.655,24.706
			c1.533,4.614,5.827,7.534,10.437,7.534c1.15,0,2.32-0.182,3.471-0.564c5.766-1.916,8.886-8.142,6.97-13.907
			c-16.046-45.683,20.214-96.614,68.936-95.546c23.067-0.124,45.385,11.29,58.838,30.042c2.152,2.967,5.51,4.543,8.914,4.543
			c2.239,0,4.498-0.681,6.449-2.096c4.918-3.566,6.014-10.445,2.447-15.363c-7.873-10.855-17.845-19.813-29.288-26.43
			c22.403-23.714,53.189-37.081,86.332-37.081c58.815,0,107.929,42.573,117.367,99.197c-3.087-0.288-6.192-0.433-9.304-0.433
			c-9.668,0-19.227,1.39-28.411,4.131c-5.821,1.737-9.133,7.865-7.396,13.686c1.721,5.874,8.023,9.133,13.687,7.395
			c13.227-3.971,27.805-4.266,41.196-0.837C466.09,172.842,490,203.62,490,238.994C490,281.574,455.358,316.216,412.778,316.216z"/>
	</g>
</g>
<g>
</g>
<g>
</g>
<g>
</g>
<g>
</g>
<g>
</g>
<g>
</g>
<g>
</g>
<g>
</g>
<g>
</g>
<g>
</g>
<g>
</g>
<g>
</g>
<g>
</g>
<g>
</g>
<g>
</g>
</svg>
