<?xml version="1.0" encoding="iso-8859-1"?>
<!-- Generator: Adobe Illustrator 26.5.3, SVG Export Plug-In . SVG Version: 6.00 Build 0)  -->
<svg version="1.1" id="Capa_1" xmlns="http://www.w3.org/2000/svg" xmlns:xlink="http://www.w3.org/1999/xlink" x="0px" y="0px"
	 viewBox="0 0 512 512" style="enable-background:new 0 0 512 512;" xml:space="preserve">
<g>
	<path d="M492.381,230.127c-10.199-12.638-23.75-22.256-38.889-27.749c1.05-6.723,1.58-13.538,1.58-20.361
		c0-72.339-58.852-131.191-131.19-131.191c-31.79,0-62.458,11.518-86.354,32.432c-20.293,17.76-34.55,41.227-40.974,67.095
		c-6.854-1.821-13.921-2.739-21.128-2.739c-33.157,0-63.071,20.186-75.889,50.147c-3.619-0.449-7.258-0.676-10.887-0.676
		c-48.882,0-88.65,39.768-88.65,88.65s39.769,88.65,88.65,88.65h5.049c0.087,0,0.171-0.011,0.257-0.013l43.764,75.541
		c4.086,7.052,11.39,11.262,19.539,11.262c0.002,0,0.004,0,0.006,0c8.152-0.002,15.457-4.216,19.54-11.272
		c0.001,0,0.001,0,0.001-0.001l43.697-75.529c0.088,0.002,0.174,0.013,0.263,0.013h68.323v-22h-57.597
		c0.805-5.009-0.109-10.194-2.766-14.799c-4.081-7.074-11.393-11.296-19.559-11.296c-0.002,0-0.005,0-0.007,0
		c-0.321,0-0.582-0.261-0.582-0.581l-0.009-40.5c-0.004-12.449-10.134-22.575-22.582-22.575c-0.003,0-0.005,0-0.007,0l-57.542,0.018
		c-6.032,0.002-11.702,2.353-15.966,6.619s-6.611,9.938-6.609,15.969l0.009,40.5c0,0.32-0.261,0.582-0.582,0.582
		c-8.169,0.003-15.481,4.23-19.56,11.309c-2.6,4.512-3.53,9.579-2.808,14.492C48.846,349.206,22,320.555,22,285.735
		c0-36.751,29.899-66.65,66.65-66.65c5.195,0,10.424,0.62,15.54,1.841c5.711,1.362,11.49-2,13.122-7.644
		c7.435-25.712,31.331-43.669,58.113-43.669c8.667,0,17.056,1.81,24.934,5.38c3.153,1.43,6.798,1.29,9.834-0.377
		c3.036-1.667,5.11-4.667,5.597-8.096c3.659-25.774,16.524-49.465,36.227-66.708c19.884-17.402,45.406-26.986,71.865-26.986
		c60.208,0,109.19,48.983,109.19,109.191c0,8.599-1.009,17.177-2.999,25.496c-0.683,2.854-0.196,5.864,1.351,8.358
		c1.548,2.494,4.027,4.267,6.889,4.923c14.454,3.315,27.575,11.537,36.947,23.15c9.644,11.949,14.74,26.4,14.74,41.792
		c0,36.751-29.898,66.65-66.649,66.65h-14.969l14.969,22c48.882,0,88.649-39.768,88.649-88.65
		C512,265.553,505.032,245.805,492.381,230.127z M104.795,348.613c0.167-0.292,0.346-0.292,0.503-0.292
		c6.032-0.002,11.702-2.353,15.966-6.619s6.611-9.938,6.609-15.969l-0.009-40.5c0-0.321,0.261-0.582,0.581-0.582l57.542-0.018
		c0.321,0,0.583,0.261,0.583,0.581l0.009,40.5c0.004,12.449,10.133,22.575,22.582,22.575c0.002,0,0.004,0,0.007,0
		c0.125,0.011,0.336,0,0.504,0.291c0.168,0.292,0.078,0.446-0.001,0.583l-51.907,89.721c-0.078,0.136-0.168,0.29-0.503,0.29
		c-0.335,0-0.425-0.154-0.504-0.29l-51.962-89.69C104.716,349.058,104.627,348.904,104.795,348.613z"/>
	<g>
		<path style="fill:#33CCCC;" d="M321.965,461.174c-12.448,0-22.577-10.125-22.581-22.575l-0.009-40.5c0-0.065,0-0.239-0.171-0.41
			c-0.167-0.167-0.339-0.17-0.407-0.17c-0.002,0-0.006,0-0.01,0c-8.167,0-15.479-4.223-19.561-11.297
			c-4.082-7.076-4.077-15.522,0.014-22.593l51.907-89.721v0c4.082-7.057,11.387-11.271,19.539-11.274c0.003,0,0.005,0,0.008,0
			c8.149,0,15.453,4.21,19.539,11.262l51.961,89.689c4.096,7.068,4.106,15.514,0.028,22.593s-11.391,11.306-19.56,11.309
			c-0.321,0-0.582,0.261-0.582,0.582l0.009,40.5c0.002,6.031-2.346,11.702-6.609,15.969c-4.264,4.266-9.934,6.617-15.966,6.619
			l-57.543,0.018C321.97,461.174,321.968,461.174,321.965,461.174z M298.794,375.52c6.028,0,11.697,2.347,15.962,6.609
			c4.267,4.264,6.617,9.934,6.619,15.965l0.009,40.5c0,0.32,0.261,0.581,0.582,0.581l57.543-0.018c0.065,0,0.24,0,0.411-0.17
			c0.17-0.17,0.17-0.345,0.17-0.411l-0.009-40.5c-0.002-6.031,2.346-11.703,6.609-15.969s9.934-6.617,15.966-6.619
			c0.157,0,0.336,0,0.503-0.292c0.168-0.291,0.079-0.445,0-0.582l-51.962-89.69c-0.079-0.136-0.168-0.29-0.504-0.29
			c-0.335,0-0.424,0.154-0.503,0.29c0,0,0,0,0,0l-51.907,89.721c-0.079,0.137-0.169,0.291,0,0.583
			c0.167,0.291,0.315,0.284,0.504,0.291C298.789,375.52,298.792,375.52,298.794,375.52z M340.669,279.417h0.01H340.669z"/>
	</g>
</g>
<g>
</g>
<g>
</g>
<g>
</g>
<g>
</g>
<g>
</g>
<g>
</g>
<g>
</g>
<g>
</g>
<g>
</g>
<g>
</g>
<g>
</g>
<g>
</g>
<g>
</g>
<g>
</g>
<g>
</g>
</svg>
