<?xml version="1.0" encoding="UTF-8"?>
<!-- Generator: Adobe Illustrator 26.0.3, SVG Export Plug-In . SVG Version: 6.00 Build 0)  -->
<svg xmlns="http://www.w3.org/2000/svg" xmlns:xlink="http://www.w3.org/1999/xlink" version="1.1" id="Capa_1" x="0px" y="0px" viewBox="0 0 512 512" style="enable-background:new 0 0 512 512;" xml:space="preserve" width="512" height="512">
<g>
	<g id="Browser_1_">
		<path style="fill:#33CCCC;" d="M501,160.257H11c-6.075,0-11-4.925-11-11c0-6.075,4.925-11,11-11h490c6.075,0,11,4.925,11,11    C512,155.333,507.075,160.257,501,160.257z"/>
		<path d="M470.502,495.734H41.498C18.616,495.734,0,477.119,0,454.236V57.764c0-22.882,18.616-41.498,41.498-41.498h429.004    c22.882,0,41.498,18.616,41.498,41.498v396.473C512,477.119,493.384,495.734,470.502,495.734z M41.498,38.266    C30.747,38.266,22,47.013,22,57.764v396.473c0,10.751,8.747,19.498,19.498,19.498h429.004c10.751,0,19.498-8.747,19.498-19.498    V57.764c0-10.751-8.747-19.498-19.498-19.498H41.498z"/>
		<path d="M440.004,99.261H254.983c-6.075,0-11-4.925-11-11s4.925-11,11-11h185.021c6.075,0,11,4.925,11,11    S446.079,99.261,440.004,99.261z"/>
		<g>
			<g>
				<path style="fill:#33CCCC;" d="M226.802,387.927c-1.639,0-3.304-0.368-4.872-1.145c-5.444-2.696-7.673-9.295-4.977-14.739      l60.077-121.331c2.695-5.443,9.293-7.673,14.738-4.977c5.444,2.696,7.673,9.295,4.977,14.739l-60.077,121.331      C234.749,385.681,230.852,387.927,226.802,387.927z"/>
				<path d="M163.913,387.975c-2.815,0-5.63-1.074-7.778-3.222l-60.69-60.691c-4.296-4.296-4.296-11.261,0-15.557l60.69-60.691      c4.297-4.295,11.26-4.296,15.557,0c4.296,4.296,4.296,11.261,0,15.557l-52.912,52.913l52.912,52.913      c4.296,4.296,4.296,11.261,0,15.557C169.544,386.901,166.727,387.975,163.913,387.975z"/>
				<path d="M348.087,387.975c-2.815,0-5.63-1.074-7.778-3.222c-4.296-4.296-4.296-11.261,0-15.557l52.912-52.913l-52.912-52.913      c-4.296-4.296-4.296-11.261,0-15.557c4.296-4.295,11.261-4.295,15.557,0l60.69,60.691c4.296,4.296,4.296,11.261,0,15.557      l-60.69,60.691C353.717,386.901,350.902,387.975,348.087,387.975z"/>
			</g>
		</g>
	</g>
	<path d="M195,100.28c-12.92,0.288-14.887-19.552-2.15-21.79C208.429,75.71,210.807,99.973,195,100.28z"/>
	<path d="M132.99,100.28c-12.921,0.298-14.889-19.56-2.15-21.79C146.401,75.687,148.792,99.986,132.99,100.28z"/>
	<path d="M70.979,100.28c-15.809-0.302-13.408-24.591,2.151-21.79C85.866,80.72,83.902,100.579,70.979,100.28z"/>
</g>















</svg>
