<?xml version="1.0" encoding="iso-8859-1"?>
<!-- Generator: Adobe Illustrator 26.5.3, SVG Export Plug-In . SVG Version: 6.00 Build 0)  -->
<svg version="1.1" id="Capa_1" xmlns="http://www.w3.org/2000/svg" xmlns:xlink="http://www.w3.org/1999/xlink" x="0px" y="0px"
	 viewBox="0 0 512 512" style="enable-background:new 0 0 512 512;" xml:space="preserve">
<g>
	<g>
		<g>
			<rect x="245" y="296.646" style="fill:#33CCCC;" width="22" height="156.354"/>
			<path style="fill:#33CCCC;" d="M454.725,375.295l-43.852-33.875v-44.774h-22v50.177c0,3.407,1.579,6.622,4.275,8.705L437,389.402
				V453h22v-69C459,380.593,457.421,377.378,454.725,375.295z"/>
			<path style="fill:#33CCCC;" d="M339,332.581v-35.936h-22v40.128c0,2.7,0.993,5.306,2.79,7.321L341,367.879V397h22v-33.313
				c0-2.7-0.993-5.306-2.79-7.321L339,332.581z"/>
			<path style="fill:#33CCCC;" d="M101.127,341.42l-43.852,33.875C54.579,377.378,53,380.593,53,384v69h22v-63.598l43.852-33.875
				c2.696-2.083,4.275-5.298,4.275-8.705v-50.177h-22V341.42z"/>
			<path style="fill:#33CCCC;" d="M173,332.581l-21.21,23.784c-1.797,2.016-2.79,4.621-2.79,7.321V397h22v-29.121l21.21-23.784
				c1.797-2.016,2.79-4.621,2.79-7.321v-40.128h-22V332.581z"/>
			<path style="fill:#33CCCC;" d="M199.376,125.352c-0.039-0.102-0.078-0.202-0.119-0.302c-2.013-4.892-6.729-8.05-12.017-8.05
				c-0.005,0-0.011,0-0.016,0c-5.294,0.006-10.009,3.176-12.013,8.076c-0.034,0.082-0.066,0.165-0.098,0.248l-33.044,86.761
				c-2.163,5.677,0.687,12.032,6.364,14.194c5.68,2.164,12.033-0.686,14.194-6.364l5.532-14.523h37.906l5.469,14.492
				c1.663,4.405,5.849,7.119,10.294,7.119c1.29,0,2.604-0.229,3.882-0.711c5.684-2.146,8.553-8.492,6.408-14.176L199.376,125.352z
				 M176.54,183.392l10.661-27.991l10.563,27.991H176.54z"/>
			<path style="fill:#33CCCC;" d="M359.65,117c-6.075,0-11,4.925-11,11v88c0,6.075,4.925,11,11,11s11-4.925,11-11v-88
				C370.65,121.925,365.726,117,359.65,117z"/>
			<path style="fill:#33CCCC;" d="M290.33,117h-24.503c-2.924,0-5.727,1.164-7.791,3.234c-2.055,2.062-3.208,4.855-3.207,7.766
				h-0.002v88c0,6.075,4.925,11,11,11s11-4.925,11-11v-27.284c4.942-0.025,10.385-0.049,13.503-0.049
				c20.027,0,36.32-16.074,36.32-35.833S310.357,117,290.33,117z M290.33,166.667c-3.107,0-8.479,0.023-13.393,0.048
				c-0.025-5.089-0.062-22.399-0.077-27.715h13.47c7.763,0,14.32,6.335,14.32,13.834C304.65,160.332,298.093,166.667,290.33,166.667
				z"/>
		</g>
		<g>
			<path d="M415.187,307.646H91.577c-49.461,0-89.7-40.24-89.7-89.701c0-44.117,31.796-81.009,74.185-88.366
				c0.365-31.372,18.293-60.463,46.947-74.633c25.418-12.569,54.631-11.577,78.767,2.094C225.964,21.587,266.301,0,309.661,0
				c34.757,0,67.464,13.505,92.094,38.026c22.514,22.416,35.855,51.618,38.101,83.012c18.401,4.951,35.042,15.419,47.548,30.058
				c14.651,17.148,22.72,39.029,22.72,61.613C510.123,265.058,467.535,307.646,415.187,307.646z M160.464,68.143
				c-9.401,0-18.862,2.152-27.703,6.523c-23.657,11.698-37.423,37.16-34.254,63.358c0.366,3.029-0.543,6.075-2.51,8.409
				c-1.967,2.333-4.814,3.745-7.862,3.897c-36.032,1.801-64.258,31.5-64.258,67.613c0,37.33,30.37,67.701,67.7,67.701h323.609
				c40.218,0,72.937-32.719,72.937-72.937c0-35.748-25.551-65.987-60.754-71.903c-5.277-0.887-9.151-5.443-9.177-10.795
				C417.908,70.453,369.222,22,309.661,22c-39.352,0-75.71,21.386-94.887,55.812c-1.557,2.796-4.255,4.775-7.389,5.421
				c-3.129,0.648-6.393-0.104-8.931-2.057C187.254,72.554,173.922,68.143,160.464,68.143z"/>
		</g>
		<g>
			<path d="M256,512c-19.299,0-35-15.701-35-35s15.701-35,35-35s35,15.701,35,35S275.299,512,256,512z M256,464
				c-7.168,0-13,5.832-13,13s5.832,13,13,13s13-5.832,13-13S263.168,464,256,464z"/>
		</g>
		<g>
			<path d="M448,512c-19.299,0-35-15.701-35-35s15.701-35,35-35s35,15.701,35,35S467.299,512,448,512z M448,464
				c-7.168,0-13,5.832-13,13s5.832,13,13,13s13-5.832,13-13S455.168,464,448,464z"/>
		</g>
		<g>
			<path d="M352,456c-19.299,0-35-15.701-35-35s15.701-35,35-35s35,15.701,35,35S371.299,456,352,456z M352,408
				c-7.168,0-13,5.832-13,13s5.832,13,13,13s13-5.832,13-13S359.168,408,352,408z"/>
		</g>
		<g>
			<path d="M64,512c-19.299,0-35-15.701-35-35s15.701-35,35-35s35,15.701,35,35S83.299,512,64,512z M64,464c-7.168,0-13,5.832-13,13
				s5.832,13,13,13s13-5.832,13-13S71.168,464,64,464z"/>
		</g>
		<g>
			<path d="M160,456c-19.299,0-35-15.701-35-35s15.701-35,35-35s35,15.701,35,35S179.299,456,160,456z M160,408
				c-7.168,0-13,5.832-13,13s5.832,13,13,13s13-5.832,13-13S167.168,408,160,408z"/>
		</g>
	</g>
</g>
<g>
</g>
<g>
</g>
<g>
</g>
<g>
</g>
<g>
</g>
<g>
</g>
<g>
</g>
<g>
</g>
<g>
</g>
<g>
</g>
<g>
</g>
<g>
</g>
<g>
</g>
<g>
</g>
<g>
</g>
</svg>
