<?xml version="1.0" encoding="iso-8859-1"?>
<!-- Generator: Adobe Illustrator 27.5.0, SVG Export Plug-In . SVG Version: 6.00 Build 0)  -->
<svg version="1.1" id="Layer_1" xmlns="http://www.w3.org/2000/svg" xmlns:xlink="http://www.w3.org/1999/xlink" x="0px" y="0px"
	 viewBox="0 0 512 512" style="enable-background:new 0 0 512 512;" xml:space="preserve">
<g>
	<g>
		<g>
			<path d="M77.663,279.098H11c-6.075,0-11,4.925-11,11V459.73c0,6.075,4.925,11,11,11h66.663c6.075,0,11-4.925,11-11V290.098
				C88.663,284.023,83.738,279.098,77.663,279.098z M66.663,448.73H22V301.098h44.663V448.73z"/>
			<path d="M192.056,241.105h-66.664c-6.075,0-11,4.925-11,11V459.73c0,6.075,4.925,11,11,11h66.664c6.075,0,11-4.925,11-11V252.105
				C203.056,246.03,198.131,241.105,192.056,241.105z M181.056,448.73h-44.664V263.105h44.664V448.73z"/>
			<path d="M306.448,301.408h-66.663c-6.075,0-11,4.925-11,11V459.73c0,6.075,4.925,11,11,11h66.663c6.075,0,11-4.925,11-11V312.408
				C317.448,306.333,312.523,301.408,306.448,301.408z M295.448,448.73h-44.663V323.408h44.663V448.73z"/>
			<path d="M512,166.819C512,97.591,455.668,41.27,386.426,41.27S260.852,97.591,260.852,166.819
				c0,65.523,50.464,119.483,114.574,125.071v20.724h-14.81c-6.075,0-11,4.925-11,11v110.31c0,20.295,16.511,36.807,36.807,36.807
				h0.006c20.295,0,36.807-16.511,36.807-36.807v-110.31c0-6.075-4.925-11-11-11h-14.81V291.89
				C461.536,286.301,512,232.342,512,166.819z M401.236,433.923c0,8.165-6.642,14.807-14.807,14.807h-0.006
				c-8.165,0-14.807-6.642-14.807-14.807v-99.31h29.619V433.923z M282.852,166.819c0-57.097,46.463-103.549,103.574-103.549
				S490,109.722,490,166.819s-46.463,103.549-103.574,103.549S282.852,223.916,282.852,166.819z"/>
			<path d="M448.299,234.865c2.089-2.399,3.038-5.585,2.6-8.736c-3.422-24.662-14.98-43.751-31.691-54.328
				c9.707-8.888,15.804-21.657,15.804-35.823c0-26.786-21.795-48.578-48.586-48.578s-48.586,21.792-48.586,48.578
				c0,14.166,6.097,26.935,15.804,35.823c-16.711,10.577-28.269,29.665-31.692,54.327c-0.438,3.151,0.511,6.337,2.6,8.736
				c2.089,2.399,5.114,3.776,8.295,3.776h107.156C443.185,238.641,446.21,237.264,448.299,234.865z M386.426,109.401
				c14.66,0,26.586,11.923,26.586,26.578c0,14.655-11.926,26.578-26.586,26.578s-26.586-11.923-26.586-26.578
				C359.84,121.324,371.767,109.401,386.426,109.401z M346.557,216.641c6.461-20.082,21.003-32.084,39.87-32.084
				c18.867,0,33.409,12.002,39.87,32.084H346.557z"/>
		</g>
		<g>
			<g>
				<path style="fill:#33CCCC;" d="M234.313,204.577H83.135c-6.075,0-11-4.925-11-11s4.925-11,11-11h151.178c6.075,0,11,4.925,11,11
					S240.388,204.577,234.313,204.577z"/>
			</g>
			<g>
				<path style="fill:#33CCCC;" d="M234.313,157.377H83.135c-6.075,0-11-4.925-11-11s4.925-11,11-11h151.178c6.075,0,11,4.925,11,11
					S240.388,157.377,234.313,157.377z"/>
			</g>
			<g>
				<path style="fill:#33CCCC;" d="M234.313,110.178H83.135c-6.075,0-11-4.925-11-11s4.925-11,11-11h151.178c6.075,0,11,4.925,11,11
					S240.388,110.178,234.313,110.178z"/>
			</g>
		</g>
	</g>
</g>
<g>
</g>
<g>
</g>
<g>
</g>
<g>
</g>
<g>
</g>
<g>
</g>
<g>
</g>
<g>
</g>
<g>
</g>
<g>
</g>
<g>
</g>
<g>
</g>
<g>
</g>
<g>
</g>
<g>
</g>
</svg>
