<?xml version="1.0" encoding="UTF-8"?>
<!-- Generator: Adobe Illustrator 27.2.0, SVG Export Plug-In . SVG Version: 6.00 Build 0)  -->
<svg xmlns="http://www.w3.org/2000/svg" xmlns:xlink="http://www.w3.org/1999/xlink" version="1.1" id="Capa_1" x="0px" y="0px" viewBox="0 0 512 512" style="enable-background:new 0 0 512 512;" xml:space="preserve" width="512" height="512">
<g>
	<path style="fill:#33CCCC;" d="M380.492,182.346c-2.815,0-5.63-1.074-7.778-3.222c-4.296-4.296-4.296-11.261,0-15.557   c8.963-8.963,8.963-15.317-0.001-24.282c-4.295-4.296-4.295-11.261,0.001-15.556c4.296-4.296,11.26-4.296,15.557,0.001   c17.6,17.602,17.6,37.792-0.001,55.393C386.122,181.271,383.307,182.346,380.492,182.346z"/>
	<path style="fill:#33CCCC;" d="M350.614,222.183c-2.815,0-5.63-1.074-7.778-3.222c-4.296-4.296-4.295-11.261,0.001-15.557   c4.47-4.471,6.737-8.555,6.737-12.14c0-3.585-2.267-7.67-6.737-12.141c-4.296-4.296-4.295-11.261,0.001-15.557   c4.295-4.296,11.26-4.295,15.556,0c8.746,8.747,13.181,18.065,13.181,27.697c0,9.632-4.435,18.95-13.181,27.696   C356.244,221.108,353.429,222.183,350.614,222.183z"/>
	<path style="fill:#33CCCC;" d="M400.411,262.021c-2.815,0-5.63-1.074-7.778-3.222c-4.296-4.296-4.296-11.261-0.001-15.557   c8.963-8.963,8.963-15.317,0-24.282c-4.295-4.296-4.295-11.261,0.001-15.556c4.296-4.296,11.26-4.296,15.557,0.001   c17.6,17.602,17.6,37.792-0.001,55.393C406.041,260.946,403.226,262.021,400.411,262.021z"/>
	<path style="fill:#33CCCC;" d="M136.488,222.183H53.825c-6.075,0-11-4.925-11-11s4.925-11,11-11h71.663v-68.675   c0-6.075,4.925-11,11-11c6.075,0,11,4.925,11,11v79.675C147.488,217.258,142.563,222.183,136.488,222.183z"/>
	<g>
		<path style="fill:#33CCCC;" d="M76.732,471.167c-6.075,0-11-4.925-11-11V400.41c0-6.075,4.925-11,11-11h39.837    c6.075,0,11,4.925,11,11v56.387c0,6.075-4.925,11-11,11c-6.075,0-11-4.925-11-11V411.41H87.732v48.757    C87.732,466.242,82.807,471.167,76.732,471.167z"/>
		<path style="fill:#33CCCC;" d="M196.244,471.167c-6.075,0-11-4.925-11-11v-78.635h-17.837v76.265c0,6.075-4.925,11-11,11    c-6.075,0-11-4.925-11-11v-87.265c0-6.075,4.925-11,11-11h39.837c6.075,0,11,4.925,11,11v89.635    C207.244,466.242,202.319,471.167,196.244,471.167z"/>
		<path style="fill:#33CCCC;" d="M275.918,471.167c-6.075,0-11-4.925-11-11V351.654h-17.837v108.513c0,6.075-4.925,11-11,11    s-11-4.925-11-11V340.654c0-6.075,4.925-11,11-11h39.837c6.075,0,11,4.925,11,11v119.513    C286.918,466.242,281.994,471.167,275.918,471.167z"/>
		<path style="fill:#33CCCC;" d="M315.756,471.167c-6.075,0-11-4.925-11-11v-69.716c0-6.075,4.925-11,11-11h39.837    c6.075,0,11,4.925,11,11v67.346c0,6.075-4.925,11-11,11s-11-4.925-11-11v-56.346h-17.837v58.716    C326.756,466.242,321.831,471.167,315.756,471.167z"/>
		<path style="fill:#33CCCC;" d="M435.268,471.167c-6.075,0-11-4.925-11-11v-98.553h-17.837v98.553c0,6.075-4.925,11-11,11    s-11-4.925-11-11V350.614c0-6.075,4.925-11,11-11h39.837c6.075,0,11,4.925,11,11v109.553    C446.268,466.242,441.343,471.167,435.268,471.167z"/>
		<path d="M455.187,471.167H56.813c-6.075,0-11-4.925-11-11s4.925-11,11-11h398.374c6.075,0,11,4.925,11,11    S461.262,471.167,455.187,471.167z"/>
	</g>
	<path d="M136.488,311.817c-52.744,0-95.654-42.91-95.654-95.654c0-52.744,42.91-95.655,95.654-95.655s95.654,42.911,95.654,95.655   C232.142,268.907,189.232,311.817,136.488,311.817z M136.488,142.508c-40.613,0-73.654,33.042-73.654,73.655   s33.041,73.654,73.654,73.654s73.654-33.041,73.654-73.654S177.101,142.508,136.488,142.508z"/>
	<path d="M460.167,120.508H260.979c-6.075,0-11,4.925-11,11v39.838v39.837v39.838c0,6.075,4.925,11,11,11h199.187   c6.075,0,11-4.925,11-11v-39.838v-39.837v-39.838C471.167,125.433,466.242,120.508,460.167,120.508z M271.979,182.346h177.187   v17.837H271.979V182.346z M271.979,142.508h177.187v17.838H271.979V142.508z M449.167,240.02H271.979v-17.838h177.187V240.02z"/>
	<g>
		<path style="fill:#33CCCC;" d="M51.83,62.83c-15.802-0.285-13.398-24.601,2.151-21.78C66.724,43.262,64.758,63.152,51.83,62.83z"/>
		<path style="fill:#33CCCC;" d="M91.67,62.83c-15.806-0.277-13.399-24.605,2.151-21.78C106.56,43.261,104.596,63.153,91.67,62.83z"/>
		<path style="fill:#33CCCC;" d="M131.51,62.83c-15.811-0.277-13.403-24.605,2.151-21.78    C146.396,43.268,144.433,63.146,131.51,62.83z"/>
		<path d="M11,0C4.925,0,0,4.925,0,11v490c0,6.075,4.925,11,11,11h490c6.075,0,11-4.925,11-11V11c0-6.075-4.925-11-11-11H11z     M490,22v58.671H208.06L179.086,22H490z M22,22h132.551l28.973,58.671H22V22z M490,102.671V490H22V102.671H490z"/>
	</g>
</g>















</svg>
