<?xml version="1.0" encoding="iso-8859-1"?>
<!-- Generator: Adobe Illustrator 26.5.3, SVG Export Plug-In . SVG Version: 6.00 Build 0)  -->
<svg version="1.1" id="Capa_1" xmlns="http://www.w3.org/2000/svg" xmlns:xlink="http://www.w3.org/1999/xlink" x="0px" y="0px"
	 viewBox="0 0 512 512" style="enable-background:new 0 0 512 512;" xml:space="preserve">
<g>
	<g>
		<path style="fill:#33CCCC;" d="M457,218.74h-64c-6.075,0-11,4.925-11,11V435c0,6.075,4.925,11,11,11h64c6.075,0,11-4.925,11-11
			V229.74C468,223.665,463.075,218.74,457,218.74z M446,424h-42V240.74h42V424z"/>
		<path style="fill:#33CCCC;" d="M349,267.127h-64c-6.075,0-11,4.925-11,11V435c0,6.075,4.925,11,11,11h64c6.075,0,11-4.925,11-11
			V278.127C360,272.052,355.075,267.127,349,267.127z M338,424h-42V289.127h42V424z"/>
		<path style="fill:#33CCCC;" d="M241,335.588h-64c-6.075,0-11,4.925-11,11V435c0,6.075,4.925,11,11,11h64c6.075,0,11-4.925,11-11
			v-88.412C252,340.513,247.075,335.588,241,335.588z M230,424h-42v-66.412h42V424z"/>
		<path style="fill:#33CCCC;" d="M210.351,237.023c0-45.779-37.244-83.023-83.023-83.023s-83.023,37.244-83.023,83.023
			s37.244,83.023,83.023,83.023S210.351,282.803,210.351,237.023z M187.338,226.023H138.01v-49.068
			C163.002,181.389,182.776,201.075,187.338,226.023z M127.327,298.047c-33.648,0-61.023-27.375-61.023-61.023
			c0-29.781,21.449-54.631,49.706-59.954v59.954c0,6.075,4.925,11,11,11h60.329C182.142,276.437,157.219,298.047,127.327,298.047z"
			/>
	</g>
	<g>
		<path d="M501,22H11C4.925,22,0,26.925,0,33v446c0,6.075,4.925,11,11,11h490c6.075,0,11-4.925,11-11V33
			C512,26.925,507.075,22,501,22z M490,44v66H22V44H490z M22,468V132h468v336H22z"/>
		<path d="M67,88c3.612,0.014,7.153-1.874,9.149-4.891c5.962-9.011-3.359-20.383-13.359-16.27C51.779,71.526,55.035,87.871,67,88z"
			/>
		<path d="M119,88c3.612,0.014,7.153-1.874,9.149-4.891c5.962-9.011-3.359-20.383-13.359-16.27
			C103.779,71.526,107.035,87.871,119,88z"/>
		<path d="M171,88c7.593,0.217,13.268-8.283,10.16-15.21c-3.626-8.979-16.69-8.975-20.32,0C157.753,79.783,163.366,88.165,171,88z"
			/>
		<path d="M256,88h189c6.075,0,11-4.925,11-11s-4.925-11-11-11H256c-6.075,0-11,4.925-11,11S249.925,88,256,88z"/>
		<path d="M349,154.008h-92.873c-6.075,0-11,4.925-11,11s4.925,11,11,11H349c6.075,0,11-4.925,11-11S355.075,154.008,349,154.008z"
			/>
		<path d="M309.271,198.75h-53.144c-6.075,0-11,4.925-11,11s4.925,11,11,11h53.144c6.075,0,11-4.925,11-11
			S315.346,198.75,309.271,198.75z"/>
	</g>
</g>
<g>
</g>
<g>
</g>
<g>
</g>
<g>
</g>
<g>
</g>
<g>
</g>
<g>
</g>
<g>
</g>
<g>
</g>
<g>
</g>
<g>
</g>
<g>
</g>
<g>
</g>
<g>
</g>
<g>
</g>
</svg>
