<?xml version="1.0" encoding="UTF-8"?>
<!-- Generator: Adobe Illustrator 24.2.3, SVG Export Plug-In . SVG Version: 6.00 Build 0)  -->
<svg xmlns="http://www.w3.org/2000/svg" xmlns:xlink="http://www.w3.org/1999/xlink" version="1.1" id="Capa_1" x="0px" y="0px" viewBox="0 0 511.945 511.945" style="enable-background:new 0 0 511.945 511.945;" xml:space="preserve" width="512" height="512">
<g>
	<g>
		<path style="fill:#33CCCC;" d="M367.799,245.596c-1.522,0-3.045-0.316-4.468-0.948c-59.549-26.466-98.026-85.673-98.026-150.839    V31.277c0-4.347,2.56-8.287,6.532-10.052c63.676-28.3,128.247-28.301,191.923,0c3.972,1.765,6.532,5.705,6.532,10.052v62.532    c0,65.165-38.478,124.373-98.025,150.839C370.845,245.28,369.321,245.596,367.799,245.596z M287.305,38.536v55.273    c0,54.832,31.435,104.799,80.493,128.657c49.06-23.857,80.494-73.824,80.494-128.657V38.536    C394.84,16.592,340.755,16.593,287.305,38.536z"/>
	</g>
	<g>
		<path style="fill:#33CCCC;" d="M357.015,155.336c-2.815,0-5.63-1.074-7.778-3.222l-21.565-21.565    c-4.296-4.296-4.296-11.261,0-15.557c4.297-4.296,11.26-4.296,15.557,0l13.787,13.788l35.353-35.353    c4.297-4.296,11.26-4.296,15.557,0c4.296,4.296,4.296,11.261,0,15.557l-43.131,43.131    C362.645,154.262,359.831,155.336,357.015,155.336z"/>
	</g>
	<path d="M305.969,202.263v24.2c0,23.647-49.758,49.996-121.158,49.996S63.653,250.111,63.653,226.464v-31.923   c6.399,5.076,29.017,32.757,121.158,32.757c47.589,0,90.986-11.218,117.18-29.785c-4.61-5.711-8.83-11.722-12.639-17.987   c-22.138,15.836-61.734,25.772-104.541,25.772c-71.4,0-121.158-26.348-121.158-49.996s49.758-49.996,121.158-49.996   c30.763,0,59.774,5.007,82.52,14.152c-1.247-7.916-1.924-15.98-1.999-24.142c-23.461-7.793-51.384-12.01-80.521-12.01   c-36.858,0-71.684,6.704-98.059,18.878c-29.083,13.422-45.099,32.287-45.099,53.118v284.647c0,20.832,16.016,39.696,45.099,53.118   c26.375,12.174,61.2,18.878,98.059,18.878s71.684-6.704,98.059-18.878c29.082-13.422,45.099-32.287,45.099-53.118V223.252   C319.968,216.917,312.608,209.886,305.969,202.263z M305.969,439.949c0,23.647-49.758,49.996-121.158,49.996   S63.653,463.596,63.653,439.949v-31.923c6.399,5.076,35.32,32.757,121.158,32.757s114.759-27.681,121.158-32.757V439.949z    M305.969,368.787c0,23.647-49.758,49.996-121.158,49.996S63.653,392.435,63.653,368.787v-31.923   c6.399,5.076,40.664,32.757,121.158,32.757s114.759-27.681,121.158-32.757V368.787z M305.969,297.626   c0,23.647-49.758,49.996-121.158,49.996S63.653,321.273,63.653,297.626v-31.923c6.399,5.076,40.664,32.757,121.158,32.757   s114.759-27.681,121.158-32.757V297.626z"/>
</g>















</svg>
