<?xml version="1.0" encoding="UTF-8"?>
<!-- Generator: Adobe Illustrator 27.2.0, SVG Export Plug-In . SVG Version: 6.00 Build 0)  -->
<svg xmlns="http://www.w3.org/2000/svg" xmlns:xlink="http://www.w3.org/1999/xlink" version="1.1" id="Capa_1" x="0px" y="0px" viewBox="0 0 512 512" style="enable-background:new 0 0 512 512;" xml:space="preserve" width="512" height="512">
<g>
	<g>
		<path style="fill:#33CCCC;" d="M50.84,472.16c-15.813-0.281-13.402-24.603,2.151-21.78    C65.722,452.604,63.762,472.469,50.84,472.16z"/>
		<path style="fill:#33CCCC;" d="M90.67,472.16c-15.802-0.286-13.397-24.598,2.151-21.78    C105.566,452.589,103.6,472.482,90.67,472.16z"/>
		<path d="M190.268,472.163h-59.756c-6.075,0-11-4.925-11-11s4.925-11,11-11h59.756c6.075,0,11,4.925,11,11    S196.343,472.163,190.268,472.163z"/>
		<path style="fill:#33CCCC;" d="M321.73,472.16c-15.807-0.286-13.4-24.6,2.151-21.78C336.621,452.59,334.656,472.481,321.73,472.16    z"/>
		<path style="fill:#33CCCC;" d="M361.57,472.16c-15.809-0.28-13.4-24.604,2.151-21.78    C376.453,452.593,374.494,472.479,361.57,472.16z"/>
		<path d="M461.163,472.163h-59.756c-6.075,0-11-4.925-11-11s4.925-11,11-11h59.756c6.075,0,11,4.925,11,11    S467.238,472.163,461.163,472.163z"/>
		<path d="M241.105,341.65c0-6.075-4.925-11-11-11H11c-6.075,0-11,4.925-11,11V501c0,6.075,4.925,11,11,11h219.105    c6.075,0,11-4.925,11-11V341.65z M22,352.65h197.105v57.675H22V352.65z M219.105,490H22v-57.675h197.105V490z"/>
		<path style="fill:#33CCCC;" d="M50.84,392.49c-15.81-0.298-13.41-24.593,2.151-21.79C65.724,372.938,63.761,392.784,50.84,392.49z    "/>
		<path style="fill:#33CCCC;" d="M90.67,392.49c-15.8-0.313-13.402-24.583,2.151-21.79C105.566,372.931,103.6,392.787,90.67,392.49z    "/>
		<path d="M190.268,392.488h-59.756c-6.075,0-11-4.925-11-11s4.925-11,11-11h59.756c6.075,0,11,4.925,11,11    S196.343,392.488,190.268,392.488z"/>
		<path d="M512,341.65c0-6.075-4.925-11-11-11H281.895c-6.075,0-11,4.925-11,11V501c0,6.075,4.925,11,11,11H501    c6.075,0,11-4.925,11-11V341.65z M490,490H292.895v-57.675H490V490z M490,410.325H292.895V352.65H490V410.325z"/>
		<path style="fill:#33CCCC;" d="M321.73,392.49c-15.798-0.304-13.417-24.568,2.151-21.79    C336.622,372.931,334.656,392.789,321.73,392.49z"/>
		<path style="fill:#33CCCC;" d="M361.57,392.49c-12.924,0.304-14.889-19.564-2.149-21.79    C374.978,367.899,377.37,392.195,361.57,392.49z"/>
		<path d="M461.163,392.488h-59.756c-6.075,0-11-4.925-11-11s4.925-11,11-11h59.756c6.075,0,11,4.925,11,11    S467.238,392.488,461.163,392.488z"/>
		<g>
			<path d="M350.614,261.024H161.386c-6.075,0-11-4.925-11-11V11c0-6.075,4.925-11,11-11h149.39c2.917,0,5.715,1.159,7.778,3.222     l39.837,39.837c2.062,2.063,3.222,4.861,3.222,7.778v199.187C361.614,256.1,356.689,261.024,350.614,261.024z M172.386,239.024     h167.228V55.394L306.22,22H172.386V239.024z"/>
			<path style="fill:#33CCCC;" d="M241.061,61.837h-39.837c-6.075,0-11-4.925-11-11s4.925-11,11-11h39.837c6.075,0,11,4.925,11,11     S247.136,61.837,241.061,61.837z"/>
			<path d="M310.776,101.675H201.224c-6.075,0-11-4.925-11-11c0-6.075,4.925-11,11-11h109.553c6.075,0,11,4.925,11,11     C321.776,96.75,316.852,101.675,310.776,101.675z"/>
			<path style="fill:#33CCCC;" d="M310.776,141.512H201.224c-6.075,0-11-4.925-11-11c0-6.075,4.925-11,11-11h109.553     c6.075,0,11,4.925,11,11C321.776,136.587,316.852,141.512,310.776,141.512z"/>
			<path d="M310.776,181.35H201.224c-6.075,0-11-4.925-11-11c0-6.075,4.925-11,11-11h109.553c6.075,0,11,4.925,11,11     C321.776,176.425,316.852,181.35,310.776,181.35z"/>
			<path style="fill:#33CCCC;" d="M310.776,221.187h-39.837c-6.075,0-11-4.925-11-11c0-6.075,4.925-11,11-11h39.837     c6.075,0,11,4.925,11,11C321.776,216.262,316.852,221.187,310.776,221.187z"/>
		</g>
		<path style="fill:#33CCCC;" d="M89.868,96.776c2.46-3.624,2.442-8.664-0.045-12.27L69.95,54.695    c-3.37-5.055-10.199-6.421-15.254-3.051c-5.055,3.37-6.421,10.199-3.051,15.254l8.517,12.776H11c-6.075,0-11,4.925-11,11v189.228    c0,6.075,4.925,11,11,11s11-4.925,11-11V101.675h38.162l-8.517,12.776c-3.37,5.055-2.004,11.884,3.051,15.254    c1.875,1.251,3.995,1.849,6.091,1.849c3.555,0,7.044-1.72,9.163-4.899l19.873-29.811C89.838,96.821,89.853,96.798,89.868,96.776z"/>
		<path d="M129.706,276.044c2.46-3.624,2.441-8.664-0.045-12.27l-19.874-29.811c-3.37-5.054-10.199-6.421-15.254-3.051    c-5.055,3.37-6.421,10.199-3.051,15.254l8.517,12.776H61.837V160.39c0-6.075-4.925-11-11-11s-11,4.925-11,11v109.553    c0,6.075,4.925,11,11,11h49.162l-8.518,12.777c-3.37,5.055-2.003,11.884,3.051,15.254c1.876,1.25,3.995,1.848,6.091,1.848    c3.555,0,7.044-1.72,9.163-4.899l19.878-29.817C129.678,276.087,129.693,276.063,129.706,276.044z"/>
		<path d="M501,79.675h-49.162l8.517-12.776c3.37-5.055,2.004-11.884-3.051-15.254c-5.055-3.371-11.884-2.003-15.254,3.051    l-19.873,29.811c-2.503,3.629-2.503,8.708,0,12.337l19.873,29.811c2.12,3.18,5.608,4.9,9.163,4.899    c2.096,0,4.216-0.598,6.091-1.849c5.055-3.37,6.421-10.199,3.051-15.254l-8.517-12.776H490v178.228c0,6.075,4.925,11,11,11    s11-4.925,11-11V90.675C512,84.6,507.075,79.675,501,79.675z"/>
		<path style="fill:#33CCCC;" d="M461.163,149.39c-6.075,0-11,4.925-11,11v98.553h-38.162l8.517-12.776    c3.37-5.055,2.004-11.884-3.051-15.254c-5.055-3.37-11.884-2.003-15.254,3.051l-19.874,29.811    c-2.501,3.627-2.503,8.702-0.005,12.331l19.878,29.817c2.12,3.18,5.608,4.899,9.163,4.899c2.096,0,4.216-0.598,6.091-1.848    c5.055-3.37,6.421-10.2,3.051-15.254l-8.518-12.777h49.162c6.075,0,11-4.925,11-11V160.39    C472.163,154.315,467.238,149.39,461.163,149.39z"/>
	</g>
</g>















</svg>
