<?xml version="1.0" encoding="iso-8859-1"?>
<!-- Generator: Adobe Illustrator 27.5.0, SVG Export Plug-In . SVG Version: 6.00 Build 0)  -->
<svg version="1.1" id="Layer_1" xmlns="http://www.w3.org/2000/svg" xmlns:xlink="http://www.w3.org/1999/xlink" x="0px" y="0px"
	 viewBox="0 0 512 512" style="enable-background:new 0 0 512 512;" xml:space="preserve">
<g>
	<path d="M391.52,285.662H267v-23.541h91.734c48.802,0,88.505-39.639,88.505-88.362c0-48.313-39.039-87.694-87.275-88.354
		C342.986,34.696,295.278,0,240.995,0c-32.923,0-64.03,12.638-87.592,35.584c-21.57,21.007-34.651,48.523-37.337,78.201
		c-13.381,4.661-25.372,13.045-34.355,24.145c-10.931,13.504-16.95,30.52-16.95,47.913c0,42.06,34.271,76.278,76.397,76.278H245
		v23.541H120.48c-22.305,0-40.45,18.146-40.45,40.451v43.268c0,11.597,4.906,22.068,12.75,29.451
		c-7.844,7.383-12.75,17.856-12.75,29.454v43.26c0,22.307,18.145,40.454,40.447,40.454h271.045
		c22.303,0,40.447-18.147,40.447-40.454v-43.26c0-11.598-4.906-22.071-12.75-29.454c7.844-7.382,12.75-17.854,12.75-29.451v-43.268
		C431.97,303.808,413.824,285.662,391.52,285.662z M86.761,185.843c0-25.51,17.38-47.273,42.265-52.924
		c4.904-1.114,8.429-5.412,8.561-10.439C139.062,66.136,184.484,22,240.995,22c47.244,0,88.444,31.846,100.192,77.443
		c1.343,5.211,6.271,8.687,11.618,8.213c1.956-0.172,3.95-0.26,5.929-0.26c36.671,0,66.505,29.77,66.505,66.362
		s-29.834,66.362-66.505,66.362H141.158C111.163,240.121,86.761,215.772,86.761,185.843z M102.03,326.113
		c0-10.174,8.276-18.451,18.45-18.451H391.52c10.174,0,18.45,8.277,18.45,18.451v43.268c0,10.174-8.276,18.451-18.45,18.451H120.48
		c-10.174,0-18.45-8.277-18.45-18.451V326.113z M391.522,409.831c10.172,0,18.447,8.279,18.447,18.455v43.26
		c0,10.176-8.275,18.454-18.447,18.454H120.478c-10.172,0-18.447-8.278-18.447-18.454v-43.26c0-10.176,8.275-18.455,18.447-18.455
		H391.522z"/>
	<g>
		<path style="fill:#33CCCC;" d="M222.028,438.916h-79.71c-6.075,0-11,4.925-11,11s4.925,11,11,11h79.71c6.075,0,11-4.925,11-11
			S228.104,438.916,222.028,438.916z"/>
		<path style="fill:#33CCCC;" d="M300.92,445.71c-1.742-4.314-6.247-7.067-10.87-6.767c-4.657,0.303-8.689,3.624-9.907,8.124
			c-1.218,4.501,0.651,9.406,4.517,11.993c3.877,2.595,9.096,2.408,12.798-0.42C301.348,455.669,302.841,450.231,300.92,445.71z"/>
		<path style="fill:#33CCCC;" d="M340.38,445.71c-1.647-4.078-5.775-6.77-10.148-6.789c-4.67-0.02-8.907,3.058-10.419,7.459
			c-1.6,4.656,0.224,9.95,4.307,12.681c3.736,2.498,8.731,2.434,12.409-0.136C340.677,456.027,342.368,450.39,340.38,445.71z"/>
		<path style="fill:#33CCCC;" d="M379.84,445.71c-1.772-4.236-6.098-7.014-10.699-6.783c-4.582,0.231-8.653,3.398-9.979,7.794
			c-1.304,4.324,0.217,9.174,3.825,11.919c3.714,2.826,8.914,3.013,12.803,0.42C380.113,456.178,381.798,450.503,379.84,445.71z"/>
		<path style="fill:#33CCCC;" d="M222.028,336.747h-79.71c-6.075,0-11,4.925-11,11s4.925,11,11,11h79.71c6.075,0,11-4.925,11-11
			S228.104,336.747,222.028,336.747z"/>
		<path style="fill:#33CCCC;" d="M300.92,343.54c-1.767-4.312-6.234-7.07-10.876-6.767c-4.657,0.304-8.683,3.631-9.9,8.128
			c-1.218,4.501,0.652,9.402,4.517,11.988c3.878,2.596,9.095,2.408,12.798-0.42C301.349,353.5,302.84,348.06,300.92,343.54z"/>
		<path style="fill:#33CCCC;" d="M328.069,336.96c-4.832,0.965-8.48,5.166-8.824,10.07c-0.335,4.778,2.649,9.317,7.106,11.004
			c4.245,1.606,9.142,0.364,12.141-3.034c3.009-3.409,3.55-8.477,1.408-12.468C337.649,338.338,332.743,336.02,328.069,336.96z"/>
		<path style="fill:#33CCCC;" d="M359.52,351.95c1.767,4.223,6.107,7.029,10.7,6.784c4.592-0.245,8.644-3.387,9.979-7.794
			c1.312-4.333-0.225-9.161-3.822-11.92c-3.704-2.841-8.914-2.99-12.796-0.42C359.247,341.468,357.563,347.161,359.52,351.95z"/>
	</g>
</g>
<g>
</g>
<g>
</g>
<g>
</g>
<g>
</g>
<g>
</g>
<g>
</g>
<g>
</g>
<g>
</g>
<g>
</g>
<g>
</g>
<g>
</g>
<g>
</g>
<g>
</g>
<g>
</g>
<g>
</g>
</svg>
