<?xml version="1.0" encoding="UTF-8"?>
<!-- Generator: Adobe Illustrator 27.2.0, SVG Export Plug-In . SVG Version: 6.00 Build 0)  -->
<svg xmlns="http://www.w3.org/2000/svg" xmlns:xlink="http://www.w3.org/1999/xlink" version="1.1" id="Capa_1" x="0px" y="0px" viewBox="0 0 512 512" style="enable-background:new 0 0 512 512;" xml:space="preserve" width="512" height="512">
<g>
	<path style="fill:#33CCCC;" d="M70.756,101.675c-17.048,0-30.918-13.87-30.918-30.919c0-17.048,13.87-30.918,30.918-30.918   c17.049,0,30.919,13.87,30.919,30.918C101.675,87.805,87.805,101.675,70.756,101.675z M70.756,61.837   c-4.917,0-8.918,4.001-8.918,8.918c0,4.918,4.001,8.919,8.918,8.919c4.918,0,8.919-4.001,8.919-8.919   C79.675,65.838,75.674,61.837,70.756,61.837z"/>
	<path d="M150.431,101.675c-17.048,0-30.918-13.87-30.918-30.919c0-17.048,13.87-30.918,30.918-30.918   c17.049,0,30.919,13.87,30.919,30.918C181.35,87.805,167.48,101.675,150.431,101.675z M150.431,61.837   c-4.917,0-8.918,4.001-8.918,8.918c0,4.918,4.001,8.919,8.918,8.919c4.918,0,8.919-4.001,8.919-8.919   C159.35,65.838,155.349,61.837,150.431,61.837z"/>
	<path d="M461.163,101.675H261.976c-6.075,0-11-4.925-11-11V50.837c0-6.075,4.925-11,11-11h199.187c6.075,0,11,4.925,11,11v39.837   C472.163,96.75,467.238,101.675,461.163,101.675z M272.976,79.675h177.187V61.837H272.976V79.675z"/>
	<path style="fill:#33CCCC;" d="M70.756,263.016c-17.048,0-30.918-13.87-30.918-30.918c0-17.049,13.87-30.919,30.918-30.919   c17.049,0,30.919,13.87,30.919,30.919C101.675,249.146,87.805,263.016,70.756,263.016z M70.756,223.179   c-4.917,0-8.918,4.001-8.918,8.919c0,4.917,4.001,8.918,8.918,8.918c4.918,0,8.919-4.001,8.919-8.918   C79.675,227.18,75.674,223.179,70.756,223.179z"/>
	<path d="M150.431,263.016c-17.048,0-30.918-13.87-30.918-30.918c0-17.049,13.87-30.919,30.918-30.919   c17.049,0,30.919,13.87,30.919,30.919C181.35,249.146,167.48,263.016,150.431,263.016z M150.431,223.179   c-4.917,0-8.918,4.001-8.918,8.919c0,4.917,4.001,8.918,8.918,8.918c4.918,0,8.919-4.001,8.919-8.918   C159.35,227.18,155.349,223.179,150.431,223.179z"/>
	<path style="fill:#33CCCC;" d="M70.756,422.366c-17.048,0-30.918-13.87-30.918-30.918c0-17.049,13.87-30.919,30.918-30.919   c17.049,0,30.919,13.87,30.919,30.919C101.675,408.496,87.805,422.366,70.756,422.366z M70.756,382.528   c-4.917,0-8.918,4.001-8.918,8.919c0,4.917,4.001,8.918,8.918,8.918c4.918,0,8.919-4.001,8.919-8.918   C79.675,386.529,75.674,382.528,70.756,382.528z"/>
	<path d="M150.431,422.366c-17.048,0-30.918-13.87-30.918-30.918c0-17.049,13.87-30.919,30.918-30.919   c17.049,0,30.919,13.87,30.919,30.919C181.35,408.496,167.48,422.366,150.431,422.366z M150.431,382.528   c-4.917,0-8.918,4.001-8.918,8.919c0,4.917,4.001,8.918,8.918,8.918c4.918,0,8.919-4.001,8.919-8.918   C159.35,386.529,155.349,382.528,150.431,382.528z"/>
	<path d="M501,141.512c6.075,0,11-4.925,11-11V11c0-6.075-4.925-11-11-11H11C4.925,0,0,4.925,0,11v119.512c0,6.075,4.925,11,11,11   h38.797v19.829H11c-6.075,0-11,4.925-11,11v119.512c0,6.075,4.925,11,11,11h38.797v17.837H11c-6.075,0-11,4.925-11,11v119.512   c0,6.075,4.925,11,11,11h231.692C271.094,492.811,311.64,512,356.589,512C442.283,512,512,442.283,512,356.589   c0-18.916-3.402-37.051-9.618-53.832c5.421-0.681,9.618-5.298,9.618-10.904V172.341c0-6.075-4.925-11-11-11h-38.797v-19.829H501z    M22,22h468v97.512H22V22z M71.797,302.853H210.76c-2.141,5.792-3.942,11.747-5.388,17.837H71.797V302.853z M22,440.203v-97.512   h179.807c-0.408,4.58-0.629,9.214-0.629,13.898c0,30.758,8.983,59.457,24.461,83.614H22z M356.589,490   c-73.563,0-133.411-59.848-133.411-133.411s59.848-133.411,133.411-133.411S490,283.026,490,356.589S430.152,490,356.589,490z    M490,276.962c-27.173-45.355-76.802-75.783-133.411-75.783c-58.213,0-109.043,32.178-135.664,79.675H22v-97.512h468V276.962z    M440.203,161.341H71.797v-19.829h368.406V161.341z"/>
	<path style="fill:#33CCCC;" d="M280.935,401.927c-4.201,0-8.211-2.418-10.042-6.499c-7.694-17.145-10.044-36.023-6.797-54.595   c3.325-19.017,12.321-36.307,26.016-50.001c13.693-13.694,30.983-22.69,50.001-26.015c18.572-3.247,37.45-0.897,54.595,6.797   c5.543,2.487,8.019,8.997,5.532,14.539c-2.487,5.543-8.997,8.019-14.54,5.532c-26.971-12.104-59.134-6.196-80.031,14.703   c-20.899,20.898-26.808,53.06-14.704,80.032c2.487,5.543,0.011,12.052-5.532,14.54C283.97,401.616,282.44,401.926,280.935,401.927z   "/>
	<path style="fill:#33CCCC;" d="M356.272,450.725c-13.153,0-26.16-2.769-38.298-8.216c-5.543-2.487-8.019-8.997-5.532-14.54   c2.487-5.542,8.997-8.02,14.539-5.532c26.97,12.103,59.132,6.195,80.031-14.704c20.899-20.898,26.808-53.061,14.704-80.032   c-2.487-5.542-0.011-12.052,5.532-14.539c5.545-2.489,12.052-0.01,14.54,5.532c7.694,17.145,10.044,36.023,6.797,54.595   c-3.325,19.017-12.321,36.307-26.015,50.001c-13.694,13.694-30.984,22.69-50.001,26.015   C367.146,450.254,361.697,450.725,356.272,450.725z"/>
</g>















</svg>
