<?xml version="1.0" encoding="iso-8859-1"?>
<!-- Generator: Adobe Illustrator 27.5.0, SVG Export Plug-In . SVG Version: 6.00 Build 0)  -->
<svg version="1.1" id="Layer_1" xmlns="http://www.w3.org/2000/svg" xmlns:xlink="http://www.w3.org/1999/xlink" x="0px" y="0px"
	 viewBox="0 0 512 512" style="enable-background:new 0 0 512 512;" xml:space="preserve">
<g>
	<g>
		<g>
			<path style="fill:#33CCCC;" d="M241.655,254.357h-22v-55.011h-34.322v28.503h-22v-39.503c0-6.075,4.925-11,11-11h56.322
				c6.075,0,11,4.925,11,11V254.357z"/>
		</g>
		<g>
			<path style="fill:#33CCCC;" d="M351.474,291.08h-22V170.908h-34.322V291.08h-22V159.908c0-6.075,4.925-11,11-11h56.322
				c6.075,0,11,4.925,11,11V291.08z"/>
		</g>
		<g>
			<path style="fill:#33CCCC;" d="M458.484,291.08h-22V135.056H404.97V291.08h-22V124.056c0-6.075,4.925-11,11-11h53.515
				c6.075,0,11,4.925,11,11V291.08z"/>
		</g>
	</g>
	<g>
		<g>
			<path d="M147.576,277.057c-48.175,0-87.367,39.193-87.367,87.367s39.192,87.367,87.367,87.367
				c48.174,0,87.366-39.193,87.366-87.367S195.75,277.057,147.576,277.057z M147.576,429.792c-36.044,0-65.367-29.324-65.367-65.367
				s29.323-65.367,65.367-65.367c36.043,0,65.366,29.324,65.366,65.367S183.619,429.792,147.576,429.792z"/>
			<path d="M501,280.08H271.787c-0.289-0.376-38.781-38.928-38.781-38.928c-2.063-2.063-4.861-3.222-7.778-3.222
				s-5.715,1.159-7.778,3.222l-6.611,6.612c-8.121-4.416-16.654-7.953-25.506-10.573v-9.342c0-6.075-4.925-11-11-11h-42.515V11
				c0-6.075-4.925-11-11-11s-11,4.925-11,11v226.191c-8.852,2.62-17.385,6.157-25.506,10.573l-6.611-6.612
				c-2.063-2.063-4.861-3.222-7.778-3.222s-5.715,1.159-7.778,3.222l-37.841,37.841c-4.296,4.296-4.296,11.261,0,15.556l6.611,6.612
				c-4.416,8.123-7.953,16.654-10.573,25.505H11c-6.075,0-11,4.925-11,11v53.516c0,6.075,4.925,11,11,11h9.342
				c2.62,8.851,6.157,17.382,10.573,25.505l-6.611,6.612c-4.296,4.295-4.296,11.26,0,15.556l37.841,37.841
				c2.063,2.063,4.861,3.222,7.778,3.222s5.715-1.159,7.778-3.222l6.611-6.612c8.121,4.416,16.654,7.953,25.506,10.573V501
				c0,6.075,4.925,11,11,11h53.515c6.075,0,11-4.925,11-11v-9.342c8.852-2.62,17.385-6.157,25.506-10.573l6.611,6.612
				c2.063,2.063,4.861,3.222,7.778,3.222s5.716-1.159,7.778-3.222l37.841-37.841c4.296-4.296,4.296-11.261,0-15.556l-6.611-6.612
				c4.416-8.123,7.953-16.654,10.573-25.505h9.342c6.075,0,11-4.925,11-11v-53.516c0-6.075-4.925-11-11-11h-9.342
				c-2.522-8.52-5.902-16.739-10.089-24.587H501c6.075,0,11-4.925,11-11S507.075,280.08,501,280.08z M273.151,348.667v31.516h-6.843
				c-5.147,0-9.606,3.569-10.733,8.592c-2.771,12.355-7.624,24.062-14.422,34.794c-2.754,4.348-2.125,10.024,1.515,13.664
				l4.845,4.846l-22.284,22.285l-4.846-4.846c-3.641-3.639-9.315-4.268-13.665-1.514c-10.729,6.797-22.435,11.649-34.793,14.422
				c-5.022,1.127-8.592,5.586-8.592,10.733V490h-31.515v-6.843c0-5.147-3.569-9.606-8.592-10.733
				c-12.358-2.773-24.064-7.625-34.793-14.422c-4.349-2.755-10.026-2.125-13.665,1.514l-4.846,4.846l-22.284-22.285l4.845-4.846
				c3.64-3.639,4.269-9.316,1.515-13.664c-6.798-10.732-11.65-22.438-14.422-34.794c-1.127-5.022-5.586-8.592-10.733-8.592H22
				v-31.516h6.843c5.147,0,9.606-3.569,10.733-8.592c2.772-12.356,7.624-24.063,14.422-34.793
				c2.754-4.348,2.125-10.025-1.515-13.664l-4.845-4.846l22.284-22.285l4.846,4.846c3.642,3.64,9.316,4.269,13.665,1.514
				c10.729-6.797,22.435-11.649,34.793-14.422c5.022-1.127,8.592-5.586,8.592-10.733v-6.843h31.515v6.843
				c0,5.147,3.569,9.606,8.592,10.733c12.358,2.773,24.064,7.625,34.793,14.422c4.348,2.754,10.025,2.125,13.665-1.514l4.846-4.846
				l22.284,22.285l-4.845,4.846c-3.64,3.639-4.269,9.316-1.515,13.664c6.798,10.731,11.649,22.437,14.422,34.793
				c1.127,5.022,5.586,8.592,10.733,8.592H273.151z"/>
		</g>
		<g>
			<path style="fill:#33CCCC;" d="M147.576,375.425h-17.327c-6.075,0-11-4.925-11-11s4.925-11,11-11h6.327v-20.521
				c0-6.075,4.925-11,11-11s11,4.925,11,11v31.521C158.576,370.5,153.651,375.425,147.576,375.425z"/>
		</g>
		<g>
			<path style="fill:#33CCCC;" d="M174.333,137.994c-2.815,0-5.63-1.074-7.778-3.222c-4.296-4.296-4.296-11.261,0-15.557
				l61.771-61.771c4.297-4.296,11.26-4.296,15.557,0l26.578,26.578l52.024-52.025c4.297-4.296,11.26-4.296,15.557,0l36.445,36.445
				l65.22-65.221c4.297-4.296,11.26-4.296,15.557,0c4.296,4.296,4.296,11.261,0,15.557l-72.998,72.999
				c-4.297,4.296-11.26,4.296-15.557,0l-36.445-36.445l-52.024,52.026c-2.063,2.063-4.861,3.222-7.778,3.222
				s-5.715-1.159-7.778-3.222L236.104,80.78l-53.992,53.993C179.963,136.92,177.149,137.994,174.333,137.994z"/>
		</g>
	</g>
</g>
<g>
</g>
<g>
</g>
<g>
</g>
<g>
</g>
<g>
</g>
<g>
</g>
<g>
</g>
<g>
</g>
<g>
</g>
<g>
</g>
<g>
</g>
<g>
</g>
<g>
</g>
<g>
</g>
<g>
</g>
</svg>
