<?xml version="1.0" encoding="UTF-8"?>
<!-- Generator: Adobe Illustrator 26.0.3, SVG Export Plug-In . SVG Version: 6.00 Build 0)  -->
<svg xmlns="http://www.w3.org/2000/svg" xmlns:xlink="http://www.w3.org/1999/xlink" version="1.1" id="Capa_1" x="0px" y="0px" viewBox="0 0 512 512" style="enable-background:new 0 0 512 512;" xml:space="preserve" width="512" height="512">
<g>
	<g id="Startup">
		<path style="fill:#33CCCC;" d="M309.429,115.527H202.521c-6.075,0-11-4.925-11-11c0-6.075,4.925-11,11-11h106.907    c6.075,0,11,4.925,11,11C320.429,110.603,315.504,115.527,309.429,115.527z"/>
		<path style="fill:#33CCCC;" d="M308.573,237.519H203.452c-6.075,0-11-4.925-11-11s4.925-11,11-11h105.121c6.075,0,11,4.925,11,11    S314.648,237.519,308.573,237.519z"/>
		<path style="fill:#33CCCC;" d="M106.112,451.007c-4.532,0-8.777-2.823-10.372-7.34c-2.142-6.068-3.229-12.432-3.229-18.912    c0-31.29,25.456-56.747,56.746-56.747c3.481,0,6.948,0.329,10.377,0.981c9.442-18.969,28.939-31.479,50.619-31.479    c2.343,0,4.249-1.906,4.249-4.249v-45.747c0-6.075,4.925-11,11-11c6.075,0,11,4.925,11,11v45.747    c0,14.474-11.775,26.249-26.249,26.249c-15.55,0-29.27,10.575-33.367,25.718c-0.82,3.033-2.899,5.57-5.712,6.972    c-2.812,1.402-6.09,1.535-9.006,0.362c-4.222-1.695-8.566-2.555-12.911-2.555c-19.159,0-34.746,15.588-34.746,34.747    c0,3.979,0.664,7.877,1.974,11.586c2.023,5.729-0.98,12.013-6.709,14.035C108.563,450.804,107.327,451.007,106.112,451.007z"/>
		<path style="fill:#33CCCC;" d="M406.904,451.007c-1.216,0-2.451-0.203-3.663-0.631c-5.729-2.023-8.732-8.307-6.709-14.035    c1.31-3.709,1.974-7.606,1.974-11.586c0-18.835-16.377-34.747-35.763-34.747c-4.346,0-8.689,0.859-12.911,2.555    c-2.917,1.171-6.193,1.04-9.006-0.362c-2.812-1.401-4.892-3.939-5.712-6.972c-4.097-15.143-17.817-25.718-33.367-25.718    c-14.474,0-26.249-11.775-26.249-26.249v-45.747c0-6.075,4.925-11,11-11c6.075,0,11,4.925,11,11v45.747    c0,2.343,1.906,4.249,4.249,4.249c21.68,0,41.177,12.51,50.619,31.479c3.429-0.652,6.895-0.981,10.377-0.981    c15.157,0,29.546,5.861,40.516,16.505c11.122,10.791,17.247,25.083,17.247,40.242c0,6.48-1.087,12.844-3.229,18.912    C415.682,448.184,411.436,451.007,406.904,451.007z"/>
		<path d="M501,429.004h-19.498V165.523c0-22.882-18.616-41.498-41.498-41.498H324.976c-7.291-43.611-27.627-84.722-59.056-118.434    c-0.523-0.56-0.93-0.99-1.195-1.29C262.652,1.601,259.433,0,256,0c-3.417,0-6.623,1.587-8.697,4.265    c-0.259,0.289-0.65,0.7-1.153,1.235c-31.506,33.536-51.876,74.685-59.15,118.524H71.996c-22.882,0-41.498,18.616-41.498,41.498    v263.481H11c-6.075,0-11,4.925-11,11C0,479.703,32.297,512,71.996,512h368.008C479.703,512,512,479.703,512,440.004    C512,433.929,507.075,429.004,501,429.004z M265.168,4.922c-0.115-0.174-0.235-0.344-0.359-0.51    C264.972,4.621,265.085,4.796,265.168,4.922z M247.217,4.378c-0.134,0.177-0.262,0.358-0.386,0.545    C246.919,4.791,247.04,4.603,247.217,4.378z M255.972,27.468c32.327,37.743,50.024,84.561,50.024,132.822    c0,51.471-15.146,87.587-24.196,109.165c-1.05,2.505-2.037,4.857-2.927,7.059h-45.755c-0.826-2.035-1.751-4.238-2.764-6.654    c-2.08-4.959-4.481-10.69-6.946-17.182c-0.224-1.12-0.631-2.208-1.206-3.229c-7.975-21.681-16.198-51.321-16.198-89.16    C206.004,111.773,223.683,64.957,255.972,27.468z M52.498,165.523c0-10.751,8.747-19.498,19.498-19.498h112.481    c-0.305,4.737-0.473,9.493-0.473,14.266c0,38.559,7.75,69.017,15.759,91.833l-27.761,27.59c-4.31,4.282-4.331,11.247-0.049,15.556    c2.15,2.164,4.977,3.246,7.803,3.246c2.804,0,5.608-1.065,7.754-3.197l20.941-20.812c0.554,1.33,1.096,2.624,1.617,3.864    c1.817,4.333,3.423,8.161,4.481,11.112c0.928,5.137,5.421,9.033,10.825,9.033h61.125c4.762,0,8.983-3.063,10.458-7.591    c1.061-3.251,2.947-7.75,5.132-12.96c0.492-1.172,1.004-2.395,1.526-3.647l20.831,20.953c2.15,2.163,4.975,3.245,7.801,3.245    c2.805,0,5.609-1.065,7.755-3.199c4.309-4.283,4.329-11.248,0.046-15.556l-27.721-27.884    c7.963-22.706,15.671-53.051,15.671-91.586c0-4.771-0.169-9.527-0.478-14.266h112.485c10.751,0,19.498,8.747,19.498,19.498    v263.481H52.498V165.523z M440.004,490H71.996c-23.79,0-43.753-16.701-48.777-38.996h465.562    C483.757,473.299,463.794,490,440.004,490z"/>
	</g>
	<path d="M256,177.54c-15.811-0.304-13.409-24.589,2.15-21.79C270.888,157.982,268.925,177.838,256,177.54z"/>
</g>















</svg>
