<?xml version="1.0" encoding="iso-8859-1"?>
<!-- Generator: Adobe Illustrator 28.0.0, SVG Export Plug-In . SVG Version: 6.00 Build 0)  -->
<svg version="1.1" id="Layer_1" xmlns="http://www.w3.org/2000/svg" xmlns:xlink="http://www.w3.org/1999/xlink" x="0px" y="0px"
	 viewBox="0 0 511.997 511.997" style="enable-background:new 0 0 511.997 511.997;" xml:space="preserve">
<g>
	<g>
		<path style="fill:#33CCCC;" d="M216.662,380.734c-43.884,0-85.098-17.051-116.05-48.011c-63.988-64.006-63.988-168.151,0-232.158
			c30.95-30.958,72.168-48.011,116.049-48.011c0.003,0-0.002,0,0,0c43.884,0,85.098,17.051,116.05,48.012
			c63.988,64.006,63.988,168.151,0,232.157l0,0l0,0C301.761,363.684,260.547,380.734,216.662,380.734z M216.662,74.555
			c-38.007,0-73.695,14.762-100.491,41.565c-55.414,55.43-55.414,145.62,0,201.049c26.796,26.804,62.485,41.565,100.491,41.565
			c38.007,0,73.695-14.762,100.491-41.565l0,0c55.414-55.429,55.414-145.619,0-201.048
			C290.357,89.316,254.669,74.555,216.662,74.555z"/>
	</g>
	<g>
		<path d="M216.662,175.123c-22.888,0-41.508,18.623-41.508,41.514c0,22.892,18.621,41.515,41.508,41.515
			s41.508-18.623,41.508-41.515C258.17,193.746,239.55,175.123,216.662,175.123z M216.662,236.151
			c-10.757,0-19.508-8.754-19.508-19.515c0-10.76,8.751-19.514,19.508-19.514s19.508,8.754,19.508,19.514
			C236.17,227.397,227.419,236.151,216.662,236.151z"/>
		<path d="M308.349,187.114l-5.139-1.397c-0.988-2.731-2.107-5.416-3.349-8.041l2.602-4.531c2.474-4.309,1.752-9.74-1.761-13.254
			l-27.298-27.307c-3.516-3.515-8.949-4.24-13.26-1.76l-4.525,2.6c-2.623-1.241-5.304-2.359-8.034-3.349l-1.397-5.141
			c-1.298-4.776-5.625-8.098-10.574-8.116l-38.483-0.146h-0.042c-4.989,0-9.356,3.359-10.633,8.186l-1.333,5.037
			c-2.671,0.955-5.296,2.034-7.865,3.234l-4.591-2.661c-4.314-2.5-9.77-1.786-13.295,1.74l-27.125,27.134
			c-3.524,3.525-4.237,8.979-1.739,13.292l2.662,4.594c-1.2,2.569-2.28,5.197-3.235,7.871l-5.034,1.333
			c-4.839,1.282-8.203,5.669-8.184,10.676l0.146,38.494c0.019,4.948,3.339,9.274,8.114,10.572l5.139,1.397
			c0.989,2.731,2.107,5.416,3.349,8.041l-2.602,4.531c-2.474,4.309-1.753,9.741,1.76,13.255l27.298,27.306
			c3.516,3.515,8.95,4.238,13.26,1.76l4.526-2.601c2.623,1.242,5.305,2.359,8.034,3.349l1.396,5.142
			c1.297,4.776,5.625,8.098,10.574,8.116l38.484,0.146h0.042c4.989,0,9.356-3.359,10.633-8.186l1.333-5.037
			c2.671-0.955,5.297-2.035,7.865-3.234l4.589,2.66c4.313,2.503,9.771,1.787,13.296-1.739l27.125-27.133
			c3.523-3.524,4.237-8.978,1.739-13.29l-2.661-4.596c1.199-2.57,2.279-5.198,3.235-7.872l5.034-1.333
			c4.839-1.282,8.202-5.669,8.184-10.676l-0.146-38.494C316.445,192.738,313.124,188.412,308.349,187.114z M291.929,228.466
			c-3.77,0.999-6.729,3.918-7.777,7.674c-1.453,5.197-3.514,10.216-6.127,14.917c-1.88,3.384-1.844,7.507,0.097,10.856l1.423,2.457
			l-15.171,15.175l-2.45-1.42c-3.35-1.942-7.478-1.979-10.863-0.097c-4.7,2.614-9.717,4.676-14.911,6.128
			c-3.756,1.05-6.675,4.01-7.673,7.779l-0.701,2.648l-21.605-0.081l-0.759-2.796c-1.009-3.715-3.887-6.633-7.588-7.691
			c-5.229-1.497-10.282-3.604-15.017-6.264c-3.379-1.896-7.507-1.877-10.867,0.054l-2.416,1.388l-15.391-15.395l1.391-2.422
			c1.929-3.358,1.949-7.483,0.054-10.861c-2.66-4.738-4.766-9.793-6.262-15.022c-1.059-3.701-3.976-6.58-7.69-7.591l-2.794-0.759
			l-0.082-21.62l2.647-0.7c3.769-0.999,6.728-3.918,7.778-7.673c1.453-5.199,3.514-10.218,6.126-14.917
			c1.881-3.385,1.845-7.509-0.096-10.859l-1.422-2.455l15.171-15.176l2.451,1.421c3.352,1.941,7.476,1.977,10.861,0.097
			c4.702-2.614,9.719-4.676,14.912-6.128c3.755-1.05,6.674-4.01,7.672-7.779l0.701-2.648l21.606,0.081l0.759,2.796
			c1.009,3.716,3.888,6.633,7.589,7.691c5.231,1.497,10.283,3.604,15.015,6.263c3.38,1.898,7.508,1.878,10.869-0.053l2.415-1.388
			l15.392,15.396l-1.392,2.423c-1.928,3.358-1.948,7.484-0.052,10.861c2.659,4.736,4.766,9.79,6.261,15.021
			c1.059,3.701,3.976,6.58,7.69,7.591l2.794,0.759l0.082,21.619L291.929,228.466z"/>
		<path d="M498.879,435.833l-66.389-66.406c-2.063-2.063-4.861-3.223-7.779-3.223s-5.717,1.159-7.779,3.223l-15.989,15.994
			l-23.548-23.556c36.1-39.885,55.853-91.034,55.853-145.22c0-57.867-22.528-112.271-63.436-153.19
			C328.905,22.535,274.515,0,216.662,0C158.809,0,104.42,22.535,63.511,63.454c-40.907,40.919-63.435,95.323-63.435,153.19
			s22.528,112.271,63.435,153.19c40.908,40.919,95.298,63.454,153.151,63.454c54.171,0,105.305-19.759,145.179-55.867l23.548,23.556
			l-15.993,15.998c-4.294,4.296-4.294,11.259,0,15.555l66.375,66.394c8.428,8.43,19.635,13.072,31.555,13.072
			s23.126-4.643,31.554-13.072C516.268,481.53,516.268,453.228,498.879,435.833z M216.662,411.289
			c-51.975,0-100.84-20.246-137.592-57.009c-75.871-75.893-75.871-199.379,0-275.271C115.823,42.246,164.687,22,216.662,22
			c51.976,0,100.84,20.246,137.592,57.009c75.871,75.893,75.871,199.379,0,275.271C317.502,391.043,268.638,411.289,216.662,411.289
			z M467.325,489.997c-6.043,0-11.724-2.354-15.996-6.627l-58.601-58.616l31.982-31.991l58.609,58.625
			c8.815,8.817,8.815,23.165,0,31.982C479.048,487.644,473.368,489.997,467.325,489.997z"/>
	</g>
</g>
<g>
</g>
<g>
</g>
<g>
</g>
<g>
</g>
<g>
</g>
<g>
</g>
<g>
</g>
<g>
</g>
<g>
</g>
<g>
</g>
<g>
</g>
<g>
</g>
<g>
</g>
<g>
</g>
<g>
</g>
</svg>
