<?xml version="1.0" encoding="iso-8859-1"?>
<!-- Generator: Adobe Illustrator 26.5.3, SVG Export Plug-In . SVG Version: 6.00 Build 0)  -->
<svg version="1.1" id="Capa_1" xmlns="http://www.w3.org/2000/svg" xmlns:xlink="http://www.w3.org/1999/xlink" x="0px" y="0px"
	 viewBox="0 0 512.002 512.002" style="enable-background:new 0 0 512.002 512.002;" xml:space="preserve">
<g>
	<g>
		<g>
			<path style="fill:#33CCCC;" d="M402.769,163.095c-29.772,0-53.994-24.222-53.994-53.995s24.222-53.995,53.994-53.995
				c29.773,0,53.995,24.222,53.995,53.995S432.542,163.095,402.769,163.095z M402.769,77.105c-17.642,0-31.994,14.353-31.994,31.995
				s14.353,31.995,31.994,31.995c17.643,0,31.995-14.353,31.995-31.995S420.411,77.105,402.769,77.105z"/>
		</g>
	</g>
	<g>
		<g>
			<path d="M506.5,125.612l-8.169-4.716c0.48-3.913,0.723-7.858,0.723-11.795s-0.242-7.882-0.723-11.796l8.169-4.716
				c2.526-1.458,4.37-3.861,5.125-6.679c0.755-2.818,0.36-5.821-1.099-8.347L483.96,31.549c-1.459-2.526-3.861-4.37-6.68-5.125
				c-2.817-0.754-5.82-0.36-8.347,1.099l-8.173,4.719c-6.313-4.777-13.144-8.724-20.426-11.803v-9.428c0-6.075-4.925-11-11-11
				h-53.132c-6.075,0-11,4.925-11,11v9.428c-7.282,3.079-14.113,7.026-20.426,11.803l-8.174-4.719
				c-5.261-3.037-11.989-1.234-15.026,4.026l-26.565,46.014c-3.037,5.261-1.234,11.989,4.026,15.026l8.169,4.716
				c-0.48,3.914-0.723,7.858-0.723,11.796c0,3.045,0.149,6.094,0.437,9.13H84.03c-22.99,0-41.694,18.704-41.694,41.694v19.699h22
				v-19.699c0-10.859,8.834-19.694,19.694-19.694h210.773c0.071,0.136,0.132,0.274,0.209,0.408l26.565,46.013
				c3.036,5.26,9.763,7.065,15.026,4.026l8.174-4.719c6.312,4.777,13.144,8.724,20.426,11.803v9.428c0,6.075,4.925,11,11,11h42.133
				v137.437H245v22h173.336v10.967c0,10.859-8.834,19.694-19.693,19.694H84.03c-10.859,0-19.694-8.834-19.694-19.694v-19.574h-22
				v19.574c0,22.99,18.704,41.694,41.694,41.694H191.11v35.068c0,13.584-11.052,24.636-24.636,24.636h-15.269
				c-6.075,0-11,4.925-11,11s4.925,11,11,11h180.261c6.075,0,11-4.925,11-11s-4.925-11-11-11h-15.27
				c-13.584,0-24.636-11.052-24.636-24.636v-35.068h107.081c22.99,0,41.693-18.704,41.693-41.694l-0.001-190.832
				c7.282-3.079,14.112-7.025,20.425-11.803l8.174,4.719c2.526,1.458,5.529,1.854,8.347,1.099c2.818-0.755,5.221-2.598,6.68-5.125
				l26.566-46.013C513.563,135.377,511.762,128.65,506.5,125.612z M276.625,489.991h-70.579c4.47-7.154,7.064-15.596,7.064-24.636
				v-35.068h56.451v35.068C269.562,474.395,272.155,482.837,276.625,489.991z M475.478,93.829c1.046,5.01,1.576,10.148,1.576,15.271
				c0,5.123-0.53,10.261-1.576,15.271c-0.971,4.65,1.153,9.399,5.268,11.774l5.229,3.019l-15.566,26.961l-5.247-3.03
				c-4.119-2.378-9.3-1.839-12.842,1.335c-7.711,6.911-16.596,12.045-26.408,15.26c-4.52,1.48-7.575,5.698-7.575,10.453v6.046
				h-31.132v-6.046c0-4.755-3.056-8.973-7.575-10.453c-9.812-3.215-18.698-8.349-26.408-15.26c-3.541-3.173-8.72-3.714-12.842-1.335
				l-5.248,3.03l-15.565-26.96l5.229-3.019c4.114-2.375,6.238-7.124,5.268-11.774c-1.046-5.01-1.576-10.148-1.576-15.271
				c0-5.123,0.53-10.261,1.576-15.271c0.972-4.65-1.153-9.399-5.268-11.774l-5.229-3.019l15.565-26.961l5.248,3.03
				c4.12,2.378,9.3,1.839,12.842-1.335c7.71-6.911,16.596-12.044,26.408-15.26c4.52-1.48,7.575-5.698,7.575-10.453v-6.046h31.132
				v6.046c0,4.755,3.056,8.973,7.575,10.453c9.812,3.215,18.697,8.349,26.408,15.26c3.542,3.175,8.724,3.713,12.842,1.335
				l5.247-3.03l15.566,26.961l-5.229,3.019C476.631,84.43,474.507,89.179,475.478,93.829z"/>
			<path d="M290.336,319.898H384c6.075,0,11-4.925,11-11s-4.925-11-11-11h-93.664c-6.075,0-11,4.925-11,11
				S284.261,319.898,290.336,319.898z"/>
			<path d="M290.336,275.898H384c6.075,0,11-4.925,11-11s-4.925-11-11-11h-93.664c-6.075,0-11,4.925-11,11
				S284.261,275.898,290.336,275.898z"/>
		</g>
		<g>
			<path style="fill:#33CCCC;" d="M245,377.646H11c-6.075,0-11-4.925-11-11V181.911c0-6.075,4.925-11,11-11h83.159
				c4.013,0,7.708,2.186,9.641,5.703l13.479,24.529H245c6.075,0,11,4.925,11,11v154.503C256,372.721,251.075,377.646,245,377.646z
				 M22,355.646h212V223.143H110.771c-4.013,0-7.708-2.186-9.641-5.703l-13.479-24.529H22V355.646z"/>
		</g>
		<g>
			<g>
				<g>
					<path style="fill:#33CCCC;" d="M177.183,324.558c-2.71,0-5.424-0.995-7.55-3.002c-4.417-4.171-4.617-11.133-0.446-15.55
						l15.685-16.611l-15.685-16.611c-4.171-4.417-3.971-11.379,0.446-15.55c4.418-4.17,11.379-3.971,15.55,0.446l22.815,24.163
						c4.002,4.239,4.002,10.865,0,15.104l-22.815,24.163C183.019,323.401,180.104,324.558,177.183,324.558z"/>
				</g>
				<g>
					<path style="fill:#33CCCC;" d="M78.817,324.558c-2.921,0-5.836-1.156-8-3.448l-22.815-24.163
						c-4.002-4.239-4.002-10.865,0-15.104l22.815-24.163c4.171-4.418,11.132-4.618,15.55-0.446
						c4.417,4.171,4.617,11.133,0.446,15.55l-15.685,16.611l15.685,16.611c4.171,4.417,3.971,11.379-0.446,15.55
						C84.242,323.562,81.527,324.558,78.817,324.558z"/>
				</g>
				<g id="XMLID_610_">
					<path style="fill:#33CCCC;" d="M122.828,328.529c-0.662,0-1.333-0.06-2.006-0.184c-5.975-1.101-9.925-6.837-8.824-12.812
						l10.369-56.266c1.102-5.975,6.838-9.923,12.812-8.824c5.975,1.101,9.925,6.837,8.824,12.812l-10.369,56.266
						C132.656,324.822,128.031,328.529,122.828,328.529z"/>
				</g>
			</g>
		</g>
	</g>
</g>
<g>
</g>
<g>
</g>
<g>
</g>
<g>
</g>
<g>
</g>
<g>
</g>
<g>
</g>
<g>
</g>
<g>
</g>
<g>
</g>
<g>
</g>
<g>
</g>
<g>
</g>
<g>
</g>
<g>
</g>
</svg>
