<?xml version="1.0" encoding="iso-8859-1"?>
<!-- Generator: Adobe Illustrator 27.0.0, SVG Export Plug-In . SVG Version: 6.00 Build 0)  -->
<svg version="1.1" id="Capa_1" xmlns="http://www.w3.org/2000/svg" xmlns:xlink="http://www.w3.org/1999/xlink" x="0px" y="0px"
	 viewBox="0 0 512.013 512.013" style="enable-background:new 0 0 512.013 512.013;" xml:space="preserve">
<g>
	<g>
		<path d="M461.006,0h-450c-6.075,0-11,4.925-11,11v420c0,6.075,4.925,11,11,11h161.271c6.075,0,11-4.925,11-11s-4.925-11-11-11
			H22.006V112h144c3.395,0,6.599-1.567,8.683-4.247L206.385,67h243.621v101.315c0,6.075,4.925,11,11,11s11-4.925,11-11V11
			C472.006,4.925,467.081,0,461.006,0z M201.005,45c-3.395,0-6.599,1.567-8.683,4.247L160.626,90H22.006V22h428v23H201.005z"/>
		<path d="M461.006,342.685c-6.075,0-11,4.925-11,11V420h-200.52c-6.075,0-11,4.925-11,11s4.925,11,11,11h211.52
			c6.075,0,11-4.925,11-11v-77.315C472.006,347.61,467.081,342.685,461.006,342.685z"/>
		<path d="M56.014,45h-0.008c-6.075,0-10.996,4.925-10.996,11s4.929,11,11.004,11s11-4.925,11-11S62.089,45,56.014,45z"/>
		<path d="M101.013,45h-0.007c-6.075,0-10.996,4.925-10.996,11s4.928,11,11.003,11s11-4.925,11-11S107.088,45,101.013,45z"/>
		<path d="M146.013,45h-0.007c-6.075,0-10.996,4.925-10.996,11s4.928,11,11.003,11s11-4.925,11-11S152.088,45,146.013,45z"/>
		<path d="M61.006,182.001h110c6.075,0,11-4.925,11-11s-4.925-11-11-11h-110c-6.075,0-11,4.925-11,11S54.931,182.001,61.006,182.001
			z"/>
		<path d="M275.738,306c0-6.075-4.925-11-11-11H72.006v-68h192.731c6.075,0,11-4.925,11-11s-4.925-11-11-11H61.006
			c-6.075,0-11,4.925-11,11v90c0,6.075,4.925,11,11,11h203.731C270.813,317,275.738,312.075,275.738,306z"/>
		<path d="M61.006,340c-6.075,0-11,4.925-11,11s4.925,11,11,11h110c6.075,0,11-4.925,11-11s-4.925-11-11-11H61.006z"/>
		<path d="M256.596,250h-145.59c-6.075,0-11,4.925-11,11s4.925,11,11,11h145.59c6.075,0,11-4.925,11-11S262.671,250,256.596,250z"/>
		<path d="M392.007,205.245c0-6.075-4.925-11-11-11h-0.01c-6.075,0-10.995,4.925-10.995,11s4.93,11,11.005,11
			S392.007,211.32,392.007,205.245z"/>
		<path d="M357.978,254.655c1.419,5.408,6.619,8.813,12.029,8.12v42.98h-1.391c-6.075,0-11,4.925-11,11s4.925,11,11,11h24.78
			c6.075,0,11-4.925,11-11s-4.925-11-11-11h-1.39V248.61c0-3.41-1.581-6.627-4.281-8.71c-2.701-2.083-6.217-2.795-9.512-1.93
			l-12.39,3.252C359.948,242.765,356.436,248.779,357.978,254.655z"/>
	</g>
	<path style="fill:#33CCCC;" d="M381.006,130c-72.233,0-131,58.767-131,131c0,32.165,11.653,61.661,30.958,84.485l-19.529,19.529
		l-9.899-9.899c-2.063-2.063-4.861-3.222-7.778-3.222s-5.715,1.159-7.778,3.222l-95.458,95.459
		c-6.781,6.78-10.516,15.82-10.516,25.456c0,9.635,3.734,18.676,10.515,25.456c7.02,7.019,16.235,10.527,25.456,10.527
		c9.217,0,18.438-3.51,25.455-10.527l95.46-95.459c2.062-2.063,3.222-4.861,3.222-7.778s-1.159-5.715-3.222-7.778l-9.899-9.899
		l19.529-19.529C319.346,380.348,348.841,392,381.006,392c72.234,0,131.001-58.767,131.001-131S453.24,130,381.006,130z
		 M175.875,485.93c-5.459,5.459-14.341,5.458-19.798,0c-2.625-2.625-4.071-6.141-4.071-9.899s1.445-7.274,4.071-9.899l87.681-87.682
		l19.799,19.799L175.875,485.93z M381.006,370c-60.103,0-109-48.897-109-109s48.897-109,109-109
		c60.104,0,109.001,48.897,109.001,109S441.11,370,381.006,370z"/>
</g>
<g>
</g>
<g>
</g>
<g>
</g>
<g>
</g>
<g>
</g>
<g>
</g>
<g>
</g>
<g>
</g>
<g>
</g>
<g>
</g>
<g>
</g>
<g>
</g>
<g>
</g>
<g>
</g>
<g>
</g>
</svg>
