<?xml version="1.0" encoding="iso-8859-1"?>
<!-- Generator: Adobe Illustrator 26.5.3, SVG Export Plug-In . SVG Version: 6.00 Build 0)  -->
<svg version="1.1" id="Capa_1" xmlns="http://www.w3.org/2000/svg" xmlns:xlink="http://www.w3.org/1999/xlink" x="0px" y="0px"
	 viewBox="0 0 512 512" style="enable-background:new 0 0 512 512;" xml:space="preserve">
<g>
	<g>
		<g>
			<g>
				<g>
					<g>
						<path style="fill:#33CCCC;" d="M283,427.597h-54c-6.075,0-11-4.925-11-11v-54c0-6.075,4.925-11,11-11h54
							c6.075,0,11,4.925,11,11v54C294,422.672,289.075,427.597,283,427.597z M240,405.597h32v-32h-32V405.597z"/>
					</g>
				</g>
			</g>
		</g>
	</g>
	<g>
		<g>
			<path d="M420,225.635h-22V99.168c0-6.075,4.925-11,11-11h44v22h-33V225.635z"/>
		</g>
		<g>
			<rect x="316.36" y="59" width="22" height="113.961"/>
		</g>
		<g>
			<path style="fill:#33CCCC;" d="M327.36,70c-19.299,0-35-15.701-35-35s15.701-35,35-35s35,15.701,35,35S346.659,70,327.36,70z
				 M327.36,22c-7.168,0-13,5.832-13,13s5.832,13,13,13s13-5.832,13-13S334.529,22,327.36,22z"/>
		</g>
		<g>
			<path d="M97.339,256.367C85.3,244.953,78.396,228.895,78.396,212.31c0-33.471,27.23-60.701,60.701-60.701
				s60.701,27.23,60.701,60.701c0,5.352-0.699,10.665-2.077,15.791l-21.245-5.713c0.877-3.263,1.322-6.654,1.322-10.078
				c0-21.34-17.361-38.701-38.701-38.701s-38.701,17.361-38.701,38.701c0,10.729,4.29,20.706,12.081,28.092L97.339,256.367z"/>
		</g>
		<g>
			<path d="M49.497,319.423L22.995,292.92c-4.295-4.296-4.295-11.261,0-15.557l9.431-9.43c-3.276-6.267-5.982-12.793-8.098-19.527
				H11c-6.075,0-11-4.925-11-11v-50.193c0-6.075,4.925-11,11-11h13.328c2.115-6.734,4.821-13.26,8.098-19.527l-9.431-9.43
				c-4.295-4.296-4.295-11.261,0-15.557l35.492-35.492c2.063-2.062,4.861-3.222,7.778-3.222s5.715,1.159,7.778,3.222l9.421,9.421
				c6.324-3.327,12.854-6.062,19.537-8.18V84.213c0-6.075,4.925-11,11-11h50.193c6.075,0,11,4.925,11,11v13.327
				c6.733,2.115,13.26,4.822,19.527,8.098l9.43-9.431c2.063-2.062,4.861-3.222,7.778-3.222l0,0c2.917,0,5.715,1.159,7.778,3.222
				l35.492,35.492c4.295,4.296,4.295,11.261,0,15.557l-9.473,9.473c5.276,10.279,10.386,23.581,12.229,35.478l-21.74,3.368
				c-1.866-12.042-8.309-26.555-13.505-34.943c-2.689-4.341-2.038-9.961,1.572-13.572l7.583-7.582l-19.936-19.936l-7.582,7.582
				c-3.611,3.61-9.231,4.261-13.571,1.573c-9.021-5.589-18.812-9.648-29.099-12.065c-4.97-1.168-8.483-5.603-8.483-10.708v-10.71
				H125v10.605c0,5.106-3.514,9.541-8.484,10.708c-10.105,2.375-19.896,6.469-29.099,12.17c-4.34,2.689-9.96,2.038-13.571-1.573
				l-7.582-7.582l-19.936,19.936l7.583,7.582c3.61,3.611,4.262,9.231,1.572,13.572c-5.588,9.021-9.648,18.81-12.065,29.098
				c-1.168,4.97-5.603,8.484-10.708,8.484H22v28.193h10.71c5.106,0,9.541,3.514,10.708,8.484
				c2.417,10.288,6.477,20.077,12.065,29.098c2.689,4.341,2.038,9.961-1.572,13.572l-7.583,7.582l18.725,18.725L49.497,319.423z"/>
		</g>
		<g>
			<path style="fill:#33CCCC;" d="M417.063,471.96H327.36v-22h89.703c40.217,0,72.937-32.719,72.937-72.937
				c0-35.748-25.551-65.987-60.754-71.903c-5.277-0.887-9.151-5.444-9.177-10.795c-0.284-59.557-48.971-108.01-108.531-108.01
				c-39.353,0-75.711,21.386-94.886,55.811c-1.557,2.796-4.255,4.775-7.389,5.421c-3.134,0.646-6.395-0.105-8.93-2.057
				c-19.026-14.645-44.199-17.139-65.695-6.509c-23.657,11.698-37.423,37.159-34.254,63.357c0.367,3.03-0.542,6.076-2.509,8.41
				c-1.967,2.333-4.815,3.745-7.863,3.897c-36.033,1.8-64.258,31.5-64.258,67.613c0,37.33,30.371,67.701,67.701,67.701h91.186v22
				H93.454c-49.461,0-89.701-40.24-89.701-89.701c0-44.117,31.796-81.009,74.185-88.366c0.365-31.373,18.293-60.463,46.947-74.632
				c25.418-12.568,54.63-11.579,78.767,2.093c24.188-35.452,64.525-57.039,107.886-57.039c34.757,0,67.463,13.505,92.093,38.027
				c22.514,22.415,35.855,51.617,38.101,83.011c18.402,4.952,35.042,15.42,47.549,30.058c14.651,17.148,22.72,39.03,22.72,61.613
				C512,429.372,469.412,471.96,417.063,471.96z"/>
		</g>
		<g>
			<path style="fill:#33CCCC;" d="M477,134.168c-19.299,0-35-15.701-35-35s15.701-35,35-35s35,15.701,35,35
				S496.299,134.168,477,134.168z M477,86.168c-7.168,0-13,5.832-13,13s5.832,13,13,13s13-5.832,13-13S484.168,86.168,477,86.168z"
				/>
		</g>
		<path d="M368.481,403.465H338.36v-27.736h15.361c6.075,0,11-4.925,11-11s-4.925-11-11-11H338.36v-35.492c0-6.075-4.925-11-11-11
			h-35.492v-30.121c0-6.075-4.925-11-11-11s-11,4.925-11,11v30.121h-27.736v-15.361c0-6.075-4.925-11-11-11s-11,4.925-11,11v15.361
			H184.64c-6.075,0-11,4.925-11,11v35.492h-30.121c-6.075,0-11,4.925-11,11s4.925,11,11,11h30.121v27.736h-15.361
			c-6.075,0-11,4.925-11,11s4.925,11,11,11h15.361v35.492c0,6.075,4.925,11,11,11h35.428V501c0,6.075,4.925,11,11,11s11-4.925,11-11
			v-29.042h27.736v14.283c0,6.075,4.925,11,11,11s11-4.925,11-11v-14.283h35.557c6.075,0,11-4.925,11-11v-35.492h30.121
			c6.075,0,11-4.925,11-11S374.556,403.465,368.481,403.465z M316.36,449.958H195.64v-120.72H316.36V449.958z"/>
	</g>
</g>
<g>
</g>
<g>
</g>
<g>
</g>
<g>
</g>
<g>
</g>
<g>
</g>
<g>
</g>
<g>
</g>
<g>
</g>
<g>
</g>
<g>
</g>
<g>
</g>
<g>
</g>
<g>
</g>
<g>
</g>
</svg>
