<?xml version="1.0" encoding="iso-8859-1"?>
<!-- Generator: Adobe Illustrator 26.5.3, SVG Export Plug-In . SVG Version: 6.00 Build 0)  -->
<svg version="1.1" id="Capa_1" xmlns="http://www.w3.org/2000/svg" xmlns:xlink="http://www.w3.org/1999/xlink" x="0px" y="0px"
	 viewBox="0 0 512 512" style="enable-background:new 0 0 512 512;" xml:space="preserve">
<g>
	<g>
		<g>
			<rect x="285.125" y="460.875" style="fill:#33CCCC;" width="113.624" height="22"/>
		</g>
		<g>
			<rect x="113.25" y="460.875" style="fill:#33CCCC;" width="113.624" height="22"/>
		</g>
		<g>
			<rect x="245" y="388.646" style="fill:#33CCCC;" width="22" height="54.104"/>
		</g>
		<g>
			<g>
				<path style="fill:#33CCCC;" d="M183.8,261.64c-7.632,0.185-13.246-8.213-10.16-15.2c3.621-8.981,16.7-8.982,20.32,0
					C197.045,253.426,191.433,261.826,183.8,261.64z"/>
			</g>
			<g>
				<path style="fill:#33CCCC;" d="M328.199,261.646h-99.612c-6.075,0-11-4.925-11-11s4.925-11,11-11h99.612c6.075,0,11,4.925,11,11
					S334.274,261.646,328.199,261.646z"/>
			</g>
		</g>
		<g>
			<g>
				<path style="fill:#33CCCC;" d="M183.8,353.649c-8.629,0.123-14.05-10.002-9.15-17.109c4.673-7.258,16.149-6.137,19.31,1.9
					C197.054,345.431,191.429,353.81,183.8,353.649z"/>
			</g>
			<g>
				<path style="fill:#33CCCC;" d="M328.199,353.646h-99.612c-6.075,0-11-4.925-11-11s4.925-11,11-11h99.612c6.075,0,11,4.925,11,11
					S334.274,353.646,328.199,353.646z"/>
			</g>
		</g>
		<g>
			<path d="M487.404,151.096c-12.506-14.639-29.147-25.106-47.549-30.058c-2.245-31.394-15.586-60.596-38.101-83.012
				C377.124,13.505,344.418,0,309.661,0C266.3,0,225.963,21.587,201.775,57.039c-24.137-13.672-53.35-14.662-78.767-2.094
				c-28.652,14.169-46.579,43.264-46.947,74.633c-42.389,7.357-74.185,44.249-74.185,88.366c0,49.461,40.24,89.701,89.701,89.701
				h34.877c-7.547,9.668-12.06,21.813-12.06,35c0,31.43,25.57,57,57,57h169.212c31.43,0,57-25.57,57-57
				c0-13.187-4.514-25.332-12.06-35h29.641c52.348,0,94.937-42.588,94.937-94.937C510.124,190.125,502.055,168.244,487.404,151.096z
				 M136.394,250.646c0-19.299,15.701-35,35-35h169.212c19.299,0,35,15.701,35,35s-15.701,35-35,35H171.394
				C152.095,285.646,136.394,269.944,136.394,250.646z M375.606,342.646c0,19.299-15.701,35-35,35H171.394
				c-19.299,0-35-15.701-35-35s15.701-35,35-35h169.212C359.905,307.646,375.606,323.347,375.606,342.646z M415.187,285.646h-29.641
				c7.547-9.668,12.06-21.813,12.06-35c0-31.43-25.57-57-57-57H171.394c-31.43,0-57,25.57-57,57c0,13.187,4.514,25.332,12.06,35
				H91.577c-37.33,0-67.701-30.371-67.701-67.701c0-36.113,28.226-65.812,64.258-67.613c3.048-0.152,5.896-1.564,7.863-3.897
				c1.966-2.334,2.875-5.38,2.509-8.409c-3.168-26.198,10.597-51.66,34.253-63.358c8.841-4.371,18.303-6.523,27.704-6.523
				c13.458,0,26.791,4.411,37.992,13.033c2.536,1.952,5.796,2.707,8.931,2.057c3.134-0.646,5.832-2.625,7.389-5.421
				C233.951,43.386,270.309,22,309.661,22c59.56,0,108.248,48.453,108.532,108.011c0.026,5.352,3.899,9.908,9.177,10.795
				c35.203,5.916,60.754,36.155,60.754,71.903C488.124,252.927,455.404,285.646,415.187,285.646z"/>
			<path d="M256,431.749c-22.125,0-40.125,18-40.125,40.126C215.875,494,233.875,512,256,512s40.125-18,40.125-40.125
				C296.125,449.749,278.125,431.749,256,431.749z M256,490c-9.995,0-18.125-8.131-18.125-18.125
				c0-9.995,8.131-18.126,18.125-18.126s18.125,8.131,18.125,18.126C274.125,481.869,265.995,490,256,490z"/>
			<path d="M427.875,431.749c-22.125,0-40.125,18-40.125,40.126c0,22.125,18,40.125,40.125,40.125C450,512,468,494,468,471.875
				C468,449.749,450,431.749,427.875,431.749z M427.875,490c-9.994,0-18.125-8.131-18.125-18.125
				c0-9.995,8.131-18.126,18.125-18.126c9.995,0,18.125,8.131,18.125,18.126C446,481.869,437.869,490,427.875,490z"/>
			<path d="M84.125,431.749C62,431.749,44,449.749,44,471.875C44,494,62,512,84.125,512c22.125,0,40.125-18,40.125-40.125
				C124.25,449.749,106.25,431.749,84.125,431.749z M84.125,490C74.131,490,66,481.869,66,471.875
				c0-9.995,8.131-18.126,18.125-18.126c9.994,0,18.125,8.131,18.125,18.126C102.25,481.869,94.12,490,84.125,490z"/>
		</g>
	</g>
</g>
<g>
</g>
<g>
</g>
<g>
</g>
<g>
</g>
<g>
</g>
<g>
</g>
<g>
</g>
<g>
</g>
<g>
</g>
<g>
</g>
<g>
</g>
<g>
</g>
<g>
</g>
<g>
</g>
<g>
</g>
</svg>
