<?xml version="1.0" encoding="iso-8859-1"?>
<!-- Generator: Adobe Illustrator 27.0.0, SVG Export Plug-In . SVG Version: 6.00 Build 0)  -->
<svg version="1.1" id="Capa_1" xmlns="http://www.w3.org/2000/svg" xmlns:xlink="http://www.w3.org/1999/xlink" x="0px" y="0px"
	 viewBox="0 0 512 512" style="enable-background:new 0 0 512 512;" xml:space="preserve">
<g>
	<g>
		<path d="M245,122.294v66.636c0,6.075,4.925,11,11,11s11-4.925,11-11v-66.636l13.33-13.33c4.296-4.295,4.295-11.26,0-15.556
			c-4.295-4.296-11.26-4.295-15.556,0L256,102.182l-8.773-8.773c-4.296-4.297-11.261-4.296-15.556,0
			c-4.296,4.296-4.296,11.261,0,15.556L245,122.294z"/>
		<path d="M377.759,93.758c0,6.075,4.925,11,11,11h11.925c6.075,0,11-4.925,11-11s-4.925-11-11-11h-11.925
			C382.683,82.758,377.759,87.683,377.759,93.758z"/>
		<path d="M370.982,38.381c1.866,0,3.758-0.476,5.49-1.476l10.328-5.963c5.261-3.038,7.064-9.765,4.026-15.026
			c-3.038-5.262-9.766-7.064-15.026-4.026l-10.328,5.963c-5.261,3.038-7.064,9.765-4.026,15.026
			C363.483,36.409,367.18,38.381,370.982,38.381z"/>
		<path d="M376.473,150.612c-5.26-3.037-11.989-1.234-15.026,4.026c-3.038,5.261-1.235,11.989,4.026,15.026l10.328,5.962
			c1.732,1,3.624,1.476,5.49,1.476c3.801,0,7.5-1.973,9.537-5.502c3.038-5.261,1.235-11.989-4.026-15.026L376.473,150.612z"/>
		<path d="M111.316,104.761h11.925c6.075,0,11-4.925,11-11s-4.925-11-11-11h-11.925c-6.075,0-11,4.925-11,11
			S105.24,104.761,111.316,104.761z"/>
		<path d="M125.199,30.945l10.328,5.962c1.732,1,3.624,1.476,5.49,1.476c3.801,0,7.5-1.973,9.537-5.502
			c3.038-5.261,1.235-11.989-4.026-15.026l-10.328-5.962c-5.261-3.037-11.989-1.234-15.026,4.026
			C118.135,21.18,119.938,27.907,125.199,30.945z"/>
		<path d="M135.528,150.614l-10.327,5.962c-5.261,3.038-7.064,9.765-4.026,15.026c2.038,3.529,5.735,5.502,9.537,5.502
			c1.866,0,3.758-0.476,5.49-1.476l10.327-5.962c5.261-3.038,7.064-9.765,4.026-15.026
			C147.516,149.378,140.788,147.577,135.528,150.614z"/>
		<path d="M451.94,370.164c13.295-11.054,21.774-27.712,21.774-46.313c0-33.202-27.012-60.213-60.213-60.213
			s-60.213,27.012-60.213,60.213c0,18.637,8.511,35.323,21.85,46.376c-22.025,9.756-40.297,27.671-50.735,50.549
			c-8.626-8.643-18.766-15.672-29.962-20.612c13.295-11.054,21.774-27.712,21.774-46.313c0-33.202-27.012-60.214-60.214-60.214
			c-33.202,0-60.213,27.012-60.213,60.214c0,18.601,8.478,35.259,21.774,46.313c-11.196,4.939-21.336,11.968-29.962,20.612
			c-10.438-22.878-28.709-40.793-50.734-50.549c13.339-11.054,21.85-27.74,21.85-46.376c0-33.202-27.012-60.213-60.213-60.213
			s-60.213,27.012-60.213,60.213c0,18.601,8.478,35.259,21.774,46.313C24.792,385.724,0,422.019,0,464.205V471
			c0,6.075,4.925,11,11,11h147.199c-0.462,4.003-0.7,8.076-0.7,12.205V501c0,6.075,4.925,11,11,11h175c6.075,0,11-4.925,11-11
			v-6.795c0-4.129-0.238-8.202-0.7-12.205H501c6.075,0,11-4.925,11-11v-6.795C512,422.019,487.208,385.724,451.94,370.164z
			 M375.286,323.851c0-21.071,17.143-38.213,38.213-38.213s38.213,17.143,38.213,38.213s-17.143,38.213-38.213,38.213
			S375.286,344.922,375.286,323.851z M217.786,353.852c0-21.071,17.143-38.214,38.213-38.214c21.071,0,38.214,17.143,38.214,38.214
			c0,21.071-17.143,38.213-38.214,38.213C234.929,392.065,217.786,374.922,217.786,353.852z M60.287,323.851
			c0-21.071,17.143-38.213,38.213-38.213s38.213,17.143,38.213,38.213s-17.143,38.213-38.213,38.213S60.287,344.922,60.287,323.851z
			 M22.104,460c2.095-42.242,35.56-75.936,76.396-75.936c33.582,0,63.59,23.481,73.281,57.215
			c-3.449,5.879-6.341,12.146-8.601,18.721H22.104z M179.604,490c2.095-42.242,35.56-75.935,76.396-75.935
			s74.301,33.693,76.396,75.935H179.604z M348.819,460c-2.26-6.575-5.152-12.842-8.601-18.721
			c9.691-33.734,39.699-57.215,73.282-57.215c40.836,0,74.301,33.693,76.396,75.936H348.819z"/>
	</g>
	<path style="fill:#33CCCC;" d="M256,0c-51.699,0-93.758,42.06-93.758,93.758c0,20.719,6.625,40.358,19.157,56.796
		c22.222,29.147,22.222,31.188,22.222,42.515v16.552C203.62,238.502,227.117,262,256,262s52.379-23.497,52.379-52.378v-16.552
		c0-11.326,0-13.367,22.223-42.515c12.533-16.438,19.157-36.078,19.157-56.796C349.759,42.06,307.698,0,256,0z M286.379,209.621
		c0,16.75-13.628,30.378-30.379,30.378s-30.379-13.628-30.379-30.378v-5.552h60.759V209.621z M313.107,137.215
		c-17.835,23.393-24.146,32.622-26.03,44.854h-62.154c-1.884-12.232-8.195-21.461-26.03-44.854
		c-9.585-12.572-14.652-27.599-14.652-43.457C184.241,54.19,216.432,22,256,22s71.759,32.19,71.759,71.758
		C327.759,109.616,322.692,124.643,313.107,137.215z"/>
</g>
<g>
</g>
<g>
</g>
<g>
</g>
<g>
</g>
<g>
</g>
<g>
</g>
<g>
</g>
<g>
</g>
<g>
</g>
<g>
</g>
<g>
</g>
<g>
</g>
<g>
</g>
<g>
</g>
<g>
</g>
</svg>
