<?xml version="1.0" encoding="iso-8859-1"?>
<!-- Generator: Adobe Illustrator 26.5.3, SVG Export Plug-In . SVG Version: 6.00 Build 0)  -->
<svg version="1.1" id="Capa_1" xmlns="http://www.w3.org/2000/svg" xmlns:xlink="http://www.w3.org/1999/xlink" x="0px" y="0px"
	 viewBox="0 0 512 512" style="enable-background:new 0 0 512 512;" xml:space="preserve">
<g>
	<g>
		<g>
			<path style="fill:#33CCCC;" d="M383.923,254.999h-22v-93.078c0-3.359,1.534-6.534,4.167-8.62l39.911-31.638V67.001h22v59.978
				c0,3.359-1.534,6.534-4.167,8.62l-39.911,31.638V254.999z"/>
		</g>
		<g>
			<path style="fill:#33CCCC;" d="M466.6,222.676c-6.075,0-11-4.925-11-11v-72.58c0-6.075,4.925-11,11-11H501
				c6.075,0,11,4.925,11,11s-4.925,11-11,11h-23.4v61.58C477.6,217.751,472.675,222.676,466.6,222.676z"/>
		</g>
		<g>
			<path style="fill:#33CCCC;" d="M45.4,222.676c-6.075,0-11-4.925-11-11v-61.58H11c-6.075,0-11-4.925-11-11s4.925-11,11-11h34.4
				c6.075,0,11,4.925,11,11v72.58C56.4,217.751,51.476,222.676,45.4,222.676z"/>
		</g>
		<g>
			<path style="fill:#33CCCC;" d="M150.077,254.999h-22v-87.761L88.166,135.6c-2.633-2.086-4.167-5.261-4.167-8.62V67.001h22v54.661
				l39.911,31.638c2.633,2.086,4.167,5.261,4.167,8.62V254.999z"/>
		</g>
		<g>
			<path style="fill:#33CCCC;" d="M267,87.168v84.885c0,6.075-4.925,11-11,11s-11-4.925-11-11V87.168H267z"/>
		</g>
		<g>
			<path d="M417,78c21.505,0,39-17.495,39-39S438.505,0,417,0s-39,17.495-39,39S395.495,78,417,78z M417,22c9.374,0,17,7.626,17,17
				s-7.626,17-17,17s-17-7.626-17-17S407.626,22,417,22z"/>
			<path d="M95,78c21.505,0,39-17.495,39-39S116.505,0,95,0S56,17.495,56,39S73.495,78,95,78z M95,22c9.374,0,17,7.626,17,17
				s-7.626,17-17,17s-17-7.626-17-17S85.626,22,95,22z"/>
			<path d="M256,98.168c21.505,0,39-17.495,39-39s-17.495-39-39-39s-39,17.495-39,39S234.495,98.168,256,98.168z M256,42.168
				c9.374,0,17,7.626,17,17s-7.626,17-17,17s-17-7.626-17-17S246.626,42.168,256,42.168z"/>
			<path d="M501,244.998H338.523c-6.075,0-11,4.927-11,11.002c0,39.438-32.085,71.523-71.523,71.523s-71.523-32.085-71.523-71.525
				c0-6.075-4.925-11-11-11H11c-6.075,0-11,4.925-11,11v43.708c0,5.521,4.093,10.187,9.566,10.906l22.244,2.924
				c5.424,21.222,13.803,41.446,24.982,60.3l-13.664,17.803c-3.361,4.379-2.956,10.572,0.947,14.476l61.809,61.809
				c3.905,3.904,10.098,4.309,14.477,0.947l17.803-13.665c18.855,11.181,39.079,19.56,60.3,24.983l2.925,22.245
				c0.72,5.474,5.386,9.566,10.906,9.566h87.41c5.521,0,10.187-4.092,10.906-9.566l2.925-22.245
				c21.222-5.424,41.445-13.803,60.3-24.983l17.803,13.665c4.379,3.362,10.571,2.956,14.477-0.947l61.809-61.809
				c3.903-3.904,4.309-10.097,0.947-14.476l-13.664-17.803c11.18-18.854,19.559-39.078,24.982-60.3l22.244-2.924
				c5.474-0.72,9.566-5.385,9.566-10.906v-43.708C512,249.922,507.075,244.998,501,244.998z M490,290.057l-20.19,2.654
				c-4.592,0.604-8.313,4.018-9.309,8.541c-5.281,23.979-14.669,46.638-27.903,67.349c-2.493,3.902-2.275,8.947,0.544,12.621
				l12.403,16.16l-48.164,48.164l-16.16-12.404c-3.673-2.819-8.718-3.037-12.62-0.543c-20.711,13.234-43.37,22.622-67.35,27.903
				c-4.522,0.996-7.937,4.718-8.54,9.309L290.057,490h-68.113l-2.654-20.191c-0.604-4.591-4.018-8.312-8.54-9.309
				c-23.979-5.281-46.638-14.668-67.35-27.903c-3.902-2.494-8.947-2.276-12.621,0.543l-16.159,12.404l-48.164-48.164l12.403-16.16
				c2.819-3.673,3.037-8.719,0.544-12.621c-13.234-20.71-22.622-43.37-27.903-67.349c-0.995-4.522-4.717-7.937-9.309-8.541
				L22,290.057v-23.06h141.119c5.461,46.405,45.032,82.525,92.881,82.525s87.42-36.12,92.881-82.525H490V290.057z"/>
		</g>
		<g>
			<path style="fill:#33CCCC;" d="M256,303.523c-27.148,0-49.235-22.087-49.235-49.235s22.087-49.235,49.235-49.235
				s49.235,22.087,49.235,49.235S283.148,303.523,256,303.523z M256,227.053c-15.018,0-27.235,12.217-27.235,27.235
				s12.218,27.235,27.235,27.235s27.235-12.217,27.235-27.235S271.018,227.053,256,227.053z"/>
		</g>
	</g>
</g>
<g>
</g>
<g>
</g>
<g>
</g>
<g>
</g>
<g>
</g>
<g>
</g>
<g>
</g>
<g>
</g>
<g>
</g>
<g>
</g>
<g>
</g>
<g>
</g>
<g>
</g>
<g>
</g>
<g>
</g>
</svg>
