<?xml version="1.0" encoding="iso-8859-1"?>
<!-- Generator: Adobe Illustrator 27.0.0, SVG Export Plug-In . SVG Version: 6.00 Build 0)  -->
<svg version="1.1" id="Capa_1" xmlns="http://www.w3.org/2000/svg" xmlns:xlink="http://www.w3.org/1999/xlink" x="0px" y="0px"
	 viewBox="0 0 512 512" style="enable-background:new 0 0 512 512;" xml:space="preserve">
<g>
	<path style="fill:#33CCCC;" d="M431.145,0.022h-44c-6.075,0-11,4.925-11,11s4.925,11,11,11h17.443L301.036,125.575H161.339
		c-2.903,0-5.689,1.148-7.75,3.193L48.033,233.546c-4.312,4.28-4.337,11.245-0.058,15.557c2.15,2.166,4.979,3.25,7.808,3.25
		c2.801,0,5.604-1.063,7.749-3.193l102.34-101.585h139.72c2.917,0,5.715-1.159,7.778-3.222L420.145,37.579v17.443
		c0,6.075,4.925,11,11,11s11-4.925,11-11v-44C442.145,4.947,437.22,0.022,431.145,0.022z"/>
	<path d="M501,446h-11V158.866c0-6.075-4.925-11-11-11h-95.711c-6.075,0-11,4.925-11,11V446h-22V218.866c0-6.075-4.925-11-11-11
		h-95.711c-6.075,0-11,4.925-11,11V446h-22V284.866c0-6.075-4.925-11-11-11h-95.711c-6.075,0-11,4.925-11,11V446H66V11
		c0-6.075-4.925-11-11-11H11C4.925,0,0,4.925,0,11v490c0,6.075,4.925,11,11,11h490c6.075,0,11-4.925,11-11v-44
		C512,450.925,507.075,446,501,446z M394.289,169.866H468V446h-73.711V169.866z M254.578,229.866h73.711V446h-73.711V229.866z
		 M114.867,295.866h73.711V446h-73.711V295.866z M490,490H22V22h22v435c0,6.075,4.925,11,11,11h435V490z"/>
</g>
<g>
</g>
<g>
</g>
<g>
</g>
<g>
</g>
<g>
</g>
<g>
</g>
<g>
</g>
<g>
</g>
<g>
</g>
<g>
</g>
<g>
</g>
<g>
</g>
<g>
</g>
<g>
</g>
<g>
</g>
</svg>
