<?xml version="1.0" encoding="iso-8859-1"?>
<!-- Generator: Adobe Illustrator 26.5.3, SVG Export Plug-In . SVG Version: 6.00 Build 0)  -->
<svg version="1.1" id="Capa_1" xmlns="http://www.w3.org/2000/svg" xmlns:xlink="http://www.w3.org/1999/xlink" x="0px" y="0px"
	 viewBox="0 0 512 512" style="enable-background:new 0 0 512 512;" xml:space="preserve">
<g>
	<g>
		<path style="fill:#33CCCC;" d="M361.048,426.25h-22v-47.811c0-4.202,2.394-8.037,6.169-9.883
			c17.559-8.583,28.467-26.034,28.467-45.543c0-14.936-6.715-28.93-17.684-38.41v20.513c0,3.247-1.435,6.329-3.921,8.419l-22,18.499
			c-4.092,3.441-10.066,3.441-14.158,0l-22-18.499c-2.486-2.09-3.921-5.172-3.921-8.419v-20.513
			c-10.969,9.48-17.684,23.475-17.684,38.41c0,19.509,10.908,36.96,28.467,45.543c3.775,1.846,6.169,5.681,6.169,9.883v47.811h-22
			v-41.312c-21.528-13.168-34.636-36.309-34.636-61.925c0-29.927,18.791-57.212,46.758-67.896c3.385-1.292,7.184-0.837,10.163,1.215
			c2.981,2.053,4.763,5.44,4.763,9.061v34.601l11,9.249l11-9.249v-34.601c0-3.62,1.781-7.008,4.763-9.061
			c2.98-2.052,6.78-2.509,10.163-1.215c27.967,10.684,46.758,37.969,46.758,67.896c0,25.616-13.107,48.757-34.636,61.925V426.25z"/>
	</g>
	<g>
		<g>
			<path d="M49.899,59.21c6.063,13.255,25.393,5.237,20.311-8.42c-2.412-6.266-10.758-8.803-16.271-4.94
				C49.654,48.642,47.848,54.514,49.899,59.21z"/>
			<path d="M93.89,59.21c2.422,6.275,10.766,8.8,16.271,4.939c4.297-2.785,6.083-8.658,4.05-13.359
				C108.231,37.576,88.727,45.59,93.89,59.21z"/>
			<path d="M137.89,59.21c6.002,13.216,25.483,5.205,20.32-8.42c-2.142-5.499-8.965-8.322-14.37-5.95
				C138.338,46.994,135.527,53.801,137.89,59.21z"/>
			<path d="M214.228,66h182.369c6.075,0,11-4.925,11-11s-4.925-11-11-11H214.228c-6.075,0-11,4.925-11,11S208.152,66,214.228,66z"/>
			<path d="M501,282.774h-20.306c-3.827-15.094-9.772-29.44-17.747-42.833l14.362-14.362c4.296-4.296,4.296-11.261,0-15.557
				l-20.661-20.661V11c0-6.075-4.925-11-11-11H11C4.925,0,0,4.925,0,11v396.458c0,6.075,4.925,11,11,11h159.653l-1.963,1.963
				c-4.296,4.296-4.296,11.261,0,15.557l41.332,41.332c4.297,4.295,11.26,4.295,15.557,0l14.362-14.362
				c13.393,7.975,27.739,13.919,42.832,17.747V501c0,6.075,4.925,11,11,11h58.453c6.075,0,11-4.925,11-11v-20.306
				c15.093-3.827,29.438-9.772,42.832-17.747l14.362,14.362c4.297,4.295,11.26,4.295,15.557,0l41.332-41.332
				c4.296-4.296,4.296-11.261,0-15.557l-14.362-14.362c7.975-13.393,13.92-27.739,17.747-42.833H501c6.075,0,11-4.925,11-11v-58.451
				C512,287.699,507.075,282.774,501,282.774z M434.648,22v66H22V22H434.648z M22,110h412.648v57.573
				c-4.302-3.124-10.348-2.76-14.228,1.118l-14.362,14.362c-13.394-7.975-27.739-13.92-42.832-17.747V145c0-6.075-4.925-11-11-11
				h-58.453c-6.075,0-11,4.925-11,11v20.306c-15.093,3.828-29.439,9.772-42.832,17.747l-14.362-14.362
				c-4.297-4.295-11.26-4.295-15.557,0l-41.332,41.332c-4.296,4.296-4.296,11.261,0,15.557l14.362,14.362
				c-7.975,13.393-13.92,27.739-17.747,42.833H145c-6.075,0-11,4.925-11,11v58.451c0,6.075,4.925,11,11,11h20.306
				c2.928,11.547,7.105,22.652,12.473,33.232H22V110z M490,341.226h-18.108c-5.263,0-9.788,3.728-10.796,8.893
				c-3.602,18.452-10.76,35.729-21.276,51.352c-2.938,4.365-2.374,10.2,1.347,13.921l12.809,12.809l-25.775,25.775l-12.809-12.809
				c-3.723-3.722-9.557-4.285-13.921-1.347c-15.622,10.517-32.899,17.675-51.351,21.276c-5.165,1.008-8.893,5.533-8.893,10.796V490
				h-36.453v-18.108c0-5.263-3.728-9.788-8.893-10.796c-18.452-3.602-35.729-10.761-51.351-21.276
				c-4.365-2.94-10.2-2.373-13.921,1.347l-12.809,12.809l-25.775-25.775l12.809-12.809c3.721-3.721,4.285-9.556,1.347-13.921
				c-10.517-15.622-17.675-32.899-21.276-51.352c-1.008-5.165-5.533-8.893-10.796-8.893H156v-36.451h18.108
				c5.263,0,9.788-3.728,10.796-8.893c3.602-18.452,10.76-35.729,21.276-51.352c2.938-4.365,2.374-10.2-1.347-13.921l-12.809-12.809
				l25.775-25.775l12.809,12.809c3.721,3.721,9.555,4.284,13.921,1.347c15.622-10.516,32.898-17.675,51.351-21.276
				c5.165-1.008,8.893-5.533,8.893-10.796V156h36.453v18.108c0,5.263,3.728,9.788,8.893,10.796
				c18.451,3.602,35.729,10.76,51.351,21.276c4.365,2.94,10.199,2.372,13.921-1.347l12.809-12.809l25.775,25.775l-12.809,12.809
				c-3.721,3.721-4.285,9.556-1.347,13.921c10.517,15.622,17.675,32.899,21.276,51.352c1.008,5.165,5.533,8.893,10.796,8.893H490
				V341.226z"/>
			<path d="M323,205.287c-64.907,0-117.713,52.806-117.713,117.713S258.093,440.713,323,440.713S440.713,387.907,440.713,323
				S387.907,205.287,323,205.287z M323,418.713c-52.776,0-95.713-42.937-95.713-95.713s42.937-95.713,95.713-95.713
				s95.713,42.937,95.713,95.713S375.776,418.713,323,418.713z"/>
		</g>
		<g>
			<g id="XMLID_770_">
				<path style="fill:#33CCCC;" d="M165.472,162.221H55c-6.075,0-11-4.925-11-11s4.925-11,11-11h110.472c6.075,0,11,4.925,11,11
					S171.547,162.221,165.472,162.221z"/>
			</g>
			<g id="XMLID_766_">
				<path style="fill:#33CCCC;" d="M128,210.221H55c-6.075,0-11-4.925-11-11s4.925-11,11-11h73c6.075,0,11,4.925,11,11
					S134.075,210.221,128,210.221z"/>
			</g>
			<g id="XMLID_765_">
				<path style="fill:#33CCCC;" d="M128,258.221H55c-6.075,0-11-4.925-11-11s4.925-11,11-11h73c6.075,0,11,4.925,11,11
					S134.075,258.221,128,258.221z"/>
			</g>
		</g>
	</g>
</g>
<g>
</g>
<g>
</g>
<g>
</g>
<g>
</g>
<g>
</g>
<g>
</g>
<g>
</g>
<g>
</g>
<g>
</g>
<g>
</g>
<g>
</g>
<g>
</g>
<g>
</g>
<g>
</g>
<g>
</g>
</svg>
