<?xml version="1.0" encoding="iso-8859-1"?>
<!-- Generator: Adobe Illustrator 27.8.1, SVG Export Plug-In . SVG Version: 6.00 Build 0)  -->
<svg version="1.1" id="Layer_1" xmlns="http://www.w3.org/2000/svg" xmlns:xlink="http://www.w3.org/1999/xlink" x="0px" y="0px"
	 viewBox="0 0 512 512" style="enable-background:new 0 0 512 512;" xml:space="preserve">
<g>
	<g>
		<g>
			<path style="fill:#33CCCC;" d="M322.031,414.747h-24.405c-6.075,0-11-4.925-11-11s4.925-11,11-11h24.405c6.075,0,11,4.925,11,11
				S328.106,414.747,322.031,414.747z"/>
		</g>
		<g>
			<path style="fill:#33CCCC;" d="M309.828,304.961c-52.534,0-95.273-42.748-95.273-95.293s42.739-95.293,95.273-95.293
				s95.273,42.749,95.273,95.293S362.362,304.961,309.828,304.961z M309.828,136.375c-40.403,0-73.273,32.879-73.273,73.293
				s32.87,73.293,73.273,73.293s73.273-32.879,73.273-73.293S350.231,136.375,309.828,136.375z"/>
		</g>
	</g>
	<g>
		<path d="M399.575,0H220.081c-30.565,0-55.433,24.872-55.433,55.443v65.238c-5.818-3.111-12.458-4.876-19.502-4.876
			c-22.884,0-41.502,18.621-41.502,41.51v95.571l-6.257,23.645c-11.368,42.957-5.769,89.363,15.299,128.379l-54.132,90.439
			c-2.034,3.399-2.084,7.628-0.131,11.074c1.954,3.446,5.608,5.575,9.569,5.575h183.913c1.347,0,2.682-0.247,3.939-0.729
			l30.395-11.656h39.891c24.898,0,45.663-18.04,49.915-41.737h23.53c30.565,0,55.433-24.872,55.433-55.443V55.443
			C455.007,24.872,430.14,0,399.575,0z M266.445,22h86.766v6.619c0,10.533-8.565,19.102-19.094,19.102H285.54
			c-10.529,0-19.094-8.569-19.094-19.102V22z M186.649,55.443c0-18.441,14.998-33.443,33.433-33.443h24.364v6.619
			c0,22.664,18.435,41.102,41.094,41.102h48.577c22.66,0,41.094-18.438,41.094-41.102V22h24.364
			c18.435,0,33.433,15.002,33.433,33.443v294.172H186.649V55.443z M326.13,477.614h-41.928c-1.347,0-2.682,0.247-3.939,0.729
			L249.869,490H87.396l47.452-79.278c2.07-3.459,2.083-7.773,0.032-11.245c-20.749-35.12-26.663-77.881-16.226-117.317l6.624-25.027
			c0.243-0.918,0.366-1.864,0.366-2.814v-97.002c0-10.758,8.749-19.51,19.502-19.51s19.502,8.752,19.502,19.51v245.119
			c0,30.572,24.867,55.443,55.433,55.443h133.322C349.624,469.328,338.827,477.614,326.13,477.614z M399.575,435.877H220.081
			c-18.435,0-33.433-15.002-33.433-33.443v-30.819h246.358v30.819C433.007,420.875,418.01,435.877,399.575,435.877z"/>
		<path d="M276.15,218.8l21.738,19.778c2.03,1.847,4.672,2.864,7.402,2.864c0.203,0,0.405-0.005,0.609-0.017
			c2.944-0.163,5.699-1.501,7.647-3.714l31.809-36.126c4.015-4.56,3.573-11.51-0.987-15.525c-4.56-4.015-11.51-3.573-15.525,0.987
			l-24.42,27.734l-13.468-12.253c-4.493-4.089-11.451-3.76-15.539,0.733C271.328,207.754,271.656,214.711,276.15,218.8z"/>
	</g>
</g>
<g>
</g>
<g>
</g>
<g>
</g>
<g>
</g>
<g>
</g>
<g>
</g>
<g>
</g>
<g>
</g>
<g>
</g>
<g>
</g>
<g>
</g>
<g>
</g>
<g>
</g>
<g>
</g>
<g>
</g>
</svg>
