<?xml version="1.0" encoding="iso-8859-1"?>
<!-- Generator: Adobe Illustrator 27.0.0, SVG Export Plug-In . SVG Version: 6.00 Build 0)  -->
<svg version="1.1" id="Capa_1" xmlns="http://www.w3.org/2000/svg" xmlns:xlink="http://www.w3.org/1999/xlink" x="0px" y="0px"
	 viewBox="0 0 512 512" style="enable-background:new 0 0 512 512;" xml:space="preserve">
<g>
	<path d="M501,278.956h-82.466v-193.5c0-6.075-4.925-11-11-11h-71.689c-6.075,0-11,4.925-11,11v193.5h-22v-161.5
		c0-6.075-4.925-11-11-11h-71.689c-6.075,0-11,4.925-11,11v161.5h-21.397v-129.5c0-6.075-4.925-11-11-11h-71.689
		c-6.075,0-11,4.925-11,11v129.5H11c-6.075,0-11,4.925-11,11s4.925,11,11,11h22.956v34.024c0,6.075,4.925,11,11,11h18.16
		c4.107,14.175,9.762,27.824,16.88,40.747l-12.843,12.843c-4.295,4.296-4.295,11.261,0,15.557l63.675,63.675
		c2.063,2.063,4.861,3.222,7.778,3.222s5.715-1.159,7.778-3.222l12.843-12.843c12.924,7.12,26.573,12.774,40.748,16.88V501
		c0,6.075,4.925,11,11,11h90.049c6.075,0,11-4.925,11-11v-18.16c14.174-4.106,27.823-9.761,40.748-16.88l12.843,12.843
		c2.063,2.062,4.861,3.222,7.778,3.222s5.715-1.159,7.778-3.222l63.675-63.675c4.295-4.296,4.295-11.261,0-15.557l-12.843-12.843
		c7.12-12.924,12.774-26.573,16.88-40.747h18.16c6.075,0,11-4.925,11-11v-34.024H501c6.075,0,11-4.925,11-11
		S507.075,278.956,501,278.956z M346.845,96.456h49.689v182.5h-49.689V96.456z M369.212,300.956
		C363.661,358.534,315.009,403.702,256,403.702s-107.661-45.168-113.212-102.746H369.212z M231.155,128.456h49.689v150.5h-49.689
		V128.456z M116.069,160.456h49.689v118.5h-49.689V160.456z M456.044,323.98h-15.611c-5.074,0-9.489,3.47-10.688,8.4
		c-4.333,17.809-11.361,34.775-20.892,50.429c-2.639,4.334-1.971,9.911,1.617,13.499l11.042,11.042l-48.119,48.119l-11.041-11.041
		c-3.588-3.588-9.165-4.255-13.499-1.618c-15.654,9.53-32.621,16.559-50.429,20.892c-4.93,1.199-8.4,5.614-8.4,10.688V490h-68.049
		v-15.611c0-5.074-3.47-9.489-8.4-10.688c-17.81-4.333-34.776-11.362-50.429-20.892c-4.334-2.638-9.91-1.97-13.499,1.618
		l-11.041,11.041l-48.119-48.119l11.042-11.042c3.588-3.588,4.256-9.164,1.617-13.498c-9.529-15.652-16.558-32.618-20.892-50.429
		c-1.199-4.93-5.615-8.399-10.688-8.399h-15.61v-23.024h64.746C126.32,370.682,184.853,425.702,256,425.702
		s129.68-55.02,135.298-124.746h64.746V323.98z"/>
	<path style="fill:#33CCCC;" d="M220.155,0h-43.397c-6.075,0-11,4.925-11,11s4.925,11,11,11h15.681
		c-19.159,16.275-40.618,29.397-64.033,39.096C98.845,73.341,67.632,79.549,35.635,79.549H11c-6.075,0-11,4.925-11,11
		s4.925,11,11,11h24.635c34.901,0,68.946-6.772,101.19-20.128c26.556-11,50.81-26.03,72.33-44.774v17.75c0,6.075,4.925,11,11,11
		s11-4.925,11-11V11C231.155,4.925,226.23,0,220.155,0z"/>
</g>
<g>
</g>
<g>
</g>
<g>
</g>
<g>
</g>
<g>
</g>
<g>
</g>
<g>
</g>
<g>
</g>
<g>
</g>
<g>
</g>
<g>
</g>
<g>
</g>
<g>
</g>
<g>
</g>
<g>
</g>
</svg>
