<?xml version="1.0" encoding="iso-8859-1"?>
<!-- Generator: Adobe Illustrator 26.5.3, SVG Export Plug-In . SVG Version: 6.00 Build 0)  -->
<svg version="1.1" id="Capa_1" xmlns="http://www.w3.org/2000/svg" xmlns:xlink="http://www.w3.org/1999/xlink" x="0px" y="0px"
	 viewBox="0 0 512 512" style="enable-background:new 0 0 512 512;" xml:space="preserve">
<g>
	<g>
		<g>
			<path style="fill:#33CCCC;" d="M339.608,365.245h-159.25c-24.425,0-44.552-19.642-44.866-43.786
				c-0.155-11.967,4.387-23.245,12.789-31.757c6.266-6.348,14.097-10.57,22.633-12.306c1.936-6.876,5.346-15.807,11.286-24.582
				c13.13-19.395,33.082-29.646,57.699-29.646c23.107,0,44.651,11.275,57.893,29.868c0.908-0.055,1.816-0.083,2.725-0.083
				c22.739,0,41.591,16.959,44.573,38.894c17.392,2.602,30.554,17.127,31.379,34.731c0.479,10.196-3.13,19.869-10.16,27.236
				C359.378,361.079,349.646,365.245,339.608,365.245z M239.899,245.168c-38.253,0-47.289,33.64-49.146,43.95
				c-1.162,6.446-6.46,9.382-10.892,9.382c-6.031,0-11.686,2.364-15.923,6.657c-4.236,4.291-6.526,9.979-6.448,16.016
				c0.158,12.17,10.417,22.071,22.868,22.071h159.25c4.113,0,7.944-1.64,10.785-4.618c2.838-2.975,4.295-6.888,4.101-11.018
				c-0.331-7.052-5.864-13.086-12.87-14.035c0,0-0.001,0-0.001,0c-1.728-0.235-3.471-0.166-5.182,0.204
				c-3.531,0.763-7.212-0.258-9.847-2.731c-2.635-2.472-3.887-6.08-3.352-9.653c0.172-1.144,0.259-2.307,0.259-3.457
				c0-12.673-10.31-22.984-22.983-22.984c-1.861,0-3.726,0.228-5.543,0.677c-4.809,1.189-9.822-0.986-12.24-5.311
				C274.06,254.806,257.647,245.168,239.899,245.168z"/>
		</g>
	</g>
	<g>
		<path d="M486,403.699h-1.303V157.9c0-22.607-18.393-41-41-41h-6.583V96.421c0-2.392-0.779-4.718-2.22-6.627L424.45,75.958
			c-3.66-4.849-10.557-5.812-15.407-2.153c-4.849,3.66-5.812,10.558-2.153,15.407l8.224,10.895V116.9H267V89.783
			c0-6.075-4.925-11-11-11s-11,4.925-11,11V116.9H96.886v-16.794l8.223-10.895c3.66-4.849,2.696-11.747-2.153-15.407
			c-4.849-3.66-11.747-2.696-15.407,2.153L77.106,89.794c-1.441,1.909-2.22,4.235-2.22,6.627V116.9h-6.583
			c-22.607,0-41,18.393-41,41v245.799H26c-14.336,0-26,11.664-26,26v14.266c0,28.122,22.878,51,51,51h410c28.122,0,51-22.878,51-51
			v-14.266C512,415.363,500.336,403.699,486,403.699z M49.303,157.9c0-10.477,8.523-19,19-19h375.394c10.477,0,19,8.523,19,19
			v245.799h-23.813V188.713c0-14.336-11.664-26-26-26H99.116c-14.336,0-26,11.664-26,26v214.986H49.303V157.9z M416.884,403.699
			H95.116V188.713c0-2.206,1.794-4,4-4h313.768c2.206,0,4,1.794,4,4V403.699z M490,443.965c0,15.991-13.009,29-29,29H51
			c-15.991,0-29-13.009-29-29v-14.266c0-2.206,1.794-4,4-4h460c2.206,0,4,1.794,4,4V443.965z"/>
	</g>
	<g>
		<g>
			<path style="fill:#33CCCC;" d="M256,98.791c-22.541,0-40.878-18.338-40.878-40.878S233.459,17.035,256,17.035
				c22.54,0,40.878,18.338,40.878,40.878S278.54,98.791,256,98.791z M256,39.035c-10.41,0-18.878,8.469-18.878,18.878
				S245.59,76.791,256,76.791c10.409,0,18.878-8.469,18.878-18.878S266.409,39.035,256,39.035z"/>
		</g>
	</g>
	<g>
		<g>
			<path style="fill:#33CCCC;" d="M117.054,98.791c-22.54,0-40.878-18.338-40.878-40.878s18.338-40.878,40.878-40.878
				s40.878,18.338,40.878,40.878S139.594,98.791,117.054,98.791z M117.054,39.035c-10.409,0-18.878,8.469-18.878,18.878
				s8.469,18.878,18.878,18.878s18.878-8.469,18.878-18.878S127.463,39.035,117.054,39.035z"/>
		</g>
	</g>
	<g>
		<g>
			<path style="fill:#33CCCC;" d="M394.946,98.791c-22.54,0-40.878-18.338-40.878-40.878s18.338-40.878,40.878-40.878
				s40.878,18.338,40.878,40.878S417.486,98.791,394.946,98.791z M394.946,39.035c-10.409,0-18.878,8.469-18.878,18.878
				s8.469,18.878,18.878,18.878s18.878-8.469,18.878-18.878S405.355,39.035,394.946,39.035z"/>
		</g>
	</g>
</g>
<g>
</g>
<g>
</g>
<g>
</g>
<g>
</g>
<g>
</g>
<g>
</g>
<g>
</g>
<g>
</g>
<g>
</g>
<g>
</g>
<g>
</g>
<g>
</g>
<g>
</g>
<g>
</g>
<g>
</g>
</svg>
