<?xml version="1.0" encoding="iso-8859-1"?>
<!-- Generator: Adobe Illustrator 27.5.0, SVG Export Plug-In . SVG Version: 6.00 Build 0)  -->
<svg version="1.1" id="Layer_1" xmlns="http://www.w3.org/2000/svg" xmlns:xlink="http://www.w3.org/1999/xlink" x="0px" y="0px"
	 viewBox="0 0 512 512" style="enable-background:new 0 0 512 512;" xml:space="preserve">
<g>
	<g>
		<path style="fill:#33CCCC;" d="M496,90h-74V16c0-6.075-4.925-11-11-11s-11,4.925-11,11v80.443l-56.731,56.731
			c-4.296,4.296-4.296,11.261,0,15.557c2.148,2.147,4.963,3.222,7.778,3.222s5.63-1.074,7.778-3.222L415.556,112H496
			c6.075,0,11-4.925,11-11S502.075,90,496,90z"/>
		<path style="fill:#33CCCC;" d="M278.5,249.764h-45c-6.075,0-11,4.925-11,11s4.925,11,11,11h45c6.075,0,11-4.925,11-11
			S284.575,249.764,278.5,249.764z"/>
		<path style="fill:#33CCCC;" d="M189.004,238.249l-55.115-31.82c-5.26-3.036-11.987-1.233-15.026,4.026
			c-3.038,5.262-1.235,11.988,4.026,15.026l55.115,31.82c1.732,1,3.624,1.476,5.49,1.476c3.801,0,7.499-1.974,9.537-5.502
			C196.068,248.014,194.265,241.287,189.004,238.249z"/>
		<path style="fill:#33CCCC;" d="M389.487,296.264l-56.27-32.487c-5.261-3.037-11.989-1.233-15.026,4.026
			c-3.037,5.261-1.234,11.988,4.026,15.026l56.27,32.487c1.732,1,3.623,1.476,5.489,1.476c3.802,0,7.5-1.974,9.537-5.502
			C396.55,306.03,394.749,299.302,389.487,296.264z"/>
	</g>
	<g>
		<path d="M501,435h-8V159.907C504.953,143.315,512,122.965,512,101C512,45.309,466.692,0,411,0
			c-51.975,0-94.907,39.464-100.405,90.001H50c-17.093,0-31,13.906-31,31V435h-8c-6.075,0-11,4.925-11,11v35
			c0,17.094,13.907,31,31,31h450c17.094,0,31-13.906,31-31v-35C512,439.925,507.075,435,501,435z M411,22c43.561,0,79,35.439,79,79
			s-35.439,79-79,79s-79-35.439-79-79S367.44,22,411,22z M50,112.001h260.596C316.094,162.537,359.026,202,411,202
			c22.449,0,43.212-7.363,59.999-19.799v207.798H41V121.001C41,116.038,45.038,112.001,50,112.001z M41,411.998h430V435H316
			c-2.917,0-5.715,1.159-7.778,3.222L301.443,445h-90.887l-6.778-6.778C201.715,436.159,198.917,435,196,435H41V411.998z M490,481
			c0,4.963-4.037,9-9,9H31c-4.962,0-9-4.037-9-9v-24h169.443l6.778,6.778c2.063,2.063,4.861,3.222,7.778,3.222h100
			c2.917,0,5.715-1.159,7.778-3.222l6.778-6.778H490V481z"/>
		<path d="M206,294.264c18.472,0,33.5-15.028,33.5-33.5s-15.028-33.5-33.5-33.5s-33.5,15.028-33.5,33.5S187.528,294.264,206,294.264
			z M206,249.264c6.341,0,11.5,5.159,11.5,11.5s-5.159,11.5-11.5,11.5s-11.5-5.159-11.5-11.5S199.659,249.264,206,249.264z"/>
		<path d="M306,294.264c18.472,0,33.5-15.028,33.5-33.5s-15.028-33.5-33.5-33.5s-33.5,15.028-33.5,33.5S287.528,294.264,306,294.264
			z M306,249.264c6.341,0,11.5,5.159,11.5,11.5s-5.159,11.5-11.5,11.5s-11.5-5.159-11.5-11.5S299.659,249.264,306,249.264z"/>
		<path d="M406,351.999c18.472,0,33.5-15.028,33.5-33.5s-15.028-33.5-33.5-33.5s-33.5,15.028-33.5,33.5S387.528,351.999,406,351.999
			z M406,306.999c6.341,0,11.5,5.159,11.5,11.5s-5.159,11.5-11.5,11.5s-11.5-5.159-11.5-11.5S399.659,306.999,406,306.999z"/>
		<path d="M106,236.53c18.472,0,33.5-15.028,33.5-33.5s-15.028-33.5-33.5-33.5s-33.5,15.028-33.5,33.5S87.528,236.53,106,236.53z
			 M106,191.53c6.341,0,11.5,5.159,11.5,11.5s-5.159,11.5-11.5,11.5s-11.5-5.159-11.5-11.5S99.659,191.53,106,191.53z"/>
	</g>
</g>
<g>
</g>
<g>
</g>
<g>
</g>
<g>
</g>
<g>
</g>
<g>
</g>
<g>
</g>
<g>
</g>
<g>
</g>
<g>
</g>
<g>
</g>
<g>
</g>
<g>
</g>
<g>
</g>
<g>
</g>
</svg>
