<?xml version="1.0" encoding="iso-8859-1"?>
<!-- Generator: Adobe Illustrator 27.5.0, SVG Export Plug-In . SVG Version: 6.00 Build 0)  -->
<svg version="1.1" id="Layer_1" xmlns="http://www.w3.org/2000/svg" xmlns:xlink="http://www.w3.org/1999/xlink" x="0px" y="0px"
	 viewBox="0 0 512 512" style="enable-background:new 0 0 512 512;" xml:space="preserve">
<g>
	<g>
		<path d="M392,330.661V66c0-6.075-4.925-11-11-11h-64V41c0-6.075-4.925-11-11-11h-50.498C250.683,12.716,234.799,0,216,0
			s-34.683,12.716-39.501,30H126c-6.075,0-11,4.925-11,11v14H51c-6.075,0-11,4.925-11,11v405c0,6.075,4.925,11,11,11h262.528
			c16.664,18.414,40.74,30,67.472,30c50.178,0,91-40.822,91-91C472,374.545,437.01,336.108,392,330.661z M137,52h49
			c6.075,0,11-4.925,11-11c0-10.477,8.523-19,19-19s19,8.523,19,19c0,6.075,4.925,11,11,11h49v28H137V52z M62,460V77h53v14
			c0,6.075,4.925,11,11,11h180c6.075,0,11-4.925,11-11V77h53v253.662c-45.01,5.447-80,43.884-80,90.339
			c0,13.948,3.154,27.173,8.787,39H62z M381,490c-38.047,0-69-30.953-69-69s30.953-69,69-69s69,30.953,69,69S419.047,490,381,490z"
			/>
		<path d="M185.999,192h150c6.075,0,11-4.925,11-11s-4.925-11-11-11h-150c-6.075,0-11,4.925-11,11S179.924,192,185.999,192z"/>
		<path d="M185.999,292h150c6.075,0,11-4.925,11-11s-4.925-11-11-11h-150c-6.075,0-11,4.925-11,11S179.924,292,185.999,292z"/>
		<path d="M238.5,370h-52.5c-6.075,0-11,4.925-11,11s4.925,11,11,11h52.5c6.075,0,11-4.925,11-11S244.575,370,238.5,370z"/>
	</g>
	<g>
		<path style="fill:#33CCCC;" d="M415.028,395.722c-4.296-4.296-11.261-4.296-15.557,0l-27.222,27.222l-9.722-9.722
			c-4.296-4.296-11.261-4.296-15.557,0c-4.295,4.296-4.295,11.261,0,15.557l17.5,17.5c2.148,2.148,4.963,3.222,7.778,3.222
			s5.63-1.074,7.778-3.222l35-35C419.323,406.982,419.323,400.018,415.028,395.722z"/>
		<path style="fill:#33CCCC;" d="M118.5,147.5c-18.472,0-33.5,15.028-33.5,33.5c0,18.472,15.028,33.5,33.5,33.5S152,199.472,152,181
			C152,162.528,136.972,147.5,118.5,147.5z M118.5,192.5c-6.341,0-11.5-5.159-11.5-11.5c0-6.341,5.159-11.5,11.5-11.5
			S130,174.659,130,181C130,187.341,124.841,192.5,118.5,192.5z"/>
		<path style="fill:#33CCCC;" d="M118.5,247.5c-18.472,0-33.5,15.028-33.5,33.5s15.028,33.5,33.5,33.5S152,299.472,152,281
			S136.972,247.5,118.5,247.5z M118.5,292.5c-6.341,0-11.5-5.159-11.5-11.5s5.159-11.5,11.5-11.5S130,274.658,130,281
			S124.841,292.5,118.5,292.5z"/>
		<path style="fill:#33CCCC;" d="M118.5,347.5c-18.472,0-33.5,15.028-33.5,33.5s15.028,33.5,33.5,33.5S152,399.472,152,381
			S136.972,347.5,118.5,347.5z M118.5,392.5c-6.341,0-11.5-5.159-11.5-11.5s5.159-11.5,11.5-11.5S130,374.658,130,381
			S124.841,392.5,118.5,392.5z"/>
	</g>
</g>
<g>
</g>
<g>
</g>
<g>
</g>
<g>
</g>
<g>
</g>
<g>
</g>
<g>
</g>
<g>
</g>
<g>
</g>
<g>
</g>
<g>
</g>
<g>
</g>
<g>
</g>
<g>
</g>
<g>
</g>
</svg>
