<?xml version="1.0" encoding="iso-8859-1"?>
<!-- Generator: Adobe Illustrator 26.5.3, SVG Export Plug-In . SVG Version: 6.00 Build 0)  -->
<svg version="1.1" id="Capa_1" xmlns="http://www.w3.org/2000/svg" xmlns:xlink="http://www.w3.org/1999/xlink" x="0px" y="0px"
	 viewBox="0 0 512.002 512.002" style="enable-background:new 0 0 512.002 512.002;" xml:space="preserve">
<g>
	<g>
		<g>
			<g>
				<path d="M458.419,366h-5.144V260.973h-22V366H201.3l-18.852-32.652c-3.038-5.261-9.762-7.065-15.026-4.026l-7.493,4.326
					c-5.883-4.417-12.232-8.086-18.988-10.972v-8.645c0-6.075-4.925-11-11-11H90.047V165.52c0-11.737,9.55-21.287,21.287-21.287
					h219.523v-22H111.335c-23.868,0-43.287,19.419-43.287,43.287v157.174c-6.612,2.855-12.881,6.517-18.745,10.946l-7.482-4.319
					c-5.261-3.037-11.989-1.233-15.026,4.026L1.475,377.201c-1.459,2.526-1.854,5.529-1.099,8.348
					c0.755,2.817,2.599,5.221,5.125,6.679l7.49,4.324c-0.434,3.64-0.652,7.306-0.652,10.965c0,3.658,0.219,7.324,0.652,10.965
					l-7.49,4.324c-5.261,3.038-7.063,9.765-4.026,15.026l25.318,43.854c1.459,2.526,3.861,4.37,6.68,5.125
					c2.817,0.756,5.82,0.359,8.347-1.099l7.494-4.327c5.882,4.417,12.231,8.086,18.988,10.972v8.645c0,6.075,4.925,11,11,11h50.638
					c6.075,0,11-4.925,11-11v-8.645c6.756-2.886,13.105-6.555,18.987-10.972l7.494,4.327c2.525,1.459,5.528,1.854,8.347,1.099
					s5.221-2.599,6.68-5.125l13.08-22.654h227.375c25.648,0,46.516-20.867,46.516-46.516V377
					C469.419,370.925,464.494,366,458.419,366z M173.41,393.069c0.99,4.739,1.492,9.6,1.492,14.447
					c0,4.847-0.502,9.707-1.492,14.447c-0.972,4.65,1.153,9.399,5.268,11.775l4.537,2.619l-14.319,24.801l-4.554-2.63
					c-4.12-2.379-9.3-1.839-12.842,1.335c-7.295,6.538-15.701,11.396-24.984,14.438c-4.52,1.48-7.575,5.697-7.575,10.453v5.246
					H90.302v-5.246c0-4.756-3.056-8.973-7.575-10.453c-9.284-3.042-17.69-7.899-24.984-14.438c-3.54-3.173-8.723-3.715-12.842-1.335
					l-4.555,2.63l-14.318-24.801l4.536-2.619c4.114-2.375,6.238-7.124,5.268-11.774c-0.99-4.744-1.492-9.605-1.492-14.448
					c0-4.844,0.502-9.705,1.492-14.449c0.971-4.651-1.153-9.399-5.268-11.774l-4.536-2.618l14.318-24.801l4.555,2.629
					c4.12,2.378,9.3,1.839,12.842-1.335c7.392-6.625,15.712-11.482,24.729-14.438c4.52-1.48,7.575-5.697,7.575-10.453v-5.246h28.893
					v5.246c0,4.756,3.056,8.973,7.575,10.453c9.283,3.042,17.689,7.899,24.984,14.438c3.542,3.175,8.722,3.715,12.842,1.335
					l4.554-2.629l14.319,24.8l-4.536,2.619C174.563,383.668,172.438,388.418,173.41,393.069z M447.419,412.516
					c0,13.518-10.998,24.516-24.516,24.516H208.178c1.11-2.347,1.364-5.02,0.688-7.546c-0.755-2.818-2.599-5.221-5.125-6.68
					l-7.49-4.324c0.433-3.639,0.651-7.305,0.651-10.965s-0.219-7.326-0.651-10.965l7.489-4.324c1.753-1.011,3.166-2.484,4.126-4.228
					h239.553V412.516z"/>
				<path d="M218.587,338.249h68.656c6.075,0,11-4.925,11-11s-4.925-11-11-11h-68.656c-6.075,0-11,4.925-11,11
					S212.511,338.249,218.587,338.249z"/>
				<path d="M229.587,283.249c0-6.075-4.925-11-11-11h-40.318c-6.075,0-11,4.925-11,11s4.925,11,11,11h40.318
					C224.662,294.249,229.587,289.324,229.587,283.249z"/>
				<path d="M287.243,272.249h-24.656c-6.075,0-11,4.925-11,11s4.925,11,11,11h24.656c6.075,0,11-4.925,11-11
					S293.318,272.249,287.243,272.249z"/>
			</g>
		</g>
	</g>
	<g>
		<path style="fill:#33CCCC;" d="M104.621,362.772c-24.672,0-44.743,20.072-44.743,44.744s20.071,44.743,44.743,44.743
			s44.744-20.071,44.744-44.743S129.293,362.772,104.621,362.772z M104.621,430.26c-12.541,0-22.743-10.202-22.743-22.743
			s10.202-22.744,22.743-22.744s22.744,10.203,22.744,22.744S117.162,430.26,104.621,430.26z"/>
		<path style="fill:#33CCCC;" d="M483.335,29.328C464.861,10.681,440.24,0.267,414.006,0.007
			c-26.41-0.29-51.429,9.881-70.397,28.566c-18.959,18.677-29.474,43.508-29.606,69.92c-0.135,26.978,10.391,52.243,29.638,71.144
			c8.227,8.078,12.944,19.584,12.944,31.565v39.874c0,16.661,13.555,30.216,30.215,30.216h52.404
			c16.66,0,30.215-13.555,30.215-30.216v-40.137c0-0.002,0-0.004,0-0.007s0-0.004,0-0.007c0-11.787,4.748-23.221,13.027-31.368
			c19.06-18.761,29.556-43.817,29.556-70.557C512.002,72.732,501.821,47.988,483.335,29.328z M447.419,241.076
			c0,4.53-3.686,8.216-8.215,8.216h-52.404c-4.529,0-8.215-3.686-8.215-8.216v-29.137h68.834V241.076z M413.002,127.046
			c-11.27,0-20.438-9.169-20.438-20.438s9.169-20.438,20.438-20.438s20.438,9.169,20.438,20.438S424.271,127.046,413.002,127.046z
			 M467.013,153.878c-9.842,9.687-16.366,22.427-18.67,36.062h-24.342v-42.348c18.084-4.859,31.438-21.388,31.438-40.984
			c0-23.4-19.038-42.438-42.438-42.438s-42.438,19.038-42.438,42.438c0,19.596,13.354,36.125,31.438,40.984v42.348h-24.365
			c-2.319-13.686-8.811-26.404-18.582-36c-14.971-14.7-23.157-34.353-23.052-55.336c0.104-20.515,8.288-39.819,23.046-54.357
			c14.581-14.363,33.715-22.245,53.96-22.245c0.259,0,0.52,0.002,0.779,0.004c42.024,0.419,76.214,34.959,76.214,76.996
			C490.002,119.798,481.838,139.287,467.013,153.878z"/>
		<path style="fill:#33CCCC;" d="M272.425,179.401c-4.171-4.419-11.134-4.616-15.55-0.446c-4.417,4.171-4.617,11.133-0.446,15.55
			l15.685,16.611l-15.685,16.611c-4.171,4.417-3.971,11.379,0.446,15.55c2.126,2.007,4.84,3.002,7.55,3.002
			c2.921,0,5.836-1.156,8-3.448l22.815-24.163c4.003-4.239,4.003-10.864,0-15.104L272.425,179.401z"/>
		<path style="fill:#33CCCC;" d="M173.61,178.955c-4.418-4.171-11.378-3.974-15.55,0.446l-22.815,24.163
			c-4.003,4.239-4.003,10.864,0,15.104l22.815,24.163c2.164,2.292,5.079,3.448,8,3.448c2.71,0,5.425-0.995,7.55-3.002
			c4.417-4.171,4.617-11.133,0.446-15.55l-15.685-16.611l15.685-16.611C178.227,190.088,178.027,183.126,173.61,178.955z"/>
		<path style="fill:#33CCCC;" d="M222.421,172.166c-5.97-1.107-11.71,2.849-12.811,8.824l-10.369,56.266
			c-1.102,5.974,2.85,11.71,8.824,12.811c0.674,0.125,1.344,0.185,2.006,0.185c5.203,0,9.828-3.708,10.805-9.009l10.369-56.266
			C232.346,179.003,228.395,173.267,222.421,172.166z"/>
	</g>
</g>
<g>
</g>
<g>
</g>
<g>
</g>
<g>
</g>
<g>
</g>
<g>
</g>
<g>
</g>
<g>
</g>
<g>
</g>
<g>
</g>
<g>
</g>
<g>
</g>
<g>
</g>
<g>
</g>
<g>
</g>
</svg>
