<?xml version="1.0" encoding="iso-8859-1"?>
<!-- Generator: Adobe Illustrator 27.2.0, SVG Export Plug-In . SVG Version: 6.00 Build 0)  -->
<svg version="1.1" id="Capa_1" xmlns="http://www.w3.org/2000/svg" xmlns:xlink="http://www.w3.org/1999/xlink" x="0px" y="0px"
	 viewBox="0 0 504 504" style="enable-background:new 0 0 504 504;" xml:space="preserve">
<g>
	<g>
		<g>
			<g>
				<path d="M384.79,504H119.21c-14.822,0-28.096-7.664-35.507-20.5c-7.411-12.836-7.411-28.164,0-41l132.791-230l0,0
					C223.904,199.664,237.178,192,252,192s28.096,7.664,35.507,20.5l132.791,230c7.411,12.836,7.411,28.164,0,41
					C412.887,496.336,399.613,504,384.79,504z M235.545,223.5l-132.79,230c-3.435,5.949-3.435,13.051,0,19s9.585,9.5,16.455,9.5
					H384.79c6.869,0,13.02-3.551,16.455-9.5s3.435-13.051,0-19l-132.79-230c-3.435-5.949-9.586-9.5-16.455-9.5
					C245.131,214,238.98,217.552,235.545,223.5z"/>
			</g>
			<g>
				<path d="M252,444c-7.588,0.224-13.271-8.283-10.16-15.21c3.539-8.952,16.782-8.953,20.32,0
					C265.278,435.713,259.585,444.226,252,444z"/>
			</g>
			<g>
				<path d="M252,384c-6.075,0-11-4.925-11-11v-90c0-6.075,4.925-11,11-11s11,4.925,11,11v90C263,379.075,258.075,384,252,384z"/>
			</g>
		</g>
	</g>
	<path style="fill:#33CCCC;" d="M430.191,73.809C382.594,26.212,319.311,0,252,0S121.406,26.212,73.809,73.809S0,184.689,0,252
		c0,6.075,4.925,11,11,11h101c6.075,0,11-4.925,11-11c0-71.131,57.869-129,129-129s129,57.869,129,129c0,6.075,4.925,11,11,11h101
		c6.075,0,11-4.925,11-11C504,184.689,477.788,121.406,430.191,73.809z M101.396,241H22.26
		c2.607-55.143,24.725-105.263,59.586-143.597l55.941,55.94C117.129,177.226,103.811,207.624,101.396,241z M153.343,137.786
		L97.406,81.85C135.741,46.989,185.859,24.874,241,22.265v79.132C207.624,103.812,177.225,117.128,153.343,137.786z M263,101.398
		V22.265c55.141,2.609,105.259,24.724,143.594,59.584l-55.936,55.937C326.775,117.128,296.376,103.812,263,101.398z M402.603,241
		c-2.415-33.376-15.732-63.774-36.39-87.657l55.94-55.941c34.862,38.334,56.979,88.455,59.586,143.597H402.603z"/>
</g>
<g>
</g>
<g>
</g>
<g>
</g>
<g>
</g>
<g>
</g>
<g>
</g>
<g>
</g>
<g>
</g>
<g>
</g>
<g>
</g>
<g>
</g>
<g>
</g>
<g>
</g>
<g>
</g>
<g>
</g>
</svg>
