<svg id="Layer_1" data-name="Layer 1" xmlns="http://www.w3.org/2000/svg" xmlns:xlink="http://www.w3.org/1999/xlink" viewBox="0 0 1742.82 1190.29"><defs><style>.cls-1{fill:none;}.cls-2{fill:#708187;}.cls-3{clip-path:url(#clip-path);}.cls-4{fill:#273777;}.cls-5{fill:#a9aaac;}.cls-6{fill:#ccd433;}.cls-7{fill:#71b545;}.cls-8{fill:#26b3ba;}.cls-9{fill:#59b15a;}.cls-10{fill:#2785c6;}.cls-11{fill:#1d3a6c;}.cls-12{fill:#6f777e;}</style><clipPath id="clip-path"><rect id="SVGID" class="cls-1" x="1477.91" y="128.7" width="37.5" height="35.27"/></clipPath></defs><g id="logo"><path id="Fill_1" data-name="Fill 1" class="cls-2" d="M1017.7,175.94H1038V155.67H1017.7Z"/><path id="Fill_1-2" data-name="Fill 1-2" class="cls-2" d="M1048.31,175.94h20.27V155.67h-20.27Z"/><path id="Fill_2" data-name="Fill 2" class="cls-2" d="M1373.68,379.47H1394V359.2h-20.27Z"/><path id="Fill_2-2" data-name="Fill 2-2" class="cls-2" d="M1332.93,379.47h20.28V359.2h-20.28Z"/><g id="Group_153" data-name="Group 153"><path id="Fill_3" data-name="Fill 3" class="cls-2" d="M1574.17,340.14a24.3,24.3,0,0,0,10.14-8.51,36.16,36.16,0,0,0,5.47-13.58,89,89,0,0,0,1.63-18.05V181h-17.24V300a81.59,81.59,0,0,1-.81,12.17,23.67,23.67,0,0,1-2.63,8.11,11.56,11.56,0,0,1-4.87,4.46,22.11,22.11,0,0,1-8.11,1.42,26.24,26.24,0,0,1-4-.21,31.89,31.89,0,0,1-4.66-1l-4.46,16.42a52.77,52.77,0,0,0,14,1.82,34,34,0,0,0,15.6-3"/><g id="Group_7" data-name="Group 7"><path id="Clip_6-2" data-name="Clip 6-2" class="cls-1" d="M1477.91,128.7h37.5V164h-37.5Z"/><g class="cls-3"><g id="Group_7-2" data-name="Group 7-2"><path id="Fill_5" data-name="Fill 5" class="cls-2" d="M1515.41,150.8H1491.9V147a7.68,7.68,0,0,1,1.42-5.07,6.26,6.26,0,0,1,5.27-1.42h11.76V128.7h-12.17a21,21,0,0,0-15.2,5.07,22.63,22.63,0,0,0-5.27,16.42v14h37.5V150.8Z"/></g></g></g><path id="Fill_11" data-name="Fill 11" class="cls-2" d="M1467.54,343.18a63.42,63.42,0,0,1-15.2-1.82,133.88,133.88,0,0,1-17.44-5.47l5.27-16.42a75.68,75.68,0,0,0,14.4,5.06,55.62,55.62,0,0,0,14.19,1.42,37.12,37.12,0,0,0,21.69-5.67,22.74,22.74,0,0,0,7.7-19.06V284.39l-5.67,12h-4.67a111.86,111.86,0,0,1-27.16-3.25,68.64,68.64,0,0,1-22.5-10.13,49.72,49.72,0,0,1-15.41-17.64,58.68,58.68,0,0,1-.61-49.06,53.57,53.57,0,0,1,14.6-18.45,68.37,68.37,0,0,1,22.3-12.16,87.61,87.61,0,0,1,29-4.46h27.37V299.8A43.83,43.83,0,0,1,1504,331.63,49.53,49.53,0,0,1,1467.54,343.18Zm12.77-144.94a48.28,48.28,0,0,0-16.82,3,44.28,44.28,0,0,0-25.34,21.49,37.34,37.34,0,0,0-4.06,16.82,36.22,36.22,0,0,0,13.79,29.6,46.82,46.82,0,0,0,14.8,7.7,60.57,60.57,0,0,0,18,2.64h17.43V203.1l9.73-4.86Z"/><path id="Fill_12" data-name="Fill 12" class="cls-2" d="M1389.09,341.36H1076.9a35.18,35.18,0,0,1-15.61-3,24.4,24.4,0,0,1-10.14-8.52,8.81,8.81,0,0,1-.81-1.41l-.2-.41v12.77h-35.68A78.33,78.33,0,0,1,957.09,317a80.2,80.2,0,0,1-21.9-55.75v-.4a80,80,0,0,1,22.1-55.95A77.88,77.88,0,0,1,1014.86,181h46.22V298.38a82.94,82.94,0,0,0,.81,12.17,23.86,23.86,0,0,0,2.64,8.1,11.46,11.46,0,0,0,4.86,4.46,22,22,0,0,0,8.11,1.42h294.56V181h17.23l-.2,160.35ZM1014.46,197.22a60.87,60.87,0,0,0-61,60.62v3a62,62,0,0,0,60,63.86h34.67a38,38,0,0,1-2.64-8.52,89.64,89.64,0,0,1-1.62-18V202.29l10.54-5.27Z"/><path id="Fill_13" data-name="Fill 13" class="cls-2" d="M849.64,298.59l7.5,19.66L748.28,180.8h-17V340.55h17.64V220.13l-10.14-23.31L852.68,340.35h14.4V180.8H849.44V298.59Z"/><path id="Fill_14" data-name="Fill 14" class="cls-2" d="M1093.52,595.57l98.72-93.65V437.65H928.5v73.19h135.22l50.27-32L988.71,603.89l13.38,54.33h35.68c48,0,76.43,17.63,76.43,49.26v1c0,28.79-22.91,47-55.14,47-39.54,0-67.51-16.62-94.27-46.42l-59.2,55.95c33.45,39.33,82.11,67.1,152.25,67.1,87,0,140.69-53.72,140.69-126.9v-1c0-72.17-51.9-99.74-105-108.66"/><path id="Fill_15" data-name="Fill 15" class="cls-2" d="M619.35,343.18a80.17,80.17,0,0,1-59.2-24.53,83.35,83.35,0,0,1-22.5-57.57v-.4a82.76,82.76,0,0,1,22.71-57.78,81.11,81.11,0,0,1,59.39-24.73A80.17,80.17,0,0,1,679,202.7a83,83,0,0,1,22.5,57.57v.41a82.7,82.7,0,0,1-22.7,57.77A80.48,80.48,0,0,1,619.35,343.18Zm0-148.39c-34.67-.2-62.84,28-63.05,62.64v3.25a64.05,64.05,0,0,0,62,65.88h1.41a63,63,0,0,0,63-62.64v-3.24a64,64,0,0,0-62-65.89Z"/><path id="Fill_16" data-name="Fill 16" class="cls-2" d="M1427.61,832.15A210,210,0,0,1,1279,773.77a195.73,195.73,0,0,1-58.38-141.1v-1.21A196.55,196.55,0,0,1,1279.42,490a218.22,218.22,0,0,1,297.8-.61,195.64,195.64,0,0,1,58.38,140.89v1a196.55,196.55,0,0,1-58.79,141.5A209.36,209.36,0,0,1,1427.61,832.15Zm0-322.33c-66.7,0-117.18,51.9-117.18,120.83v1A118.75,118.75,0,0,0,1426.19,753.5h2.43c66.7,0,117.17-51.9,117.17-120.83v-1.21A118.73,118.73,0,0,0,1430,509.62a10,10,0,0,1-2.43.2Z"/><path id="Fill_17" data-name="Fill 17" class="cls-2" d="M488.19,340.55h18.24V180.8H488.19Z"/><path id="Fill_18" data-name="Fill 18" class="cls-2" d="M196.67,781.07l16.63-12.78,85.34-65.48c69.13-53.11,102.58-85.34,102.58-150v-1c0-72.58-53.52-119.61-134.41-119.61-69.73,0-107,28.18-145.55,80.28l60.21,48.25c29-35.48,49.66-52.1,79.87-52.1,30.61,0,52.51,17.63,52.51,50.47,0,32-19.06,53.12-67.51,93L116.39,758v67.5H405.07V751.87h-149Z"/><path id="Fill_19" data-name="Fill 19" class="cls-2" d="M197.69,341.56,266.81,180.8H247.35l-54.73,131,1.82,17.64L190,318.45,142.54,204.52l-9.93-23.72H112.34l69.13,160.76Z"/><path id="Fill_20" data-name="Fill 20" class="cls-2" d="M291.55,340.55h18.24V180.8H291.55Z"/><path id="Fill_21" data-name="Fill 21" class="cls-2" d="M405.88,252c-35.47-7.5-43.58-16-43.58-31v-.4c0-14.4,13.38-25.75,34.26-25.75A71.1,71.1,0,0,1,443,212l10.54-13.78A84.48,84.48,0,0,0,397,178.57c-30.61,0-52.91,18.45-52.91,43.59v.4c0,26.16,17,38.12,53.93,46,33.85,7.1,41.76,15.61,41.76,30.41v.41c0,15.81-14.19,27.16-35.89,27.16a77,77,0,0,1-55.14-22.5l-11.15,13.18a95.22,95.22,0,0,0,65.69,25.54c32,0,54.93-17.84,54.93-45.21v-.4c0-24.33-16.42-37.51-52.3-45.21"/><path id="Fill_22" data-name="Fill 22" class="cls-2" d="M191.81,1029h10.13v-9.94H191.81Z"/><path id="Fill_23" data-name="Fill 23" class="cls-2" d="M869.31,1007.51H758.21a56.36,56.36,0,0,1-15.4-2A40.76,40.76,0,0,1,730,999.6a30.68,30.68,0,0,1-8.92-10.13,31.61,31.61,0,0,1-3.25-14.8,32.83,32.83,0,0,1,2.84-13.18A29.45,29.45,0,0,1,728.82,951a38.92,38.92,0,0,1,12.77-6.89,51.47,51.47,0,0,1,16.62-2.44h15.41V998h38.92V941.62h9.74V998h37.09V941.62h9.73l.21,65.89ZM754.16,951.15a31.71,31.71,0,0,0-9.73,1.62,27,27,0,0,0-8.51,4.66,27.56,27.56,0,0,0-6.09,7.51,19.94,19.94,0,0,0-2.23,9.52,22.62,22.62,0,0,0,2,9.73,22,22,0,0,0,5.68,7.3,26.64,26.64,0,0,0,8.51,4.66,36.43,36.43,0,0,0,10.34,1.63h9.73V951.15Z"/><path id="Fill_24" data-name="Fill 24" class="cls-2" d="M659.69,1007.51h9.73V920.13h-9.73Z"/><path id="Fill_25" data-name="Fill 25" class="cls-2" d="M763.69,930.27h10.13v-9.93H763.69Z"/><path id="Fill_26" data-name="Fill 26" class="cls-2" d="M859.37,1029h10.14v-9.94H859.37Z"/><path id="Fill_27" data-name="Fill 27" class="cls-2" d="M209,1029h10.13v-9.94H209Z"/><path id="Fill_28" data-name="Fill 28" class="cls-2" d="M331.08,1034.27a41,41,0,0,1-8.72-1,79.35,79.35,0,0,1-9.93-3l3-9.32a40.56,40.56,0,0,0,8.31,2.84,37.14,37.14,0,0,0,8.11.81,20.23,20.23,0,0,0,12.36-3.25,12.59,12.59,0,0,0,4.46-10.94v-2.84h-5.87a66.78,66.78,0,0,1-15.61-1.83,39.3,39.3,0,0,1-13-5.88,30.68,30.68,0,0,1-8.92-10.13,31.54,31.54,0,0,1-3.24-14.8,30.73,30.73,0,0,1,3-13.38A30,30,0,0,1,313.44,951a43.84,43.84,0,0,1,12.77-7.1,51.1,51.1,0,0,1,16.63-2.63h15.81v56.35H392.5l-17.23-40.74c2.64-2.23,5.27-4.46,8.11-6.49a50.92,50.92,0,0,1,9.12-5.27,53.48,53.48,0,0,1,9.53-3.45,38,38,0,0,1,19.06,0,53.39,53.39,0,0,1,9.52,3.45,102.92,102.92,0,0,1,9.13,5.27,84.29,84.29,0,0,1,8.31,6.49l-17.23,40.74h51.49V947.3H492v50.27H511.1a17,17,0,0,0,6.28-1,16.47,16.47,0,0,0,5.27-2.84,14.67,14.67,0,0,0,3.65-5.07,20,20,0,0,0,1.42-7.7V947.3h9.73v34.46a15.55,15.55,0,0,0,1.62,6.69,21.2,21.2,0,0,0,4.06,5.48,18.65,18.65,0,0,0,6.08,3.64,24.89,24.89,0,0,0,7.9,1.42,17.56,17.56,0,0,0,13.79-5.06,18.3,18.3,0,0,0,4.46-13.38V947.7h9.73v31.43a46.1,46.1,0,0,1-.81,9.12,17.84,17.84,0,0,0,7.7,7.3A31.2,31.2,0,0,0,605.56,998h16V920.34h9.73v87.37H602.93v-.2a43,43,0,0,1-7.1-.81,28.42,28.42,0,0,1-6.89-2.64,26.26,26.26,0,0,1-4.66-3.65,18.91,18.91,0,0,1-3-4,21.22,21.22,0,0,1-9.53,9.32,32,32,0,0,1-15,3,30.12,30.12,0,0,1-14.6-3.24,24.79,24.79,0,0,1-9.73-9.12,24.45,24.45,0,0,1-8.92,8.11,27.66,27.66,0,0,1-12.77,3H358.44v1.82a25.33,25.33,0,0,1-6.48,18.25A26.94,26.94,0,0,1,331.08,1034.27Zm80.28-82.92A36.09,36.09,0,0,0,399,953.58a41.58,41.58,0,0,0-11.56,6.9l15.41,37.3h17.44l15.4-37.3A39.9,39.9,0,0,0,424.74,954,34.14,34.14,0,0,0,411.36,951.35Zm-72.58,0a32.93,32.93,0,0,0-9.93,1.62,25.93,25.93,0,0,0-8.52,4.87,27.48,27.48,0,0,0-6.08,7.5,22.83,22.83,0,0,0-.2,19.26,19.65,19.65,0,0,0,5.67,7.1,28.71,28.71,0,0,0,8.52,4.45,30,30,0,0,0,10.34,1.42h9.93V951.35Z"/><path id="Fill_29" data-name="Fill 29" class="cls-2" d="M158.36,930.27h10.13v-9.93H158.36Z"/><path id="Fill_30" data-name="Fill 30" class="cls-2" d="M1149.88,930.27H1160v-9.93h-10.13Z"/><path id="Fill_31" data-name="Fill 31" class="cls-2" d="M1063.11,1007.51h9.73V920.13h-9.73Z"/><path id="Fill_32" data-name="Fill 32" class="cls-2" d="M746.46,930.27h10.13v-9.93H746.46Z"/><path id="Fill_33" data-name="Fill 33" class="cls-2" d="M286.68,969.19a32,32,0,0,0-1.62-10.74,21.82,21.82,0,0,0-4.66-8.52,30.79,30.79,0,0,0-8.72-6.48,29.39,29.39,0,0,0-11.76-2h-7.3v9.73h8.52a18,18,0,0,1,6.69,1.42,14.71,14.71,0,0,1,5.27,4,11.69,11.69,0,0,1,2.84,5.68,30.26,30.26,0,0,1,.81,7.3v28.18H230.93v9.73h55.75Z"/><path id="Fill_34" data-name="Fill 34" class="cls-2" d="M1581.68,1007.51h9.73V920.13h-9.73Z"/><path id="Fill_35" data-name="Fill 35" class="cls-2" d="M1167.11,930.27h10.13v-9.93h-10.13Z"/><path id="Fill_36" data-name="Fill 36" class="cls-2" d="M1476.87,1018.66a34.45,34.45,0,0,1-14.19-3,37.77,37.77,0,0,1-11.36-8.11h-43.18a34,34,0,0,1-11.75,8.11,33,33,0,0,1-14.6,2.83,34.32,34.32,0,0,1-14.19-3,37.26,37.26,0,0,1-11.35-8.11H1161.63a56.3,56.3,0,0,1-15.4-2,40.88,40.88,0,0,1-12.77-5.88,30.71,30.71,0,0,1-8.92-10.14,31.55,31.55,0,0,1-3.25-14.8,33.52,33.52,0,0,1,2.84-13.17,29.25,29.25,0,0,1,8.11-10.54,39,39,0,0,1,12.77-6.9,51.74,51.74,0,0,1,16.62-2.43H1177v56.36h90.62V983a28.25,28.25,0,0,0-.81-7.1,12.59,12.59,0,0,0-2.84-5.67,15,15,0,0,0-5.47-3.86,22.17,22.17,0,0,0-8.11-1.41h-49.67a12.91,12.91,0,0,1-2.84-4.46,27.75,27.75,0,0,1-1.62-5.48l18.85-34.87h10.75l-18.45,35.07h43.38a31.34,31.34,0,0,1,12.16,2,23.85,23.85,0,0,1,8.52,6.29,20.68,20.68,0,0,1,4.66,8.51,38,38,0,0,1,1.42,10.75v15h31.22V920.13h9.73v77.65h31.22a68.8,68.8,0,0,1-2.23-6.9,30.27,30.27,0,0,1-.81-7.5,35.1,35.1,0,0,1,35.07-35.47,37.59,37.59,0,0,1,14.19,2.63,35.81,35.81,0,0,1,11.35,7.5,33.79,33.79,0,0,1,7.5,11.15,37.4,37.4,0,0,1,2.84,14,35.21,35.21,0,0,1-3,14.39H1445a69.44,69.44,0,0,1-2.23-6.89,30.27,30.27,0,0,1-.81-7.5,35.13,35.13,0,0,1,35.07-35.48,37.4,37.4,0,0,1,14.19,2.64,35.64,35.64,0,0,1,11.35,7.5,33.69,33.69,0,0,1,7.5,11.15,37.4,37.4,0,0,1,2.84,14,35.24,35.24,0,0,1-3,14.39h33.45V919.73h9.73v87.37h-49.87a33.82,33.82,0,0,1-11.76,8.11A30.38,30.38,0,0,1,1476.87,1018.66Zm0-61a25.33,25.33,0,0,0-10.14,2,24.1,24.1,0,0,0-7.9,5.48,26.69,26.69,0,0,0-5.28,8.11,27.89,27.89,0,0,0-1.82,9.93,25.92,25.92,0,0,0,7.1,18,26.39,26.39,0,0,0,7.9,5.48,24.23,24.23,0,0,0,9.94,2,28.8,28.8,0,0,0,10.13-1.82,24.81,24.81,0,0,0,13.79-13.38,25.12,25.12,0,0,0,2-10.14,26.14,26.14,0,0,0-2-10.34,22,22,0,0,0-5.48-8.1,26.69,26.69,0,0,0-8.11-5.28A24,24,0,0,0,1476.87,957.64Zm-95.08,0a24.77,24.77,0,0,0-18,7.5,26.48,26.48,0,0,0-5.27,8.11,27.86,27.86,0,0,0,0,19.86,24.29,24.29,0,0,0,5.27,8.11,26.51,26.51,0,0,0,7.9,5.48,24.23,24.23,0,0,0,9.94,2,30.84,30.84,0,0,0,10.34-1.82,25.4,25.4,0,0,0,15.81-23.52,26.15,26.15,0,0,0-2-10.34,22,22,0,0,0-5.47-8.1,26.69,26.69,0,0,0-8.11-5.28A25.57,25.57,0,0,0,1381.79,957.64Zm-224.21-6.49a31.71,31.71,0,0,0-9.73,1.62,27.2,27.2,0,0,0-8.52,4.66,27.53,27.53,0,0,0-6.08,7.51,19.94,19.94,0,0,0-2.23,9.52,22.62,22.62,0,0,0,2,9.73,22,22,0,0,0,5.68,7.3,26.64,26.64,0,0,0,8.51,4.66,36.43,36.43,0,0,0,10.34,1.63h9.73V951.15Z"/><path id="Fill_37" data-name="Fill 37" class="cls-2" d="M217.15,1007.51H152.88a56.31,56.31,0,0,1-15.4-2,40.65,40.65,0,0,1-12.77-5.88,30.68,30.68,0,0,1-8.92-10.13,31.61,31.61,0,0,1-3.25-14.8,32.83,32.83,0,0,1,2.84-13.18A29.34,29.34,0,0,1,123.49,951a38.92,38.92,0,0,1,12.77-6.89,51.47,51.47,0,0,1,16.62-2.44h15.41V998h39.13V941.62h9.73v65.89ZM149,951.15a31.71,31.71,0,0,0-9.73,1.62,27,27,0,0,0-8.51,4.66,27.35,27.35,0,0,0-6.08,7.51,19.82,19.82,0,0,0-2.23,9.52,22.61,22.61,0,0,0,2,9.73,22.17,22.17,0,0,0,5.68,7.3,26.64,26.64,0,0,0,8.51,4.66A36.49,36.49,0,0,0,149,997.78h9.73V951.15Z"/><path id="Fill_38" data-name="Fill 38" class="cls-2" d="M823.49,1029h10.14v-9.94H823.49Z"/><path id="Fill_39" data-name="Fill 39" class="cls-2" d="M806.26,1029H816.4v-9.94H806.26Z"/><path id="Fill_40" data-name="Fill 40" class="cls-2" d="M889.58,1034.27a35.16,35.16,0,0,1-7.91-1l2.64-9.32c.81.2,1.82.4,2.63.61.81,0,1.63.2,2.23.2a12.57,12.57,0,0,0,4.67-.81,6,6,0,0,0,2.83-2.64,12.27,12.27,0,0,0,1.42-4.66,40.07,40.07,0,0,0,.41-7.1V941.42h9.73v56.36h36.49L927.49,957c2.63-2.23,5.27-4.46,8.11-6.49a50.92,50.92,0,0,1,9.12-5.27,53.17,53.17,0,0,1,9.53-3.44,36.78,36.78,0,0,1,9.53-1.22,37.9,37.9,0,0,1,9.52,1.22,53.17,53.17,0,0,1,9.53,3.44,80.47,80.47,0,0,1,9.12,5.27,84.74,84.74,0,0,1,8.32,6.49L983,997.78h41.77V920.13h9.73v87.38H908.43v2a44.73,44.73,0,0,1-1,10.34,23.6,23.6,0,0,1-3,7.71,12.54,12.54,0,0,1-5.88,4.86A17.29,17.29,0,0,1,889.58,1034.27ZM964,951.35a36.09,36.09,0,0,0-12.37,2.23,41.52,41.52,0,0,0-11.55,6.9l15.4,37.3H972.9l15.41-37.3A40.1,40.1,0,0,0,977.36,954,34.86,34.86,0,0,0,964,951.35Z"/><path id="Fill_41" data-name="Fill 41" class="cls-2" d="M141.13,930.27h10.13v-9.93H141.13Z"/><path id="Fill_42" data-name="Fill 42" class="cls-2" d="M182.89,1071.57H167.68l-33.24,34.87v-34.87H122.07v69.53h12.37V1121l10.94-11.15,23.92,31.22h15l-30.41-39.73Z"/><path id="Fill_43" data-name="Fill 43" class="cls-2" d="M195.46,1141.1h12.36v-69.53H195.46Z"/><path id="Fill_44" data-name="Fill 44" class="cls-2" d="M275.53,1119.61l-37.5-48H226.68v69.53h12.16v-49.46l38.72,49.46H287.9v-69.53H275.73v48Z"/><path id="Fill_45" data-name="Fill 45" class="cls-2" d="M338.58,1112.72h17.84v13a29.53,29.53,0,0,1-16.83,5.28,23.46,23.46,0,0,1-23.92-22.71V1106a23.56,23.56,0,0,1,22.5-24.53h.21A27.21,27.21,0,0,1,358,1089l7.91-9.12a38.7,38.7,0,0,0-27-9.53,35.56,35.56,0,0,0-36.08,35.07v1a34.76,34.76,0,0,0,33.25,35.88h3a44.21,44.21,0,0,0,29.19-11v-29.19h-29.8Z"/><path id="Fill_46" data-name="Fill 46" class="cls-2" d="M411.56,1141.1H385.41v-69.53h26.15a34.62,34.62,0,0,1,37.1,32.23v2.43a34.87,34.87,0,0,1-34.87,34.87Zm-13.79-58.38V1130h13.79a22.9,22.9,0,0,0,24.33-21.28v-2.23a23,23,0,0,0-22.1-23.72h-16Z"/><path id="Fill_47" data-name="Fill 47" class="cls-2" d="M496.7,1142.12a35.33,35.33,0,0,1-36.49-34.06v-1.83a35.74,35.74,0,0,1,10.34-25.34,36.93,36.93,0,0,1,26.35-10.54,35.35,35.35,0,0,1,36.49,34.26v1.83a35.73,35.73,0,0,1-10.33,25.34A36.93,36.93,0,0,1,496.7,1142.12Zm0-60.62A23.53,23.53,0,0,0,473.19,1105v1.21A24.15,24.15,0,0,0,496.5,1131h.4a23.84,23.84,0,0,0,23.72-23.52v-1.22a23.64,23.64,0,0,0-22.7-24.73Z"/><path id="Fill_48" data-name="Fill 48" class="cls-2" d="M583.26,1104.41,562,1071.57H548.8v69.53H561v-49.67l21.89,32.64h.4l22.1-32.84v49.87h12.37v-69.53H604.55Z"/><path id="Fill_49" data-name="Fill 49" class="cls-2" d="M699,1142.12a35.33,35.33,0,0,1-36.49-34.06v-1.83a35.74,35.74,0,0,1,10.34-25.34,36.91,36.91,0,0,1,26.35-10.54,35.36,35.36,0,0,1,36.49,34.26v1.83a35.74,35.74,0,0,1-10.34,25.34A36.9,36.9,0,0,1,699,1142.12Zm0-60.62A23.54,23.54,0,0,0,675.5,1105v1.21A24.16,24.16,0,0,0,698.82,1131h.4a23.84,23.84,0,0,0,23.72-23.52v-1.22a23.64,23.64,0,0,0-22.7-24.73Z"/><path id="Fill_50" data-name="Fill 50" class="cls-2" d="M751.12,1141.1h12.37v-28.38h35.27v-11.15H763.49v-19.06h39.73v-11.14h-52.1Z"/><path id="Fill_51" data-name="Fill 51" class="cls-2" d="M873.77,1100.76c-13.38-3.24-16.63-5.47-16.63-11v-.2c0-4.66,4.26-8.31,11.36-8.31a32.9,32.9,0,0,1,19,7.09l6.69-9.12a38.55,38.55,0,0,0-25.34-8.72,21.27,21.27,0,0,0-23.72,18.65c0,.41-.2,1-.2,1.63v.2c0,12.77,8.31,17.23,23.31,20.68,13,3,15.82,5.67,15.82,10.54v.2c0,5.27-4.87,8.72-12.37,8.72a31.18,31.18,0,0,1-22.1-9.12l-7.5,8.71a43.41,43.41,0,0,0,29.19,11.15c14.8,0,24.94-7.7,24.94-20.67V1121c0-11.55-7.7-16.82-22.5-20.27"/><path id="Fill_52" data-name="Fill 52" class="cls-2" d="M915.73,1141.1H903.16L934,1071.16h11.35l30.81,69.94h-13l-7.1-16.82H923l-7.3,16.82Zm23.72-55.54-12,27.77h24.12Z"/><path id="Fill_53" data-name="Fill 53" class="cls-2" d="M1031.08,1111.5c0,12.78-6.69,19.26-17.64,19.26s-17.63-6.89-17.63-19.86v-39.53H983.44v40.13a27.26,27.26,0,0,0,30,30.41,27.78,27.78,0,0,0,30.21-25.34,19.36,19.36,0,0,0-.2-5.88v-39.53h-12.37v40.34Z"/><path id="Fill_54" data-name="Fill 54" class="cls-2" d="M1087.44,1141.1h-26.15v-69.53h26.15a34.73,34.73,0,0,1,37.1,32.23v2.43a34.87,34.87,0,0,1-34.87,34.87Zm-13.79-58.38V1130h13.79a22.88,22.88,0,0,0,24.32-21.28v-2.23a23,23,0,0,0-22.09-23.72h-16Z"/><path id="Fill_55" data-name="Fill 55" class="cls-2" d="M1140.14,1141.1h12.37v-69.53h-12.37Z"/><path id="Fill_56" data-name="Fill 56" class="cls-2" d="M1207.85,1141.1h-12.56l30.81-69.94h11.35l30.82,69.94h-13l-7.09-16.82h-33l-7.3,16.82Zm23.72-55.54-12,27.77h24.13Z"/><path id="Fill_57" data-name="Fill 57" class="cls-2" d="M1292.19,1141.1h-12.37v-69.53H1311a28.74,28.74,0,0,1,20.27,6.89,21.5,21.5,0,0,1,5.88,15v.2a21,21,0,0,1-16.62,21.09l18.85,26.35H1325l-17.23-24.32h-15.41v24.32Zm0-58.38V1106h18c8.72,0,14.39-4.46,14.39-11.55v-.21c0-7.3-5.27-11.55-14.59-11.55Z"/><path id="Fill_58" data-name="Fill 58" class="cls-2" d="M1360.91,1141.1h-12.57l30.82-70.14h11.35l30.81,69.94h-13l-7.1-16.83h-33l-7.3,17Zm23.72-55.54-12,27.77h24.12Z"/><path id="Fill_59" data-name="Fill 59" class="cls-2" d="M1465.52,1141.1h-32.44v-69.53h31.42a25.88,25.88,0,0,1,18.25,6.08,15.29,15.29,0,0,1,4.66,11.55v.21a16.37,16.37,0,0,1-9.93,15.4,17.16,17.16,0,0,1,14,16.83v.2C1491.26,1133.8,1481.73,1141.1,1465.52,1141.1Zm-20.48-30v19.05h20.48c8.51,0,13.58-3.44,13.58-9.52v-.21c0-6.08-5.07-9.32-14.4-9.32Zm0-28.79v18.45h16.83c8.31,0,13.17-3.45,13.17-9.53h0c0-5.47-4.66-8.92-12.36-8.92Z"/><path id="Fill_60" data-name="Fill 60" class="cls-2" d="M1506.47,1141.1h12.36v-69.53h-12.36Z"/><path id="Fill_61" data-name="Fill 61" class="cls-2" d="M1543.16,1141.1h-12.57l30.81-69.94h11.36l30.81,69.94h-13l-7.1-16.82h-33l-7.3,16.82Zm23.72-55.54-12,27.77H1579Z"/><path id="Fill_62" data-name="Fill 62" class="cls-4" d="M638.61,405.62l19.87,18.86-19.06,19.66-19.87-18.85Z"/><path id="Fill_63" data-name="Fill 63" class="cls-5" d="M683.82,425.29l19.86,18.85,19.06-19.66-19.87-18.86Z"/><path id="Fill_64" data-name="Fill 64" class="cls-6" d="M655.84,450l15.41,14.6,14.8-15.21-15.41-14.6Z"/><path id="Fill_65" data-name="Fill 65" class="cls-7" d="M712.4,458.33l15.41,14.8,14.8-15.2-15.41-14.8Z"/><path id="Fill_66" data-name="Fill 66" class="cls-6" d="M630.7,473.33l15.41,14.8,14.8-15.2-15.41-14.8Z"/><path id="Fill_67" data-name="Fill 67" class="cls-8" d="M682.4,475.16,697.8,490l14.8-15.21L697.2,460Z"/><path id="Fill_68" data-name="Fill 68" class="cls-7" d="M662.12,492.79l10.75,10.34,10.34-10.74-10.75-10.34Z"/><path id="Fill_69" data-name="Fill 69" class="cls-9" d="M703.07,500.9l10.75,10.34,10.34-10.74-10.75-10.34Z"/><path id="Fill_70" data-name="Fill 70" class="cls-10" d="M792.27,419l6.08,33.45L832,446.37l-6.09-33.45Z"/><path id="Fill_71" data-name="Fill 71" class="cls-11" d="M748.48,433l4.87,26.76,27-4.87-4.86-26.75Z"/><path id="Fill_72" data-name="Fill 72" class="cls-8" d="M800.58,470.29l4.87,26.76,27-4.86-4.86-26.76Z"/><path id="Fill_73" data-name="Fill 73" class="cls-6" d="M763.49,474.14,767.34,495l21.08-3.85-3.85-20.88Z"/><path id="Fill_74" data-name="Fill 74" class="cls-5" d="M804.23,513.88l3.85,20.88,21.09-3.85L825.32,510Z"/><path id="Fill_75" data-name="Fill 75" class="cls-8" d="M731.86,482.66l3.85,20.88,21.09-3.85-3.86-20.88Z"/><path id="Fill_76" data-name="Fill 76" class="cls-7" d="M770,510l3.85,20.88,21.09-3.86-3.85-20.88Z"/><path id="Fill_77" data-name="Fill 77" class="cls-5" d="M743.21,512.46l2.64,14.59,14.8-2.63L758,509.82Z"/><path id="Fill_78" data-name="Fill 78" class="cls-9" d="M771.59,542.87l2.64,14.59,14.8-2.63-2.64-14.6Z"/><path id="Fill_79" data-name="Fill 79" class="cls-4" d="M892.21,528.27l-14.59,30.61,30.81,14.6L923,542.87Z"/><path id="Fill_80" data-name="Fill 80" class="cls-8" d="M848.43,514.08l-11.76,24.53,24.73,11.76,11.76-24.53Z"/><path id="Fill_81" data-name="Fill 81" class="cls-7" d="M868.7,574.69l-11.76,24.53L881.67,611l11.76-24.53Z"/><path id="Fill_82" data-name="Fill 82" class="cls-6" d="M836.26,556.25l-9.12,19,19.26,9.12,9.12-19Z"/><path id="Fill_83" data-name="Fill 83" class="cls-6" d="M846,612l-9.12,19.06,19.26,9.12,9.12-19Z"/><path id="Fill_84" data-name="Fill 84" class="cls-10" d="M805.65,544.89,796.53,564l19.26,9.12L824.91,554Z"/><path id="Fill_85" data-name="Fill 85" class="cls-5" d="M820.65,589.09l-9.12,19,19.26,9.13,9.12-19.06Z"/><path id="Fill_86" data-name="Fill 86" class="cls-7" d="M797.34,575.71l-6.49,13.38,13.59,6.48,6.48-13.38Z"/><path id="Fill_87" data-name="Fill 87" class="cls-8" d="M802.61,616.66,796.12,630l13.59,6.48,6.48-13.38Z"/><path id="Fill_88" data-name="Fill 88" class="cls-10" d="M908.84,675l-30,16.22,16.43,29.8,30-16.22Z"/><path id="Fill_89" data-name="Fill 89" class="cls-8" d="M881.67,638.15l-24.12,13.17,13.18,23.92,23.92-13.17Z"/><path id="Fill_90" data-name="Fill 90" class="cls-8" d="M862.41,699l-24.12,13.18,13.18,23.92,23.92-13.18Z"/><path id="Fill_91" data-name="Fill 91" class="cls-4" d="M847,665.11l-18.65,10.13,10.34,18.65,18.65-10.13Z"/><path id="Fill_92" data-name="Fill 92" class="cls-9" d="M822.07,716l-18.65,10.14,10.34,18.65,18.65-10.14Z"/><path id="Fill_93" data-name="Fill 93" class="cls-11" d="M829,638.15l-18.66,10.13,10.34,18.65L839.3,656.8Z"/><path id="Fill_94" data-name="Fill 94" class="cls-6" d="M815,682.75l-18.65,10.13,10.34,18.65,18.65-10.13Z"/><path id="Fill_95" data-name="Fill 95" class="cls-5" d="M804,658.22l-13.18,7.09,7.3,13.18,13.18-7.1Z"/><path id="Fill_96" data-name="Fill 96" class="cls-8" d="M784,694.5l-13.18,7.1,7.3,13,13.18-7.09Z"/><path id="Fill_97" data-name="Fill 97" class="cls-7" d="M835.86,803.57,802,799.31,797.75,833l33.85,4.26Z"/><path id="Fill_98" data-name="Fill 98" class="cls-11" d="M835.65,758l-27.16-3.45-3.45,27,27.17,3.45Z"/><path id="Fill_99" data-name="Fill 99" class="cls-8" d="M784.16,796.07,757,792.62l-3.45,27L780.72,823Z"/><path id="Fill_100" data-name="Fill 100" class="cls-7" d="M791.46,759.58l-21.08-2.64L767.74,778l21.09,2.64Z"/><path id="Fill_101" data-name="Fill 101" class="cls-5" d="M741.19,786.54,720.1,783.9,717.47,805l21.08,2.43Z"/><path id="Fill_102" data-name="Fill 102" class="cls-5" d="M792.88,727.34l-21.29-2.63L769,745.79,790,748.43Z"/><path id="Fill_103" data-name="Fill 103" class="cls-7" d="M755.17,755.32l-21.28-2.64-2.64,21.09,21.09,2.63Z"/><path id="Fill_104" data-name="Fill 104" class="cls-5" d="M760.85,729.17l-14.8-1.83-1.82,14.8L759,744Z"/><path id="Fill_105" data-name="Fill 105" class="cls-5" d="M723.14,747l-14.8-1.83L706.52,760l14.8,1.83Z"/><path id="Fill_106" data-name="Fill 106" class="cls-6" d="M700.84,865.4l-25.13-23.11-23.32,24.93,25.14,23.11Z"/><path id="Fill_107" data-name="Fill 107" class="cls-7" d="M696.38,390.42l-25.13-23.11-23.32,24.93,25.14,23.11Z"/><path id="Fill_108" data-name="Fill 108" class="cls-8" d="M727.6,828.3l-20.07-18.45-18.65,19.87L709,848.17Z"/><path id="Fill_109" data-name="Fill 109" class="cls-7" d="M663.34,829.31l-20.07-18.44-18.65,19.86,20.07,18.45Z"/><path id="Fill_110" data-name="Fill 110" class="cls-10" d="M690.91,804.18l-15.61-14.4-14.6,15.61,15.61,14.4Z"/><path id="Fill_111" data-name="Fill 111" class="cls-6" d="M634.35,796.68l-15.61-14.4-14.59,15.61,15.6,14.4Z"/><path id="Fill_112" data-name="Fill 112" class="cls-6" d="M711,778.63l-15.61-14.39-14.6,15.61,15.61,14.39Z"/><path id="Fill_113" data-name="Fill 113" class="cls-5" d="M664,779.44l-15.61-14.39-14.6,15.61,15.61,14.39Z"/><path id="Fill_114" data-name="Fill 114" class="cls-11" d="M683.82,761.6l-11-10.13-10.14,10.95,10.95,10.13Z"/><path id="Fill_115" data-name="Fill 115" class="cls-5" d="M642.87,754.1l-11-10.13-10.14,10.94,11,10.14Z"/><path id="Fill_116" data-name="Fill 116" class="cls-10" d="M555.09,837.22,548.4,804,515,810.66l6.69,33.25Z"/><path id="Fill_117" data-name="Fill 117" class="cls-8" d="M598.67,822.62l-5.47-26.76-27,5.28,5.47,26.75Z"/><path id="Fill_118" data-name="Fill 118" class="cls-7" d="M546,786.13l-5.47-26.76-27,5.28L519,791.4Z"/><path id="Fill_119" data-name="Fill 119" class="cls-6" d="M583.06,781.67,578.8,761l-20.88,4,4.26,20.68Z"/><path id="Fill_120" data-name="Fill 120" class="cls-4" d="M614.28,772.75,610,752.08l-20.88,4L593.4,777Z"/><path id="Fill_121" data-name="Fill 121" class="cls-10" d="M575.76,746l-4.25-20.67-20.88,4.25,4.25,20.68Z"/><path id="Fill_122" data-name="Fill 122" class="cls-7" d="M602.52,743l-2.83-14.59-14.8,2.84,2.83,14.59Z"/><path id="Fill_123" data-name="Fill 123" class="cls-5" d="M573.53,713.15l-2.83-14.59-14.8,2.84L558.74,716Z"/><path id="Fill_124" data-name="Fill 124" class="cls-8" d="M453.32,729.57l14.19-30.81-31-14L422.3,715.59Z"/><path id="Fill_125" data-name="Fill 125" class="cls-6" d="M497.31,743.16l11.35-24.74-24.93-11.35L472.38,731.8Z"/><path id="Fill_126" data-name="Fill 126" class="cls-10" d="M476,683l11.36-24.73-24.94-11.36L451.09,671.6Z"/><path id="Fill_127" data-name="Fill 127" class="cls-8" d="M508.87,700.79l8.92-19.26-19.47-8.72-8.92,19.26Z"/><path id="Fill_128" data-name="Fill 128" class="cls-5" d="M534.81,749l8.92-19.26-19.46-8.72-8.92,19.26Z"/><path id="Fill_129" data-name="Fill 129" class="cls-4" d="M498.12,645.24,507,626l-19.46-8.71-8.92,19.25Z"/><path id="Fill_130" data-name="Fill 130" class="cls-9" d="M539.48,711.73l8.92-19.25-19.47-8.72L520,703Z"/><path id="Fill_131" data-name="Fill 131" class="cls-6" d="M523.87,667.74l8.92-19.25-19.46-8.72L504.41,659Z"/><path id="Fill_132" data-name="Fill 132" class="cls-11" d="M547.38,680.72l6.29-13.58-13.59-6.29-6.28,13.58Z"/><path id="Fill_133" data-name="Fill 133" class="cls-7" d="M541.5,639.77l6.29-13.58-13.58-6.29-6.29,13.58Z"/><path id="Fill_134" data-name="Fill 134" class="cls-8" d="M434.26,583.21l29.6-16.83-17-29.39-29.6,16.82Z"/><path id="Fill_135" data-name="Fill 135" class="cls-7" d="M462,619.7l23.72-13.38L472.17,582.6l-23.72,13.58Z"/><path id="Fill_136" data-name="Fill 136" class="cls-11" d="M480.28,558.68,504,545.3l-13.58-23.72L466.7,535.16Z"/><path id="Fill_137" data-name="Fill 137" class="cls-10" d="M496.3,592.13l18.44-10.54L504.2,563.14l-18.44,10.54Z"/><path id="Fill_138" data-name="Fill 138" class="cls-7" d="M520.42,540.84l18.45-10.54-10.54-18.45-18.45,10.54Z"/><path id="Fill_139" data-name="Fill 139" class="cls-8" d="M514.74,618.89l18.45-10.54L522.65,589.9,504.2,600.44Z"/><path id="Fill_140" data-name="Fill 140" class="cls-6" d="M528.12,574.09l18.45-10.55L536,545.1l-18.45,10.54Z"/><path id="Fill_141" data-name="Fill 141" class="cls-5" d="M539.27,598.21l13-7.3-7.5-13-13,7.3Z"/><path id="Fill_142" data-name="Fill 142" class="cls-7" d="M558.74,561.72l13-7.3-7.5-13-13,7.3Z"/><path id="Fill_143" data-name="Fill 143" class="cls-7" d="M505,453.47l34.06,3.64,3.65-33.65-34.06-3.65Z"/><path id="Fill_144" data-name="Fill 144" class="cls-5" d="M506,499.28l27.16,2.84,2.84-27-27.16-2.84Z"/><path id="Fill_145" data-name="Fill 145" class="cls-8" d="M556.91,460.16,584.08,463l2.83-27-27.16-2.84Z"/><path id="Fill_146" data-name="Fill 146" class="cls-6" d="M550,496.65l21.28,2.23,2.23-21.09-21.28-2.23Z"/><path id="Fill_147" data-name="Fill 147" class="cls-10" d="M599.89,469.08l21.28,2.23,2.23-21.09L602.12,448Z"/><path id="Fill_148" data-name="Fill 148" class="cls-8" d="M549.41,529.08l21.29,2.23,2.23-21.08L551.64,508Z"/><path id="Fill_149" data-name="Fill 149" class="cls-7" d="M586.51,500.5l21.28,2.23L610,481.64l-21.28-2.23Z"/><path id="Fill_150" data-name="Fill 150" class="cls-11" d="M581.44,526.65l15,1.62,1.62-14.8-15-1.62Z"/><path id="Fill_151" data-name="Fill 151" class="cls-5" d="M618.74,508.2l15,1.62,1.62-14.8-15-1.62Z"/><path id="Fill_152" data-name="Fill 152" class="cls-12" d="M779.91,649.7a67.27,67.27,0,0,0-13.59-5.88,80,80,0,0,0-37.3-2.63,91,91,0,0,0-16.22,4l-1.62.61a77.91,77.91,0,0,0-8.51,3.85c-2.43,1.22-4.87,2.64-7.3,4.06a150.93,150.93,0,0,0-16.22,11.15,341,341,0,0,1-1.62-86.16.2.2,0,0,1,.2-.2h0c13,8.1,9.33,30.61,6.49,37.09a.2.2,0,0,0,.2.21,39.57,39.57,0,0,0,4.87-45c0-.2,0-.2.2-.2a39.86,39.86,0,0,1,5.88,5.88,34.58,34.58,0,0,1,7.3,19.05,63.42,63.42,0,0,1,0,8.72c0,.61-.2,1.22-.2,1.83,0,.2,0,.2.2.2h0a36.55,36.55,0,0,0,0-33.65,50.19,50.19,0,0,0-7.3-9.94,38,38,0,0,0-2.84-2.84v-.2c0-.2,0,0,.21,0h0a15.05,15.05,0,0,1,2.83.81,25.18,25.18,0,0,1,7.3,3.85A29.47,29.47,0,0,1,713,577.94a32.79,32.79,0,0,1,2.43,12.36.2.2,0,0,0,.2.21c.21,0,.21,0,.21-.21a28.89,28.89,0,0,0-12.78-35.07,29.6,29.6,0,0,0-7.29-3.24,20.51,20.51,0,0,0-3.45-.81c-.2,0-.2-.2,0-.2a20.16,20.16,0,0,1,3.45-.21,44.83,44.83,0,0,1,7.29.61,26,26,0,0,1,10.14,4.06,21.53,21.53,0,0,1,6.89,7.29c0,.21.21,0,.21,0a20,20,0,0,0-7.1-13.58,28.53,28.53,0,0,0-10.14-5.27,30,30,0,0,0-7.29-1,23.42,23.42,0,0,0-9.13,1.62c-.2,0-.2,0-.2-.2a16.06,16.06,0,0,1,9.33-6.49,17.88,17.88,0,0,1,7.29-.81,14.73,14.73,0,0,1,5.88,1.42h.21v-.21a23.08,23.08,0,0,0-6.09-4.86,21.93,21.93,0,0,0-7.29-2.43,17.87,17.87,0,0,0-17.44,8.71h-.2c-.81-1.42-1.62-3.24-2.43-4.86a61.52,61.52,0,0,1-4.06-13.18.2.2,0,1,0-.4,0,61.52,61.52,0,0,1-4.06,13.18c-.81,1.62-1.42,3.24-2.43,4.86h-.2a19,19,0,0,0-25.95-5.88,20.69,20.69,0,0,0-4.87,4.46v.21H634a19.46,19.46,0,0,1,22.5,5.88v.2h-.2a26.87,26.87,0,0,0-28.79,7.09,21.32,21.32,0,0,0-4.87,11.15c0,.21.21.21.21,0a22.78,22.78,0,0,1,4.46-5.47A30.08,30.08,0,0,1,650.57,551c.2,0,.2.2,0,.2a31,31,0,0,0-23.31,18.45,32.77,32.77,0,0,0-.21,20.67.21.21,0,0,0,.21.21c.2,0,.2,0,.2-.21v-.6a30.86,30.86,0,0,1,22.7-30.21.2.2,0,0,1,.21.2v.2A37.3,37.3,0,0,0,640,606.12h.2v-.21a37.91,37.91,0,0,1,13-35.68c.21,0,.21,0,.21.21a39.92,39.92,0,0,0,4.86,45c0,.2.21,0,.21-.2-2.64-6.49-6.29-29,6.48-37.1h.2a349.37,349.37,0,0,1-1.62,86.16,130.46,130.46,0,0,0-32-18.86c-1.42-.4-2.63-1-3.85-1.41a85,85,0,0,0-30.2-4.26,75.64,75.64,0,0,0-31.22,7.9c-1.22.61-2.23,1.22-3,1.63-.21.2-.21.2,0,.4a.7.7,0,0,0,.4.2c1-.2,1.83-.6,2.84-.81a90,90,0,0,1,31.22-3,91.54,91.54,0,0,1,30.2,8.11A161.66,161.66,0,0,1,664,677.47a399.21,399.21,0,0,1-36.09,30.62l-1.21.6a8.27,8.27,0,0,0-11.76-1.82,8.07,8.07,0,0,0-3.24,4.86,8.5,8.5,0,0,0,1.62,7.3,12.24,12.24,0,0,0,14.59,2c10.55-4.46,23.72-18.25,39.94-33,1.42-1.22,2.64-2.44,4.05-3.65,1.42,1.21,2.64,2.43,4.06,3.65,7.3,6.69,14,13.17,20.07,18.65,2.43,2.23,4.86,4.46,7.3,6.28a69.55,69.55,0,0,0,10.13,7.1,13.1,13.1,0,0,0,16.22-.41,3,3,0,0,1,.81-.61,9.2,9.2,0,0,0,1.62-7.3,7.5,7.5,0,0,0-2.43-4.05,9.24,9.24,0,0,0-3.85-2.23,8.59,8.59,0,0,0-8.72,3.24,19.71,19.71,0,0,1-3.44-2.23,124.59,124.59,0,0,1-10.14-8.11c-2.23-2-4.66-4.25-7.3-6.48-5.07-4.46-10.54-9.53-16.22-14.6,5.27-4.26,10.75-8.51,16.22-12.16,2.43-1.62,4.87-3,7.3-4.66,3.24-2,6.69-3.65,10.14-5.48a111.32,111.32,0,0,1,16.21-6.08,85.75,85.75,0,0,1,37.3-2.23q6.69,1.22,13.38,3c.21,0,.41,0,.41-.2-.81.4-.81.2-1,.2"/></g></g></svg>