<?xml version="1.0" encoding="UTF-8"?>
<!-- Generator: Adobe Illustrator 26.5.0, SVG Export Plug-In . SVG Version: 6.00 Build 0)  -->
<svg xmlns="http://www.w3.org/2000/svg" xmlns:xlink="http://www.w3.org/1999/xlink" version="1.1" id="Capa_1" x="0px" y="0px" viewBox="0 0 512 512" style="enable-background:new 0 0 512 512;" xml:space="preserve" width="512" height="512">
<path d="M289.722,512h-67.443c-5.595,0-10.298-4.199-10.93-9.758l-5.529-48.666c-19.127-4.723-37.386-12.116-54.461-22.053  l-37.904,30.169c-4.378,3.484-10.673,3.127-14.629-0.828l-47.69-47.689c-3.956-3.956-4.312-10.251-0.828-14.628l29.091-36.551  c-11.009-17.493-19.273-36.35-24.646-56.231l-44.995-5.113C4.199,300.02,0,295.316,0,289.722v-67.443  c0-5.595,4.199-10.298,9.758-10.93l42.583-4.839c4.665-21.403,12.627-41.749,23.743-60.671l-25.776-32.386  c-3.484-4.377-3.128-10.672,0.828-14.628l47.69-47.689c3.956-3.956,10.252-4.313,14.629-0.828l31.061,24.723  c19.314-12.263,40.25-21.145,62.425-26.483l4.408-38.79C211.98,4.199,216.684,0,222.278,0h67.443c5.595,0,10.298,4.199,10.93,9.758  l4.408,38.789c22.175,5.338,43.111,14.221,62.425,26.484l31.061-24.723c4.378-3.484,10.672-3.128,14.629,0.828l47.689,47.689  c3.956,3.956,4.312,10.251,0.828,14.628l-25.776,32.386c11.116,18.922,19.078,39.267,23.743,60.671l42.583,4.839  c5.559,0.632,9.758,5.335,9.758,10.93v67.443c0,5.595-4.199,10.298-9.758,10.93l-44.995,5.113  c-5.372,19.881-13.637,38.738-24.646,56.232l29.091,36.55c3.484,4.377,3.128,10.672-0.828,14.628l-47.689,47.689  c-3.957,3.955-10.251,4.314-14.629,0.828l-37.904-30.169c-17.075,9.936-35.334,17.33-54.461,22.053l-5.529,48.666  C300.02,507.801,295.316,512,289.722,512z M232.1,490H279.9l5.303-46.666c0.537-4.725,4.049-8.57,8.705-9.531  c21.94-4.53,42.698-12.926,61.697-24.957c3.958-2.505,9.068-2.231,12.735,0.687l36.222,28.83l33.801-33.8l-27.934-35.096  c-3.009-3.779-3.199-9.079-0.47-13.065c13.198-19.275,22.534-40.53,27.749-63.175c1.047-4.544,4.845-7.935,9.477-8.461L490,279.901  V232.1l-40.815-4.638c-4.839-0.55-8.74-4.216-9.589-9.012c-4.271-24.114-13.138-46.828-26.354-67.51  c-2.532-3.962-2.266-9.095,0.662-12.773l24.458-30.729l-33.801-33.801l-29.634,23.586c-3.793,3.019-9.115,3.199-13.102,0.445  c-20.931-14.456-44.136-24.31-68.972-29.287c-4.686-0.939-8.229-4.796-8.769-9.543L279.9,22H232.1l-4.186,36.837  c-0.539,4.748-4.083,8.604-8.768,9.543c-24.837,4.978-48.043,14.832-68.973,29.287c-3.986,2.754-9.309,2.574-13.102-0.445  l-29.634-23.586l-33.801,33.801l24.458,30.729c2.928,3.679,3.194,8.811,0.663,12.773c-13.217,20.683-22.084,43.396-26.354,67.51  c-0.849,4.795-4.75,8.462-9.589,9.012L22,232.1v47.801l42.813,4.865c4.633,0.526,8.431,3.917,9.478,8.461  c5.215,22.646,14.551,43.9,27.749,63.175c2.729,3.986,2.539,9.286-0.47,13.065l-27.934,35.096l33.801,33.8l36.222-28.83  c3.667-2.918,8.779-3.192,12.735-0.687c18.999,12.03,39.757,20.427,61.697,24.957c4.656,0.961,8.168,4.807,8.705,9.531L232.1,490z   M501,289.722h0.01H501z"/>
<path style="fill:#33CCCC;" d="M256,398.665c-81.314,0-147.469-66.154-147.469-147.469c0-81.314,66.154-147.468,147.469-147.468  s147.469,66.154,147.469,147.468C403.469,332.511,337.315,398.665,256,398.665z M256,125.729  c-69.184,0-125.469,56.285-125.469,125.468S186.816,376.665,256,376.665s125.469-56.285,125.469-125.469  S325.184,125.729,256,125.729z"/>
<path d="M256,337.669c-47.682,0-86.473-38.792-86.473-86.473c0-47.681,38.791-86.472,86.473-86.472s86.473,38.791,86.473,86.472  C342.473,298.878,303.682,337.669,256,337.669z M256,186.725c-35.551,0-64.473,28.922-64.473,64.472s28.922,64.473,64.473,64.473  s64.473-28.922,64.473-64.473S291.551,186.725,256,186.725z"/>















</svg>
