<?xml version="1.0" encoding="iso-8859-1"?>
<!-- Generator: Adobe Illustrator 27.5.0, SVG Export Plug-In . SVG Version: 6.00 Build 0)  -->
<svg version="1.1" id="Layer_1" xmlns="http://www.w3.org/2000/svg" xmlns:xlink="http://www.w3.org/1999/xlink" x="0px" y="0px"
	 viewBox="0 0 512 512" style="enable-background:new 0 0 512 512;" xml:space="preserve">
<g>
	<g>
		<path d="M465.683,420.973C465.682,420.973,465.683,420.973,465.683,420.973c-8.364,0-16.382,2.254-23.365,6.474l-19.329-19.403
			l13.442-13.457c2.893-2.896,3.938-7.159,2.713-11.065l-9.124-29.101c8.007-14.154,14.236-29.199,18.566-44.84l26.979-14.105
			c3.629-1.897,5.903-5.653,5.903-9.748v-59.454c0-4.095-2.274-7.851-5.903-9.748l-26.979-14.105
			c-4.331-15.647-10.559-30.689-18.565-44.841l9.124-29.099c1.225-3.906,0.179-8.169-2.713-11.065l-13.443-13.458l19.329-19.404
			c6.983,4.221,15.001,6.474,23.365,6.474c12.13,0,23.531-4.74,32.104-13.346c17.669-17.737,17.669-46.599,0-64.336
			C489.214,4.74,477.813,0,465.683,0c-0.001,0,0,0,0,0c-12.129,0-23.532,4.74-32.105,13.346
			c-15.004,15.062-17.267,38.144-6.79,55.625l-19.347,19.421l-13.002-13.017c-2.898-2.901-7.169-3.95-11.081-2.72l-29.047,9.129
			c-14.132-8.014-29.155-14.249-44.778-18.582l-14.09-27.012c-1.896-3.634-5.654-5.913-9.753-5.913h-59.381
			c-4.099,0-7.857,2.279-9.753,5.913l-14.09,27.013c-15.628,4.335-30.648,10.569-44.776,18.582l-29.049-9.13
			c-3.912-1.229-8.183-0.181-11.081,2.721l-13.001,13.016L85.212,68.971c10.477-17.482,8.214-40.564-6.79-55.625
			C69.849,4.739,58.447,0,46.317,0c-12.13,0-23.531,4.74-32.104,13.346c-17.669,17.737-17.669,46.599,0,64.336
			c8.573,8.606,19.974,13.346,32.104,13.346c0.001,0,0,0,0,0c8.363,0,16.381-2.254,23.364-6.474l19.329,19.404l-13.443,13.458
			c-2.893,2.896-3.938,7.158-2.713,11.064l9.122,29.099c-8.005,14.148-14.233,29.192-18.564,44.843l-26.979,14.106
			c-3.629,1.897-5.903,5.653-5.903,9.748v59.452c0,4.095,2.274,7.851,5.903,9.748l26.979,14.105
			c4.329,15.644,10.558,30.689,18.564,44.841l-9.123,29.101c-1.224,3.905-0.179,8.168,2.714,11.063l13.442,13.458l-19.329,19.403
			c-6.983-4.221-15.001-6.474-23.365-6.474c-12.13,0-23.531,4.74-32.104,13.346c-17.669,17.737-17.669,46.599,0,64.336
			C22.786,507.26,34.187,512,46.317,512c0.001,0,0,0,0,0c12.129,0,23.532-4.74,32.105-13.346
			c15.004-15.062,17.267-38.144,6.79-55.625l19.346-19.42l13.001,13.016c2.898,2.901,7.17,3.95,11.081,2.72l29.05-9.129
			c14.13,8.013,29.15,14.246,44.776,18.581l14.09,27.013c1.896,3.634,5.654,5.913,9.753,5.913h59.381
			c4.099,0,7.857-2.279,9.753-5.913l14.09-27.013c15.625-4.335,30.646-10.568,44.777-18.581l29.048,9.129
			c3.912,1.229,8.183,0.181,11.081-2.72l13.003-13.017l19.346,19.421c-10.477,17.482-8.214,40.564,6.79,55.625
			c8.573,8.606,19.975,13.346,32.105,13.346c12.13,0,23.531-4.74,32.104-13.346c17.669-17.737,17.669-46.599,0-64.336
			C489.214,425.712,477.813,420.973,465.683,420.973z M449.164,28.872C453.579,24.44,459.445,22,465.683,22
			s12.104,2.44,16.519,6.872c9.141,9.176,9.141,24.107,0,33.283c-4.415,4.432-10.281,6.872-16.519,6.872s-12.104-2.44-16.519-6.872
			C440.023,52.979,440.023,38.048,449.164,28.872z M29.799,62.155c-9.141-9.176-9.141-24.107,0-33.283
			C34.213,24.44,40.08,22,46.317,22s12.104,2.44,16.519,6.872c9.141,9.176,9.141,24.107,0,33.283
			c-4.415,4.432-10.281,6.872-16.519,6.872S34.213,66.587,29.799,62.155z M62.836,483.128C58.421,487.56,52.555,490,46.317,490
			s-12.104-2.44-16.519-6.872c-9.141-9.176-9.141-24.107,0-33.283c4.415-4.432,10.281-6.872,16.519-6.872s12.104,2.44,16.519,6.872
			C71.977,459.021,71.977,473.952,62.836,483.128z M383.589,416.357l-27.323-8.587c-3.001-0.943-6.264-0.556-8.962,1.064
			c-14.946,8.978-31.079,15.672-47.949,19.897c-3.05,0.764-5.626,2.796-7.081,5.583l-13.253,25.408h-46.044l-13.253-25.408
			c-1.454-2.787-4.031-4.819-7.081-5.583c-16.872-4.225-33.003-10.919-47.947-19.896c-2.698-1.621-5.96-2.008-8.962-1.065
			l-27.325,8.587l-32.57-32.608l8.583-27.378c0.939-2.996,0.553-6.25-1.061-8.944c-8.969-14.968-15.656-31.122-19.876-48.012
			c-0.762-3.048-2.791-5.625-5.575-7.082L52.53,279.065v-46.129l25.379-13.27c2.785-1.456,4.813-4.033,5.575-7.082
			c4.222-16.897,10.909-33.051,19.875-48.012c1.614-2.693,2-5.949,1.062-8.945l-8.583-27.376l32.57-32.608l27.325,8.588
			c3.002,0.943,6.266,0.556,8.963-1.065c14.94-8.977,31.071-15.671,47.946-19.897c3.05-0.764,5.626-2.796,7.081-5.583l13.253-25.408
			h46.044l13.253,25.408c1.454,2.788,4.031,4.82,7.082,5.583c16.868,4.223,33,10.917,47.948,19.897
			c2.697,1.621,5.96,2.008,8.963,1.064l27.323-8.587l32.571,32.608l-8.583,27.376c-0.939,2.997-0.554,6.251,1.061,8.945
			c8.969,14.966,15.656,31.12,19.877,48.012c0.762,3.049,2.791,5.626,5.575,7.082l25.379,13.269v46.13l-25.379,13.269
			c-2.785,1.456-4.814,4.033-5.576,7.081c-4.22,16.888-10.908,33.042-19.878,48.013c-1.614,2.693-2,5.948-1.06,8.944l8.583,27.377
			L383.589,416.357z M482.201,483.128C477.787,487.56,471.92,490,465.683,490s-12.104-2.44-16.519-6.872
			c-9.141-9.176-9.141-24.107,0-33.283c4.415-4.432,10.281-6.872,16.519-6.872s12.104,2.44,16.519,6.872
			C491.342,459.021,491.342,473.952,482.201,483.128z"/>
		<path d="M256,113.558c-78.529,0-142.418,63.899-142.418,142.442S177.471,398.442,256,398.442S398.418,334.543,398.418,256
			S334.529,113.558,256,113.558z M256,376.442c-66.399,0-120.418-54.03-120.418-120.442S189.601,135.558,256,135.558
			S376.418,189.588,376.418,256S322.399,376.442,256,376.442z"/>
	</g>
	<g>
		<path style="fill:#33CCCC;" d="M215.95,217.376c-0.038-0.102-0.078-0.203-0.119-0.304c-1.952-4.757-6.531-7.83-11.67-7.83h-0.014
			c-5.145,0.006-9.724,3.089-11.667,7.854c-0.034,0.083-0.067,0.167-0.099,0.251l-26.751,70.508
			c-2.155,5.68,0.703,12.032,6.383,14.187c5.678,2.154,12.031-0.703,14.187-6.383l1.149-3.027h33.391l1.126,2.996
			c1.659,4.412,5.848,7.132,10.298,7.132c1.286,0,2.594-0.227,3.869-0.707c5.687-2.138,8.563-8.48,6.426-14.167L215.95,217.376z
			 M195.695,270.632l8.425-22.207l8.348,22.207H195.695z"/>
		<path style="fill:#33CCCC;" d="M336.085,209.242c-6.075,0-11,4.925-11,11v71.516c0,6.075,4.925,11,11,11s11-4.925,11-11v-71.516
			C347.085,214.167,342.161,209.242,336.085,209.242z"/>
		<path style="fill:#33CCCC;" d="M283.373,209.242h-19.837c-6.075,0-11,4.925-11,11v71.516c0,6.075,4.925,11,11,11s11-4.925,11-11
			v-20.123c3.371-0.016,6.744-0.029,8.837-0.029c17.368,0,31.498-13.988,31.498-31.182S300.741,209.242,283.373,209.242z
			 M283.373,249.605c-2.095,0-5.462,0.013-8.837,0.029v-18.392h8.837c5.148,0,9.498,4.205,9.498,9.182
			S288.521,249.605,283.373,249.605z"/>
	</g>
</g>
<g>
</g>
<g>
</g>
<g>
</g>
<g>
</g>
<g>
</g>
<g>
</g>
<g>
</g>
<g>
</g>
<g>
</g>
<g>
</g>
<g>
</g>
<g>
</g>
<g>
</g>
<g>
</g>
<g>
</g>
</svg>
