<?xml version="1.0" encoding="UTF-8"?>
<!-- Generator: Adobe Illustrator 27.2.0, SVG Export Plug-In . SVG Version: 6.00 Build 0)  -->
<svg xmlns="http://www.w3.org/2000/svg" xmlns:xlink="http://www.w3.org/1999/xlink" version="1.1" id="Capa_1" x="0px" y="0px" viewBox="0 0 512.002 512.002" style="enable-background:new 0 0 512.002 512.002;" xml:space="preserve" width="512" height="512">
<g>
	<path d="M388.815,320.681c-5.052-3.37-11.884-2.008-15.255,3.046c-35.151,52.692-92.786,82.912-158.125,82.912   c-106.045,0-192.319-86.275-192.319-192.32S109.391,22,215.436,22c65.338,0,122.973,30.221,158.125,82.914   c3.372,5.054,10.201,6.416,15.255,3.046c5.054-3.372,6.418-10.202,3.046-15.255C352.559,33.79,288.254,0,215.436,0   C158.188,0,104.368,22.293,63.889,62.772s-62.772,94.3-62.772,151.547c0,57.247,22.293,111.067,62.772,151.547   c19.6,19.6,42.334,34.922,67.064,45.529L86.993,490H52.78c-6.075,0-11,4.925-11,11s4.925,11,11,11h40.623   c0.01,0,0.021,0.002,0.031,0.002c0.01,0,0.02-0.002,0.03-0.002h243.943c0.01,0,0.02,0.002,0.03,0.002   c0.01,0,0.021-0.002,0.031-0.002h40.622c6.075,0,11-4.925,11-11s-4.925-11-11-11h-34.212l-43.671-78.089   c36.933-15.519,68.599-41.417,91.653-75.975C395.233,330.882,393.869,324.052,388.815,320.681z M318.673,490H112.199l39.658-70.911   c20.324,6.283,41.699,9.55,63.579,9.55c22.209,0,43.619-3.16,63.777-9.2L318.673,490z"/>
	<path d="M399.772,311.728c-1.645,0-3.402,2.545-4.976,1.762c-5.439-2.705-7.656-9.308-4.951-14.747   c12.052-24.232,17.91-51.848,17.91-84.424c0-31.299-5.431-55.573-18.16-81.169c-2.705-5.44-0.488-12.042,4.951-14.747   c5.441-2.707,12.043-0.488,14.748,4.951c14.15,28.455,20.461,56.509,20.461,90.965c0,36.054-6.611,66.874-20.211,94.221   C407.621,312.406,403.816,311.728,399.772,311.728z"/>
	<g>
		<path style="fill:#33CCCC;" d="M215.436,367.643c-84.543,0-153.323-68.781-153.323-153.324    c0-84.543,68.78-153.323,153.323-153.323c84.543,0,153.323,68.78,153.323,153.323    C368.759,298.862,299.978,367.643,215.436,367.643z M215.436,82.996c-72.412,0-131.323,58.911-131.323,131.323    s58.911,131.324,131.323,131.324s131.323-58.912,131.323-131.324S287.848,82.996,215.436,82.996z"/>
		<path style="fill:#33CCCC;" d="M215.436,306.647c-50.91,0-92.328-41.418-92.328-92.328c0-50.91,41.418-92.328,92.328-92.328    c50.91,0,92.328,41.418,92.328,92.328C307.764,265.229,266.346,306.647,215.436,306.647z M215.436,143.992    c-38.779,0-70.328,31.549-70.328,70.328s31.549,70.328,70.328,70.328s70.328-31.549,70.328-70.328    S254.215,143.992,215.436,143.992z"/>
		<g>
			<g>
				<path d="M388.211,301.37l-150.775-87.051l150.775-87.05c5.261-3.038,7.063-9.765,4.026-15.026      c-3.038-5.26-9.763-7.064-15.026-4.026l-167.275,96.577c-7.261,3.911-7.204,15.273,0.098,19.109l167.177,96.521      c1.732,1,3.623,1.475,5.489,1.475c3.802,0,7.5-1.973,9.537-5.502C395.274,311.135,393.473,304.408,388.211,301.37z"/>
				<g>
					<path style="fill:#33CCCC;" d="M459.222,413.024c-1.897,0-3.795-0.489-5.5-1.474l-70.431-40.664       c-2.998-1.731-5.007-4.773-5.421-8.21l-6.08-50.464c-0.585-4.854,2.104-9.511,6.6-11.432l46.744-19.967       c3.186-1.359,6.822-1.142,9.821,0.589l70.431,40.663c3.608,2.084,5.729,6.026,5.48,10.186c-0.25,4.159-2.828,7.82-6.659,9.457       l-39.157,16.726l5.093,42.275c0.498,4.136-1.383,8.2-4.86,10.495C463.448,412.415,461.337,413.024,459.222,413.024z        M399.054,354.585l46.615,26.913l-3.448-28.622c-0.585-4.854,2.104-9.511,6.6-11.432l26.513-11.325l-46.615-26.913       l-34.099,14.565L399.054,354.585z"/>
				</g>
			</g>
		</g>
		<g>
			<path style="fill:#33CCCC;" d="M394.619,110.868l34.099,14.565l46.615-26.913l-26.512-11.325c-4.495-1.92-7.185-6.578-6.6-11.431     l3.448-28.624l-46.616,26.914L394.619,110.868z M429.455,148.71c-1.467,0-2.936-0.293-4.321-0.884l-46.744-19.967     c-4.496-1.92-7.185-6.578-6.6-11.432l6.08-50.465c0.414-3.438,2.423-6.479,5.421-8.21l70.431-40.663     c3.609-2.085,8.084-1.949,11.561,0.347c3.477,2.296,5.358,6.359,4.86,10.496l-5.093,42.273l39.157,16.727     c3.831,1.637,6.409,5.298,6.659,9.457c0.249,4.159-1.872,8.102-5.48,10.185l-70.431,40.663     C433.26,148.214,431.36,148.71,429.455,148.71z"/>
		</g>
	</g>
</g>















</svg>
