<?xml version="1.0" encoding="iso-8859-1"?>
<!-- Generator: Adobe Illustrator 27.0.0, SVG Export Plug-In . SVG Version: 6.00 Build 0)  -->
<svg version="1.1" id="Capa_1" xmlns="http://www.w3.org/2000/svg" xmlns:xlink="http://www.w3.org/1999/xlink" x="0px" y="0px"
	 viewBox="0 0 512.001 512.001" style="enable-background:new 0 0 512.001 512.001;" xml:space="preserve">
<g>
	<g>
		<path style="fill:#33CCCC;" d="M56.007,99.5c6.075,0,11-4.925,11-11s-4.925-11-11-11H56c-6.075,0-10.997,4.925-10.997,11
			S49.932,99.5,56.007,99.5z"/>
		<path style="fill:#33CCCC;" d="M101.007,99.5c6.075,0,11-4.925,11-11s-4.925-11-11-11H101c-6.075,0-10.996,4.925-10.996,11
			S94.932,99.5,101.007,99.5z"/>
		<path style="fill:#33CCCC;" d="M146.007,99.5c6.075,0,11-4.925,11-11s-4.925-11-11-11H146c-6.075,0-10.996,4.925-10.996,11
			S139.932,99.5,146.007,99.5z"/>
		<path style="fill:#33CCCC;" d="M389.322,177.5H56c-6.075,0-11,4.925-11,11v161.63c0,6.075,4.925,11,11,11h262.1
			c6.075,0,11-4.925,11-11s-4.925-11-11-11H67V199.5h311.322v89c0,6.075,4.925,11,11,11s11-4.925,11-11v-100
			C400.322,182.425,395.397,177.5,389.322,177.5z"/>
	</g>
	<g>
		<path d="M507.518,395.129l-12.533-9.22c0.224-2.46,0.336-4.936,0.336-7.409c0-2.487-0.114-4.978-0.341-7.455l12.538-9.224
			c4.515-3.321,5.811-9.506,3.008-14.36l-22.499-38.971c-2.803-4.854-8.81-6.827-13.94-4.575l-15.456,6.771
			c-3.653-2.393-7.486-4.48-11.471-6.248l-1.838-16.546V43.5c0-6.075-4.925-11-11-11H11c-6.075,0-11,4.925-11,11v361.63
			c0,6.075,4.925,11,11,11h305.923l18.666,32.331c2.803,4.854,8.809,6.825,13.94,4.575l18.466-8.09
			c2.633,1.839,5.37,3.518,8.2,5.029l2.193,19.739c0.619,5.571,5.327,9.785,10.933,9.785h45c5.605,0,10.313-4.215,10.933-9.786
			l1.905-17.152c4.002-1.775,7.849-3.872,11.516-6.277l15.41,6.751c5.131,2.249,11.137,0.28,13.94-4.575l22.5-38.971
			C513.329,404.636,512.033,398.451,507.518,395.129z M423.322,54.5v23H205.999c-3.395,0-6.599,1.567-8.683,4.247L165.62,122.5H22
			v-68H423.322z M313.089,347.461c-2.803,4.854-1.507,11.039,3.008,14.36l17.321,12.743c-0.063,1.313-0.096,2.627-0.096,3.936
			c0,1.293,0.031,2.591,0.093,3.889l-15.96,11.741H22V144.5h149c3.395,0,6.599-1.567,8.683-4.247L211.379,99.5h211.943v178h-34
			c-5.605,0-10.313,4.214-10.933,9.785l-2.193,19.739c-2.815,1.504-5.538,3.173-8.158,4.999l-18.508-8.109
			c-5.131-2.25-11.137-0.28-13.94,4.575L313.089,347.461z M472.388,367.988c0.619,3.447,0.933,6.983,0.933,10.512
			c0,3.522-0.312,7.045-0.926,10.473c-0.739,4.127,0.933,8.315,4.31,10.8l9.846,7.243l-12.654,21.918l-12.116-5.309
			c-3.703-1.623-7.999-1.083-11.185,1.406c-5.197,4.059-10.981,7.192-17.191,9.313c-4.032,1.378-6.906,4.96-7.377,9.195
			l-1.551,13.959h-25.309l-1.776-15.986c-0.436-3.918-2.934-7.303-6.55-8.874c-5.151-2.238-9.957-5.204-14.284-8.813
			c-3.202-2.672-7.641-3.303-11.461-1.628l-15.377,6.737l-12.654-21.918l14.363-10.566c3.224-2.372,4.904-6.307,4.391-10.275
			c-0.329-2.537-0.496-5.119-0.496-7.675c0-2.569,0.168-5.164,0.5-7.712c0.519-3.971-1.163-7.909-4.389-10.282l-14.369-10.571
			l12.654-21.918l15.415,6.754c3.817,1.673,8.252,1.044,11.455-1.624c4.315-3.596,9.111-6.551,14.253-8.786
			c3.615-1.571,6.113-4.957,6.549-8.874l1.776-15.986h25.309l1.551,13.959c0.471,4.235,3.344,7.817,7.376,9.195
			c6.196,2.117,11.97,5.242,17.159,9.289c3.187,2.485,7.479,3.021,11.178,1.4l12.157-5.326l12.653,21.918l-9.854,7.25
			C473.319,359.67,471.647,363.86,472.388,367.988z"/>
		<path d="M414.19,343.816c-19.125,0-34.685,15.56-34.685,34.685s15.56,34.684,34.685,34.684s34.684-15.559,34.684-34.684
			S433.315,343.816,414.19,343.816z M414.19,391.184c-6.994,0-12.685-5.69-12.685-12.684s5.69-12.685,12.685-12.685
			s12.684,5.69,12.684,12.685S421.184,391.184,414.19,391.184z"/>
		<path d="M242.595,234.789c-5.261-3.036-11.988-1.235-15.026,4.026l-28.868,50c-3.038,5.261-1.235,11.989,4.026,15.026
			c1.732,1,3.624,1.476,5.49,1.476c3.801,0,7.499-1.973,9.537-5.502l28.868-50C249.659,244.554,247.856,237.826,242.595,234.789z"/>
		<path d="M171.006,236.537c-4.296-4.296-11.261-4.295-15.557,0l-25,25c-4.295,4.296-4.295,11.261,0,15.557l25,25
			c2.148,2.148,4.963,3.222,7.778,3.222c2.815,0,5.63-1.074,7.778-3.222c4.295-4.296,4.296-11.261,0-15.557l-17.222-17.222
			l17.222-17.222C175.302,247.798,175.301,240.833,171.006,236.537z"/>
		<path d="M289.874,236.537c-4.296-4.296-11.259-4.296-15.557,0c-4.296,4.296-4.296,11.26,0,15.556l17.222,17.222l-17.222,17.222
			c-4.296,4.296-4.296,11.26,0,15.556c2.148,2.148,4.963,3.222,7.778,3.222s5.631-1.074,7.778-3.222l24.999-25
			c4.296-4.295,4.296-11.26,0-15.556L289.874,236.537z"/>
	</g>
</g>
<g>
</g>
<g>
</g>
<g>
</g>
<g>
</g>
<g>
</g>
<g>
</g>
<g>
</g>
<g>
</g>
<g>
</g>
<g>
</g>
<g>
</g>
<g>
</g>
<g>
</g>
<g>
</g>
<g>
</g>
</svg>
